%TF.GenerationSoftware,KiCad,Pcbnew,(5.1.9)-1*%
%TF.CreationDate,2021-12-11T18:31:37-05:00*%
%TF.ProjectId,LN-Stepper_v1_2,4c4e2d53-7465-4707-9065-725f76315f32,rev?*%
%TF.SameCoordinates,Original*%
%TF.FileFunction,Soldermask,Top*%
%TF.FilePolarity,Negative*%
%FSLAX46Y46*%
G04 Gerber Fmt 4.6, Leading zero omitted, Abs format (unit mm)*
G04 Created by KiCad (PCBNEW (5.1.9)-1) date 2021-12-11 18:31:37*
%MOMM*%
%LPD*%
G01*
G04 APERTURE LIST*
%ADD10R,1.700000X1.700000*%
%ADD11O,1.700000X1.700000*%
%ADD12O,1.500000X1.050000*%
%ADD13R,1.500000X1.050000*%
%ADD14C,3.200000*%
%ADD15R,3.500000X3.500000*%
%ADD16O,1.050000X1.500000*%
%ADD17R,1.050000X1.500000*%
%ADD18C,3.251200*%
%ADD19C,1.701800*%
%ADD20O,1.600000X1.600000*%
%ADD21C,1.600000*%
%ADD22R,1.600000X1.600000*%
%ADD23C,2.082800*%
%ADD24R,2.400000X1.600000*%
%ADD25O,2.400000X1.600000*%
%ADD26R,1.800000X1.800000*%
%ADD27C,1.800000*%
%ADD28R,1.905000X2.000000*%
%ADD29O,1.905000X2.000000*%
%ADD30R,2.400000X2.400000*%
%ADD31C,2.400000*%
G04 APERTURE END LIST*
D10*
X120150000Y-91650000D03*
D11*
X120150000Y-89110000D03*
D12*
X143500000Y-93730000D03*
X143500000Y-92460000D03*
D13*
X143500000Y-95000000D03*
D14*
X191000000Y-129000000D03*
G36*
G01*
X179115000Y-121710000D02*
X177365000Y-121710000D01*
G75*
G02*
X176490000Y-120835000I0J875000D01*
G01*
X176490000Y-119085000D01*
G75*
G02*
X177365000Y-118210000I875000J0D01*
G01*
X179115000Y-118210000D01*
G75*
G02*
X179990000Y-119085000I0J-875000D01*
G01*
X179990000Y-120835000D01*
G75*
G02*
X179115000Y-121710000I-875000J0D01*
G01*
G37*
G36*
G01*
X174540000Y-124460000D02*
X172540000Y-124460000D01*
G75*
G02*
X171790000Y-123710000I0J750000D01*
G01*
X171790000Y-122210000D01*
G75*
G02*
X172540000Y-121460000I750000J0D01*
G01*
X174540000Y-121460000D01*
G75*
G02*
X175290000Y-122210000I0J-750000D01*
G01*
X175290000Y-123710000D01*
G75*
G02*
X174540000Y-124460000I-750000J0D01*
G01*
G37*
D15*
X173540000Y-116960000D03*
D14*
X191000000Y-73000000D03*
X115000000Y-129000000D03*
X115000000Y-73000000D03*
D16*
X166370000Y-112880000D03*
X167640000Y-112880000D03*
D17*
X165100000Y-112880000D03*
D18*
X155111000Y-123843600D03*
X144951000Y-123843600D03*
D19*
X153206000Y-117493600D03*
X146856000Y-114953600D03*
X151936000Y-114953600D03*
X148126000Y-117493600D03*
X149396000Y-114953600D03*
X150666000Y-117493600D03*
D20*
X165460000Y-106000000D03*
D21*
X168000000Y-106000000D03*
D20*
X125980000Y-101740000D03*
X125980000Y-86500000D03*
X161540000Y-101740000D03*
X128520000Y-86500000D03*
X159000000Y-101740000D03*
X131060000Y-86500000D03*
X156460000Y-101740000D03*
X133600000Y-86500000D03*
X153920000Y-101740000D03*
X136140000Y-86500000D03*
X151380000Y-101740000D03*
X138680000Y-86500000D03*
X148840000Y-101740000D03*
X141220000Y-86500000D03*
X146300000Y-101740000D03*
X143760000Y-86500000D03*
X143760000Y-101740000D03*
X146300000Y-86500000D03*
X141220000Y-101740000D03*
X148840000Y-86500000D03*
X138680000Y-101740000D03*
X151380000Y-86500000D03*
X136140000Y-101740000D03*
X153920000Y-86500000D03*
X133600000Y-101740000D03*
X156460000Y-86500000D03*
X131060000Y-101740000D03*
X159000000Y-86500000D03*
X128520000Y-101740000D03*
D22*
X161540000Y-86500000D03*
D18*
X137260000Y-123840000D03*
X127100000Y-123840000D03*
D19*
X135355000Y-117490000D03*
X129005000Y-114950000D03*
X134085000Y-114950000D03*
X130275000Y-117490000D03*
X131545000Y-114950000D03*
X132815000Y-117490000D03*
D23*
X159102200Y-113000000D03*
X161997800Y-113000000D03*
D24*
X163560000Y-97883200D03*
D25*
X155940000Y-90263200D03*
X163560000Y-95343200D03*
X155940000Y-92803200D03*
X163560000Y-92803200D03*
X155940000Y-95343200D03*
X163560000Y-90263200D03*
X155940000Y-97883200D03*
D26*
X120000000Y-114500000D03*
D27*
X122540000Y-114500000D03*
D11*
X125940000Y-109000000D03*
X128480000Y-109000000D03*
X131020000Y-109000000D03*
X133560000Y-109000000D03*
X136100000Y-109000000D03*
X138640000Y-109000000D03*
X141180000Y-109000000D03*
X143720000Y-109000000D03*
X146260000Y-109000000D03*
X148800000Y-109000000D03*
X151340000Y-109000000D03*
X153880000Y-109000000D03*
X156420000Y-109000000D03*
X158960000Y-109000000D03*
D10*
X161500000Y-109000000D03*
D11*
X125940000Y-106500000D03*
X128480000Y-106500000D03*
X131020000Y-106500000D03*
X133560000Y-106500000D03*
X136100000Y-106500000D03*
X138640000Y-106500000D03*
X141180000Y-106500000D03*
X143720000Y-106500000D03*
X146260000Y-106500000D03*
X148800000Y-106500000D03*
X151340000Y-106500000D03*
X153880000Y-106500000D03*
X156420000Y-106500000D03*
X158960000Y-106500000D03*
D10*
X161500000Y-106500000D03*
X161601600Y-81000000D03*
D11*
X159061600Y-81000000D03*
X156521600Y-81000000D03*
X153981600Y-81000000D03*
X151441600Y-81000000D03*
X148901600Y-81000000D03*
X146361600Y-81000000D03*
X143821600Y-81000000D03*
X141281600Y-81000000D03*
X138741600Y-81000000D03*
X136201600Y-81000000D03*
X133661600Y-81000000D03*
X131121600Y-81000000D03*
X128581600Y-81000000D03*
X126041600Y-81000000D03*
D10*
X161601600Y-75988400D03*
D11*
X159061600Y-75988400D03*
X156521600Y-75988400D03*
X153981600Y-75988400D03*
X151441600Y-75988400D03*
X148901600Y-75988400D03*
X146361600Y-75988400D03*
X143821600Y-75988400D03*
X141281600Y-75988400D03*
X138741600Y-75988400D03*
X136201600Y-75988400D03*
X133661600Y-75988400D03*
X131121600Y-75988400D03*
X128581600Y-75988400D03*
X126041600Y-75988400D03*
D10*
X141296000Y-78477600D03*
X133676000Y-78477600D03*
X131136000Y-78500000D03*
X128596000Y-78503000D03*
X143810600Y-78477600D03*
X148916000Y-78500000D03*
D20*
X136000000Y-90380000D03*
D21*
X136000000Y-98000000D03*
X130000000Y-90568000D03*
D20*
X130000000Y-98188000D03*
X148789000Y-90237800D03*
D21*
X148789000Y-97857800D03*
X133000000Y-90500000D03*
D20*
X133000000Y-98120000D03*
D21*
X124000000Y-98270000D03*
D20*
X124000000Y-90650000D03*
D21*
X139000000Y-90466400D03*
D20*
X139000000Y-98086400D03*
X127000000Y-90610000D03*
D21*
X127000000Y-98230000D03*
X122500000Y-102000000D03*
D20*
X122500000Y-109620000D03*
D22*
X186500000Y-76500000D03*
D20*
X168720000Y-89200000D03*
X183960000Y-76500000D03*
X171260000Y-89200000D03*
X181420000Y-76500000D03*
X173800000Y-89200000D03*
X178880000Y-76500000D03*
X176340000Y-89200000D03*
X176340000Y-76500000D03*
X178880000Y-89200000D03*
X173800000Y-76500000D03*
X181420000Y-89200000D03*
X171260000Y-76500000D03*
X183960000Y-89200000D03*
X168720000Y-76500000D03*
X186500000Y-89200000D03*
D22*
X185000000Y-102000000D03*
D21*
X181200000Y-102000000D03*
D22*
X176000000Y-102000000D03*
D21*
X171000000Y-102000000D03*
D10*
X181500000Y-73000000D03*
D11*
X178960000Y-73000000D03*
X176420000Y-73000000D03*
X173880000Y-73000000D03*
D28*
X178800000Y-109140000D03*
D29*
X176260000Y-109140000D03*
X173720000Y-109140000D03*
D30*
X161000000Y-124000000D03*
D31*
X164500000Y-124000000D03*
D10*
X171500000Y-95000000D03*
D11*
X171500000Y-92460000D03*
X174040000Y-95000000D03*
X174040000Y-92460000D03*
X176580000Y-95000000D03*
X176580000Y-92460000D03*
X179120000Y-95000000D03*
X179120000Y-92460000D03*
X181660000Y-95000000D03*
X181660000Y-92460000D03*
D21*
X152390000Y-97780000D03*
D20*
X152390000Y-90160000D03*
D10*
X117310000Y-78290000D03*
D11*
X117310000Y-80830000D03*
X117310000Y-83370000D03*
X117310000Y-85910000D03*
X123170000Y-121410000D03*
X120630000Y-121410000D03*
X118090000Y-121410000D03*
D10*
X115550000Y-121410000D03*
X179980000Y-124360000D03*
D11*
X182520000Y-124360000D03*
X185060000Y-124360000D03*
X187600000Y-124360000D03*
M02*
