%TF.GenerationSoftware,KiCad,Pcbnew,(5.1.9)-1*%
%TF.CreationDate,2021-11-26T16:09:59-05:00*%
%TF.ProjectId,LN-Stepper_v1b,4c4e2d53-7465-4707-9065-725f7631622e,rev?*%
%TF.SameCoordinates,Original*%
%TF.FileFunction,Legend,Top*%
%TF.FilePolarity,Positive*%
%FSLAX46Y46*%
G04 Gerber Fmt 4.6, Leading zero omitted, Abs format (unit mm)*
G04 Created by KiCad (PCBNEW (5.1.9)-1) date 2021-11-26 16:09:59*
%MOMM*%
%LPD*%
G01*
G04 APERTURE LIST*
%ADD10C,0.080000*%
%ADD11C,0.100000*%
%ADD12C,0.081280*%
%ADD13C,0.065024*%
%ADD14C,0.300000*%
%ADD15C,0.113792*%
%ADD16C,0.120000*%
%ADD17C,0.203200*%
%ADD18C,0.050800*%
%ADD19C,0.150000*%
%ADD20C,0.077216*%
%ADD21O,1.500000X1.050000*%
%ADD22R,1.500000X1.050000*%
%ADD23C,3.200000*%
%ADD24R,3.500000X3.500000*%
%ADD25O,1.050000X1.500000*%
%ADD26R,1.050000X1.500000*%
%ADD27C,3.251200*%
%ADD28C,1.701800*%
%ADD29O,1.600000X1.600000*%
%ADD30C,1.600000*%
%ADD31R,1.600000X1.600000*%
%ADD32C,2.082800*%
%ADD33R,2.400000X1.600000*%
%ADD34O,2.400000X1.600000*%
%ADD35R,1.800000X1.800000*%
%ADD36C,1.800000*%
%ADD37O,1.700000X1.700000*%
%ADD38R,1.700000X1.700000*%
%ADD39R,1.905000X2.000000*%
%ADD40O,1.905000X2.000000*%
%ADD41R,2.400000X2.400000*%
%ADD42C,2.400000*%
G04 APERTURE END LIST*
D10*
X126231904Y-73331427D02*
X125431904Y-73331427D01*
X125431904Y-73140951D01*
X125470000Y-73026665D01*
X125546190Y-72950475D01*
X125622380Y-72912379D01*
X125774761Y-72874284D01*
X125889047Y-72874284D01*
X126041428Y-72912379D01*
X126117619Y-72950475D01*
X126193809Y-73026665D01*
X126231904Y-73140951D01*
X126231904Y-73331427D01*
X126231904Y-72112379D02*
X126231904Y-72569522D01*
X126231904Y-72340951D02*
X125431904Y-72340951D01*
X125546190Y-72417141D01*
X125622380Y-72493332D01*
X125660476Y-72569522D01*
X125508095Y-71807618D02*
X125470000Y-71769522D01*
X125431904Y-71693332D01*
X125431904Y-71502856D01*
X125470000Y-71426665D01*
X125508095Y-71388570D01*
X125584285Y-71350475D01*
X125660476Y-71350475D01*
X125774761Y-71388570D01*
X126231904Y-71845713D01*
X126231904Y-71350475D01*
X128786904Y-73636190D02*
X127986904Y-73636190D01*
X127986904Y-73445714D01*
X128025000Y-73331428D01*
X128101190Y-73255238D01*
X128177380Y-73217142D01*
X128329761Y-73179047D01*
X128444047Y-73179047D01*
X128596428Y-73217142D01*
X128672619Y-73255238D01*
X128748809Y-73331428D01*
X128786904Y-73445714D01*
X128786904Y-73636190D01*
X128786904Y-72417142D02*
X128786904Y-72874285D01*
X128786904Y-72645714D02*
X127986904Y-72645714D01*
X128101190Y-72721904D01*
X128177380Y-72798095D01*
X128215476Y-72874285D01*
X128786904Y-71655238D02*
X128786904Y-72112380D01*
X128786904Y-71883809D02*
X127986904Y-71883809D01*
X128101190Y-71960000D01*
X128177380Y-72036190D01*
X128215476Y-72112380D01*
X127986904Y-71198095D02*
X128177380Y-71198095D01*
X128101190Y-71388571D02*
X128177380Y-71198095D01*
X128101190Y-71007619D01*
X128329761Y-71312380D02*
X128177380Y-71198095D01*
X128329761Y-71083809D01*
X131341904Y-73636190D02*
X130541904Y-73636190D01*
X130541904Y-73445714D01*
X130580000Y-73331428D01*
X130656190Y-73255238D01*
X130732380Y-73217142D01*
X130884761Y-73179047D01*
X130999047Y-73179047D01*
X131151428Y-73217142D01*
X131227619Y-73255238D01*
X131303809Y-73331428D01*
X131341904Y-73445714D01*
X131341904Y-73636190D01*
X131341904Y-72417142D02*
X131341904Y-72874285D01*
X131341904Y-72645714D02*
X130541904Y-72645714D01*
X130656190Y-72721904D01*
X130732380Y-72798095D01*
X130770476Y-72874285D01*
X130541904Y-71921904D02*
X130541904Y-71845714D01*
X130580000Y-71769523D01*
X130618095Y-71731428D01*
X130694285Y-71693333D01*
X130846666Y-71655238D01*
X131037142Y-71655238D01*
X131189523Y-71693333D01*
X131265714Y-71731428D01*
X131303809Y-71769523D01*
X131341904Y-71845714D01*
X131341904Y-71921904D01*
X131303809Y-71998095D01*
X131265714Y-72036190D01*
X131189523Y-72074285D01*
X131037142Y-72112380D01*
X130846666Y-72112380D01*
X130694285Y-72074285D01*
X130618095Y-72036190D01*
X130580000Y-71998095D01*
X130541904Y-71921904D01*
X130541904Y-71198095D02*
X130732380Y-71198095D01*
X130656190Y-71388571D02*
X130732380Y-71198095D01*
X130656190Y-71007619D01*
X130884761Y-71312380D02*
X130732380Y-71198095D01*
X130884761Y-71083809D01*
X133896904Y-73255238D02*
X133096904Y-73255238D01*
X133096904Y-73064761D01*
X133135000Y-72950476D01*
X133211190Y-72874285D01*
X133287380Y-72836190D01*
X133439761Y-72798095D01*
X133554047Y-72798095D01*
X133706428Y-72836190D01*
X133782619Y-72874285D01*
X133858809Y-72950476D01*
X133896904Y-73064761D01*
X133896904Y-73255238D01*
X133896904Y-72417142D02*
X133896904Y-72264761D01*
X133858809Y-72188571D01*
X133820714Y-72150476D01*
X133706428Y-72074285D01*
X133554047Y-72036190D01*
X133249285Y-72036190D01*
X133173095Y-72074285D01*
X133135000Y-72112380D01*
X133096904Y-72188571D01*
X133096904Y-72340952D01*
X133135000Y-72417142D01*
X133173095Y-72455238D01*
X133249285Y-72493333D01*
X133439761Y-72493333D01*
X133515952Y-72455238D01*
X133554047Y-72417142D01*
X133592142Y-72340952D01*
X133592142Y-72188571D01*
X133554047Y-72112380D01*
X133515952Y-72074285D01*
X133439761Y-72036190D01*
X133096904Y-71579047D02*
X133287380Y-71579047D01*
X133211190Y-71769523D02*
X133287380Y-71579047D01*
X133211190Y-71388571D01*
X133439761Y-71693333D02*
X133287380Y-71579047D01*
X133439761Y-71464761D01*
X136451904Y-72950476D02*
X135651904Y-72950476D01*
X135651904Y-72760000D01*
X135690000Y-72645714D01*
X135766190Y-72569523D01*
X135842380Y-72531428D01*
X135994761Y-72493333D01*
X136109047Y-72493333D01*
X136261428Y-72531428D01*
X136337619Y-72569523D01*
X136413809Y-72645714D01*
X136451904Y-72760000D01*
X136451904Y-72950476D01*
X135994761Y-72036190D02*
X135956666Y-72112380D01*
X135918571Y-72150476D01*
X135842380Y-72188571D01*
X135804285Y-72188571D01*
X135728095Y-72150476D01*
X135690000Y-72112380D01*
X135651904Y-72036190D01*
X135651904Y-71883809D01*
X135690000Y-71807619D01*
X135728095Y-71769523D01*
X135804285Y-71731428D01*
X135842380Y-71731428D01*
X135918571Y-71769523D01*
X135956666Y-71807619D01*
X135994761Y-71883809D01*
X135994761Y-72036190D01*
X136032857Y-72112380D01*
X136070952Y-72150476D01*
X136147142Y-72188571D01*
X136299523Y-72188571D01*
X136375714Y-72150476D01*
X136413809Y-72112380D01*
X136451904Y-72036190D01*
X136451904Y-71883809D01*
X136413809Y-71807619D01*
X136375714Y-71769523D01*
X136299523Y-71731428D01*
X136147142Y-71731428D01*
X136070952Y-71769523D01*
X136032857Y-71807619D01*
X135994761Y-71883809D01*
X139006904Y-72950476D02*
X138206904Y-72950476D01*
X138206904Y-72760000D01*
X138245000Y-72645714D01*
X138321190Y-72569523D01*
X138397380Y-72531428D01*
X138549761Y-72493333D01*
X138664047Y-72493333D01*
X138816428Y-72531428D01*
X138892619Y-72569523D01*
X138968809Y-72645714D01*
X139006904Y-72760000D01*
X139006904Y-72950476D01*
X138206904Y-72226666D02*
X138206904Y-71693333D01*
X139006904Y-72036190D01*
X141561904Y-73255238D02*
X140761904Y-73255238D01*
X140761904Y-73064761D01*
X140800000Y-72950476D01*
X140876190Y-72874285D01*
X140952380Y-72836190D01*
X141104761Y-72798095D01*
X141219047Y-72798095D01*
X141371428Y-72836190D01*
X141447619Y-72874285D01*
X141523809Y-72950476D01*
X141561904Y-73064761D01*
X141561904Y-73255238D01*
X140761904Y-72112380D02*
X140761904Y-72264761D01*
X140800000Y-72340952D01*
X140838095Y-72379047D01*
X140952380Y-72455238D01*
X141104761Y-72493333D01*
X141409523Y-72493333D01*
X141485714Y-72455238D01*
X141523809Y-72417142D01*
X141561904Y-72340952D01*
X141561904Y-72188571D01*
X141523809Y-72112380D01*
X141485714Y-72074285D01*
X141409523Y-72036190D01*
X141219047Y-72036190D01*
X141142857Y-72074285D01*
X141104761Y-72112380D01*
X141066666Y-72188571D01*
X141066666Y-72340952D01*
X141104761Y-72417142D01*
X141142857Y-72455238D01*
X141219047Y-72493333D01*
X140761904Y-71579047D02*
X140952380Y-71579047D01*
X140876190Y-71769523D02*
X140952380Y-71579047D01*
X140876190Y-71388571D01*
X141104761Y-71693333D02*
X140952380Y-71579047D01*
X141104761Y-71464761D01*
X144116904Y-73255238D02*
X143316904Y-73255238D01*
X143316904Y-73064761D01*
X143355000Y-72950476D01*
X143431190Y-72874285D01*
X143507380Y-72836190D01*
X143659761Y-72798095D01*
X143774047Y-72798095D01*
X143926428Y-72836190D01*
X144002619Y-72874285D01*
X144078809Y-72950476D01*
X144116904Y-73064761D01*
X144116904Y-73255238D01*
X143316904Y-72074285D02*
X143316904Y-72455238D01*
X143697857Y-72493333D01*
X143659761Y-72455238D01*
X143621666Y-72379047D01*
X143621666Y-72188571D01*
X143659761Y-72112380D01*
X143697857Y-72074285D01*
X143774047Y-72036190D01*
X143964523Y-72036190D01*
X144040714Y-72074285D01*
X144078809Y-72112380D01*
X144116904Y-72188571D01*
X144116904Y-72379047D01*
X144078809Y-72455238D01*
X144040714Y-72493333D01*
X143316904Y-71579047D02*
X143507380Y-71579047D01*
X143431190Y-71769523D02*
X143507380Y-71579047D01*
X143431190Y-71388571D01*
X143659761Y-71693333D02*
X143507380Y-71579047D01*
X143659761Y-71464761D01*
X146671904Y-72950476D02*
X145871904Y-72950476D01*
X145871904Y-72760000D01*
X145910000Y-72645714D01*
X145986190Y-72569523D01*
X146062380Y-72531428D01*
X146214761Y-72493333D01*
X146329047Y-72493333D01*
X146481428Y-72531428D01*
X146557619Y-72569523D01*
X146633809Y-72645714D01*
X146671904Y-72760000D01*
X146671904Y-72950476D01*
X146138571Y-71807619D02*
X146671904Y-71807619D01*
X145833809Y-71998095D02*
X146405238Y-72188571D01*
X146405238Y-71693333D01*
X149226904Y-73255238D02*
X148426904Y-73255238D01*
X148426904Y-73064761D01*
X148465000Y-72950476D01*
X148541190Y-72874285D01*
X148617380Y-72836190D01*
X148769761Y-72798095D01*
X148884047Y-72798095D01*
X149036428Y-72836190D01*
X149112619Y-72874285D01*
X149188809Y-72950476D01*
X149226904Y-73064761D01*
X149226904Y-73255238D01*
X148426904Y-72531428D02*
X148426904Y-72036190D01*
X148731666Y-72302857D01*
X148731666Y-72188571D01*
X148769761Y-72112380D01*
X148807857Y-72074285D01*
X148884047Y-72036190D01*
X149074523Y-72036190D01*
X149150714Y-72074285D01*
X149188809Y-72112380D01*
X149226904Y-72188571D01*
X149226904Y-72417142D01*
X149188809Y-72493333D01*
X149150714Y-72531428D01*
X148426904Y-71579047D02*
X148617380Y-71579047D01*
X148541190Y-71769523D02*
X148617380Y-71579047D01*
X148541190Y-71388571D01*
X148769761Y-71693333D02*
X148617380Y-71579047D01*
X148769761Y-71464761D01*
X151781904Y-72950476D02*
X150981904Y-72950476D01*
X150981904Y-72760000D01*
X151020000Y-72645714D01*
X151096190Y-72569523D01*
X151172380Y-72531428D01*
X151324761Y-72493333D01*
X151439047Y-72493333D01*
X151591428Y-72531428D01*
X151667619Y-72569523D01*
X151743809Y-72645714D01*
X151781904Y-72760000D01*
X151781904Y-72950476D01*
X151058095Y-72188571D02*
X151020000Y-72150476D01*
X150981904Y-72074285D01*
X150981904Y-71883809D01*
X151020000Y-71807619D01*
X151058095Y-71769523D01*
X151134285Y-71731428D01*
X151210476Y-71731428D01*
X151324761Y-71769523D01*
X151781904Y-72226666D01*
X151781904Y-71731428D01*
X153575000Y-72969523D02*
X153536904Y-73045714D01*
X153536904Y-73160000D01*
X153575000Y-73274285D01*
X153651190Y-73350476D01*
X153727380Y-73388571D01*
X153879761Y-73426666D01*
X153994047Y-73426666D01*
X154146428Y-73388571D01*
X154222619Y-73350476D01*
X154298809Y-73274285D01*
X154336904Y-73160000D01*
X154336904Y-73083809D01*
X154298809Y-72969523D01*
X154260714Y-72931428D01*
X153994047Y-72931428D01*
X153994047Y-73083809D01*
X154336904Y-72588571D02*
X153536904Y-72588571D01*
X154336904Y-72131428D01*
X153536904Y-72131428D01*
X154336904Y-71750476D02*
X153536904Y-71750476D01*
X153536904Y-71560000D01*
X153575000Y-71445714D01*
X153651190Y-71369523D01*
X153727380Y-71331428D01*
X153879761Y-71293333D01*
X153994047Y-71293333D01*
X154146428Y-71331428D01*
X154222619Y-71369523D01*
X154298809Y-71445714D01*
X154336904Y-71560000D01*
X154336904Y-71750476D01*
X156891904Y-72798095D02*
X156510952Y-73064761D01*
X156891904Y-73255238D02*
X156091904Y-73255238D01*
X156091904Y-72950476D01*
X156130000Y-72874285D01*
X156168095Y-72836190D01*
X156244285Y-72798095D01*
X156358571Y-72798095D01*
X156434761Y-72836190D01*
X156472857Y-72874285D01*
X156510952Y-72950476D01*
X156510952Y-73255238D01*
X156853809Y-72493333D02*
X156891904Y-72379047D01*
X156891904Y-72188571D01*
X156853809Y-72112380D01*
X156815714Y-72074285D01*
X156739523Y-72036190D01*
X156663333Y-72036190D01*
X156587142Y-72074285D01*
X156549047Y-72112380D01*
X156510952Y-72188571D01*
X156472857Y-72340952D01*
X156434761Y-72417142D01*
X156396666Y-72455238D01*
X156320476Y-72493333D01*
X156244285Y-72493333D01*
X156168095Y-72455238D01*
X156130000Y-72417142D01*
X156091904Y-72340952D01*
X156091904Y-72150476D01*
X156130000Y-72036190D01*
X156091904Y-71807619D02*
X156091904Y-71350476D01*
X156891904Y-71579047D02*
X156091904Y-71579047D01*
X159446904Y-74150476D02*
X158646904Y-74150476D01*
X158646904Y-73960000D01*
X158685000Y-73845714D01*
X158761190Y-73769523D01*
X158837380Y-73731428D01*
X158989761Y-73693333D01*
X159104047Y-73693333D01*
X159256428Y-73731428D01*
X159332619Y-73769523D01*
X159408809Y-73845714D01*
X159446904Y-73960000D01*
X159446904Y-74150476D01*
X158646904Y-73198095D02*
X158646904Y-73121904D01*
X158685000Y-73045714D01*
X158723095Y-73007619D01*
X158799285Y-72969523D01*
X158951666Y-72931428D01*
X159142142Y-72931428D01*
X159294523Y-72969523D01*
X159370714Y-73007619D01*
X159408809Y-73045714D01*
X159446904Y-73121904D01*
X159446904Y-73198095D01*
X159408809Y-73274285D01*
X159370714Y-73312380D01*
X159294523Y-73350476D01*
X159142142Y-73388571D01*
X158951666Y-73388571D01*
X158799285Y-73350476D01*
X158723095Y-73312380D01*
X158685000Y-73274285D01*
X158646904Y-73198095D01*
X158608809Y-72017142D02*
X159637380Y-72702857D01*
X159446904Y-71293333D02*
X159065952Y-71560000D01*
X159446904Y-71750476D02*
X158646904Y-71750476D01*
X158646904Y-71445714D01*
X158685000Y-71369523D01*
X158723095Y-71331428D01*
X158799285Y-71293333D01*
X158913571Y-71293333D01*
X158989761Y-71331428D01*
X159027857Y-71369523D01*
X159065952Y-71445714D01*
X159065952Y-71750476D01*
X158646904Y-71026666D02*
X159446904Y-70493333D01*
X158646904Y-70493333D02*
X159446904Y-71026666D01*
X162001904Y-74055238D02*
X161201904Y-74055238D01*
X161201904Y-73864761D01*
X161240000Y-73750476D01*
X161316190Y-73674285D01*
X161392380Y-73636190D01*
X161544761Y-73598095D01*
X161659047Y-73598095D01*
X161811428Y-73636190D01*
X161887619Y-73674285D01*
X161963809Y-73750476D01*
X162001904Y-73864761D01*
X162001904Y-74055238D01*
X162001904Y-72836190D02*
X162001904Y-73293333D01*
X162001904Y-73064761D02*
X161201904Y-73064761D01*
X161316190Y-73140952D01*
X161392380Y-73217142D01*
X161430476Y-73293333D01*
X161163809Y-71921904D02*
X162192380Y-72607619D01*
X161201904Y-71769523D02*
X161201904Y-71312380D01*
X162001904Y-71540952D02*
X161201904Y-71540952D01*
X161201904Y-71121904D02*
X162001904Y-70588571D01*
X161201904Y-70588571D02*
X162001904Y-71121904D01*
X114011904Y-91499619D02*
X114011904Y-91347238D01*
X114050000Y-91271047D01*
X114126190Y-91194857D01*
X114278571Y-91156761D01*
X114545238Y-91156761D01*
X114697619Y-91194857D01*
X114773809Y-91271047D01*
X114811904Y-91347238D01*
X114811904Y-91499619D01*
X114773809Y-91575809D01*
X114697619Y-91652000D01*
X114545238Y-91690095D01*
X114278571Y-91690095D01*
X114126190Y-91652000D01*
X114050000Y-91575809D01*
X114011904Y-91499619D01*
X114278571Y-90813904D02*
X115078571Y-90813904D01*
X114316666Y-90813904D02*
X114278571Y-90737714D01*
X114278571Y-90585333D01*
X114316666Y-90509142D01*
X114354761Y-90471047D01*
X114430952Y-90432952D01*
X114659523Y-90432952D01*
X114735714Y-90471047D01*
X114773809Y-90509142D01*
X114811904Y-90585333D01*
X114811904Y-90737714D01*
X114773809Y-90813904D01*
X114773809Y-89785333D02*
X114811904Y-89861523D01*
X114811904Y-90013904D01*
X114773809Y-90090095D01*
X114697619Y-90128190D01*
X114392857Y-90128190D01*
X114316666Y-90090095D01*
X114278571Y-90013904D01*
X114278571Y-89861523D01*
X114316666Y-89785333D01*
X114392857Y-89747238D01*
X114469047Y-89747238D01*
X114545238Y-90128190D01*
X114278571Y-89404380D02*
X114811904Y-89404380D01*
X114354761Y-89404380D02*
X114316666Y-89366285D01*
X114278571Y-89290095D01*
X114278571Y-89175809D01*
X114316666Y-89099619D01*
X114392857Y-89061523D01*
X114811904Y-89061523D01*
X114773809Y-88109142D02*
X114811904Y-87994857D01*
X114811904Y-87804380D01*
X114773809Y-87728190D01*
X114735714Y-87690095D01*
X114659523Y-87652000D01*
X114583333Y-87652000D01*
X114507142Y-87690095D01*
X114469047Y-87728190D01*
X114430952Y-87804380D01*
X114392857Y-87956761D01*
X114354761Y-88032952D01*
X114316666Y-88071047D01*
X114240476Y-88109142D01*
X114164285Y-88109142D01*
X114088095Y-88071047D01*
X114050000Y-88032952D01*
X114011904Y-87956761D01*
X114011904Y-87766285D01*
X114050000Y-87652000D01*
X114811904Y-87194857D02*
X114773809Y-87271047D01*
X114735714Y-87309142D01*
X114659523Y-87347238D01*
X114430952Y-87347238D01*
X114354761Y-87309142D01*
X114316666Y-87271047D01*
X114278571Y-87194857D01*
X114278571Y-87080571D01*
X114316666Y-87004380D01*
X114354761Y-86966285D01*
X114430952Y-86928190D01*
X114659523Y-86928190D01*
X114735714Y-86966285D01*
X114773809Y-87004380D01*
X114811904Y-87080571D01*
X114811904Y-87194857D01*
X114278571Y-86242476D02*
X114811904Y-86242476D01*
X114278571Y-86585333D02*
X114697619Y-86585333D01*
X114773809Y-86547238D01*
X114811904Y-86471047D01*
X114811904Y-86356761D01*
X114773809Y-86280571D01*
X114735714Y-86242476D01*
X114811904Y-85861523D02*
X114278571Y-85861523D01*
X114430952Y-85861523D02*
X114354761Y-85823428D01*
X114316666Y-85785333D01*
X114278571Y-85709142D01*
X114278571Y-85632952D01*
X114773809Y-85023428D02*
X114811904Y-85099619D01*
X114811904Y-85252000D01*
X114773809Y-85328190D01*
X114735714Y-85366285D01*
X114659523Y-85404380D01*
X114430952Y-85404380D01*
X114354761Y-85366285D01*
X114316666Y-85328190D01*
X114278571Y-85252000D01*
X114278571Y-85099619D01*
X114316666Y-85023428D01*
X114773809Y-84375809D02*
X114811904Y-84452000D01*
X114811904Y-84604380D01*
X114773809Y-84680571D01*
X114697619Y-84718666D01*
X114392857Y-84718666D01*
X114316666Y-84680571D01*
X114278571Y-84604380D01*
X114278571Y-84452000D01*
X114316666Y-84375809D01*
X114392857Y-84337714D01*
X114469047Y-84337714D01*
X114545238Y-84718666D01*
X114811904Y-83385333D02*
X114011904Y-83385333D01*
X114392857Y-83385333D02*
X114392857Y-82928190D01*
X114811904Y-82928190D02*
X114011904Y-82928190D01*
X114811904Y-82204380D02*
X114392857Y-82204380D01*
X114316666Y-82242476D01*
X114278571Y-82318666D01*
X114278571Y-82471047D01*
X114316666Y-82547238D01*
X114773809Y-82204380D02*
X114811904Y-82280571D01*
X114811904Y-82471047D01*
X114773809Y-82547238D01*
X114697619Y-82585333D01*
X114621428Y-82585333D01*
X114545238Y-82547238D01*
X114507142Y-82471047D01*
X114507142Y-82280571D01*
X114469047Y-82204380D01*
X114811904Y-81823428D02*
X114278571Y-81823428D01*
X114430952Y-81823428D02*
X114354761Y-81785333D01*
X114316666Y-81747238D01*
X114278571Y-81671047D01*
X114278571Y-81594857D01*
X114811904Y-80985333D02*
X114011904Y-80985333D01*
X114773809Y-80985333D02*
X114811904Y-81061523D01*
X114811904Y-81213904D01*
X114773809Y-81290095D01*
X114735714Y-81328190D01*
X114659523Y-81366285D01*
X114430952Y-81366285D01*
X114354761Y-81328190D01*
X114316666Y-81290095D01*
X114278571Y-81213904D01*
X114278571Y-81061523D01*
X114316666Y-80985333D01*
X114278571Y-80680571D02*
X114811904Y-80528190D01*
X114430952Y-80375809D01*
X114811904Y-80223428D01*
X114278571Y-80071047D01*
X114811904Y-79423428D02*
X114392857Y-79423428D01*
X114316666Y-79461523D01*
X114278571Y-79537714D01*
X114278571Y-79690095D01*
X114316666Y-79766285D01*
X114773809Y-79423428D02*
X114811904Y-79499619D01*
X114811904Y-79690095D01*
X114773809Y-79766285D01*
X114697619Y-79804380D01*
X114621428Y-79804380D01*
X114545238Y-79766285D01*
X114507142Y-79690095D01*
X114507142Y-79499619D01*
X114469047Y-79423428D01*
X114811904Y-79042476D02*
X114278571Y-79042476D01*
X114430952Y-79042476D02*
X114354761Y-79004380D01*
X114316666Y-78966285D01*
X114278571Y-78890095D01*
X114278571Y-78813904D01*
X114773809Y-78242476D02*
X114811904Y-78318666D01*
X114811904Y-78471047D01*
X114773809Y-78547238D01*
X114697619Y-78585333D01*
X114392857Y-78585333D01*
X114316666Y-78547238D01*
X114278571Y-78471047D01*
X114278571Y-78318666D01*
X114316666Y-78242476D01*
X114392857Y-78204380D01*
X114469047Y-78204380D01*
X114545238Y-78585333D01*
D11*
X160252380Y-96484285D02*
X160252380Y-96960476D01*
X159252380Y-96960476D01*
X160252380Y-96150952D02*
X159252380Y-96150952D01*
X159966666Y-95817619D01*
X159252380Y-95484285D01*
X160252380Y-95484285D01*
X159252380Y-95103333D02*
X159252380Y-94484285D01*
X159633333Y-94817619D01*
X159633333Y-94674761D01*
X159680952Y-94579523D01*
X159728571Y-94531904D01*
X159823809Y-94484285D01*
X160061904Y-94484285D01*
X160157142Y-94531904D01*
X160204761Y-94579523D01*
X160252380Y-94674761D01*
X160252380Y-94960476D01*
X160204761Y-95055714D01*
X160157142Y-95103333D01*
X160252380Y-94008095D02*
X160252380Y-93817619D01*
X160204761Y-93722380D01*
X160157142Y-93674761D01*
X160014285Y-93579523D01*
X159823809Y-93531904D01*
X159442857Y-93531904D01*
X159347619Y-93579523D01*
X159300000Y-93627142D01*
X159252380Y-93722380D01*
X159252380Y-93912857D01*
X159300000Y-94008095D01*
X159347619Y-94055714D01*
X159442857Y-94103333D01*
X159680952Y-94103333D01*
X159776190Y-94055714D01*
X159823809Y-94008095D01*
X159871428Y-93912857D01*
X159871428Y-93722380D01*
X159823809Y-93627142D01*
X159776190Y-93579523D01*
X159680952Y-93531904D01*
X159252380Y-93198571D02*
X159252380Y-92579523D01*
X159633333Y-92912857D01*
X159633333Y-92770000D01*
X159680952Y-92674761D01*
X159728571Y-92627142D01*
X159823809Y-92579523D01*
X160061904Y-92579523D01*
X160157142Y-92627142D01*
X160204761Y-92674761D01*
X160252380Y-92770000D01*
X160252380Y-93055714D01*
X160204761Y-93150952D01*
X160157142Y-93198571D01*
X160252380Y-92150952D02*
X159252380Y-92150952D01*
X160252380Y-91579523D01*
X159252380Y-91579523D01*
X152215714Y-94985714D02*
X152882380Y-94985714D01*
X151834761Y-95223809D02*
X152549047Y-95461904D01*
X152549047Y-94842857D01*
X151882380Y-94557142D02*
X151882380Y-93890476D01*
X152882380Y-94319047D01*
X152882380Y-93509523D02*
X151882380Y-93509523D01*
X152882380Y-92938095D02*
X152310952Y-93366666D01*
X151882380Y-92938095D02*
X152453809Y-93509523D01*
X148527619Y-95351904D02*
X148480000Y-95304285D01*
X148432380Y-95209047D01*
X148432380Y-94970952D01*
X148480000Y-94875714D01*
X148527619Y-94828095D01*
X148622857Y-94780476D01*
X148718095Y-94780476D01*
X148860952Y-94828095D01*
X149432380Y-95399523D01*
X149432380Y-94780476D01*
X148432380Y-94447142D02*
X148432380Y-93780476D01*
X149432380Y-94209047D01*
X149432380Y-93399523D02*
X148432380Y-93399523D01*
X149432380Y-92828095D02*
X148860952Y-93256666D01*
X148432380Y-92828095D02*
X149003809Y-93399523D01*
X145817619Y-96584285D02*
X145770000Y-96536666D01*
X145722380Y-96441428D01*
X145722380Y-96203333D01*
X145770000Y-96108095D01*
X145817619Y-96060476D01*
X145912857Y-96012857D01*
X146008095Y-96012857D01*
X146150952Y-96060476D01*
X146722380Y-96631904D01*
X146722380Y-96012857D01*
X146722380Y-95584285D02*
X145722380Y-95584285D01*
X146722380Y-95012857D01*
X145722380Y-95012857D01*
X145722380Y-94631904D02*
X145722380Y-94012857D01*
X146103333Y-94346190D01*
X146103333Y-94203333D01*
X146150952Y-94108095D01*
X146198571Y-94060476D01*
X146293809Y-94012857D01*
X146531904Y-94012857D01*
X146627142Y-94060476D01*
X146674761Y-94108095D01*
X146722380Y-94203333D01*
X146722380Y-94489047D01*
X146674761Y-94584285D01*
X146627142Y-94631904D01*
X146722380Y-93536666D02*
X146722380Y-93346190D01*
X146674761Y-93250952D01*
X146627142Y-93203333D01*
X146484285Y-93108095D01*
X146293809Y-93060476D01*
X145912857Y-93060476D01*
X145817619Y-93108095D01*
X145770000Y-93155714D01*
X145722380Y-93250952D01*
X145722380Y-93441428D01*
X145770000Y-93536666D01*
X145817619Y-93584285D01*
X145912857Y-93631904D01*
X146150952Y-93631904D01*
X146246190Y-93584285D01*
X146293809Y-93536666D01*
X146341428Y-93441428D01*
X146341428Y-93250952D01*
X146293809Y-93155714D01*
X146246190Y-93108095D01*
X146150952Y-93060476D01*
X145722380Y-92441428D02*
X145722380Y-92346190D01*
X145770000Y-92250952D01*
X145817619Y-92203333D01*
X145912857Y-92155714D01*
X146103333Y-92108095D01*
X146341428Y-92108095D01*
X146531904Y-92155714D01*
X146627142Y-92203333D01*
X146674761Y-92250952D01*
X146722380Y-92346190D01*
X146722380Y-92441428D01*
X146674761Y-92536666D01*
X146627142Y-92584285D01*
X146531904Y-92631904D01*
X146341428Y-92679523D01*
X146103333Y-92679523D01*
X145912857Y-92631904D01*
X145817619Y-92584285D01*
X145770000Y-92536666D01*
X145722380Y-92441428D01*
X146055714Y-91250952D02*
X146722380Y-91250952D01*
X145674761Y-91489047D02*
X146389047Y-91727142D01*
X146389047Y-91108095D01*
X138685714Y-95040476D02*
X139352380Y-95040476D01*
X138304761Y-95278571D02*
X139019047Y-95516666D01*
X139019047Y-94897619D01*
X139352380Y-94516666D02*
X138352380Y-94516666D01*
X138971428Y-94421428D02*
X139352380Y-94135714D01*
X138685714Y-94135714D02*
X139066666Y-94516666D01*
X138352380Y-93802380D02*
X138352380Y-93135714D01*
X139352380Y-93564285D01*
X135795714Y-94765714D02*
X136462380Y-94765714D01*
X135414761Y-95003809D02*
X136129047Y-95241904D01*
X136129047Y-94622857D01*
X135462380Y-94337142D02*
X135462380Y-93670476D01*
X136462380Y-94099047D01*
X136462380Y-92718095D02*
X135986190Y-93051428D01*
X136462380Y-93289523D02*
X135462380Y-93289523D01*
X135462380Y-92908571D01*
X135510000Y-92813333D01*
X135557619Y-92765714D01*
X135652857Y-92718095D01*
X135795714Y-92718095D01*
X135890952Y-92765714D01*
X135938571Y-92813333D01*
X135986190Y-92908571D01*
X135986190Y-93289523D01*
X132422380Y-95619523D02*
X132422380Y-95000476D01*
X132803333Y-95333809D01*
X132803333Y-95190952D01*
X132850952Y-95095714D01*
X132898571Y-95048095D01*
X132993809Y-95000476D01*
X133231904Y-95000476D01*
X133327142Y-95048095D01*
X133374761Y-95095714D01*
X133422380Y-95190952D01*
X133422380Y-95476666D01*
X133374761Y-95571904D01*
X133327142Y-95619523D01*
X133422380Y-94524285D02*
X133422380Y-94333809D01*
X133374761Y-94238571D01*
X133327142Y-94190952D01*
X133184285Y-94095714D01*
X132993809Y-94048095D01*
X132612857Y-94048095D01*
X132517619Y-94095714D01*
X132470000Y-94143333D01*
X132422380Y-94238571D01*
X132422380Y-94429047D01*
X132470000Y-94524285D01*
X132517619Y-94571904D01*
X132612857Y-94619523D01*
X132850952Y-94619523D01*
X132946190Y-94571904D01*
X132993809Y-94524285D01*
X133041428Y-94429047D01*
X133041428Y-94238571D01*
X132993809Y-94143333D01*
X132946190Y-94095714D01*
X132850952Y-94048095D01*
X133422380Y-93619523D02*
X132422380Y-93619523D01*
X133422380Y-93048095D02*
X132850952Y-93476666D01*
X132422380Y-93048095D02*
X132993809Y-93619523D01*
X130312380Y-95736666D02*
X130312380Y-96308095D01*
X130312380Y-96022380D02*
X129312380Y-96022380D01*
X129455238Y-96117619D01*
X129550476Y-96212857D01*
X129598095Y-96308095D01*
X129312380Y-94831904D02*
X129312380Y-95308095D01*
X129788571Y-95355714D01*
X129740952Y-95308095D01*
X129693333Y-95212857D01*
X129693333Y-94974761D01*
X129740952Y-94879523D01*
X129788571Y-94831904D01*
X129883809Y-94784285D01*
X130121904Y-94784285D01*
X130217142Y-94831904D01*
X130264761Y-94879523D01*
X130312380Y-94974761D01*
X130312380Y-95212857D01*
X130264761Y-95308095D01*
X130217142Y-95355714D01*
X129312380Y-94165238D02*
X129312380Y-94070000D01*
X129360000Y-93974761D01*
X129407619Y-93927142D01*
X129502857Y-93879523D01*
X129693333Y-93831904D01*
X129931428Y-93831904D01*
X130121904Y-93879523D01*
X130217142Y-93927142D01*
X130264761Y-93974761D01*
X130312380Y-94070000D01*
X130312380Y-94165238D01*
X130264761Y-94260476D01*
X130217142Y-94308095D01*
X130121904Y-94355714D01*
X129931428Y-94403333D01*
X129693333Y-94403333D01*
X129502857Y-94355714D01*
X129407619Y-94308095D01*
X129360000Y-94260476D01*
X129312380Y-94165238D01*
X130312380Y-93403333D02*
X129312380Y-93403333D01*
X130312380Y-92831904D02*
X129740952Y-93260476D01*
X129312380Y-92831904D02*
X129883809Y-93403333D01*
X127532380Y-95125238D02*
X127532380Y-95696666D01*
X127532380Y-95410952D02*
X126532380Y-95410952D01*
X126675238Y-95506190D01*
X126770476Y-95601428D01*
X126818095Y-95696666D01*
X127532380Y-93934761D02*
X126532380Y-93934761D01*
X127532380Y-93363333D02*
X126960952Y-93791904D01*
X126532380Y-93363333D02*
X127103809Y-93934761D01*
X123367619Y-96348095D02*
X123320000Y-96300476D01*
X123272380Y-96205238D01*
X123272380Y-95967142D01*
X123320000Y-95871904D01*
X123367619Y-95824285D01*
X123462857Y-95776666D01*
X123558095Y-95776666D01*
X123700952Y-95824285D01*
X124272380Y-96395714D01*
X124272380Y-95776666D01*
X123605714Y-94919523D02*
X124272380Y-94919523D01*
X123224761Y-95157619D02*
X123939047Y-95395714D01*
X123939047Y-94776666D01*
X123272380Y-94205238D02*
X123272380Y-94110000D01*
X123320000Y-94014761D01*
X123367619Y-93967142D01*
X123462857Y-93919523D01*
X123653333Y-93871904D01*
X123891428Y-93871904D01*
X124081904Y-93919523D01*
X124177142Y-93967142D01*
X124224761Y-94014761D01*
X124272380Y-94110000D01*
X124272380Y-94205238D01*
X124224761Y-94300476D01*
X124177142Y-94348095D01*
X124081904Y-94395714D01*
X123891428Y-94443333D01*
X123653333Y-94443333D01*
X123462857Y-94395714D01*
X123367619Y-94348095D01*
X123320000Y-94300476D01*
X123272380Y-94205238D01*
X124272380Y-93443333D02*
X123272380Y-93443333D01*
X124272380Y-92871904D02*
X123700952Y-93300476D01*
X123272380Y-92871904D02*
X123843809Y-93443333D01*
X122195714Y-107431904D02*
X122862380Y-107431904D01*
X121814761Y-107670000D02*
X122529047Y-107908095D01*
X122529047Y-107289047D01*
X121862380Y-107003333D02*
X121862380Y-106336666D01*
X122862380Y-106765238D01*
X121862380Y-105765238D02*
X121862380Y-105670000D01*
X121910000Y-105574761D01*
X121957619Y-105527142D01*
X122052857Y-105479523D01*
X122243333Y-105431904D01*
X122481428Y-105431904D01*
X122671904Y-105479523D01*
X122767142Y-105527142D01*
X122814761Y-105574761D01*
X122862380Y-105670000D01*
X122862380Y-105765238D01*
X122814761Y-105860476D01*
X122767142Y-105908095D01*
X122671904Y-105955714D01*
X122481428Y-106003333D01*
X122243333Y-106003333D01*
X122052857Y-105955714D01*
X121957619Y-105908095D01*
X121910000Y-105860476D01*
X121862380Y-105765238D01*
X122862380Y-104431904D02*
X122386190Y-104765238D01*
X122862380Y-105003333D02*
X121862380Y-105003333D01*
X121862380Y-104622380D01*
X121910000Y-104527142D01*
X121957619Y-104479523D01*
X122052857Y-104431904D01*
X122195714Y-104431904D01*
X122290952Y-104479523D01*
X122338571Y-104527142D01*
X122386190Y-104622380D01*
X122386190Y-105003333D01*
D10*
X165912857Y-108004761D02*
X165836666Y-107966666D01*
X165798571Y-107928571D01*
X165760476Y-107852380D01*
X165760476Y-107814285D01*
X165798571Y-107738095D01*
X165836666Y-107700000D01*
X165912857Y-107661904D01*
X166065238Y-107661904D01*
X166141428Y-107700000D01*
X166179523Y-107738095D01*
X166217619Y-107814285D01*
X166217619Y-107852380D01*
X166179523Y-107928571D01*
X166141428Y-107966666D01*
X166065238Y-108004761D01*
X165912857Y-108004761D01*
X165836666Y-108042857D01*
X165798571Y-108080952D01*
X165760476Y-108157142D01*
X165760476Y-108309523D01*
X165798571Y-108385714D01*
X165836666Y-108423809D01*
X165912857Y-108461904D01*
X166065238Y-108461904D01*
X166141428Y-108423809D01*
X166179523Y-108385714D01*
X166217619Y-108309523D01*
X166217619Y-108157142D01*
X166179523Y-108080952D01*
X166141428Y-108042857D01*
X166065238Y-108004761D01*
X166522380Y-107738095D02*
X166560476Y-107700000D01*
X166636666Y-107661904D01*
X166827142Y-107661904D01*
X166903333Y-107700000D01*
X166941428Y-107738095D01*
X166979523Y-107814285D01*
X166979523Y-107890476D01*
X166941428Y-108004761D01*
X166484285Y-108461904D01*
X166979523Y-108461904D01*
X167779523Y-108461904D02*
X167512857Y-108080952D01*
X167322380Y-108461904D02*
X167322380Y-107661904D01*
X167627142Y-107661904D01*
X167703333Y-107700000D01*
X167741428Y-107738095D01*
X167779523Y-107814285D01*
X167779523Y-107928571D01*
X167741428Y-108004761D01*
X167703333Y-108042857D01*
X167627142Y-108080952D01*
X167322380Y-108080952D01*
X181450952Y-106808571D02*
X181450952Y-107341904D01*
X181260476Y-106503809D02*
X181070000Y-107075238D01*
X181565238Y-107075238D01*
X181793809Y-106541904D02*
X182327142Y-106541904D01*
X181984285Y-107341904D01*
X182784285Y-106541904D02*
X182860476Y-106541904D01*
X182936666Y-106580000D01*
X182974761Y-106618095D01*
X183012857Y-106694285D01*
X183050952Y-106846666D01*
X183050952Y-107037142D01*
X183012857Y-107189523D01*
X182974761Y-107265714D01*
X182936666Y-107303809D01*
X182860476Y-107341904D01*
X182784285Y-107341904D01*
X182708095Y-107303809D01*
X182670000Y-107265714D01*
X182631904Y-107189523D01*
X182593809Y-107037142D01*
X182593809Y-106846666D01*
X182631904Y-106694285D01*
X182670000Y-106618095D01*
X182708095Y-106580000D01*
X182784285Y-106541904D01*
X184346190Y-106808571D02*
X184346190Y-107341904D01*
X184003333Y-106808571D02*
X184003333Y-107227619D01*
X184041428Y-107303809D01*
X184117619Y-107341904D01*
X184231904Y-107341904D01*
X184308095Y-107303809D01*
X184346190Y-107265714D01*
X184993809Y-106922857D02*
X184727142Y-106922857D01*
X184727142Y-107341904D02*
X184727142Y-106541904D01*
X185108095Y-106541904D01*
X172379523Y-105415714D02*
X172417619Y-105453809D01*
X172379523Y-105491904D01*
X172341428Y-105453809D01*
X172379523Y-105415714D01*
X172379523Y-105491904D01*
X173179523Y-105491904D02*
X172722380Y-105491904D01*
X172950952Y-105491904D02*
X172950952Y-104691904D01*
X172874761Y-104806190D01*
X172798571Y-104882380D01*
X172722380Y-104920476D01*
X174474761Y-104958571D02*
X174474761Y-105491904D01*
X174131904Y-104958571D02*
X174131904Y-105377619D01*
X174170000Y-105453809D01*
X174246190Y-105491904D01*
X174360476Y-105491904D01*
X174436666Y-105453809D01*
X174474761Y-105415714D01*
X175122380Y-105072857D02*
X174855714Y-105072857D01*
X174855714Y-105491904D02*
X174855714Y-104691904D01*
X175236666Y-104691904D01*
X175013809Y-113641904D02*
X174632857Y-113641904D01*
X174632857Y-112841904D01*
X175204285Y-112841904D02*
X175737619Y-112841904D01*
X175394761Y-113641904D01*
X176156666Y-113184761D02*
X176080476Y-113146666D01*
X176042380Y-113108571D01*
X176004285Y-113032380D01*
X176004285Y-112994285D01*
X176042380Y-112918095D01*
X176080476Y-112880000D01*
X176156666Y-112841904D01*
X176309047Y-112841904D01*
X176385238Y-112880000D01*
X176423333Y-112918095D01*
X176461428Y-112994285D01*
X176461428Y-113032380D01*
X176423333Y-113108571D01*
X176385238Y-113146666D01*
X176309047Y-113184761D01*
X176156666Y-113184761D01*
X176080476Y-113222857D01*
X176042380Y-113260952D01*
X176004285Y-113337142D01*
X176004285Y-113489523D01*
X176042380Y-113565714D01*
X176080476Y-113603809D01*
X176156666Y-113641904D01*
X176309047Y-113641904D01*
X176385238Y-113603809D01*
X176423333Y-113565714D01*
X176461428Y-113489523D01*
X176461428Y-113337142D01*
X176423333Y-113260952D01*
X176385238Y-113222857D01*
X176309047Y-113184761D01*
X176956666Y-112841904D02*
X177032857Y-112841904D01*
X177109047Y-112880000D01*
X177147142Y-112918095D01*
X177185238Y-112994285D01*
X177223333Y-113146666D01*
X177223333Y-113337142D01*
X177185238Y-113489523D01*
X177147142Y-113565714D01*
X177109047Y-113603809D01*
X177032857Y-113641904D01*
X176956666Y-113641904D01*
X176880476Y-113603809D01*
X176842380Y-113565714D01*
X176804285Y-113489523D01*
X176766190Y-113337142D01*
X176766190Y-113146666D01*
X176804285Y-112994285D01*
X176842380Y-112918095D01*
X176880476Y-112880000D01*
X176956666Y-112841904D01*
X177947142Y-112841904D02*
X177566190Y-112841904D01*
X177528095Y-113222857D01*
X177566190Y-113184761D01*
X177642380Y-113146666D01*
X177832857Y-113146666D01*
X177909047Y-113184761D01*
X177947142Y-113222857D01*
X177985238Y-113299047D01*
X177985238Y-113489523D01*
X177947142Y-113565714D01*
X177909047Y-113603809D01*
X177832857Y-113641904D01*
X177642380Y-113641904D01*
X177566190Y-113603809D01*
X177528095Y-113565714D01*
X164833809Y-116051904D02*
X164452857Y-116051904D01*
X164452857Y-115251904D01*
X165100476Y-116051904D02*
X165100476Y-115251904D01*
X165367142Y-115823333D01*
X165633809Y-115251904D01*
X165633809Y-116051904D01*
X165938571Y-115251904D02*
X166433809Y-115251904D01*
X166167142Y-115556666D01*
X166281428Y-115556666D01*
X166357619Y-115594761D01*
X166395714Y-115632857D01*
X166433809Y-115709047D01*
X166433809Y-115899523D01*
X166395714Y-115975714D01*
X166357619Y-116013809D01*
X166281428Y-116051904D01*
X166052857Y-116051904D01*
X165976666Y-116013809D01*
X165938571Y-115975714D01*
X167195714Y-116051904D02*
X166738571Y-116051904D01*
X166967142Y-116051904D02*
X166967142Y-115251904D01*
X166890952Y-115366190D01*
X166814761Y-115442380D01*
X166738571Y-115480476D01*
X167462380Y-115251904D02*
X167995714Y-115251904D01*
X167652857Y-116051904D01*
X168681428Y-116051904D02*
X168300476Y-116051904D01*
X168300476Y-115251904D01*
X120855714Y-116611904D02*
X120474761Y-116611904D01*
X120474761Y-115811904D01*
X121122380Y-116192857D02*
X121389047Y-116192857D01*
X121503333Y-116611904D02*
X121122380Y-116611904D01*
X121122380Y-115811904D01*
X121503333Y-115811904D01*
X121846190Y-116611904D02*
X121846190Y-115811904D01*
X122036666Y-115811904D01*
X122150952Y-115850000D01*
X122227142Y-115926190D01*
X122265238Y-116002380D01*
X122303333Y-116154761D01*
X122303333Y-116269047D01*
X122265238Y-116421428D01*
X122227142Y-116497619D01*
X122150952Y-116573809D01*
X122036666Y-116611904D01*
X121846190Y-116611904D01*
X181818666Y-70438095D02*
X182275809Y-70438095D01*
X182047238Y-70438095D02*
X182047238Y-71238095D01*
X182123428Y-71123809D01*
X182199619Y-71047619D01*
X182275809Y-71009523D01*
X181209142Y-70857142D02*
X181094857Y-70819047D01*
X181056761Y-70780952D01*
X181018666Y-70704761D01*
X181018666Y-70590476D01*
X181056761Y-70514285D01*
X181094857Y-70476190D01*
X181171047Y-70438095D01*
X181475809Y-70438095D01*
X181475809Y-71238095D01*
X181209142Y-71238095D01*
X181132952Y-71200000D01*
X181094857Y-71161904D01*
X181056761Y-71085714D01*
X181056761Y-71009523D01*
X181094857Y-70933333D01*
X181132952Y-70895238D01*
X181209142Y-70857142D01*
X181475809Y-70857142D01*
X179037714Y-70438095D02*
X179494857Y-70438095D01*
X179266285Y-70438095D02*
X179266285Y-71238095D01*
X179342476Y-71123809D01*
X179418666Y-71047619D01*
X179494857Y-71009523D01*
X178732952Y-70666666D02*
X178352000Y-70666666D01*
X178809142Y-70438095D02*
X178542476Y-71238095D01*
X178275809Y-70438095D01*
X176828190Y-71161904D02*
X176790095Y-71200000D01*
X176713904Y-71238095D01*
X176523428Y-71238095D01*
X176447238Y-71200000D01*
X176409142Y-71161904D01*
X176371047Y-71085714D01*
X176371047Y-71009523D01*
X176409142Y-70895238D01*
X176866285Y-70438095D01*
X176371047Y-70438095D01*
X176066285Y-70666666D02*
X175685333Y-70666666D01*
X176142476Y-70438095D02*
X175875809Y-71238095D01*
X175609142Y-70438095D01*
X174161523Y-71161904D02*
X174123428Y-71200000D01*
X174047238Y-71238095D01*
X173856761Y-71238095D01*
X173780571Y-71200000D01*
X173742476Y-71161904D01*
X173704380Y-71085714D01*
X173704380Y-71009523D01*
X173742476Y-70895238D01*
X174199619Y-70438095D01*
X173704380Y-70438095D01*
X173094857Y-70857142D02*
X172980571Y-70819047D01*
X172942476Y-70780952D01*
X172904380Y-70704761D01*
X172904380Y-70590476D01*
X172942476Y-70514285D01*
X172980571Y-70476190D01*
X173056761Y-70438095D01*
X173361523Y-70438095D01*
X173361523Y-71238095D01*
X173094857Y-71238095D01*
X173018666Y-71200000D01*
X172980571Y-71161904D01*
X172942476Y-71085714D01*
X172942476Y-71009523D01*
X172980571Y-70933333D01*
X173018666Y-70895238D01*
X173094857Y-70857142D01*
X173361523Y-70857142D01*
X168642857Y-86361523D02*
X168642857Y-86094857D01*
X169061904Y-85980571D02*
X169061904Y-86361523D01*
X168261904Y-86361523D01*
X168261904Y-85980571D01*
X168528571Y-85637714D02*
X169061904Y-85637714D01*
X168604761Y-85637714D02*
X168566666Y-85599619D01*
X168528571Y-85523428D01*
X168528571Y-85409142D01*
X168566666Y-85332952D01*
X168642857Y-85294857D01*
X169061904Y-85294857D01*
X169061904Y-84571047D02*
X168642857Y-84571047D01*
X168566666Y-84609142D01*
X168528571Y-84685333D01*
X168528571Y-84837714D01*
X168566666Y-84913904D01*
X169023809Y-84571047D02*
X169061904Y-84647238D01*
X169061904Y-84837714D01*
X169023809Y-84913904D01*
X168947619Y-84952000D01*
X168871428Y-84952000D01*
X168795238Y-84913904D01*
X168757142Y-84837714D01*
X168757142Y-84647238D01*
X168719047Y-84571047D01*
X169061904Y-84190095D02*
X168261904Y-84190095D01*
X168566666Y-84190095D02*
X168528571Y-84113904D01*
X168528571Y-83961523D01*
X168566666Y-83885333D01*
X168604761Y-83847238D01*
X168680952Y-83809142D01*
X168909523Y-83809142D01*
X168985714Y-83847238D01*
X169023809Y-83885333D01*
X169061904Y-83961523D01*
X169061904Y-84113904D01*
X169023809Y-84190095D01*
X169061904Y-83352000D02*
X169023809Y-83428190D01*
X168947619Y-83466285D01*
X168261904Y-83466285D01*
X169023809Y-82742476D02*
X169061904Y-82818666D01*
X169061904Y-82971047D01*
X169023809Y-83047238D01*
X168947619Y-83085333D01*
X168642857Y-83085333D01*
X168566666Y-83047238D01*
X168528571Y-82971047D01*
X168528571Y-82818666D01*
X168566666Y-82742476D01*
X168642857Y-82704380D01*
X168719047Y-82704380D01*
X168795238Y-83085333D01*
X171621904Y-84799619D02*
X170821904Y-84799619D01*
X171393333Y-84532952D01*
X170821904Y-84266285D01*
X171621904Y-84266285D01*
X171583809Y-83923428D02*
X171621904Y-83809142D01*
X171621904Y-83618666D01*
X171583809Y-83542476D01*
X171545714Y-83504380D01*
X171469523Y-83466285D01*
X171393333Y-83466285D01*
X171317142Y-83504380D01*
X171279047Y-83542476D01*
X171240952Y-83618666D01*
X171202857Y-83771047D01*
X171164761Y-83847238D01*
X171126666Y-83885333D01*
X171050476Y-83923428D01*
X170974285Y-83923428D01*
X170898095Y-83885333D01*
X170860000Y-83847238D01*
X170821904Y-83771047D01*
X170821904Y-83580571D01*
X170860000Y-83466285D01*
X171621904Y-82704380D02*
X171621904Y-83161523D01*
X171621904Y-82932952D02*
X170821904Y-82932952D01*
X170936190Y-83009142D01*
X171012380Y-83085333D01*
X171050476Y-83161523D01*
X174181904Y-84799619D02*
X173381904Y-84799619D01*
X173953333Y-84532952D01*
X173381904Y-84266285D01*
X174181904Y-84266285D01*
X174143809Y-83923428D02*
X174181904Y-83809142D01*
X174181904Y-83618666D01*
X174143809Y-83542476D01*
X174105714Y-83504380D01*
X174029523Y-83466285D01*
X173953333Y-83466285D01*
X173877142Y-83504380D01*
X173839047Y-83542476D01*
X173800952Y-83618666D01*
X173762857Y-83771047D01*
X173724761Y-83847238D01*
X173686666Y-83885333D01*
X173610476Y-83923428D01*
X173534285Y-83923428D01*
X173458095Y-83885333D01*
X173420000Y-83847238D01*
X173381904Y-83771047D01*
X173381904Y-83580571D01*
X173420000Y-83466285D01*
X173458095Y-83161523D02*
X173420000Y-83123428D01*
X173381904Y-83047238D01*
X173381904Y-82856761D01*
X173420000Y-82780571D01*
X173458095Y-82742476D01*
X173534285Y-82704380D01*
X173610476Y-82704380D01*
X173724761Y-82742476D01*
X174181904Y-83199619D01*
X174181904Y-82704380D01*
X176741904Y-84799619D02*
X175941904Y-84799619D01*
X176513333Y-84532952D01*
X175941904Y-84266285D01*
X176741904Y-84266285D01*
X176703809Y-83923428D02*
X176741904Y-83809142D01*
X176741904Y-83618666D01*
X176703809Y-83542476D01*
X176665714Y-83504380D01*
X176589523Y-83466285D01*
X176513333Y-83466285D01*
X176437142Y-83504380D01*
X176399047Y-83542476D01*
X176360952Y-83618666D01*
X176322857Y-83771047D01*
X176284761Y-83847238D01*
X176246666Y-83885333D01*
X176170476Y-83923428D01*
X176094285Y-83923428D01*
X176018095Y-83885333D01*
X175980000Y-83847238D01*
X175941904Y-83771047D01*
X175941904Y-83580571D01*
X175980000Y-83466285D01*
X175941904Y-83199619D02*
X175941904Y-82704380D01*
X176246666Y-82971047D01*
X176246666Y-82856761D01*
X176284761Y-82780571D01*
X176322857Y-82742476D01*
X176399047Y-82704380D01*
X176589523Y-82704380D01*
X176665714Y-82742476D01*
X176703809Y-82780571D01*
X176741904Y-82856761D01*
X176741904Y-83085333D01*
X176703809Y-83161523D01*
X176665714Y-83199619D01*
X179301904Y-85180571D02*
X178920952Y-85447238D01*
X179301904Y-85637714D02*
X178501904Y-85637714D01*
X178501904Y-85332952D01*
X178540000Y-85256761D01*
X178578095Y-85218666D01*
X178654285Y-85180571D01*
X178768571Y-85180571D01*
X178844761Y-85218666D01*
X178882857Y-85256761D01*
X178920952Y-85332952D01*
X178920952Y-85637714D01*
X179263809Y-84532952D02*
X179301904Y-84609142D01*
X179301904Y-84761523D01*
X179263809Y-84837714D01*
X179187619Y-84875809D01*
X178882857Y-84875809D01*
X178806666Y-84837714D01*
X178768571Y-84761523D01*
X178768571Y-84609142D01*
X178806666Y-84532952D01*
X178882857Y-84494857D01*
X178959047Y-84494857D01*
X179035238Y-84875809D01*
X179263809Y-84190095D02*
X179301904Y-84113904D01*
X179301904Y-83961523D01*
X179263809Y-83885333D01*
X179187619Y-83847238D01*
X179149523Y-83847238D01*
X179073333Y-83885333D01*
X179035238Y-83961523D01*
X179035238Y-84075809D01*
X178997142Y-84152000D01*
X178920952Y-84190095D01*
X178882857Y-84190095D01*
X178806666Y-84152000D01*
X178768571Y-84075809D01*
X178768571Y-83961523D01*
X178806666Y-83885333D01*
X179263809Y-83199619D02*
X179301904Y-83275809D01*
X179301904Y-83428190D01*
X179263809Y-83504380D01*
X179187619Y-83542476D01*
X178882857Y-83542476D01*
X178806666Y-83504380D01*
X178768571Y-83428190D01*
X178768571Y-83275809D01*
X178806666Y-83199619D01*
X178882857Y-83161523D01*
X178959047Y-83161523D01*
X179035238Y-83542476D01*
X178768571Y-82932952D02*
X178768571Y-82628190D01*
X178501904Y-82818666D02*
X179187619Y-82818666D01*
X179263809Y-82780571D01*
X179301904Y-82704380D01*
X179301904Y-82628190D01*
X181823809Y-85675809D02*
X181861904Y-85561523D01*
X181861904Y-85371047D01*
X181823809Y-85294857D01*
X181785714Y-85256761D01*
X181709523Y-85218666D01*
X181633333Y-85218666D01*
X181557142Y-85256761D01*
X181519047Y-85294857D01*
X181480952Y-85371047D01*
X181442857Y-85523428D01*
X181404761Y-85599619D01*
X181366666Y-85637714D01*
X181290476Y-85675809D01*
X181214285Y-85675809D01*
X181138095Y-85637714D01*
X181100000Y-85599619D01*
X181061904Y-85523428D01*
X181061904Y-85332952D01*
X181100000Y-85218666D01*
X181861904Y-84761523D02*
X181823809Y-84837714D01*
X181747619Y-84875809D01*
X181061904Y-84875809D01*
X181823809Y-84152000D02*
X181861904Y-84228190D01*
X181861904Y-84380571D01*
X181823809Y-84456761D01*
X181747619Y-84494857D01*
X181442857Y-84494857D01*
X181366666Y-84456761D01*
X181328571Y-84380571D01*
X181328571Y-84228190D01*
X181366666Y-84152000D01*
X181442857Y-84113904D01*
X181519047Y-84113904D01*
X181595238Y-84494857D01*
X181823809Y-83466285D02*
X181861904Y-83542476D01*
X181861904Y-83694857D01*
X181823809Y-83771047D01*
X181747619Y-83809142D01*
X181442857Y-83809142D01*
X181366666Y-83771047D01*
X181328571Y-83694857D01*
X181328571Y-83542476D01*
X181366666Y-83466285D01*
X181442857Y-83428190D01*
X181519047Y-83428190D01*
X181595238Y-83809142D01*
X181328571Y-83085333D02*
X182128571Y-83085333D01*
X181366666Y-83085333D02*
X181328571Y-83009142D01*
X181328571Y-82856761D01*
X181366666Y-82780571D01*
X181404761Y-82742476D01*
X181480952Y-82704380D01*
X181709523Y-82704380D01*
X181785714Y-82742476D01*
X181823809Y-82780571D01*
X181861904Y-82856761D01*
X181861904Y-83009142D01*
X181823809Y-83085333D01*
X184383809Y-85028190D02*
X184421904Y-84913904D01*
X184421904Y-84723428D01*
X184383809Y-84647238D01*
X184345714Y-84609142D01*
X184269523Y-84571047D01*
X184193333Y-84571047D01*
X184117142Y-84609142D01*
X184079047Y-84647238D01*
X184040952Y-84723428D01*
X184002857Y-84875809D01*
X183964761Y-84952000D01*
X183926666Y-84990095D01*
X183850476Y-85028190D01*
X183774285Y-85028190D01*
X183698095Y-84990095D01*
X183660000Y-84952000D01*
X183621904Y-84875809D01*
X183621904Y-84685333D01*
X183660000Y-84571047D01*
X183888571Y-84342476D02*
X183888571Y-84037714D01*
X183621904Y-84228190D02*
X184307619Y-84228190D01*
X184383809Y-84190095D01*
X184421904Y-84113904D01*
X184421904Y-84037714D01*
X184383809Y-83466285D02*
X184421904Y-83542476D01*
X184421904Y-83694857D01*
X184383809Y-83771047D01*
X184307619Y-83809142D01*
X184002857Y-83809142D01*
X183926666Y-83771047D01*
X183888571Y-83694857D01*
X183888571Y-83542476D01*
X183926666Y-83466285D01*
X184002857Y-83428190D01*
X184079047Y-83428190D01*
X184155238Y-83809142D01*
X183888571Y-83085333D02*
X184688571Y-83085333D01*
X183926666Y-83085333D02*
X183888571Y-83009142D01*
X183888571Y-82856761D01*
X183926666Y-82780571D01*
X183964761Y-82742476D01*
X184040952Y-82704380D01*
X184269523Y-82704380D01*
X184345714Y-82742476D01*
X184383809Y-82780571D01*
X184421904Y-82856761D01*
X184421904Y-83009142D01*
X184383809Y-83085333D01*
X186981904Y-87694857D02*
X186181904Y-87694857D01*
X186181904Y-87504380D01*
X186220000Y-87390095D01*
X186296190Y-87313904D01*
X186372380Y-87275809D01*
X186524761Y-87237714D01*
X186639047Y-87237714D01*
X186791428Y-87275809D01*
X186867619Y-87313904D01*
X186943809Y-87390095D01*
X186981904Y-87504380D01*
X186981904Y-87694857D01*
X186981904Y-86894857D02*
X186448571Y-86894857D01*
X186181904Y-86894857D02*
X186220000Y-86932952D01*
X186258095Y-86894857D01*
X186220000Y-86856761D01*
X186181904Y-86894857D01*
X186258095Y-86894857D01*
X186981904Y-86513904D02*
X186448571Y-86513904D01*
X186600952Y-86513904D02*
X186524761Y-86475809D01*
X186486666Y-86437714D01*
X186448571Y-86361523D01*
X186448571Y-86285333D01*
X186943809Y-85713904D02*
X186981904Y-85790095D01*
X186981904Y-85942476D01*
X186943809Y-86018666D01*
X186867619Y-86056761D01*
X186562857Y-86056761D01*
X186486666Y-86018666D01*
X186448571Y-85942476D01*
X186448571Y-85790095D01*
X186486666Y-85713904D01*
X186562857Y-85675809D01*
X186639047Y-85675809D01*
X186715238Y-86056761D01*
X186943809Y-84990095D02*
X186981904Y-85066285D01*
X186981904Y-85218666D01*
X186943809Y-85294857D01*
X186905714Y-85332952D01*
X186829523Y-85371047D01*
X186600952Y-85371047D01*
X186524761Y-85332952D01*
X186486666Y-85294857D01*
X186448571Y-85218666D01*
X186448571Y-85066285D01*
X186486666Y-84990095D01*
X186448571Y-84761523D02*
X186448571Y-84456761D01*
X186181904Y-84647238D02*
X186867619Y-84647238D01*
X186943809Y-84609142D01*
X186981904Y-84532952D01*
X186981904Y-84456761D01*
X186981904Y-84190095D02*
X186448571Y-84190095D01*
X186181904Y-84190095D02*
X186220000Y-84228190D01*
X186258095Y-84190095D01*
X186220000Y-84152000D01*
X186181904Y-84190095D01*
X186258095Y-84190095D01*
X186981904Y-83694857D02*
X186943809Y-83771047D01*
X186905714Y-83809142D01*
X186829523Y-83847238D01*
X186600952Y-83847238D01*
X186524761Y-83809142D01*
X186486666Y-83771047D01*
X186448571Y-83694857D01*
X186448571Y-83580571D01*
X186486666Y-83504380D01*
X186524761Y-83466285D01*
X186600952Y-83428190D01*
X186829523Y-83428190D01*
X186905714Y-83466285D01*
X186943809Y-83504380D01*
X186981904Y-83580571D01*
X186981904Y-83694857D01*
X186448571Y-83085333D02*
X186981904Y-83085333D01*
X186524761Y-83085333D02*
X186486666Y-83047238D01*
X186448571Y-82971047D01*
X186448571Y-82856761D01*
X186486666Y-82780571D01*
X186562857Y-82742476D01*
X186981904Y-82742476D01*
X171761904Y-99199619D02*
X170961904Y-99199619D01*
X171533333Y-98932952D01*
X170961904Y-98666285D01*
X171761904Y-98666285D01*
X171723809Y-98323428D02*
X171761904Y-98209142D01*
X171761904Y-98018666D01*
X171723809Y-97942476D01*
X171685714Y-97904380D01*
X171609523Y-97866285D01*
X171533333Y-97866285D01*
X171457142Y-97904380D01*
X171419047Y-97942476D01*
X171380952Y-98018666D01*
X171342857Y-98171047D01*
X171304761Y-98247238D01*
X171266666Y-98285333D01*
X171190476Y-98323428D01*
X171114285Y-98323428D01*
X171038095Y-98285333D01*
X171000000Y-98247238D01*
X170961904Y-98171047D01*
X170961904Y-97980571D01*
X171000000Y-97866285D01*
X171761904Y-97104380D02*
X171761904Y-97561523D01*
X171761904Y-97332952D02*
X170961904Y-97332952D01*
X171076190Y-97409142D01*
X171152380Y-97485333D01*
X171190476Y-97561523D01*
X174321904Y-99199619D02*
X173521904Y-99199619D01*
X174093333Y-98932952D01*
X173521904Y-98666285D01*
X174321904Y-98666285D01*
X174283809Y-98323428D02*
X174321904Y-98209142D01*
X174321904Y-98018666D01*
X174283809Y-97942476D01*
X174245714Y-97904380D01*
X174169523Y-97866285D01*
X174093333Y-97866285D01*
X174017142Y-97904380D01*
X173979047Y-97942476D01*
X173940952Y-98018666D01*
X173902857Y-98171047D01*
X173864761Y-98247238D01*
X173826666Y-98285333D01*
X173750476Y-98323428D01*
X173674285Y-98323428D01*
X173598095Y-98285333D01*
X173560000Y-98247238D01*
X173521904Y-98171047D01*
X173521904Y-97980571D01*
X173560000Y-97866285D01*
X173598095Y-97561523D02*
X173560000Y-97523428D01*
X173521904Y-97447238D01*
X173521904Y-97256761D01*
X173560000Y-97180571D01*
X173598095Y-97142476D01*
X173674285Y-97104380D01*
X173750476Y-97104380D01*
X173864761Y-97142476D01*
X174321904Y-97599619D01*
X174321904Y-97104380D01*
X176881904Y-99199619D02*
X176081904Y-99199619D01*
X176653333Y-98932952D01*
X176081904Y-98666285D01*
X176881904Y-98666285D01*
X176843809Y-98323428D02*
X176881904Y-98209142D01*
X176881904Y-98018666D01*
X176843809Y-97942476D01*
X176805714Y-97904380D01*
X176729523Y-97866285D01*
X176653333Y-97866285D01*
X176577142Y-97904380D01*
X176539047Y-97942476D01*
X176500952Y-98018666D01*
X176462857Y-98171047D01*
X176424761Y-98247238D01*
X176386666Y-98285333D01*
X176310476Y-98323428D01*
X176234285Y-98323428D01*
X176158095Y-98285333D01*
X176120000Y-98247238D01*
X176081904Y-98171047D01*
X176081904Y-97980571D01*
X176120000Y-97866285D01*
X176081904Y-97599619D02*
X176081904Y-97104380D01*
X176386666Y-97371047D01*
X176386666Y-97256761D01*
X176424761Y-97180571D01*
X176462857Y-97142476D01*
X176539047Y-97104380D01*
X176729523Y-97104380D01*
X176805714Y-97142476D01*
X176843809Y-97180571D01*
X176881904Y-97256761D01*
X176881904Y-97485333D01*
X176843809Y-97561523D01*
X176805714Y-97599619D01*
X179441904Y-99580571D02*
X179060952Y-99847238D01*
X179441904Y-100037714D02*
X178641904Y-100037714D01*
X178641904Y-99732952D01*
X178680000Y-99656761D01*
X178718095Y-99618666D01*
X178794285Y-99580571D01*
X178908571Y-99580571D01*
X178984761Y-99618666D01*
X179022857Y-99656761D01*
X179060952Y-99732952D01*
X179060952Y-100037714D01*
X179403809Y-98932952D02*
X179441904Y-99009142D01*
X179441904Y-99161523D01*
X179403809Y-99237714D01*
X179327619Y-99275809D01*
X179022857Y-99275809D01*
X178946666Y-99237714D01*
X178908571Y-99161523D01*
X178908571Y-99009142D01*
X178946666Y-98932952D01*
X179022857Y-98894857D01*
X179099047Y-98894857D01*
X179175238Y-99275809D01*
X179403809Y-98590095D02*
X179441904Y-98513904D01*
X179441904Y-98361523D01*
X179403809Y-98285333D01*
X179327619Y-98247238D01*
X179289523Y-98247238D01*
X179213333Y-98285333D01*
X179175238Y-98361523D01*
X179175238Y-98475809D01*
X179137142Y-98552000D01*
X179060952Y-98590095D01*
X179022857Y-98590095D01*
X178946666Y-98552000D01*
X178908571Y-98475809D01*
X178908571Y-98361523D01*
X178946666Y-98285333D01*
X179403809Y-97599619D02*
X179441904Y-97675809D01*
X179441904Y-97828190D01*
X179403809Y-97904380D01*
X179327619Y-97942476D01*
X179022857Y-97942476D01*
X178946666Y-97904380D01*
X178908571Y-97828190D01*
X178908571Y-97675809D01*
X178946666Y-97599619D01*
X179022857Y-97561523D01*
X179099047Y-97561523D01*
X179175238Y-97942476D01*
X178908571Y-97332952D02*
X178908571Y-97028190D01*
X178641904Y-97218666D02*
X179327619Y-97218666D01*
X179403809Y-97180571D01*
X179441904Y-97104380D01*
X179441904Y-97028190D01*
X181963809Y-100075809D02*
X182001904Y-99961523D01*
X182001904Y-99771047D01*
X181963809Y-99694857D01*
X181925714Y-99656761D01*
X181849523Y-99618666D01*
X181773333Y-99618666D01*
X181697142Y-99656761D01*
X181659047Y-99694857D01*
X181620952Y-99771047D01*
X181582857Y-99923428D01*
X181544761Y-99999619D01*
X181506666Y-100037714D01*
X181430476Y-100075809D01*
X181354285Y-100075809D01*
X181278095Y-100037714D01*
X181240000Y-99999619D01*
X181201904Y-99923428D01*
X181201904Y-99732952D01*
X181240000Y-99618666D01*
X182001904Y-99161523D02*
X181963809Y-99237714D01*
X181887619Y-99275809D01*
X181201904Y-99275809D01*
X181963809Y-98552000D02*
X182001904Y-98628190D01*
X182001904Y-98780571D01*
X181963809Y-98856761D01*
X181887619Y-98894857D01*
X181582857Y-98894857D01*
X181506666Y-98856761D01*
X181468571Y-98780571D01*
X181468571Y-98628190D01*
X181506666Y-98552000D01*
X181582857Y-98513904D01*
X181659047Y-98513904D01*
X181735238Y-98894857D01*
X181963809Y-97866285D02*
X182001904Y-97942476D01*
X182001904Y-98094857D01*
X181963809Y-98171047D01*
X181887619Y-98209142D01*
X181582857Y-98209142D01*
X181506666Y-98171047D01*
X181468571Y-98094857D01*
X181468571Y-97942476D01*
X181506666Y-97866285D01*
X181582857Y-97828190D01*
X181659047Y-97828190D01*
X181735238Y-98209142D01*
X181468571Y-97485333D02*
X182268571Y-97485333D01*
X181506666Y-97485333D02*
X181468571Y-97409142D01*
X181468571Y-97256761D01*
X181506666Y-97180571D01*
X181544761Y-97142476D01*
X181620952Y-97104380D01*
X181849523Y-97104380D01*
X181925714Y-97142476D01*
X181963809Y-97180571D01*
X182001904Y-97256761D01*
X182001904Y-97409142D01*
X181963809Y-97485333D01*
X114209523Y-109815619D02*
X113359523Y-109815619D01*
X113359523Y-109613238D01*
X113400000Y-109491809D01*
X113480952Y-109410857D01*
X113561904Y-109370380D01*
X113723809Y-109329904D01*
X113845238Y-109329904D01*
X114007142Y-109370380D01*
X114088095Y-109410857D01*
X114169047Y-109491809D01*
X114209523Y-109613238D01*
X114209523Y-109815619D01*
X113642857Y-108601333D02*
X114209523Y-108601333D01*
X113319047Y-108803714D02*
X113926190Y-109006095D01*
X113926190Y-108479904D01*
X113764285Y-107508476D02*
X113764285Y-106860857D01*
X114007142Y-106860857D02*
X114007142Y-107508476D01*
X113966666Y-105848952D02*
X113966666Y-105444190D01*
X114209523Y-105929904D02*
X113359523Y-105646571D01*
X114209523Y-105363238D01*
X113642857Y-104715619D02*
X114209523Y-104715619D01*
X113319047Y-104918000D02*
X113926190Y-105120380D01*
X113926190Y-104594190D01*
X114209523Y-104229904D02*
X114209523Y-104068000D01*
X114169047Y-103987047D01*
X114128571Y-103946571D01*
X114007142Y-103865619D01*
X113845238Y-103825142D01*
X113521428Y-103825142D01*
X113440476Y-103865619D01*
X113400000Y-103906095D01*
X113359523Y-103987047D01*
X113359523Y-104148952D01*
X113400000Y-104229904D01*
X113440476Y-104270380D01*
X113521428Y-104310857D01*
X113723809Y-104310857D01*
X113804761Y-104270380D01*
X113845238Y-104229904D01*
X113885714Y-104148952D01*
X113885714Y-103987047D01*
X113845238Y-103906095D01*
X113804761Y-103865619D01*
X113723809Y-103825142D01*
X113723809Y-103339428D02*
X113683333Y-103420380D01*
X113642857Y-103460857D01*
X113561904Y-103501333D01*
X113521428Y-103501333D01*
X113440476Y-103460857D01*
X113400000Y-103420380D01*
X113359523Y-103339428D01*
X113359523Y-103177523D01*
X113400000Y-103096571D01*
X113440476Y-103056095D01*
X113521428Y-103015619D01*
X113561904Y-103015619D01*
X113642857Y-103056095D01*
X113683333Y-103096571D01*
X113723809Y-103177523D01*
X113723809Y-103339428D01*
X113764285Y-103420380D01*
X113804761Y-103460857D01*
X113885714Y-103501333D01*
X114047619Y-103501333D01*
X114128571Y-103460857D01*
X114169047Y-103420380D01*
X114209523Y-103339428D01*
X114209523Y-103177523D01*
X114169047Y-103096571D01*
X114128571Y-103056095D01*
X114047619Y-103015619D01*
X113885714Y-103015619D01*
X113804761Y-103056095D01*
X113764285Y-103096571D01*
X113723809Y-103177523D01*
X113723809Y-102529904D02*
X113683333Y-102610857D01*
X113642857Y-102651333D01*
X113561904Y-102691809D01*
X113521428Y-102691809D01*
X113440476Y-102651333D01*
X113400000Y-102610857D01*
X113359523Y-102529904D01*
X113359523Y-102368000D01*
X113400000Y-102287047D01*
X113440476Y-102246571D01*
X113521428Y-102206095D01*
X113561904Y-102206095D01*
X113642857Y-102246571D01*
X113683333Y-102287047D01*
X113723809Y-102368000D01*
X113723809Y-102529904D01*
X113764285Y-102610857D01*
X113804761Y-102651333D01*
X113885714Y-102691809D01*
X114047619Y-102691809D01*
X114128571Y-102651333D01*
X114169047Y-102610857D01*
X114209523Y-102529904D01*
X114209523Y-102368000D01*
X114169047Y-102287047D01*
X114128571Y-102246571D01*
X114047619Y-102206095D01*
X113885714Y-102206095D01*
X113804761Y-102246571D01*
X113764285Y-102287047D01*
X113723809Y-102368000D01*
X114169047Y-101234666D02*
X114209523Y-101113238D01*
X114209523Y-100910857D01*
X114169047Y-100829904D01*
X114128571Y-100789428D01*
X114047619Y-100748952D01*
X113966666Y-100748952D01*
X113885714Y-100789428D01*
X113845238Y-100829904D01*
X113804761Y-100910857D01*
X113764285Y-101072761D01*
X113723809Y-101153714D01*
X113683333Y-101194190D01*
X113602380Y-101234666D01*
X113521428Y-101234666D01*
X113440476Y-101194190D01*
X113400000Y-101153714D01*
X113359523Y-101072761D01*
X113359523Y-100870380D01*
X113400000Y-100748952D01*
X113642857Y-100506095D02*
X113642857Y-100182285D01*
X113359523Y-100384666D02*
X114088095Y-100384666D01*
X114169047Y-100344190D01*
X114209523Y-100263238D01*
X114209523Y-100182285D01*
X114169047Y-99575142D02*
X114209523Y-99656095D01*
X114209523Y-99818000D01*
X114169047Y-99898952D01*
X114088095Y-99939428D01*
X113764285Y-99939428D01*
X113683333Y-99898952D01*
X113642857Y-99818000D01*
X113642857Y-99656095D01*
X113683333Y-99575142D01*
X113764285Y-99534666D01*
X113845238Y-99534666D01*
X113926190Y-99939428D01*
X113642857Y-99170380D02*
X114492857Y-99170380D01*
X113683333Y-99170380D02*
X113642857Y-99089428D01*
X113642857Y-98927523D01*
X113683333Y-98846571D01*
X113723809Y-98806095D01*
X113804761Y-98765619D01*
X114047619Y-98765619D01*
X114128571Y-98806095D01*
X114169047Y-98846571D01*
X114209523Y-98927523D01*
X114209523Y-99089428D01*
X114169047Y-99170380D01*
X114209523Y-97753714D02*
X113359523Y-97753714D01*
X113359523Y-97429904D01*
X113400000Y-97348952D01*
X113440476Y-97308476D01*
X113521428Y-97268000D01*
X113642857Y-97268000D01*
X113723809Y-97308476D01*
X113764285Y-97348952D01*
X113804761Y-97429904D01*
X113804761Y-97753714D01*
X114209523Y-96903714D02*
X113642857Y-96903714D01*
X113359523Y-96903714D02*
X113400000Y-96944190D01*
X113440476Y-96903714D01*
X113400000Y-96863238D01*
X113359523Y-96903714D01*
X113440476Y-96903714D01*
X113642857Y-96498952D02*
X114209523Y-96498952D01*
X113723809Y-96498952D02*
X113683333Y-96458476D01*
X113642857Y-96377523D01*
X113642857Y-96256095D01*
X113683333Y-96175142D01*
X113764285Y-96134666D01*
X114209523Y-96134666D01*
X115564523Y-109815619D02*
X114714523Y-109815619D01*
X114714523Y-109613238D01*
X114755000Y-109491809D01*
X114835952Y-109410857D01*
X114916904Y-109370380D01*
X115078809Y-109329904D01*
X115200238Y-109329904D01*
X115362142Y-109370380D01*
X115443095Y-109410857D01*
X115524047Y-109491809D01*
X115564523Y-109613238D01*
X115564523Y-109815619D01*
X114714523Y-108560857D02*
X114714523Y-108965619D01*
X115119285Y-109006095D01*
X115078809Y-108965619D01*
X115038333Y-108884666D01*
X115038333Y-108682285D01*
X115078809Y-108601333D01*
X115119285Y-108560857D01*
X115200238Y-108520380D01*
X115402619Y-108520380D01*
X115483571Y-108560857D01*
X115524047Y-108601333D01*
X115564523Y-108682285D01*
X115564523Y-108884666D01*
X115524047Y-108965619D01*
X115483571Y-109006095D01*
X115119285Y-107508476D02*
X115119285Y-106860857D01*
X115362142Y-106860857D02*
X115362142Y-107508476D01*
X115321666Y-105848952D02*
X115321666Y-105444190D01*
X115564523Y-105929904D02*
X114714523Y-105646571D01*
X115564523Y-105363238D01*
X114997857Y-104715619D02*
X115564523Y-104715619D01*
X114674047Y-104918000D02*
X115281190Y-105120380D01*
X115281190Y-104594190D01*
X115564523Y-104229904D02*
X115564523Y-104068000D01*
X115524047Y-103987047D01*
X115483571Y-103946571D01*
X115362142Y-103865619D01*
X115200238Y-103825142D01*
X114876428Y-103825142D01*
X114795476Y-103865619D01*
X114755000Y-103906095D01*
X114714523Y-103987047D01*
X114714523Y-104148952D01*
X114755000Y-104229904D01*
X114795476Y-104270380D01*
X114876428Y-104310857D01*
X115078809Y-104310857D01*
X115159761Y-104270380D01*
X115200238Y-104229904D01*
X115240714Y-104148952D01*
X115240714Y-103987047D01*
X115200238Y-103906095D01*
X115159761Y-103865619D01*
X115078809Y-103825142D01*
X115078809Y-103339428D02*
X115038333Y-103420380D01*
X114997857Y-103460857D01*
X114916904Y-103501333D01*
X114876428Y-103501333D01*
X114795476Y-103460857D01*
X114755000Y-103420380D01*
X114714523Y-103339428D01*
X114714523Y-103177523D01*
X114755000Y-103096571D01*
X114795476Y-103056095D01*
X114876428Y-103015619D01*
X114916904Y-103015619D01*
X114997857Y-103056095D01*
X115038333Y-103096571D01*
X115078809Y-103177523D01*
X115078809Y-103339428D01*
X115119285Y-103420380D01*
X115159761Y-103460857D01*
X115240714Y-103501333D01*
X115402619Y-103501333D01*
X115483571Y-103460857D01*
X115524047Y-103420380D01*
X115564523Y-103339428D01*
X115564523Y-103177523D01*
X115524047Y-103096571D01*
X115483571Y-103056095D01*
X115402619Y-103015619D01*
X115240714Y-103015619D01*
X115159761Y-103056095D01*
X115119285Y-103096571D01*
X115078809Y-103177523D01*
X115078809Y-102529904D02*
X115038333Y-102610857D01*
X114997857Y-102651333D01*
X114916904Y-102691809D01*
X114876428Y-102691809D01*
X114795476Y-102651333D01*
X114755000Y-102610857D01*
X114714523Y-102529904D01*
X114714523Y-102368000D01*
X114755000Y-102287047D01*
X114795476Y-102246571D01*
X114876428Y-102206095D01*
X114916904Y-102206095D01*
X114997857Y-102246571D01*
X115038333Y-102287047D01*
X115078809Y-102368000D01*
X115078809Y-102529904D01*
X115119285Y-102610857D01*
X115159761Y-102651333D01*
X115240714Y-102691809D01*
X115402619Y-102691809D01*
X115483571Y-102651333D01*
X115524047Y-102610857D01*
X115564523Y-102529904D01*
X115564523Y-102368000D01*
X115524047Y-102287047D01*
X115483571Y-102246571D01*
X115402619Y-102206095D01*
X115240714Y-102206095D01*
X115159761Y-102246571D01*
X115119285Y-102287047D01*
X115078809Y-102368000D01*
X115564523Y-101194190D02*
X114714523Y-101194190D01*
X114714523Y-100991809D01*
X114755000Y-100870380D01*
X114835952Y-100789428D01*
X114916904Y-100748952D01*
X115078809Y-100708476D01*
X115200238Y-100708476D01*
X115362142Y-100748952D01*
X115443095Y-100789428D01*
X115524047Y-100870380D01*
X115564523Y-100991809D01*
X115564523Y-101194190D01*
X115564523Y-100344190D02*
X114997857Y-100344190D01*
X114714523Y-100344190D02*
X114755000Y-100384666D01*
X114795476Y-100344190D01*
X114755000Y-100303714D01*
X114714523Y-100344190D01*
X114795476Y-100344190D01*
X115564523Y-99939428D02*
X114997857Y-99939428D01*
X115159761Y-99939428D02*
X115078809Y-99898952D01*
X115038333Y-99858476D01*
X114997857Y-99777523D01*
X114997857Y-99696571D01*
X115564523Y-98765619D02*
X114714523Y-98765619D01*
X114714523Y-98441809D01*
X114755000Y-98360857D01*
X114795476Y-98320380D01*
X114876428Y-98279904D01*
X114997857Y-98279904D01*
X115078809Y-98320380D01*
X115119285Y-98360857D01*
X115159761Y-98441809D01*
X115159761Y-98765619D01*
X115564523Y-97915619D02*
X114997857Y-97915619D01*
X114714523Y-97915619D02*
X114755000Y-97956095D01*
X114795476Y-97915619D01*
X114755000Y-97875142D01*
X114714523Y-97915619D01*
X114795476Y-97915619D01*
X114997857Y-97510857D02*
X115564523Y-97510857D01*
X115078809Y-97510857D02*
X115038333Y-97470380D01*
X114997857Y-97389428D01*
X114997857Y-97268000D01*
X115038333Y-97187047D01*
X115119285Y-97146571D01*
X115564523Y-97146571D01*
X116919523Y-109815619D02*
X116069523Y-109815619D01*
X116069523Y-109613238D01*
X116110000Y-109491809D01*
X116190952Y-109410857D01*
X116271904Y-109370380D01*
X116433809Y-109329904D01*
X116555238Y-109329904D01*
X116717142Y-109370380D01*
X116798095Y-109410857D01*
X116879047Y-109491809D01*
X116919523Y-109613238D01*
X116919523Y-109815619D01*
X116069523Y-109046571D02*
X116069523Y-108479904D01*
X116919523Y-108844190D01*
X116474285Y-107508476D02*
X116474285Y-106860857D01*
X116717142Y-106860857D02*
X116717142Y-107508476D01*
X116919523Y-105403714D02*
X116919523Y-105808476D01*
X116069523Y-105808476D01*
X116919523Y-105120380D02*
X116069523Y-105120380D01*
X116919523Y-104634666D01*
X116069523Y-104634666D01*
X116069523Y-104351333D02*
X116069523Y-103865619D01*
X116919523Y-104108476D02*
X116069523Y-104108476D01*
X116069523Y-103663238D02*
X116919523Y-103096571D01*
X116069523Y-103096571D02*
X116919523Y-103663238D01*
X118274523Y-109815619D02*
X117424523Y-109815619D01*
X117424523Y-109613238D01*
X117465000Y-109491809D01*
X117545952Y-109410857D01*
X117626904Y-109370380D01*
X117788809Y-109329904D01*
X117910238Y-109329904D01*
X118072142Y-109370380D01*
X118153095Y-109410857D01*
X118234047Y-109491809D01*
X118274523Y-109613238D01*
X118274523Y-109815619D01*
X117788809Y-108844190D02*
X117748333Y-108925142D01*
X117707857Y-108965619D01*
X117626904Y-109006095D01*
X117586428Y-109006095D01*
X117505476Y-108965619D01*
X117465000Y-108925142D01*
X117424523Y-108844190D01*
X117424523Y-108682285D01*
X117465000Y-108601333D01*
X117505476Y-108560857D01*
X117586428Y-108520380D01*
X117626904Y-108520380D01*
X117707857Y-108560857D01*
X117748333Y-108601333D01*
X117788809Y-108682285D01*
X117788809Y-108844190D01*
X117829285Y-108925142D01*
X117869761Y-108965619D01*
X117950714Y-109006095D01*
X118112619Y-109006095D01*
X118193571Y-108965619D01*
X118234047Y-108925142D01*
X118274523Y-108844190D01*
X118274523Y-108682285D01*
X118234047Y-108601333D01*
X118193571Y-108560857D01*
X118112619Y-108520380D01*
X117950714Y-108520380D01*
X117869761Y-108560857D01*
X117829285Y-108601333D01*
X117788809Y-108682285D01*
X117829285Y-107508476D02*
X117829285Y-106860857D01*
X118072142Y-106860857D02*
X118072142Y-107508476D01*
X118274523Y-105403714D02*
X118274523Y-105808476D01*
X117424523Y-105808476D01*
X118274523Y-105120380D02*
X117424523Y-105120380D01*
X118274523Y-104634666D01*
X117424523Y-104634666D01*
X118274523Y-103744190D02*
X117869761Y-104027523D01*
X118274523Y-104229904D02*
X117424523Y-104229904D01*
X117424523Y-103906095D01*
X117465000Y-103825142D01*
X117505476Y-103784666D01*
X117586428Y-103744190D01*
X117707857Y-103744190D01*
X117788809Y-103784666D01*
X117829285Y-103825142D01*
X117869761Y-103906095D01*
X117869761Y-104229904D01*
X117424523Y-103460857D02*
X118274523Y-102894190D01*
X117424523Y-102894190D02*
X118274523Y-103460857D01*
X119629523Y-109815619D02*
X118779523Y-109815619D01*
X118779523Y-109613238D01*
X118820000Y-109491809D01*
X118900952Y-109410857D01*
X118981904Y-109370380D01*
X119143809Y-109329904D01*
X119265238Y-109329904D01*
X119427142Y-109370380D01*
X119508095Y-109410857D01*
X119589047Y-109491809D01*
X119629523Y-109613238D01*
X119629523Y-109815619D01*
X119629523Y-108520380D02*
X119629523Y-109006095D01*
X119629523Y-108763238D02*
X118779523Y-108763238D01*
X118900952Y-108844190D01*
X118981904Y-108925142D01*
X119022380Y-109006095D01*
X118779523Y-108237047D02*
X118779523Y-107710857D01*
X119103333Y-107994190D01*
X119103333Y-107872761D01*
X119143809Y-107791809D01*
X119184285Y-107751333D01*
X119265238Y-107710857D01*
X119467619Y-107710857D01*
X119548571Y-107751333D01*
X119589047Y-107791809D01*
X119629523Y-107872761D01*
X119629523Y-108115619D01*
X119589047Y-108196571D01*
X119548571Y-108237047D01*
X119184285Y-106698952D02*
X119184285Y-106051333D01*
X119427142Y-106051333D02*
X119427142Y-106698952D01*
X119386666Y-105039428D02*
X119386666Y-104634666D01*
X119629523Y-105120380D02*
X118779523Y-104837047D01*
X119629523Y-104553714D01*
X119062857Y-103906095D02*
X119629523Y-103906095D01*
X118739047Y-104108476D02*
X119346190Y-104310857D01*
X119346190Y-103784666D01*
X119629523Y-103420380D02*
X119629523Y-103258476D01*
X119589047Y-103177523D01*
X119548571Y-103137047D01*
X119427142Y-103056095D01*
X119265238Y-103015619D01*
X118941428Y-103015619D01*
X118860476Y-103056095D01*
X118820000Y-103096571D01*
X118779523Y-103177523D01*
X118779523Y-103339428D01*
X118820000Y-103420380D01*
X118860476Y-103460857D01*
X118941428Y-103501333D01*
X119143809Y-103501333D01*
X119224761Y-103460857D01*
X119265238Y-103420380D01*
X119305714Y-103339428D01*
X119305714Y-103177523D01*
X119265238Y-103096571D01*
X119224761Y-103056095D01*
X119143809Y-103015619D01*
X119143809Y-102529904D02*
X119103333Y-102610857D01*
X119062857Y-102651333D01*
X118981904Y-102691809D01*
X118941428Y-102691809D01*
X118860476Y-102651333D01*
X118820000Y-102610857D01*
X118779523Y-102529904D01*
X118779523Y-102368000D01*
X118820000Y-102287047D01*
X118860476Y-102246571D01*
X118941428Y-102206095D01*
X118981904Y-102206095D01*
X119062857Y-102246571D01*
X119103333Y-102287047D01*
X119143809Y-102368000D01*
X119143809Y-102529904D01*
X119184285Y-102610857D01*
X119224761Y-102651333D01*
X119305714Y-102691809D01*
X119467619Y-102691809D01*
X119548571Y-102651333D01*
X119589047Y-102610857D01*
X119629523Y-102529904D01*
X119629523Y-102368000D01*
X119589047Y-102287047D01*
X119548571Y-102246571D01*
X119467619Y-102206095D01*
X119305714Y-102206095D01*
X119224761Y-102246571D01*
X119184285Y-102287047D01*
X119143809Y-102368000D01*
X119143809Y-101720380D02*
X119103333Y-101801333D01*
X119062857Y-101841809D01*
X118981904Y-101882285D01*
X118941428Y-101882285D01*
X118860476Y-101841809D01*
X118820000Y-101801333D01*
X118779523Y-101720380D01*
X118779523Y-101558476D01*
X118820000Y-101477523D01*
X118860476Y-101437047D01*
X118941428Y-101396571D01*
X118981904Y-101396571D01*
X119062857Y-101437047D01*
X119103333Y-101477523D01*
X119143809Y-101558476D01*
X119143809Y-101720380D01*
X119184285Y-101801333D01*
X119224761Y-101841809D01*
X119305714Y-101882285D01*
X119467619Y-101882285D01*
X119548571Y-101841809D01*
X119589047Y-101801333D01*
X119629523Y-101720380D01*
X119629523Y-101558476D01*
X119589047Y-101477523D01*
X119548571Y-101437047D01*
X119467619Y-101396571D01*
X119305714Y-101396571D01*
X119224761Y-101437047D01*
X119184285Y-101477523D01*
X119143809Y-101558476D01*
X119184285Y-100384666D02*
X119184285Y-100101333D01*
X119629523Y-99979904D02*
X119629523Y-100384666D01*
X118779523Y-100384666D01*
X118779523Y-99979904D01*
X119062857Y-99615619D02*
X119629523Y-99615619D01*
X119143809Y-99615619D02*
X119103333Y-99575142D01*
X119062857Y-99494190D01*
X119062857Y-99372761D01*
X119103333Y-99291809D01*
X119184285Y-99251333D01*
X119629523Y-99251333D01*
X119629523Y-98482285D02*
X119184285Y-98482285D01*
X119103333Y-98522761D01*
X119062857Y-98603714D01*
X119062857Y-98765619D01*
X119103333Y-98846571D01*
X119589047Y-98482285D02*
X119629523Y-98563238D01*
X119629523Y-98765619D01*
X119589047Y-98846571D01*
X119508095Y-98887047D01*
X119427142Y-98887047D01*
X119346190Y-98846571D01*
X119305714Y-98765619D01*
X119305714Y-98563238D01*
X119265238Y-98482285D01*
X119629523Y-98077523D02*
X118779523Y-98077523D01*
X119103333Y-98077523D02*
X119062857Y-97996571D01*
X119062857Y-97834666D01*
X119103333Y-97753714D01*
X119143809Y-97713238D01*
X119224761Y-97672761D01*
X119467619Y-97672761D01*
X119548571Y-97713238D01*
X119589047Y-97753714D01*
X119629523Y-97834666D01*
X119629523Y-97996571D01*
X119589047Y-98077523D01*
X119629523Y-97187047D02*
X119589047Y-97268000D01*
X119508095Y-97308476D01*
X118779523Y-97308476D01*
X119589047Y-96539428D02*
X119629523Y-96620380D01*
X119629523Y-96782285D01*
X119589047Y-96863238D01*
X119508095Y-96903714D01*
X119184285Y-96903714D01*
X119103333Y-96863238D01*
X119062857Y-96782285D01*
X119062857Y-96620380D01*
X119103333Y-96539428D01*
X119184285Y-96498952D01*
X119265238Y-96498952D01*
X119346190Y-96903714D01*
X119629523Y-95487047D02*
X118779523Y-95487047D01*
X118779523Y-95163238D01*
X118820000Y-95082285D01*
X118860476Y-95041809D01*
X118941428Y-95001333D01*
X119062857Y-95001333D01*
X119143809Y-95041809D01*
X119184285Y-95082285D01*
X119224761Y-95163238D01*
X119224761Y-95487047D01*
X119629523Y-94637047D02*
X119062857Y-94637047D01*
X118779523Y-94637047D02*
X118820000Y-94677523D01*
X118860476Y-94637047D01*
X118820000Y-94596571D01*
X118779523Y-94637047D01*
X118860476Y-94637047D01*
X119062857Y-94232285D02*
X119629523Y-94232285D01*
X119143809Y-94232285D02*
X119103333Y-94191809D01*
X119062857Y-94110857D01*
X119062857Y-93989428D01*
X119103333Y-93908476D01*
X119184285Y-93868000D01*
X119629523Y-93868000D01*
X123315238Y-76202142D02*
X123962857Y-75959285D01*
X123315238Y-75716428D01*
X122910476Y-75959285D02*
X122262857Y-75959285D01*
X120117619Y-76445000D02*
X120198571Y-76485476D01*
X120320000Y-76485476D01*
X120441428Y-76445000D01*
X120522380Y-76364047D01*
X120562857Y-76283095D01*
X120603333Y-76121190D01*
X120603333Y-75999761D01*
X120562857Y-75837857D01*
X120522380Y-75756904D01*
X120441428Y-75675952D01*
X120320000Y-75635476D01*
X120239047Y-75635476D01*
X120117619Y-75675952D01*
X120077142Y-75716428D01*
X120077142Y-75999761D01*
X120239047Y-75999761D01*
X119712857Y-75635476D02*
X119712857Y-76485476D01*
X119227142Y-75635476D01*
X119227142Y-76485476D01*
X118822380Y-75635476D02*
X118822380Y-76485476D01*
X118620000Y-76485476D01*
X118498571Y-76445000D01*
X118417619Y-76364047D01*
X118377142Y-76283095D01*
X118336666Y-76121190D01*
X118336666Y-75999761D01*
X118377142Y-75837857D01*
X118417619Y-75756904D01*
X118498571Y-75675952D01*
X118620000Y-75635476D01*
X118822380Y-75635476D01*
X126259047Y-78702142D02*
X126906666Y-78459285D01*
X126259047Y-78216428D01*
X125854285Y-78459285D02*
X125206666Y-78459285D01*
X123506666Y-78459285D02*
X122859047Y-78459285D01*
X123182857Y-78135476D02*
X123182857Y-78783095D01*
X121401904Y-78985476D02*
X121806666Y-78985476D01*
X121847142Y-78580714D01*
X121806666Y-78621190D01*
X121725714Y-78661666D01*
X121523333Y-78661666D01*
X121442380Y-78621190D01*
X121401904Y-78580714D01*
X121361428Y-78499761D01*
X121361428Y-78297380D01*
X121401904Y-78216428D01*
X121442380Y-78175952D01*
X121523333Y-78135476D01*
X121725714Y-78135476D01*
X121806666Y-78175952D01*
X121847142Y-78216428D01*
X121118571Y-78985476D02*
X120835238Y-78135476D01*
X120551904Y-78985476D01*
X164235238Y-83798095D02*
X164235238Y-84598095D01*
X164044761Y-84598095D01*
X163930476Y-84560000D01*
X163854285Y-84483809D01*
X163816190Y-84407619D01*
X163778095Y-84255238D01*
X163778095Y-84140952D01*
X163816190Y-83988571D01*
X163854285Y-83912380D01*
X163930476Y-83836190D01*
X164044761Y-83798095D01*
X164235238Y-83798095D01*
X163016190Y-83798095D02*
X163473333Y-83798095D01*
X163244761Y-83798095D02*
X163244761Y-84598095D01*
X163320952Y-84483809D01*
X163397142Y-84407619D01*
X163473333Y-84369523D01*
X162101904Y-84636190D02*
X162787619Y-83607619D01*
X161949523Y-84598095D02*
X161492380Y-84598095D01*
X161720952Y-83798095D02*
X161720952Y-84598095D01*
X161301904Y-84598095D02*
X160768571Y-83798095D01*
X160768571Y-84598095D02*
X161301904Y-83798095D01*
X161140476Y-82598095D02*
X161140476Y-83398095D01*
X160950000Y-83398095D01*
X160835714Y-83360000D01*
X160759523Y-83283809D01*
X160721428Y-83207619D01*
X160683333Y-83055238D01*
X160683333Y-82940952D01*
X160721428Y-82788571D01*
X160759523Y-82712380D01*
X160835714Y-82636190D01*
X160950000Y-82598095D01*
X161140476Y-82598095D01*
X160188095Y-83398095D02*
X160111904Y-83398095D01*
X160035714Y-83360000D01*
X159997619Y-83321904D01*
X159959523Y-83245714D01*
X159921428Y-83093333D01*
X159921428Y-82902857D01*
X159959523Y-82750476D01*
X159997619Y-82674285D01*
X160035714Y-82636190D01*
X160111904Y-82598095D01*
X160188095Y-82598095D01*
X160264285Y-82636190D01*
X160302380Y-82674285D01*
X160340476Y-82750476D01*
X160378571Y-82902857D01*
X160378571Y-83093333D01*
X160340476Y-83245714D01*
X160302380Y-83321904D01*
X160264285Y-83360000D01*
X160188095Y-83398095D01*
X159007142Y-83436190D02*
X159692857Y-82407619D01*
X158283333Y-82598095D02*
X158550000Y-82979047D01*
X158740476Y-82598095D02*
X158740476Y-83398095D01*
X158435714Y-83398095D01*
X158359523Y-83360000D01*
X158321428Y-83321904D01*
X158283333Y-83245714D01*
X158283333Y-83131428D01*
X158321428Y-83055238D01*
X158359523Y-83017142D01*
X158435714Y-82979047D01*
X158740476Y-82979047D01*
X158016666Y-83398095D02*
X157483333Y-82598095D01*
X157483333Y-83398095D02*
X158016666Y-82598095D01*
X156868095Y-83878095D02*
X157134761Y-84259047D01*
X157325238Y-83878095D02*
X157325238Y-84678095D01*
X157020476Y-84678095D01*
X156944285Y-84640000D01*
X156906190Y-84601904D01*
X156868095Y-84525714D01*
X156868095Y-84411428D01*
X156906190Y-84335238D01*
X156944285Y-84297142D01*
X157020476Y-84259047D01*
X157325238Y-84259047D01*
X156563333Y-83916190D02*
X156449047Y-83878095D01*
X156258571Y-83878095D01*
X156182380Y-83916190D01*
X156144285Y-83954285D01*
X156106190Y-84030476D01*
X156106190Y-84106666D01*
X156144285Y-84182857D01*
X156182380Y-84220952D01*
X156258571Y-84259047D01*
X156410952Y-84297142D01*
X156487142Y-84335238D01*
X156525238Y-84373333D01*
X156563333Y-84449523D01*
X156563333Y-84525714D01*
X156525238Y-84601904D01*
X156487142Y-84640000D01*
X156410952Y-84678095D01*
X156220476Y-84678095D01*
X156106190Y-84640000D01*
X155877619Y-84678095D02*
X155420476Y-84678095D01*
X155649047Y-83878095D02*
X155649047Y-84678095D01*
X154459523Y-84080000D02*
X154535714Y-84118095D01*
X154650000Y-84118095D01*
X154764285Y-84080000D01*
X154840476Y-84003809D01*
X154878571Y-83927619D01*
X154916666Y-83775238D01*
X154916666Y-83660952D01*
X154878571Y-83508571D01*
X154840476Y-83432380D01*
X154764285Y-83356190D01*
X154650000Y-83318095D01*
X154573809Y-83318095D01*
X154459523Y-83356190D01*
X154421428Y-83394285D01*
X154421428Y-83660952D01*
X154573809Y-83660952D01*
X154078571Y-83318095D02*
X154078571Y-84118095D01*
X153621428Y-83318095D01*
X153621428Y-84118095D01*
X153240476Y-83318095D02*
X153240476Y-84118095D01*
X153050000Y-84118095D01*
X152935714Y-84080000D01*
X152859523Y-84003809D01*
X152821428Y-83927619D01*
X152783333Y-83775238D01*
X152783333Y-83660952D01*
X152821428Y-83508571D01*
X152859523Y-83432380D01*
X152935714Y-83356190D01*
X153050000Y-83318095D01*
X153240476Y-83318095D01*
X151790476Y-83318095D02*
X151790476Y-84118095D01*
X151600000Y-84118095D01*
X151485714Y-84080000D01*
X151409523Y-84003809D01*
X151371428Y-83927619D01*
X151333333Y-83775238D01*
X151333333Y-83660952D01*
X151371428Y-83508571D01*
X151409523Y-83432380D01*
X151485714Y-83356190D01*
X151600000Y-83318095D01*
X151790476Y-83318095D01*
X151028571Y-84041904D02*
X150990476Y-84080000D01*
X150914285Y-84118095D01*
X150723809Y-84118095D01*
X150647619Y-84080000D01*
X150609523Y-84041904D01*
X150571428Y-83965714D01*
X150571428Y-83889523D01*
X150609523Y-83775238D01*
X151066666Y-83318095D01*
X150571428Y-83318095D01*
X149515238Y-83358095D02*
X149515238Y-84158095D01*
X149324761Y-84158095D01*
X149210476Y-84120000D01*
X149134285Y-84043809D01*
X149096190Y-83967619D01*
X149058095Y-83815238D01*
X149058095Y-83700952D01*
X149096190Y-83548571D01*
X149134285Y-83472380D01*
X149210476Y-83396190D01*
X149324761Y-83358095D01*
X149515238Y-83358095D01*
X148791428Y-84158095D02*
X148296190Y-84158095D01*
X148562857Y-83853333D01*
X148448571Y-83853333D01*
X148372380Y-83815238D01*
X148334285Y-83777142D01*
X148296190Y-83700952D01*
X148296190Y-83510476D01*
X148334285Y-83434285D01*
X148372380Y-83396190D01*
X148448571Y-83358095D01*
X148677142Y-83358095D01*
X148753333Y-83396190D01*
X148791428Y-83434285D01*
X147839047Y-84158095D02*
X147839047Y-83967619D01*
X148029523Y-84043809D02*
X147839047Y-83967619D01*
X147648571Y-84043809D01*
X147953333Y-83815238D02*
X147839047Y-83967619D01*
X147724761Y-83815238D01*
X146840476Y-83358095D02*
X146840476Y-84158095D01*
X146650000Y-84158095D01*
X146535714Y-84120000D01*
X146459523Y-84043809D01*
X146421428Y-83967619D01*
X146383333Y-83815238D01*
X146383333Y-83700952D01*
X146421428Y-83548571D01*
X146459523Y-83472380D01*
X146535714Y-83396190D01*
X146650000Y-83358095D01*
X146840476Y-83358095D01*
X145697619Y-83891428D02*
X145697619Y-83358095D01*
X145888095Y-84196190D02*
X146078571Y-83624761D01*
X145583333Y-83624761D01*
X144535238Y-83318095D02*
X144535238Y-84118095D01*
X144344761Y-84118095D01*
X144230476Y-84080000D01*
X144154285Y-84003809D01*
X144116190Y-83927619D01*
X144078095Y-83775238D01*
X144078095Y-83660952D01*
X144116190Y-83508571D01*
X144154285Y-83432380D01*
X144230476Y-83356190D01*
X144344761Y-83318095D01*
X144535238Y-83318095D01*
X143354285Y-84118095D02*
X143735238Y-84118095D01*
X143773333Y-83737142D01*
X143735238Y-83775238D01*
X143659047Y-83813333D01*
X143468571Y-83813333D01*
X143392380Y-83775238D01*
X143354285Y-83737142D01*
X143316190Y-83660952D01*
X143316190Y-83470476D01*
X143354285Y-83394285D01*
X143392380Y-83356190D01*
X143468571Y-83318095D01*
X143659047Y-83318095D01*
X143735238Y-83356190D01*
X143773333Y-83394285D01*
X142859047Y-84118095D02*
X142859047Y-83927619D01*
X143049523Y-84003809D02*
X142859047Y-83927619D01*
X142668571Y-84003809D01*
X142973333Y-83775238D02*
X142859047Y-83927619D01*
X142744761Y-83775238D01*
X141985238Y-83318095D02*
X141985238Y-84118095D01*
X141794761Y-84118095D01*
X141680476Y-84080000D01*
X141604285Y-84003809D01*
X141566190Y-83927619D01*
X141528095Y-83775238D01*
X141528095Y-83660952D01*
X141566190Y-83508571D01*
X141604285Y-83432380D01*
X141680476Y-83356190D01*
X141794761Y-83318095D01*
X141985238Y-83318095D01*
X140842380Y-84118095D02*
X140994761Y-84118095D01*
X141070952Y-84080000D01*
X141109047Y-84041904D01*
X141185238Y-83927619D01*
X141223333Y-83775238D01*
X141223333Y-83470476D01*
X141185238Y-83394285D01*
X141147142Y-83356190D01*
X141070952Y-83318095D01*
X140918571Y-83318095D01*
X140842380Y-83356190D01*
X140804285Y-83394285D01*
X140766190Y-83470476D01*
X140766190Y-83660952D01*
X140804285Y-83737142D01*
X140842380Y-83775238D01*
X140918571Y-83813333D01*
X141070952Y-83813333D01*
X141147142Y-83775238D01*
X141185238Y-83737142D01*
X141223333Y-83660952D01*
X140309047Y-84118095D02*
X140309047Y-83927619D01*
X140499523Y-84003809D02*
X140309047Y-83927619D01*
X140118571Y-84003809D01*
X140423333Y-83775238D02*
X140309047Y-83927619D01*
X140194761Y-83775238D01*
X139200476Y-83358095D02*
X139200476Y-84158095D01*
X139010000Y-84158095D01*
X138895714Y-84120000D01*
X138819523Y-84043809D01*
X138781428Y-83967619D01*
X138743333Y-83815238D01*
X138743333Y-83700952D01*
X138781428Y-83548571D01*
X138819523Y-83472380D01*
X138895714Y-83396190D01*
X139010000Y-83358095D01*
X139200476Y-83358095D01*
X138476666Y-84158095D02*
X137943333Y-84158095D01*
X138286190Y-83358095D01*
X136830476Y-83428095D02*
X136830476Y-84228095D01*
X136640000Y-84228095D01*
X136525714Y-84190000D01*
X136449523Y-84113809D01*
X136411428Y-84037619D01*
X136373333Y-83885238D01*
X136373333Y-83770952D01*
X136411428Y-83618571D01*
X136449523Y-83542380D01*
X136525714Y-83466190D01*
X136640000Y-83428095D01*
X136830476Y-83428095D01*
X135916190Y-83885238D02*
X135992380Y-83923333D01*
X136030476Y-83961428D01*
X136068571Y-84037619D01*
X136068571Y-84075714D01*
X136030476Y-84151904D01*
X135992380Y-84190000D01*
X135916190Y-84228095D01*
X135763809Y-84228095D01*
X135687619Y-84190000D01*
X135649523Y-84151904D01*
X135611428Y-84075714D01*
X135611428Y-84037619D01*
X135649523Y-83961428D01*
X135687619Y-83923333D01*
X135763809Y-83885238D01*
X135916190Y-83885238D01*
X135992380Y-83847142D01*
X136030476Y-83809047D01*
X136068571Y-83732857D01*
X136068571Y-83580476D01*
X136030476Y-83504285D01*
X135992380Y-83466190D01*
X135916190Y-83428095D01*
X135763809Y-83428095D01*
X135687619Y-83466190D01*
X135649523Y-83504285D01*
X135611428Y-83580476D01*
X135611428Y-83732857D01*
X135649523Y-83809047D01*
X135687619Y-83847142D01*
X135763809Y-83885238D01*
X134345238Y-82638095D02*
X134345238Y-83438095D01*
X134154761Y-83438095D01*
X134040476Y-83400000D01*
X133964285Y-83323809D01*
X133926190Y-83247619D01*
X133888095Y-83095238D01*
X133888095Y-82980952D01*
X133926190Y-82828571D01*
X133964285Y-82752380D01*
X134040476Y-82676190D01*
X134154761Y-82638095D01*
X134345238Y-82638095D01*
X133507142Y-82638095D02*
X133354761Y-82638095D01*
X133278571Y-82676190D01*
X133240476Y-82714285D01*
X133164285Y-82828571D01*
X133126190Y-82980952D01*
X133126190Y-83285714D01*
X133164285Y-83361904D01*
X133202380Y-83400000D01*
X133278571Y-83438095D01*
X133430952Y-83438095D01*
X133507142Y-83400000D01*
X133545238Y-83361904D01*
X133583333Y-83285714D01*
X133583333Y-83095238D01*
X133545238Y-83019047D01*
X133507142Y-82980952D01*
X133430952Y-82942857D01*
X133278571Y-82942857D01*
X133202380Y-82980952D01*
X133164285Y-83019047D01*
X133126190Y-83095238D01*
X132669047Y-83438095D02*
X132669047Y-83247619D01*
X132859523Y-83323809D02*
X132669047Y-83247619D01*
X132478571Y-83323809D01*
X132783333Y-83095238D02*
X132669047Y-83247619D01*
X132554761Y-83095238D01*
X132076190Y-83838095D02*
X132076190Y-84638095D01*
X131885714Y-84638095D01*
X131771428Y-84600000D01*
X131695238Y-84523809D01*
X131657142Y-84447619D01*
X131619047Y-84295238D01*
X131619047Y-84180952D01*
X131657142Y-84028571D01*
X131695238Y-83952380D01*
X131771428Y-83876190D01*
X131885714Y-83838095D01*
X132076190Y-83838095D01*
X130857142Y-83838095D02*
X131314285Y-83838095D01*
X131085714Y-83838095D02*
X131085714Y-84638095D01*
X131161904Y-84523809D01*
X131238095Y-84447619D01*
X131314285Y-84409523D01*
X130361904Y-84638095D02*
X130285714Y-84638095D01*
X130209523Y-84600000D01*
X130171428Y-84561904D01*
X130133333Y-84485714D01*
X130095238Y-84333333D01*
X130095238Y-84142857D01*
X130133333Y-83990476D01*
X130171428Y-83914285D01*
X130209523Y-83876190D01*
X130285714Y-83838095D01*
X130361904Y-83838095D01*
X130438095Y-83876190D01*
X130476190Y-83914285D01*
X130514285Y-83990476D01*
X130552380Y-84142857D01*
X130552380Y-84333333D01*
X130514285Y-84485714D01*
X130476190Y-84561904D01*
X130438095Y-84600000D01*
X130361904Y-84638095D01*
X129638095Y-84638095D02*
X129638095Y-84447619D01*
X129828571Y-84523809D02*
X129638095Y-84447619D01*
X129447619Y-84523809D01*
X129752380Y-84295238D02*
X129638095Y-84447619D01*
X129523809Y-84295238D01*
X129496190Y-82738095D02*
X129496190Y-83538095D01*
X129305714Y-83538095D01*
X129191428Y-83500000D01*
X129115238Y-83423809D01*
X129077142Y-83347619D01*
X129039047Y-83195238D01*
X129039047Y-83080952D01*
X129077142Y-82928571D01*
X129115238Y-82852380D01*
X129191428Y-82776190D01*
X129305714Y-82738095D01*
X129496190Y-82738095D01*
X128277142Y-82738095D02*
X128734285Y-82738095D01*
X128505714Y-82738095D02*
X128505714Y-83538095D01*
X128581904Y-83423809D01*
X128658095Y-83347619D01*
X128734285Y-83309523D01*
X127515238Y-82738095D02*
X127972380Y-82738095D01*
X127743809Y-82738095D02*
X127743809Y-83538095D01*
X127820000Y-83423809D01*
X127896190Y-83347619D01*
X127972380Y-83309523D01*
X127058095Y-83538095D02*
X127058095Y-83347619D01*
X127248571Y-83423809D02*
X127058095Y-83347619D01*
X126867619Y-83423809D01*
X127172380Y-83195238D02*
X127058095Y-83347619D01*
X126943809Y-83195238D01*
X126781428Y-84048095D02*
X126781428Y-84848095D01*
X126590952Y-84848095D01*
X126476666Y-84810000D01*
X126400476Y-84733809D01*
X126362380Y-84657619D01*
X126324285Y-84505238D01*
X126324285Y-84390952D01*
X126362380Y-84238571D01*
X126400476Y-84162380D01*
X126476666Y-84086190D01*
X126590952Y-84048095D01*
X126781428Y-84048095D01*
X125562380Y-84048095D02*
X126019523Y-84048095D01*
X125790952Y-84048095D02*
X125790952Y-84848095D01*
X125867142Y-84733809D01*
X125943333Y-84657619D01*
X126019523Y-84619523D01*
X125257619Y-84771904D02*
X125219523Y-84810000D01*
X125143333Y-84848095D01*
X124952857Y-84848095D01*
X124876666Y-84810000D01*
X124838571Y-84771904D01*
X124800476Y-84695714D01*
X124800476Y-84619523D01*
X124838571Y-84505238D01*
X125295714Y-84048095D01*
X124800476Y-84048095D01*
X130622857Y-104521904D02*
X130356190Y-104140952D01*
X130165714Y-104521904D02*
X130165714Y-103721904D01*
X130470476Y-103721904D01*
X130546666Y-103760000D01*
X130584761Y-103798095D01*
X130622857Y-103874285D01*
X130622857Y-103988571D01*
X130584761Y-104064761D01*
X130546666Y-104102857D01*
X130470476Y-104140952D01*
X130165714Y-104140952D01*
X130965714Y-104102857D02*
X131232380Y-104102857D01*
X131346666Y-104521904D02*
X130965714Y-104521904D01*
X130965714Y-103721904D01*
X131346666Y-103721904D01*
X131956190Y-104102857D02*
X131689523Y-104102857D01*
X131689523Y-104521904D02*
X131689523Y-103721904D01*
X132070476Y-103721904D01*
X161063809Y-103721904D02*
X161330476Y-104521904D01*
X161597142Y-103721904D01*
X161863809Y-104521904D02*
X161863809Y-103721904D01*
X162244761Y-104521904D02*
X162244761Y-103721904D01*
X162701904Y-104521904D01*
X162701904Y-103721904D01*
X158470476Y-103790000D02*
X158394285Y-103751904D01*
X158280000Y-103751904D01*
X158165714Y-103790000D01*
X158089523Y-103866190D01*
X158051428Y-103942380D01*
X158013333Y-104094761D01*
X158013333Y-104209047D01*
X158051428Y-104361428D01*
X158089523Y-104437619D01*
X158165714Y-104513809D01*
X158280000Y-104551904D01*
X158356190Y-104551904D01*
X158470476Y-104513809D01*
X158508571Y-104475714D01*
X158508571Y-104209047D01*
X158356190Y-104209047D01*
X158851428Y-104551904D02*
X158851428Y-103751904D01*
X159308571Y-104551904D01*
X159308571Y-103751904D01*
X159689523Y-104551904D02*
X159689523Y-103751904D01*
X159880000Y-103751904D01*
X159994285Y-103790000D01*
X160070476Y-103866190D01*
X160108571Y-103942380D01*
X160146666Y-104094761D01*
X160146666Y-104209047D01*
X160108571Y-104361428D01*
X160070476Y-104437619D01*
X159994285Y-104513809D01*
X159880000Y-104551904D01*
X159689523Y-104551904D01*
X155961904Y-104451904D02*
X155695238Y-104070952D01*
X155504761Y-104451904D02*
X155504761Y-103651904D01*
X155809523Y-103651904D01*
X155885714Y-103690000D01*
X155923809Y-103728095D01*
X155961904Y-103804285D01*
X155961904Y-103918571D01*
X155923809Y-103994761D01*
X155885714Y-104032857D01*
X155809523Y-104070952D01*
X155504761Y-104070952D01*
X156266666Y-104413809D02*
X156380952Y-104451904D01*
X156571428Y-104451904D01*
X156647619Y-104413809D01*
X156685714Y-104375714D01*
X156723809Y-104299523D01*
X156723809Y-104223333D01*
X156685714Y-104147142D01*
X156647619Y-104109047D01*
X156571428Y-104070952D01*
X156419047Y-104032857D01*
X156342857Y-103994761D01*
X156304761Y-103956666D01*
X156266666Y-103880476D01*
X156266666Y-103804285D01*
X156304761Y-103728095D01*
X156342857Y-103690000D01*
X156419047Y-103651904D01*
X156609523Y-103651904D01*
X156723809Y-103690000D01*
X156952380Y-103651904D02*
X157409523Y-103651904D01*
X157180952Y-104451904D02*
X157180952Y-103651904D01*
X153705714Y-103581904D02*
X153324761Y-103581904D01*
X153286666Y-103962857D01*
X153324761Y-103924761D01*
X153400952Y-103886666D01*
X153591428Y-103886666D01*
X153667619Y-103924761D01*
X153705714Y-103962857D01*
X153743809Y-104039047D01*
X153743809Y-104229523D01*
X153705714Y-104305714D01*
X153667619Y-104343809D01*
X153591428Y-104381904D01*
X153400952Y-104381904D01*
X153324761Y-104343809D01*
X153286666Y-104305714D01*
X154010476Y-103848571D02*
X154200952Y-104381904D01*
X154391428Y-103848571D01*
X150698571Y-104183333D02*
X151079523Y-104183333D01*
X150622380Y-104411904D02*
X150889047Y-103611904D01*
X151155714Y-104411904D01*
X151346190Y-103611904D02*
X151879523Y-103611904D01*
X151536666Y-104411904D01*
X148188571Y-104223333D02*
X148569523Y-104223333D01*
X148112380Y-104451904D02*
X148379047Y-103651904D01*
X148645714Y-104451904D01*
X149255238Y-103651904D02*
X149102857Y-103651904D01*
X149026666Y-103690000D01*
X148988571Y-103728095D01*
X148912380Y-103842380D01*
X148874285Y-103994761D01*
X148874285Y-104299523D01*
X148912380Y-104375714D01*
X148950476Y-104413809D01*
X149026666Y-104451904D01*
X149179047Y-104451904D01*
X149255238Y-104413809D01*
X149293333Y-104375714D01*
X149331428Y-104299523D01*
X149331428Y-104109047D01*
X149293333Y-104032857D01*
X149255238Y-103994761D01*
X149179047Y-103956666D01*
X149026666Y-103956666D01*
X148950476Y-103994761D01*
X148912380Y-104032857D01*
X148874285Y-104109047D01*
X145628571Y-104233333D02*
X146009523Y-104233333D01*
X145552380Y-104461904D02*
X145819047Y-103661904D01*
X146085714Y-104461904D01*
X146733333Y-103661904D02*
X146352380Y-103661904D01*
X146314285Y-104042857D01*
X146352380Y-104004761D01*
X146428571Y-103966666D01*
X146619047Y-103966666D01*
X146695238Y-104004761D01*
X146733333Y-104042857D01*
X146771428Y-104119047D01*
X146771428Y-104309523D01*
X146733333Y-104385714D01*
X146695238Y-104423809D01*
X146619047Y-104461904D01*
X146428571Y-104461904D01*
X146352380Y-104423809D01*
X146314285Y-104385714D01*
X143098571Y-104253333D02*
X143479523Y-104253333D01*
X143022380Y-104481904D02*
X143289047Y-103681904D01*
X143555714Y-104481904D01*
X144165238Y-103948571D02*
X144165238Y-104481904D01*
X143974761Y-103643809D02*
X143784285Y-104215238D01*
X144279523Y-104215238D01*
X140588571Y-104253333D02*
X140969523Y-104253333D01*
X140512380Y-104481904D02*
X140779047Y-103681904D01*
X141045714Y-104481904D01*
X141236190Y-103681904D02*
X141731428Y-103681904D01*
X141464761Y-103986666D01*
X141579047Y-103986666D01*
X141655238Y-104024761D01*
X141693333Y-104062857D01*
X141731428Y-104139047D01*
X141731428Y-104329523D01*
X141693333Y-104405714D01*
X141655238Y-104443809D01*
X141579047Y-104481904D01*
X141350476Y-104481904D01*
X141274285Y-104443809D01*
X141236190Y-104405714D01*
X138038571Y-104183333D02*
X138419523Y-104183333D01*
X137962380Y-104411904D02*
X138229047Y-103611904D01*
X138495714Y-104411904D01*
X138724285Y-103688095D02*
X138762380Y-103650000D01*
X138838571Y-103611904D01*
X139029047Y-103611904D01*
X139105238Y-103650000D01*
X139143333Y-103688095D01*
X139181428Y-103764285D01*
X139181428Y-103840476D01*
X139143333Y-103954761D01*
X138686190Y-104411904D01*
X139181428Y-104411904D01*
X135428571Y-104223333D02*
X135809523Y-104223333D01*
X135352380Y-104451904D02*
X135619047Y-103651904D01*
X135885714Y-104451904D01*
X136571428Y-104451904D02*
X136114285Y-104451904D01*
X136342857Y-104451904D02*
X136342857Y-103651904D01*
X136266666Y-103766190D01*
X136190476Y-103842380D01*
X136114285Y-103880476D01*
X133018571Y-104223333D02*
X133399523Y-104223333D01*
X132942380Y-104451904D02*
X133209047Y-103651904D01*
X133475714Y-104451904D01*
X133894761Y-103651904D02*
X133970952Y-103651904D01*
X134047142Y-103690000D01*
X134085238Y-103728095D01*
X134123333Y-103804285D01*
X134161428Y-103956666D01*
X134161428Y-104147142D01*
X134123333Y-104299523D01*
X134085238Y-104375714D01*
X134047142Y-104413809D01*
X133970952Y-104451904D01*
X133894761Y-104451904D01*
X133818571Y-104413809D01*
X133780476Y-104375714D01*
X133742380Y-104299523D01*
X133704285Y-104147142D01*
X133704285Y-103956666D01*
X133742380Y-103804285D01*
X133780476Y-103728095D01*
X133818571Y-103690000D01*
X133894761Y-103651904D01*
X127477619Y-103721904D02*
X127972857Y-103721904D01*
X127706190Y-104026666D01*
X127820476Y-104026666D01*
X127896666Y-104064761D01*
X127934761Y-104102857D01*
X127972857Y-104179047D01*
X127972857Y-104369523D01*
X127934761Y-104445714D01*
X127896666Y-104483809D01*
X127820476Y-104521904D01*
X127591904Y-104521904D01*
X127515714Y-104483809D01*
X127477619Y-104445714D01*
X128239523Y-103988571D02*
X128430000Y-104521904D01*
X128620476Y-103988571D01*
X128849047Y-103721904D02*
X129344285Y-103721904D01*
X129077619Y-104026666D01*
X129191904Y-104026666D01*
X129268095Y-104064761D01*
X129306190Y-104102857D01*
X129344285Y-104179047D01*
X129344285Y-104369523D01*
X129306190Y-104445714D01*
X129268095Y-104483809D01*
X129191904Y-104521904D01*
X128963333Y-104521904D01*
X128887142Y-104483809D01*
X128849047Y-104445714D01*
X124638571Y-104521904D02*
X124638571Y-103721904D01*
X124829047Y-103721904D01*
X124943333Y-103760000D01*
X125019523Y-103836190D01*
X125057619Y-103912380D01*
X125095714Y-104064761D01*
X125095714Y-104179047D01*
X125057619Y-104331428D01*
X125019523Y-104407619D01*
X124943333Y-104483809D01*
X124829047Y-104521904D01*
X124638571Y-104521904D01*
X125857619Y-104521904D02*
X125400476Y-104521904D01*
X125629047Y-104521904D02*
X125629047Y-103721904D01*
X125552857Y-103836190D01*
X125476666Y-103912380D01*
X125400476Y-103950476D01*
X126124285Y-103721904D02*
X126619523Y-103721904D01*
X126352857Y-104026666D01*
X126467142Y-104026666D01*
X126543333Y-104064761D01*
X126581428Y-104102857D01*
X126619523Y-104179047D01*
X126619523Y-104369523D01*
X126581428Y-104445714D01*
X126543333Y-104483809D01*
X126467142Y-104521904D01*
X126238571Y-104521904D01*
X126162380Y-104483809D01*
X126124285Y-104445714D01*
X134078571Y-110621904D02*
X134078571Y-111193333D01*
X134040476Y-111307619D01*
X133964285Y-111383809D01*
X133850000Y-111421904D01*
X133773809Y-111421904D01*
X134459523Y-111421904D02*
X134459523Y-110621904D01*
X134726190Y-111193333D01*
X134992857Y-110621904D01*
X134992857Y-111421904D01*
X135373809Y-111421904D02*
X135373809Y-110621904D01*
X135678571Y-110621904D01*
X135754761Y-110660000D01*
X135792857Y-110698095D01*
X135830952Y-110774285D01*
X135830952Y-110888571D01*
X135792857Y-110964761D01*
X135754761Y-111002857D01*
X135678571Y-111040952D01*
X135373809Y-111040952D01*
X136669047Y-110621904D02*
X137126190Y-110621904D01*
X136897619Y-111421904D02*
X136897619Y-110621904D01*
X137545238Y-110621904D02*
X137697619Y-110621904D01*
X137773809Y-110660000D01*
X137850000Y-110736190D01*
X137888095Y-110888571D01*
X137888095Y-111155238D01*
X137850000Y-111307619D01*
X137773809Y-111383809D01*
X137697619Y-111421904D01*
X137545238Y-111421904D01*
X137469047Y-111383809D01*
X137392857Y-111307619D01*
X137354761Y-111155238D01*
X137354761Y-110888571D01*
X137392857Y-110736190D01*
X137469047Y-110660000D01*
X137545238Y-110621904D01*
X139259523Y-110660000D02*
X139183333Y-110621904D01*
X139069047Y-110621904D01*
X138954761Y-110660000D01*
X138878571Y-110736190D01*
X138840476Y-110812380D01*
X138802380Y-110964761D01*
X138802380Y-111079047D01*
X138840476Y-111231428D01*
X138878571Y-111307619D01*
X138954761Y-111383809D01*
X139069047Y-111421904D01*
X139145238Y-111421904D01*
X139259523Y-111383809D01*
X139297619Y-111345714D01*
X139297619Y-111079047D01*
X139145238Y-111079047D01*
X140097619Y-111421904D02*
X139830952Y-111040952D01*
X139640476Y-111421904D02*
X139640476Y-110621904D01*
X139945238Y-110621904D01*
X140021428Y-110660000D01*
X140059523Y-110698095D01*
X140097619Y-110774285D01*
X140097619Y-110888571D01*
X140059523Y-110964761D01*
X140021428Y-111002857D01*
X139945238Y-111040952D01*
X139640476Y-111040952D01*
X140592857Y-110621904D02*
X140745238Y-110621904D01*
X140821428Y-110660000D01*
X140897619Y-110736190D01*
X140935714Y-110888571D01*
X140935714Y-111155238D01*
X140897619Y-111307619D01*
X140821428Y-111383809D01*
X140745238Y-111421904D01*
X140592857Y-111421904D01*
X140516666Y-111383809D01*
X140440476Y-111307619D01*
X140402380Y-111155238D01*
X140402380Y-110888571D01*
X140440476Y-110736190D01*
X140516666Y-110660000D01*
X140592857Y-110621904D01*
X141278571Y-110621904D02*
X141278571Y-111269523D01*
X141316666Y-111345714D01*
X141354761Y-111383809D01*
X141430952Y-111421904D01*
X141583333Y-111421904D01*
X141659523Y-111383809D01*
X141697619Y-111345714D01*
X141735714Y-111269523D01*
X141735714Y-110621904D01*
X142116666Y-111421904D02*
X142116666Y-110621904D01*
X142573809Y-111421904D01*
X142573809Y-110621904D01*
X142954761Y-111421904D02*
X142954761Y-110621904D01*
X143145238Y-110621904D01*
X143259523Y-110660000D01*
X143335714Y-110736190D01*
X143373809Y-110812380D01*
X143411904Y-110964761D01*
X143411904Y-111079047D01*
X143373809Y-111231428D01*
X143335714Y-111307619D01*
X143259523Y-111383809D01*
X143145238Y-111421904D01*
X142954761Y-111421904D01*
X144516666Y-110621904D02*
X144669047Y-110621904D01*
X144745238Y-110660000D01*
X144821428Y-110736190D01*
X144859523Y-110888571D01*
X144859523Y-111155238D01*
X144821428Y-111307619D01*
X144745238Y-111383809D01*
X144669047Y-111421904D01*
X144516666Y-111421904D01*
X144440476Y-111383809D01*
X144364285Y-111307619D01*
X144326190Y-111155238D01*
X144326190Y-110888571D01*
X144364285Y-110736190D01*
X144440476Y-110660000D01*
X144516666Y-110621904D01*
X145659523Y-111421904D02*
X145392857Y-111040952D01*
X145202380Y-111421904D02*
X145202380Y-110621904D01*
X145507142Y-110621904D01*
X145583333Y-110660000D01*
X145621428Y-110698095D01*
X145659523Y-110774285D01*
X145659523Y-110888571D01*
X145621428Y-110964761D01*
X145583333Y-111002857D01*
X145507142Y-111040952D01*
X145202380Y-111040952D01*
X147069047Y-111421904D02*
X146802380Y-111040952D01*
X146611904Y-111421904D02*
X146611904Y-110621904D01*
X146916666Y-110621904D01*
X146992857Y-110660000D01*
X147030952Y-110698095D01*
X147069047Y-110774285D01*
X147069047Y-110888571D01*
X147030952Y-110964761D01*
X146992857Y-111002857D01*
X146916666Y-111040952D01*
X146611904Y-111040952D01*
X147411904Y-111002857D02*
X147678571Y-111002857D01*
X147792857Y-111421904D02*
X147411904Y-111421904D01*
X147411904Y-110621904D01*
X147792857Y-110621904D01*
X148402380Y-111002857D02*
X148135714Y-111002857D01*
X148135714Y-111421904D02*
X148135714Y-110621904D01*
X148516666Y-110621904D01*
X148821428Y-111002857D02*
X149088095Y-111002857D01*
X149202380Y-111421904D02*
X148821428Y-111421904D01*
X148821428Y-110621904D01*
X149202380Y-110621904D01*
X150002380Y-111421904D02*
X149735714Y-111040952D01*
X149545238Y-111421904D02*
X149545238Y-110621904D01*
X149850000Y-110621904D01*
X149926190Y-110660000D01*
X149964285Y-110698095D01*
X150002380Y-110774285D01*
X150002380Y-110888571D01*
X149964285Y-110964761D01*
X149926190Y-111002857D01*
X149850000Y-111040952D01*
X149545238Y-111040952D01*
X150345238Y-111002857D02*
X150611904Y-111002857D01*
X150726190Y-111421904D02*
X150345238Y-111421904D01*
X150345238Y-110621904D01*
X150726190Y-110621904D01*
X151069047Y-111421904D02*
X151069047Y-110621904D01*
X151526190Y-111421904D01*
X151526190Y-110621904D01*
X152364285Y-111345714D02*
X152326190Y-111383809D01*
X152211904Y-111421904D01*
X152135714Y-111421904D01*
X152021428Y-111383809D01*
X151945238Y-111307619D01*
X151907142Y-111231428D01*
X151869047Y-111079047D01*
X151869047Y-110964761D01*
X151907142Y-110812380D01*
X151945238Y-110736190D01*
X152021428Y-110660000D01*
X152135714Y-110621904D01*
X152211904Y-110621904D01*
X152326190Y-110660000D01*
X152364285Y-110698095D01*
X152707142Y-111002857D02*
X152973809Y-111002857D01*
X153088095Y-111421904D02*
X152707142Y-111421904D01*
X152707142Y-110621904D01*
X153088095Y-110621904D01*
D12*
X128894184Y-121922634D02*
X128848222Y-121968596D01*
X128710336Y-122014558D01*
X128618412Y-122014558D01*
X128480527Y-121968596D01*
X128388603Y-121876672D01*
X128342641Y-121784748D01*
X128296679Y-121600900D01*
X128296679Y-121463015D01*
X128342641Y-121279167D01*
X128388603Y-121187243D01*
X128480527Y-121095320D01*
X128618412Y-121049358D01*
X128710336Y-121049358D01*
X128848222Y-121095320D01*
X128894184Y-121141281D01*
X129445727Y-122014558D02*
X129353803Y-121968596D01*
X129307841Y-121922634D01*
X129261879Y-121830710D01*
X129261879Y-121554939D01*
X129307841Y-121463015D01*
X129353803Y-121417053D01*
X129445727Y-121371091D01*
X129583612Y-121371091D01*
X129675536Y-121417053D01*
X129721498Y-121463015D01*
X129767460Y-121554939D01*
X129767460Y-121830710D01*
X129721498Y-121922634D01*
X129675536Y-121968596D01*
X129583612Y-122014558D01*
X129445727Y-122014558D01*
X130181117Y-122014558D02*
X130181117Y-121371091D01*
X130181117Y-121463015D02*
X130227079Y-121417053D01*
X130319003Y-121371091D01*
X130456889Y-121371091D01*
X130548812Y-121417053D01*
X130594774Y-121508977D01*
X130594774Y-122014558D01*
X130594774Y-121508977D02*
X130640736Y-121417053D01*
X130732660Y-121371091D01*
X130870546Y-121371091D01*
X130962470Y-121417053D01*
X131008432Y-121508977D01*
X131008432Y-122014558D01*
X131468051Y-121371091D02*
X131468051Y-122336291D01*
X131468051Y-121417053D02*
X131559974Y-121371091D01*
X131743822Y-121371091D01*
X131835746Y-121417053D01*
X131881708Y-121463015D01*
X131927670Y-121554939D01*
X131927670Y-121830710D01*
X131881708Y-121922634D01*
X131835746Y-121968596D01*
X131743822Y-122014558D01*
X131559974Y-122014558D01*
X131468051Y-121968596D01*
X132479212Y-122014558D02*
X132387289Y-121968596D01*
X132341327Y-121922634D01*
X132295365Y-121830710D01*
X132295365Y-121554939D01*
X132341327Y-121463015D01*
X132387289Y-121417053D01*
X132479212Y-121371091D01*
X132617098Y-121371091D01*
X132709022Y-121417053D01*
X132754984Y-121463015D01*
X132800946Y-121554939D01*
X132800946Y-121830710D01*
X132754984Y-121922634D01*
X132709022Y-121968596D01*
X132617098Y-122014558D01*
X132479212Y-122014558D01*
X133214603Y-121371091D02*
X133214603Y-122014558D01*
X133214603Y-121463015D02*
X133260565Y-121417053D01*
X133352489Y-121371091D01*
X133490374Y-121371091D01*
X133582298Y-121417053D01*
X133628260Y-121508977D01*
X133628260Y-122014558D01*
X134455574Y-121968596D02*
X134363651Y-122014558D01*
X134179803Y-122014558D01*
X134087879Y-121968596D01*
X134041917Y-121876672D01*
X134041917Y-121508977D01*
X134087879Y-121417053D01*
X134179803Y-121371091D01*
X134363651Y-121371091D01*
X134455574Y-121417053D01*
X134501536Y-121508977D01*
X134501536Y-121600900D01*
X134041917Y-121692824D01*
X134915193Y-121371091D02*
X134915193Y-122014558D01*
X134915193Y-121463015D02*
X134961155Y-121417053D01*
X135053079Y-121371091D01*
X135190965Y-121371091D01*
X135282889Y-121417053D01*
X135328851Y-121508977D01*
X135328851Y-122014558D01*
X135650584Y-121371091D02*
X136018279Y-121371091D01*
X135788470Y-121049358D02*
X135788470Y-121876672D01*
X135834432Y-121968596D01*
X135926355Y-122014558D01*
X136018279Y-122014558D01*
X130502851Y-123497676D02*
X130640736Y-123543638D01*
X130870546Y-123543638D01*
X130962470Y-123497676D01*
X131008432Y-123451714D01*
X131054393Y-123359790D01*
X131054393Y-123267866D01*
X131008432Y-123175942D01*
X130962470Y-123129980D01*
X130870546Y-123084019D01*
X130686698Y-123038057D01*
X130594774Y-122992095D01*
X130548812Y-122946133D01*
X130502851Y-122854209D01*
X130502851Y-122762285D01*
X130548812Y-122670361D01*
X130594774Y-122624400D01*
X130686698Y-122578438D01*
X130916508Y-122578438D01*
X131054393Y-122624400D01*
X131468051Y-123543638D02*
X131468051Y-122900171D01*
X131468051Y-122578438D02*
X131422089Y-122624400D01*
X131468051Y-122670361D01*
X131514012Y-122624400D01*
X131468051Y-122578438D01*
X131468051Y-122670361D01*
X132341327Y-123543638D02*
X132341327Y-122578438D01*
X132341327Y-123497676D02*
X132249403Y-123543638D01*
X132065555Y-123543638D01*
X131973632Y-123497676D01*
X131927670Y-123451714D01*
X131881708Y-123359790D01*
X131881708Y-123084019D01*
X131927670Y-122992095D01*
X131973632Y-122946133D01*
X132065555Y-122900171D01*
X132249403Y-122900171D01*
X132341327Y-122946133D01*
X133168641Y-123497676D02*
X133076717Y-123543638D01*
X132892870Y-123543638D01*
X132800946Y-123497676D01*
X132754984Y-123405752D01*
X132754984Y-123038057D01*
X132800946Y-122946133D01*
X132892870Y-122900171D01*
X133076717Y-122900171D01*
X133168641Y-122946133D01*
X133214603Y-123038057D01*
X133214603Y-123129980D01*
X132754984Y-123221904D01*
X187149758Y-124441587D02*
X187839186Y-124441587D01*
X187977072Y-124487548D01*
X188068996Y-124579472D01*
X188114958Y-124717358D01*
X188114958Y-124809282D01*
X188114958Y-123844082D02*
X188068996Y-123936006D01*
X188023034Y-123981968D01*
X187931110Y-124027929D01*
X187655339Y-124027929D01*
X187563415Y-123981968D01*
X187517453Y-123936006D01*
X187471491Y-123844082D01*
X187471491Y-123706196D01*
X187517453Y-123614272D01*
X187563415Y-123568310D01*
X187655339Y-123522348D01*
X187931110Y-123522348D01*
X188023034Y-123568310D01*
X188068996Y-123614272D01*
X188114958Y-123706196D01*
X188114958Y-123844082D01*
X188114958Y-123108691D02*
X187149758Y-123108691D01*
X188114958Y-122695034D02*
X187609377Y-122695034D01*
X187517453Y-122740996D01*
X187471491Y-122832920D01*
X187471491Y-122970806D01*
X187517453Y-123062729D01*
X187563415Y-123108691D01*
X187471491Y-122235415D02*
X188114958Y-122235415D01*
X187563415Y-122235415D02*
X187517453Y-122189453D01*
X187471491Y-122097529D01*
X187471491Y-121959644D01*
X187517453Y-121867720D01*
X187609377Y-121821758D01*
X188114958Y-121821758D01*
X188114958Y-120626748D02*
X187149758Y-120626748D01*
X187149758Y-120259053D01*
X187195720Y-120167129D01*
X187241681Y-120121168D01*
X187333605Y-120075206D01*
X187471491Y-120075206D01*
X187563415Y-120121168D01*
X187609377Y-120167129D01*
X187655339Y-120259053D01*
X187655339Y-120626748D01*
X188114958Y-119523663D02*
X188068996Y-119615587D01*
X187977072Y-119661548D01*
X187149758Y-119661548D01*
X188114958Y-119018082D02*
X188068996Y-119110006D01*
X188023034Y-119155968D01*
X187931110Y-119201929D01*
X187655339Y-119201929D01*
X187563415Y-119155968D01*
X187517453Y-119110006D01*
X187471491Y-119018082D01*
X187471491Y-118880196D01*
X187517453Y-118788272D01*
X187563415Y-118742310D01*
X187655339Y-118696348D01*
X187931110Y-118696348D01*
X188023034Y-118742310D01*
X188068996Y-118788272D01*
X188114958Y-118880196D01*
X188114958Y-119018082D01*
X188068996Y-117869034D02*
X188114958Y-117960958D01*
X188114958Y-118144806D01*
X188068996Y-118236729D01*
X188023034Y-118282691D01*
X187931110Y-118328653D01*
X187655339Y-118328653D01*
X187563415Y-118282691D01*
X187517453Y-118236729D01*
X187471491Y-118144806D01*
X187471491Y-117960958D01*
X187517453Y-117869034D01*
X188114958Y-117455377D02*
X187149758Y-117455377D01*
X188114958Y-117041720D02*
X187609377Y-117041720D01*
X187517453Y-117087682D01*
X187471491Y-117179606D01*
X187471491Y-117317491D01*
X187517453Y-117409415D01*
X187563415Y-117455377D01*
X188068996Y-116214406D02*
X188114958Y-116306329D01*
X188114958Y-116490177D01*
X188068996Y-116582101D01*
X187977072Y-116628063D01*
X187609377Y-116628063D01*
X187517453Y-116582101D01*
X187471491Y-116490177D01*
X187471491Y-116306329D01*
X187517453Y-116214406D01*
X187609377Y-116168444D01*
X187701300Y-116168444D01*
X187793224Y-116628063D01*
X188114958Y-115754787D02*
X187471491Y-115754787D01*
X187655339Y-115754787D02*
X187563415Y-115708825D01*
X187517453Y-115662863D01*
X187471491Y-115570939D01*
X187471491Y-115479015D01*
X187747262Y-114421891D02*
X187747262Y-113686501D01*
X188068996Y-112537453D02*
X188114958Y-112445529D01*
X188114958Y-112261682D01*
X188068996Y-112169758D01*
X187977072Y-112123796D01*
X187931110Y-112123796D01*
X187839186Y-112169758D01*
X187793224Y-112261682D01*
X187793224Y-112399568D01*
X187747262Y-112491491D01*
X187655339Y-112537453D01*
X187609377Y-112537453D01*
X187517453Y-112491491D01*
X187471491Y-112399568D01*
X187471491Y-112261682D01*
X187517453Y-112169758D01*
X188068996Y-111296482D02*
X188114958Y-111388406D01*
X188114958Y-111572253D01*
X188068996Y-111664177D01*
X188023034Y-111710139D01*
X187931110Y-111756101D01*
X187655339Y-111756101D01*
X187563415Y-111710139D01*
X187517453Y-111664177D01*
X187471491Y-111572253D01*
X187471491Y-111388406D01*
X187517453Y-111296482D01*
X188114958Y-110882825D02*
X187149758Y-110882825D01*
X188114958Y-110469168D02*
X187609377Y-110469168D01*
X187517453Y-110515129D01*
X187471491Y-110607053D01*
X187471491Y-110744939D01*
X187517453Y-110836863D01*
X187563415Y-110882825D01*
X187471491Y-109366082D02*
X188114958Y-109136272D01*
X187471491Y-108906463D01*
X188114958Y-108033187D02*
X188114958Y-108584729D01*
X188114958Y-108308958D02*
X187149758Y-108308958D01*
X187287643Y-108400882D01*
X187379567Y-108492806D01*
X187425529Y-108584729D01*
X188023034Y-107619529D02*
X188068996Y-107573568D01*
X188114958Y-107619529D01*
X188068996Y-107665491D01*
X188023034Y-107619529D01*
X188114958Y-107619529D01*
X187149758Y-107251834D02*
X187149758Y-106654329D01*
X187517453Y-106976063D01*
X187517453Y-106838177D01*
X187563415Y-106746253D01*
X187609377Y-106700291D01*
X187701300Y-106654329D01*
X187931110Y-106654329D01*
X188023034Y-106700291D01*
X188068996Y-106746253D01*
X188114958Y-106838177D01*
X188114958Y-107113948D01*
X188068996Y-107205872D01*
X188023034Y-107251834D01*
X189138457Y-124395625D02*
X189184419Y-124257739D01*
X189230380Y-124211777D01*
X189322304Y-124165815D01*
X189460190Y-124165815D01*
X189552114Y-124211777D01*
X189598076Y-124257739D01*
X189644038Y-124349663D01*
X189644038Y-124717358D01*
X188678838Y-124717358D01*
X188678838Y-124395625D01*
X188724800Y-124303701D01*
X188770761Y-124257739D01*
X188862685Y-124211777D01*
X188954609Y-124211777D01*
X189046533Y-124257739D01*
X189092495Y-124303701D01*
X189138457Y-124395625D01*
X189138457Y-124717358D01*
X189644038Y-123614272D02*
X189598076Y-123706196D01*
X189552114Y-123752158D01*
X189460190Y-123798120D01*
X189184419Y-123798120D01*
X189092495Y-123752158D01*
X189046533Y-123706196D01*
X189000571Y-123614272D01*
X189000571Y-123476387D01*
X189046533Y-123384463D01*
X189092495Y-123338501D01*
X189184419Y-123292539D01*
X189460190Y-123292539D01*
X189552114Y-123338501D01*
X189598076Y-123384463D01*
X189644038Y-123476387D01*
X189644038Y-123614272D01*
X189644038Y-122878882D02*
X188678838Y-122878882D01*
X189046533Y-122878882D02*
X189000571Y-122786958D01*
X189000571Y-122603110D01*
X189046533Y-122511187D01*
X189092495Y-122465225D01*
X189184419Y-122419263D01*
X189460190Y-122419263D01*
X189552114Y-122465225D01*
X189598076Y-122511187D01*
X189644038Y-122603110D01*
X189644038Y-122786958D01*
X189598076Y-122878882D01*
X188724800Y-120764634D02*
X188678838Y-120856558D01*
X188678838Y-120994444D01*
X188724800Y-121132329D01*
X188816723Y-121224253D01*
X188908647Y-121270215D01*
X189092495Y-121316177D01*
X189230380Y-121316177D01*
X189414228Y-121270215D01*
X189506152Y-121224253D01*
X189598076Y-121132329D01*
X189644038Y-120994444D01*
X189644038Y-120902520D01*
X189598076Y-120764634D01*
X189552114Y-120718672D01*
X189230380Y-120718672D01*
X189230380Y-120902520D01*
X189644038Y-119891358D02*
X189138457Y-119891358D01*
X189046533Y-119937320D01*
X189000571Y-120029244D01*
X189000571Y-120213091D01*
X189046533Y-120305015D01*
X189598076Y-119891358D02*
X189644038Y-119983282D01*
X189644038Y-120213091D01*
X189598076Y-120305015D01*
X189506152Y-120350977D01*
X189414228Y-120350977D01*
X189322304Y-120305015D01*
X189276342Y-120213091D01*
X189276342Y-119983282D01*
X189230380Y-119891358D01*
X189644038Y-119431739D02*
X189000571Y-119431739D01*
X189092495Y-119431739D02*
X189046533Y-119385777D01*
X189000571Y-119293853D01*
X189000571Y-119155968D01*
X189046533Y-119064044D01*
X189138457Y-119018082D01*
X189644038Y-119018082D01*
X189138457Y-119018082D02*
X189046533Y-118972120D01*
X189000571Y-118880196D01*
X189000571Y-118742310D01*
X189046533Y-118650387D01*
X189138457Y-118604425D01*
X189644038Y-118604425D01*
X189644038Y-118144806D02*
X188678838Y-118144806D01*
X189046533Y-118144806D02*
X189000571Y-118052882D01*
X189000571Y-117869034D01*
X189046533Y-117777110D01*
X189092495Y-117731148D01*
X189184419Y-117685187D01*
X189460190Y-117685187D01*
X189552114Y-117731148D01*
X189598076Y-117777110D01*
X189644038Y-117869034D01*
X189644038Y-118052882D01*
X189598076Y-118144806D01*
X189644038Y-117133644D02*
X189598076Y-117225568D01*
X189506152Y-117271529D01*
X188678838Y-117271529D01*
X189598076Y-116398253D02*
X189644038Y-116490177D01*
X189644038Y-116674025D01*
X189598076Y-116765948D01*
X189506152Y-116811910D01*
X189138457Y-116811910D01*
X189046533Y-116765948D01*
X189000571Y-116674025D01*
X189000571Y-116490177D01*
X189046533Y-116398253D01*
X189138457Y-116352291D01*
X189230380Y-116352291D01*
X189322304Y-116811910D01*
X189276342Y-115203244D02*
X189276342Y-114467853D01*
X189644038Y-113272844D02*
X188678838Y-113272844D01*
X188678838Y-112905148D01*
X188724800Y-112813225D01*
X188770761Y-112767263D01*
X188862685Y-112721301D01*
X189000571Y-112721301D01*
X189092495Y-112767263D01*
X189138457Y-112813225D01*
X189184419Y-112905148D01*
X189184419Y-113272844D01*
X189552114Y-111756101D02*
X189598076Y-111802063D01*
X189644038Y-111939948D01*
X189644038Y-112031872D01*
X189598076Y-112169758D01*
X189506152Y-112261682D01*
X189414228Y-112307644D01*
X189230380Y-112353606D01*
X189092495Y-112353606D01*
X188908647Y-112307644D01*
X188816723Y-112261682D01*
X188724800Y-112169758D01*
X188678838Y-112031872D01*
X188678838Y-111939948D01*
X188724800Y-111802063D01*
X188770761Y-111756101D01*
X189138457Y-111020710D02*
X189184419Y-110882825D01*
X189230380Y-110836863D01*
X189322304Y-110790901D01*
X189460190Y-110790901D01*
X189552114Y-110836863D01*
X189598076Y-110882825D01*
X189644038Y-110974748D01*
X189644038Y-111342444D01*
X188678838Y-111342444D01*
X188678838Y-111020710D01*
X188724800Y-110928787D01*
X188770761Y-110882825D01*
X188862685Y-110836863D01*
X188954609Y-110836863D01*
X189046533Y-110882825D01*
X189092495Y-110928787D01*
X189138457Y-111020710D01*
X189138457Y-111342444D01*
D13*
X190384609Y-96900656D02*
X190347840Y-96863886D01*
X190311070Y-96790347D01*
X190311070Y-96606500D01*
X190347840Y-96532961D01*
X190384609Y-96496191D01*
X190458148Y-96459422D01*
X190531687Y-96459422D01*
X190641996Y-96496191D01*
X191083230Y-96937425D01*
X191083230Y-96459422D01*
X190311070Y-95981418D02*
X190311070Y-95907879D01*
X190347840Y-95834340D01*
X190384609Y-95797570D01*
X190458148Y-95760801D01*
X190605226Y-95724031D01*
X190789074Y-95724031D01*
X190936152Y-95760801D01*
X191009691Y-95797570D01*
X191046460Y-95834340D01*
X191083230Y-95907879D01*
X191083230Y-95981418D01*
X191046460Y-96054957D01*
X191009691Y-96091726D01*
X190936152Y-96128496D01*
X190789074Y-96165265D01*
X190605226Y-96165265D01*
X190458148Y-96128496D01*
X190384609Y-96091726D01*
X190347840Y-96054957D01*
X190311070Y-95981418D01*
X190384609Y-95429875D02*
X190347840Y-95393105D01*
X190311070Y-95319566D01*
X190311070Y-95135719D01*
X190347840Y-95062180D01*
X190384609Y-95025410D01*
X190458148Y-94988641D01*
X190531687Y-94988641D01*
X190641996Y-95025410D01*
X191083230Y-95466644D01*
X191083230Y-94988641D01*
X191083230Y-94253250D02*
X191083230Y-94694484D01*
X191083230Y-94473867D02*
X190311070Y-94473867D01*
X190421379Y-94547406D01*
X190494918Y-94620945D01*
X190531687Y-94694484D01*
X191009691Y-93922324D02*
X191046460Y-93885555D01*
X191083230Y-93922324D01*
X191046460Y-93959094D01*
X191009691Y-93922324D01*
X191083230Y-93922324D01*
X191083230Y-93150164D02*
X191083230Y-93591399D01*
X191083230Y-93370782D02*
X190311070Y-93370782D01*
X190421379Y-93444321D01*
X190494918Y-93517860D01*
X190531687Y-93591399D01*
X191083230Y-92414774D02*
X191083230Y-92856008D01*
X191083230Y-92635391D02*
X190311070Y-92635391D01*
X190421379Y-92708930D01*
X190494918Y-92782469D01*
X190531687Y-92856008D01*
D12*
X186364038Y-126327358D02*
X185398838Y-126327358D01*
X186364038Y-125775815D01*
X185398838Y-125775815D01*
X186364038Y-124902539D02*
X185858457Y-124902539D01*
X185766533Y-124948501D01*
X185720571Y-125040425D01*
X185720571Y-125224272D01*
X185766533Y-125316196D01*
X186318076Y-124902539D02*
X186364038Y-124994463D01*
X186364038Y-125224272D01*
X186318076Y-125316196D01*
X186226152Y-125362158D01*
X186134228Y-125362158D01*
X186042304Y-125316196D01*
X185996342Y-125224272D01*
X185996342Y-124994463D01*
X185950380Y-124902539D01*
X185720571Y-124442920D02*
X186364038Y-124442920D01*
X185812495Y-124442920D02*
X185766533Y-124396958D01*
X185720571Y-124305034D01*
X185720571Y-124167148D01*
X185766533Y-124075225D01*
X185858457Y-124029263D01*
X186364038Y-124029263D01*
X186364038Y-123431758D02*
X186318076Y-123523682D01*
X186272114Y-123569644D01*
X186180190Y-123615606D01*
X185904419Y-123615606D01*
X185812495Y-123569644D01*
X185766533Y-123523682D01*
X185720571Y-123431758D01*
X185720571Y-123293872D01*
X185766533Y-123201948D01*
X185812495Y-123155987D01*
X185904419Y-123110025D01*
X186180190Y-123110025D01*
X186272114Y-123155987D01*
X186318076Y-123201948D01*
X186364038Y-123293872D01*
X186364038Y-123431758D01*
X186318076Y-122006939D02*
X186364038Y-121869053D01*
X186364038Y-121639244D01*
X186318076Y-121547320D01*
X186272114Y-121501358D01*
X186180190Y-121455396D01*
X186088266Y-121455396D01*
X185996342Y-121501358D01*
X185950380Y-121547320D01*
X185904419Y-121639244D01*
X185858457Y-121823091D01*
X185812495Y-121915015D01*
X185766533Y-121960977D01*
X185674609Y-122006939D01*
X185582685Y-122006939D01*
X185490761Y-121960977D01*
X185444800Y-121915015D01*
X185398838Y-121823091D01*
X185398838Y-121593282D01*
X185444800Y-121455396D01*
X185720571Y-121179625D02*
X185720571Y-120811929D01*
X185398838Y-121041739D02*
X186226152Y-121041739D01*
X186318076Y-120995777D01*
X186364038Y-120903853D01*
X186364038Y-120811929D01*
X186318076Y-120122501D02*
X186364038Y-120214425D01*
X186364038Y-120398272D01*
X186318076Y-120490196D01*
X186226152Y-120536158D01*
X185858457Y-120536158D01*
X185766533Y-120490196D01*
X185720571Y-120398272D01*
X185720571Y-120214425D01*
X185766533Y-120122501D01*
X185858457Y-120076539D01*
X185950380Y-120076539D01*
X186042304Y-120536158D01*
X185720571Y-119662882D02*
X186685771Y-119662882D01*
X185766533Y-119662882D02*
X185720571Y-119570958D01*
X185720571Y-119387110D01*
X185766533Y-119295187D01*
X185812495Y-119249225D01*
X185904419Y-119203263D01*
X186180190Y-119203263D01*
X186272114Y-119249225D01*
X186318076Y-119295187D01*
X186364038Y-119387110D01*
X186364038Y-119570958D01*
X186318076Y-119662882D01*
X185720571Y-118789606D02*
X186685771Y-118789606D01*
X185766533Y-118789606D02*
X185720571Y-118697682D01*
X185720571Y-118513834D01*
X185766533Y-118421910D01*
X185812495Y-118375948D01*
X185904419Y-118329987D01*
X186180190Y-118329987D01*
X186272114Y-118375948D01*
X186318076Y-118421910D01*
X186364038Y-118513834D01*
X186364038Y-118697682D01*
X186318076Y-118789606D01*
X186318076Y-117548634D02*
X186364038Y-117640558D01*
X186364038Y-117824406D01*
X186318076Y-117916329D01*
X186226152Y-117962291D01*
X185858457Y-117962291D01*
X185766533Y-117916329D01*
X185720571Y-117824406D01*
X185720571Y-117640558D01*
X185766533Y-117548634D01*
X185858457Y-117502672D01*
X185950380Y-117502672D01*
X186042304Y-117962291D01*
X186364038Y-117089015D02*
X185720571Y-117089015D01*
X185904419Y-117089015D02*
X185812495Y-117043053D01*
X185766533Y-116997091D01*
X185720571Y-116905168D01*
X185720571Y-116813244D01*
X185720571Y-115848044D02*
X186364038Y-115618234D01*
X185720571Y-115388425D01*
X186364038Y-114515148D02*
X186364038Y-115066691D01*
X186364038Y-114790920D02*
X185398838Y-114790920D01*
X185536723Y-114882844D01*
X185628647Y-114974768D01*
X185674609Y-115066691D01*
X186272114Y-114101491D02*
X186318076Y-114055529D01*
X186364038Y-114101491D01*
X186318076Y-114147453D01*
X186272114Y-114101491D01*
X186364038Y-114101491D01*
X186364038Y-113136291D02*
X186364038Y-113687834D01*
X186364038Y-113412063D02*
X185398838Y-113412063D01*
X185536723Y-113503987D01*
X185628647Y-113595910D01*
X185674609Y-113687834D01*
D14*
X184334761Y-125446904D02*
X184334761Y-126399285D01*
X182334761Y-126399285D01*
X184334761Y-124494523D02*
X184239523Y-124685000D01*
X184144285Y-124780238D01*
X183953809Y-124875476D01*
X183382380Y-124875476D01*
X183191904Y-124780238D01*
X183096666Y-124685000D01*
X183001428Y-124494523D01*
X183001428Y-124208809D01*
X183096666Y-124018333D01*
X183191904Y-123923095D01*
X183382380Y-123827857D01*
X183953809Y-123827857D01*
X184144285Y-123923095D01*
X184239523Y-124018333D01*
X184334761Y-124208809D01*
X184334761Y-124494523D01*
X184239523Y-122113571D02*
X184334761Y-122304047D01*
X184334761Y-122685000D01*
X184239523Y-122875476D01*
X184144285Y-122970714D01*
X183953809Y-123065952D01*
X183382380Y-123065952D01*
X183191904Y-122970714D01*
X183096666Y-122875476D01*
X183001428Y-122685000D01*
X183001428Y-122304047D01*
X183096666Y-122113571D01*
X184334761Y-120970714D02*
X184239523Y-121161190D01*
X184144285Y-121256428D01*
X183953809Y-121351666D01*
X183382380Y-121351666D01*
X183191904Y-121256428D01*
X183096666Y-121161190D01*
X183001428Y-120970714D01*
X183001428Y-120685000D01*
X183096666Y-120494523D01*
X183191904Y-120399285D01*
X183382380Y-120304047D01*
X183953809Y-120304047D01*
X184144285Y-120399285D01*
X184239523Y-120494523D01*
X184334761Y-120685000D01*
X184334761Y-120970714D01*
X184239523Y-119542142D02*
X184334761Y-119256428D01*
X184334761Y-118780238D01*
X184239523Y-118589761D01*
X184144285Y-118494523D01*
X183953809Y-118399285D01*
X183763333Y-118399285D01*
X183572857Y-118494523D01*
X183477619Y-118589761D01*
X183382380Y-118780238D01*
X183287142Y-119161190D01*
X183191904Y-119351666D01*
X183096666Y-119446904D01*
X182906190Y-119542142D01*
X182715714Y-119542142D01*
X182525238Y-119446904D01*
X182430000Y-119351666D01*
X182334761Y-119161190D01*
X182334761Y-118685000D01*
X182430000Y-118399285D01*
X184334761Y-117542142D02*
X182334761Y-117542142D01*
X184334761Y-116685000D02*
X183287142Y-116685000D01*
X183096666Y-116780238D01*
X183001428Y-116970714D01*
X183001428Y-117256428D01*
X183096666Y-117446904D01*
X183191904Y-117542142D01*
X184334761Y-115732619D02*
X183001428Y-115732619D01*
X182334761Y-115732619D02*
X182430000Y-115827857D01*
X182525238Y-115732619D01*
X182430000Y-115637380D01*
X182334761Y-115732619D01*
X182525238Y-115732619D01*
X184239523Y-114018333D02*
X184334761Y-114208809D01*
X184334761Y-114589761D01*
X184239523Y-114780238D01*
X184049047Y-114875476D01*
X183287142Y-114875476D01*
X183096666Y-114780238D01*
X183001428Y-114589761D01*
X183001428Y-114208809D01*
X183096666Y-114018333D01*
X183287142Y-113923095D01*
X183477619Y-113923095D01*
X183668095Y-114875476D01*
X184334761Y-112780238D02*
X184239523Y-112970714D01*
X184049047Y-113065952D01*
X182334761Y-113065952D01*
X184334761Y-111161190D02*
X182334761Y-111161190D01*
X184239523Y-111161190D02*
X184334761Y-111351666D01*
X184334761Y-111732619D01*
X184239523Y-111923095D01*
X184144285Y-112018333D01*
X183953809Y-112113571D01*
X183382380Y-112113571D01*
X183191904Y-112018333D01*
X183096666Y-111923095D01*
X183001428Y-111732619D01*
X183001428Y-111351666D01*
X183096666Y-111161190D01*
D13*
X115536769Y-88167347D02*
X115904464Y-87909960D01*
X115536769Y-87726113D02*
X116308929Y-87726113D01*
X116308929Y-88020269D01*
X116272160Y-88093808D01*
X116235390Y-88130577D01*
X116161851Y-88167347D01*
X116051542Y-88167347D01*
X115978003Y-88130577D01*
X115941234Y-88093808D01*
X115904464Y-88020269D01*
X115904464Y-87726113D01*
X116308929Y-88424734D02*
X115536769Y-88939507D01*
X116308929Y-88939507D02*
X115536769Y-88424734D01*
X116308929Y-84615804D02*
X116308929Y-85057038D01*
X115536769Y-84836421D02*
X116308929Y-84836421D01*
X116308929Y-85240886D02*
X115536769Y-85755659D01*
X116308929Y-85755659D02*
X115536769Y-85240886D01*
X160593808Y-129191070D02*
X160226113Y-129191070D01*
X160189343Y-129558765D01*
X160226113Y-129521996D01*
X160299652Y-129485226D01*
X160483499Y-129485226D01*
X160557038Y-129521996D01*
X160593808Y-129558765D01*
X160630577Y-129632304D01*
X160630577Y-129816152D01*
X160593808Y-129889691D01*
X160557038Y-129926460D01*
X160483499Y-129963230D01*
X160299652Y-129963230D01*
X160226113Y-129926460D01*
X160189343Y-129889691D01*
X160887964Y-129448457D02*
X161071812Y-129963230D01*
X161255659Y-129448457D01*
X164630577Y-129227840D02*
X164557038Y-129191070D01*
X164446730Y-129191070D01*
X164336421Y-129227840D01*
X164262882Y-129301379D01*
X164226113Y-129374918D01*
X164189343Y-129521996D01*
X164189343Y-129632304D01*
X164226113Y-129779382D01*
X164262882Y-129852921D01*
X164336421Y-129926460D01*
X164446730Y-129963230D01*
X164520269Y-129963230D01*
X164630577Y-129926460D01*
X164667347Y-129889691D01*
X164667347Y-129632304D01*
X164520269Y-129632304D01*
X164998273Y-129963230D02*
X164998273Y-129191070D01*
X165439507Y-129963230D01*
X165439507Y-129191070D01*
X165807202Y-129963230D02*
X165807202Y-129191070D01*
X165991050Y-129191070D01*
X166101358Y-129227840D01*
X166174897Y-129301379D01*
X166211667Y-129374918D01*
X166248437Y-129521996D01*
X166248437Y-129632304D01*
X166211667Y-129779382D01*
X166174897Y-129852921D01*
X166101358Y-129926460D01*
X165991050Y-129963230D01*
X165807202Y-129963230D01*
D15*
X140244373Y-125797341D02*
X140244373Y-125025181D01*
X141595653Y-125411261D02*
X140244373Y-125411261D01*
X141595653Y-124381715D02*
X141531306Y-124510408D01*
X141466960Y-124574755D01*
X141338266Y-124639101D01*
X140952186Y-124639101D01*
X140823493Y-124574755D01*
X140759146Y-124510408D01*
X140694800Y-124381715D01*
X140694800Y-124188675D01*
X140759146Y-124059981D01*
X140823493Y-123995635D01*
X140952186Y-123931288D01*
X141338266Y-123931288D01*
X141466960Y-123995635D01*
X141531306Y-124059981D01*
X141595653Y-124188675D01*
X141595653Y-124381715D01*
X141595653Y-121679155D02*
X141595653Y-122322621D01*
X140244373Y-122322621D01*
X141595653Y-121035688D02*
X141531306Y-121164381D01*
X141466960Y-121228728D01*
X141338266Y-121293075D01*
X140952186Y-121293075D01*
X140823493Y-121228728D01*
X140759146Y-121164381D01*
X140694800Y-121035688D01*
X140694800Y-120842648D01*
X140759146Y-120713955D01*
X140823493Y-120649608D01*
X140952186Y-120585261D01*
X141338266Y-120585261D01*
X141466960Y-120649608D01*
X141531306Y-120713955D01*
X141595653Y-120842648D01*
X141595653Y-121035688D01*
X141531306Y-119427021D02*
X141595653Y-119555715D01*
X141595653Y-119813101D01*
X141531306Y-119941795D01*
X141466960Y-120006141D01*
X141338266Y-120070488D01*
X140952186Y-120070488D01*
X140823493Y-120006141D01*
X140759146Y-119941795D01*
X140694800Y-119813101D01*
X140694800Y-119555715D01*
X140759146Y-119427021D01*
X141595653Y-118654861D02*
X141531306Y-118783555D01*
X141466960Y-118847901D01*
X141338266Y-118912248D01*
X140952186Y-118912248D01*
X140823493Y-118847901D01*
X140759146Y-118783555D01*
X140694800Y-118654861D01*
X140694800Y-118461821D01*
X140759146Y-118333128D01*
X140823493Y-118268781D01*
X140952186Y-118204435D01*
X141338266Y-118204435D01*
X141466960Y-118268781D01*
X141531306Y-118333128D01*
X141595653Y-118461821D01*
X141595653Y-118654861D01*
X141595653Y-117625315D02*
X140244373Y-117625315D01*
X141595653Y-116853155D01*
X140244373Y-116853155D01*
X141531306Y-115694915D02*
X141595653Y-115823608D01*
X141595653Y-116080995D01*
X141531306Y-116209688D01*
X141402613Y-116274035D01*
X140887840Y-116274035D01*
X140759146Y-116209688D01*
X140694800Y-116080995D01*
X140694800Y-115823608D01*
X140759146Y-115694915D01*
X140887840Y-115630568D01*
X141016533Y-115630568D01*
X141145226Y-116274035D01*
X140694800Y-115244488D02*
X140694800Y-114729715D01*
X140244373Y-115051448D02*
X141402613Y-115051448D01*
X141531306Y-114987101D01*
X141595653Y-114858408D01*
X141595653Y-114729715D01*
D11*
X116823333Y-117055476D02*
X116823333Y-116531666D01*
X117137619Y-117160238D02*
X116037619Y-116793571D01*
X117137619Y-116426904D01*
X117085238Y-115588809D02*
X117137619Y-115693571D01*
X117137619Y-115903095D01*
X117085238Y-116007857D01*
X117032857Y-116060238D01*
X116928095Y-116112619D01*
X116613809Y-116112619D01*
X116509047Y-116060238D01*
X116456666Y-116007857D01*
X116404285Y-115903095D01*
X116404285Y-115693571D01*
X116456666Y-115588809D01*
X116404285Y-115274523D02*
X116404285Y-114855476D01*
X116037619Y-115117380D02*
X116980476Y-115117380D01*
X117085238Y-115065000D01*
X117137619Y-114960238D01*
X117137619Y-114855476D01*
X117137619Y-114488809D02*
X116404285Y-114488809D01*
X116037619Y-114488809D02*
X116090000Y-114541190D01*
X116142380Y-114488809D01*
X116090000Y-114436428D01*
X116037619Y-114488809D01*
X116142380Y-114488809D01*
X116404285Y-114069761D02*
X117137619Y-113807857D01*
X116404285Y-113545952D01*
X117137619Y-113126904D02*
X116404285Y-113126904D01*
X116037619Y-113126904D02*
X116090000Y-113179285D01*
X116142380Y-113126904D01*
X116090000Y-113074523D01*
X116037619Y-113126904D01*
X116142380Y-113126904D01*
X116404285Y-112760238D02*
X116404285Y-112341190D01*
X116037619Y-112603095D02*
X116980476Y-112603095D01*
X117085238Y-112550714D01*
X117137619Y-112445952D01*
X117137619Y-112341190D01*
X116404285Y-112079285D02*
X117137619Y-111817380D01*
X116404285Y-111555476D02*
X117137619Y-111817380D01*
X117399523Y-111922142D01*
X117451904Y-111974523D01*
X117504285Y-112079285D01*
D10*
X190391904Y-112529619D02*
X190391904Y-112377238D01*
X190430000Y-112301047D01*
X190506190Y-112224857D01*
X190658571Y-112186761D01*
X190925238Y-112186761D01*
X191077619Y-112224857D01*
X191153809Y-112301047D01*
X191191904Y-112377238D01*
X191191904Y-112529619D01*
X191153809Y-112605809D01*
X191077619Y-112682000D01*
X190925238Y-112720095D01*
X190658571Y-112720095D01*
X190506190Y-112682000D01*
X190430000Y-112605809D01*
X190391904Y-112529619D01*
X190658571Y-111843904D02*
X191458571Y-111843904D01*
X190696666Y-111843904D02*
X190658571Y-111767714D01*
X190658571Y-111615333D01*
X190696666Y-111539142D01*
X190734761Y-111501047D01*
X190810952Y-111462952D01*
X191039523Y-111462952D01*
X191115714Y-111501047D01*
X191153809Y-111539142D01*
X191191904Y-111615333D01*
X191191904Y-111767714D01*
X191153809Y-111843904D01*
X191153809Y-110815333D02*
X191191904Y-110891523D01*
X191191904Y-111043904D01*
X191153809Y-111120095D01*
X191077619Y-111158190D01*
X190772857Y-111158190D01*
X190696666Y-111120095D01*
X190658571Y-111043904D01*
X190658571Y-110891523D01*
X190696666Y-110815333D01*
X190772857Y-110777238D01*
X190849047Y-110777238D01*
X190925238Y-111158190D01*
X190658571Y-110434380D02*
X191191904Y-110434380D01*
X190734761Y-110434380D02*
X190696666Y-110396285D01*
X190658571Y-110320095D01*
X190658571Y-110205809D01*
X190696666Y-110129619D01*
X190772857Y-110091523D01*
X191191904Y-110091523D01*
X191153809Y-109139142D02*
X191191904Y-109024857D01*
X191191904Y-108834380D01*
X191153809Y-108758190D01*
X191115714Y-108720095D01*
X191039523Y-108682000D01*
X190963333Y-108682000D01*
X190887142Y-108720095D01*
X190849047Y-108758190D01*
X190810952Y-108834380D01*
X190772857Y-108986761D01*
X190734761Y-109062952D01*
X190696666Y-109101047D01*
X190620476Y-109139142D01*
X190544285Y-109139142D01*
X190468095Y-109101047D01*
X190430000Y-109062952D01*
X190391904Y-108986761D01*
X190391904Y-108796285D01*
X190430000Y-108682000D01*
X191191904Y-108224857D02*
X191153809Y-108301047D01*
X191115714Y-108339142D01*
X191039523Y-108377238D01*
X190810952Y-108377238D01*
X190734761Y-108339142D01*
X190696666Y-108301047D01*
X190658571Y-108224857D01*
X190658571Y-108110571D01*
X190696666Y-108034380D01*
X190734761Y-107996285D01*
X190810952Y-107958190D01*
X191039523Y-107958190D01*
X191115714Y-107996285D01*
X191153809Y-108034380D01*
X191191904Y-108110571D01*
X191191904Y-108224857D01*
X190658571Y-107272476D02*
X191191904Y-107272476D01*
X190658571Y-107615333D02*
X191077619Y-107615333D01*
X191153809Y-107577238D01*
X191191904Y-107501047D01*
X191191904Y-107386761D01*
X191153809Y-107310571D01*
X191115714Y-107272476D01*
X191191904Y-106891523D02*
X190658571Y-106891523D01*
X190810952Y-106891523D02*
X190734761Y-106853428D01*
X190696666Y-106815333D01*
X190658571Y-106739142D01*
X190658571Y-106662952D01*
X191153809Y-106053428D02*
X191191904Y-106129619D01*
X191191904Y-106282000D01*
X191153809Y-106358190D01*
X191115714Y-106396285D01*
X191039523Y-106434380D01*
X190810952Y-106434380D01*
X190734761Y-106396285D01*
X190696666Y-106358190D01*
X190658571Y-106282000D01*
X190658571Y-106129619D01*
X190696666Y-106053428D01*
X191153809Y-105405809D02*
X191191904Y-105482000D01*
X191191904Y-105634380D01*
X191153809Y-105710571D01*
X191077619Y-105748666D01*
X190772857Y-105748666D01*
X190696666Y-105710571D01*
X190658571Y-105634380D01*
X190658571Y-105482000D01*
X190696666Y-105405809D01*
X190772857Y-105367714D01*
X190849047Y-105367714D01*
X190925238Y-105748666D01*
X191191904Y-104415333D02*
X190391904Y-104415333D01*
X190772857Y-104415333D02*
X190772857Y-103958190D01*
X191191904Y-103958190D02*
X190391904Y-103958190D01*
X191191904Y-103234380D02*
X190772857Y-103234380D01*
X190696666Y-103272476D01*
X190658571Y-103348666D01*
X190658571Y-103501047D01*
X190696666Y-103577238D01*
X191153809Y-103234380D02*
X191191904Y-103310571D01*
X191191904Y-103501047D01*
X191153809Y-103577238D01*
X191077619Y-103615333D01*
X191001428Y-103615333D01*
X190925238Y-103577238D01*
X190887142Y-103501047D01*
X190887142Y-103310571D01*
X190849047Y-103234380D01*
X191191904Y-102853428D02*
X190658571Y-102853428D01*
X190810952Y-102853428D02*
X190734761Y-102815333D01*
X190696666Y-102777238D01*
X190658571Y-102701047D01*
X190658571Y-102624857D01*
X191191904Y-102015333D02*
X190391904Y-102015333D01*
X191153809Y-102015333D02*
X191191904Y-102091523D01*
X191191904Y-102243904D01*
X191153809Y-102320095D01*
X191115714Y-102358190D01*
X191039523Y-102396285D01*
X190810952Y-102396285D01*
X190734761Y-102358190D01*
X190696666Y-102320095D01*
X190658571Y-102243904D01*
X190658571Y-102091523D01*
X190696666Y-102015333D01*
X190658571Y-101710571D02*
X191191904Y-101558190D01*
X190810952Y-101405809D01*
X191191904Y-101253428D01*
X190658571Y-101101047D01*
X191191904Y-100453428D02*
X190772857Y-100453428D01*
X190696666Y-100491523D01*
X190658571Y-100567714D01*
X190658571Y-100720095D01*
X190696666Y-100796285D01*
X191153809Y-100453428D02*
X191191904Y-100529619D01*
X191191904Y-100720095D01*
X191153809Y-100796285D01*
X191077619Y-100834380D01*
X191001428Y-100834380D01*
X190925238Y-100796285D01*
X190887142Y-100720095D01*
X190887142Y-100529619D01*
X190849047Y-100453428D01*
X191191904Y-100072476D02*
X190658571Y-100072476D01*
X190810952Y-100072476D02*
X190734761Y-100034380D01*
X190696666Y-99996285D01*
X190658571Y-99920095D01*
X190658571Y-99843904D01*
X191153809Y-99272476D02*
X191191904Y-99348666D01*
X191191904Y-99501047D01*
X191153809Y-99577238D01*
X191077619Y-99615333D01*
X190772857Y-99615333D01*
X190696666Y-99577238D01*
X190658571Y-99501047D01*
X190658571Y-99348666D01*
X190696666Y-99272476D01*
X190772857Y-99234380D01*
X190849047Y-99234380D01*
X190925238Y-99615333D01*
X163123238Y-73223809D02*
X163237523Y-73261904D01*
X163428000Y-73261904D01*
X163504190Y-73223809D01*
X163542285Y-73185714D01*
X163580380Y-73109523D01*
X163580380Y-73033333D01*
X163542285Y-72957142D01*
X163504190Y-72919047D01*
X163428000Y-72880952D01*
X163275619Y-72842857D01*
X163199428Y-72804761D01*
X163161333Y-72766666D01*
X163123238Y-72690476D01*
X163123238Y-72614285D01*
X163161333Y-72538095D01*
X163199428Y-72500000D01*
X163275619Y-72461904D01*
X163466095Y-72461904D01*
X163580380Y-72500000D01*
X163808952Y-72728571D02*
X164113714Y-72728571D01*
X163923238Y-72461904D02*
X163923238Y-73147619D01*
X163961333Y-73223809D01*
X164037523Y-73261904D01*
X164113714Y-73261904D01*
X164685142Y-73223809D02*
X164608952Y-73261904D01*
X164456571Y-73261904D01*
X164380380Y-73223809D01*
X164342285Y-73147619D01*
X164342285Y-72842857D01*
X164380380Y-72766666D01*
X164456571Y-72728571D01*
X164608952Y-72728571D01*
X164685142Y-72766666D01*
X164723238Y-72842857D01*
X164723238Y-72919047D01*
X164342285Y-72995238D01*
X165066095Y-72728571D02*
X165066095Y-73528571D01*
X165066095Y-72766666D02*
X165142285Y-72728571D01*
X165294666Y-72728571D01*
X165370857Y-72766666D01*
X165408952Y-72804761D01*
X165447047Y-72880952D01*
X165447047Y-73109523D01*
X165408952Y-73185714D01*
X165370857Y-73223809D01*
X165294666Y-73261904D01*
X165142285Y-73261904D01*
X165066095Y-73223809D01*
X165789904Y-72728571D02*
X165789904Y-73528571D01*
X165789904Y-72766666D02*
X165866095Y-72728571D01*
X166018476Y-72728571D01*
X166094666Y-72766666D01*
X166132761Y-72804761D01*
X166170857Y-72880952D01*
X166170857Y-73109523D01*
X166132761Y-73185714D01*
X166094666Y-73223809D01*
X166018476Y-73261904D01*
X165866095Y-73261904D01*
X165789904Y-73223809D01*
X166818476Y-73223809D02*
X166742285Y-73261904D01*
X166589904Y-73261904D01*
X166513714Y-73223809D01*
X166475619Y-73147619D01*
X166475619Y-72842857D01*
X166513714Y-72766666D01*
X166589904Y-72728571D01*
X166742285Y-72728571D01*
X166818476Y-72766666D01*
X166856571Y-72842857D01*
X166856571Y-72919047D01*
X166475619Y-72995238D01*
X167199428Y-73261904D02*
X167199428Y-72728571D01*
X167199428Y-72880952D02*
X167237523Y-72804761D01*
X167275619Y-72766666D01*
X167351809Y-72728571D01*
X167428000Y-72728571D01*
X168304190Y-73261904D02*
X168304190Y-72461904D01*
X168570857Y-73033333D01*
X168837523Y-72461904D01*
X168837523Y-73261904D01*
X169332761Y-73261904D02*
X169256571Y-73223809D01*
X169218476Y-73185714D01*
X169180380Y-73109523D01*
X169180380Y-72880952D01*
X169218476Y-72804761D01*
X169256571Y-72766666D01*
X169332761Y-72728571D01*
X169447047Y-72728571D01*
X169523238Y-72766666D01*
X169561333Y-72804761D01*
X169599428Y-72880952D01*
X169599428Y-73109523D01*
X169561333Y-73185714D01*
X169523238Y-73223809D01*
X169447047Y-73261904D01*
X169332761Y-73261904D01*
X169828000Y-72728571D02*
X170132761Y-72728571D01*
X169942285Y-72461904D02*
X169942285Y-73147619D01*
X169980380Y-73223809D01*
X170056571Y-73261904D01*
X170132761Y-73261904D01*
X170513714Y-73261904D02*
X170437523Y-73223809D01*
X170399428Y-73185714D01*
X170361333Y-73109523D01*
X170361333Y-72880952D01*
X170399428Y-72804761D01*
X170437523Y-72766666D01*
X170513714Y-72728571D01*
X170628000Y-72728571D01*
X170704190Y-72766666D01*
X170742285Y-72804761D01*
X170780380Y-72880952D01*
X170780380Y-73109523D01*
X170742285Y-73185714D01*
X170704190Y-73223809D01*
X170628000Y-73261904D01*
X170513714Y-73261904D01*
X171123238Y-73261904D02*
X171123238Y-72728571D01*
X171123238Y-72880952D02*
X171161333Y-72804761D01*
X171199428Y-72766666D01*
X171275619Y-72728571D01*
X171351809Y-72728571D01*
X179136285Y-127831904D02*
X179669619Y-127831904D01*
X179326761Y-128631904D01*
X180469619Y-128098571D02*
X180774380Y-128098571D01*
X180583904Y-127831904D02*
X180583904Y-128517619D01*
X180622000Y-128593809D01*
X180698190Y-128631904D01*
X180774380Y-128631904D01*
X181155333Y-128631904D02*
X181079142Y-128593809D01*
X181041047Y-128555714D01*
X181002952Y-128479523D01*
X181002952Y-128250952D01*
X181041047Y-128174761D01*
X181079142Y-128136666D01*
X181155333Y-128098571D01*
X181269619Y-128098571D01*
X181345809Y-128136666D01*
X181383904Y-128174761D01*
X181422000Y-128250952D01*
X181422000Y-128479523D01*
X181383904Y-128555714D01*
X181345809Y-128593809D01*
X181269619Y-128631904D01*
X181155333Y-128631904D01*
X182793428Y-128631904D02*
X182336285Y-128631904D01*
X182564857Y-128631904D02*
X182564857Y-127831904D01*
X182488666Y-127946190D01*
X182412476Y-128022380D01*
X182336285Y-128060476D01*
X183098190Y-127908095D02*
X183136285Y-127870000D01*
X183212476Y-127831904D01*
X183402952Y-127831904D01*
X183479142Y-127870000D01*
X183517238Y-127908095D01*
X183555333Y-127984285D01*
X183555333Y-128060476D01*
X183517238Y-128174761D01*
X183060095Y-128631904D01*
X183555333Y-128631904D01*
X183822000Y-128098571D02*
X184012476Y-128631904D01*
X184202952Y-128098571D01*
X179212476Y-129911904D02*
X179212476Y-129111904D01*
X179517238Y-129111904D01*
X179593428Y-129150000D01*
X179631523Y-129188095D01*
X179669619Y-129264285D01*
X179669619Y-129378571D01*
X179631523Y-129454761D01*
X179593428Y-129492857D01*
X179517238Y-129530952D01*
X179212476Y-129530952D01*
X180126761Y-129911904D02*
X180050571Y-129873809D01*
X180012476Y-129835714D01*
X179974380Y-129759523D01*
X179974380Y-129530952D01*
X180012476Y-129454761D01*
X180050571Y-129416666D01*
X180126761Y-129378571D01*
X180241047Y-129378571D01*
X180317238Y-129416666D01*
X180355333Y-129454761D01*
X180393428Y-129530952D01*
X180393428Y-129759523D01*
X180355333Y-129835714D01*
X180317238Y-129873809D01*
X180241047Y-129911904D01*
X180126761Y-129911904D01*
X180660095Y-129378571D02*
X180812476Y-129911904D01*
X180964857Y-129530952D01*
X181117238Y-129911904D01*
X181269619Y-129378571D01*
X181879142Y-129873809D02*
X181802952Y-129911904D01*
X181650571Y-129911904D01*
X181574380Y-129873809D01*
X181536285Y-129797619D01*
X181536285Y-129492857D01*
X181574380Y-129416666D01*
X181650571Y-129378571D01*
X181802952Y-129378571D01*
X181879142Y-129416666D01*
X181917238Y-129492857D01*
X181917238Y-129569047D01*
X181536285Y-129645238D01*
X182260095Y-129911904D02*
X182260095Y-129378571D01*
X182260095Y-129530952D02*
X182298190Y-129454761D01*
X182336285Y-129416666D01*
X182412476Y-129378571D01*
X182488666Y-129378571D01*
X183364857Y-129911904D02*
X183364857Y-129111904D01*
X183745809Y-129378571D02*
X183745809Y-129911904D01*
X183745809Y-129454761D02*
X183783904Y-129416666D01*
X183860095Y-129378571D01*
X183974380Y-129378571D01*
X184050571Y-129416666D01*
X184088666Y-129492857D01*
X184088666Y-129911904D01*
X184469619Y-129378571D02*
X184469619Y-130178571D01*
X184469619Y-129416666D02*
X184545809Y-129378571D01*
X184698190Y-129378571D01*
X184774380Y-129416666D01*
X184812476Y-129454761D01*
X184850571Y-129530952D01*
X184850571Y-129759523D01*
X184812476Y-129835714D01*
X184774380Y-129873809D01*
X184698190Y-129911904D01*
X184545809Y-129911904D01*
X184469619Y-129873809D01*
X185536285Y-129378571D02*
X185536285Y-129911904D01*
X185193428Y-129378571D02*
X185193428Y-129797619D01*
X185231523Y-129873809D01*
X185307714Y-129911904D01*
X185422000Y-129911904D01*
X185498190Y-129873809D01*
X185536285Y-129835714D01*
X185802952Y-129378571D02*
X186107714Y-129378571D01*
X185917238Y-129111904D02*
X185917238Y-129797619D01*
X185955333Y-129873809D01*
X186031523Y-129911904D01*
X186107714Y-129911904D01*
X179860095Y-131191904D02*
X179822000Y-131191904D01*
X179745809Y-131153809D01*
X179631523Y-131039523D01*
X179441047Y-130810952D01*
X179364857Y-130696666D01*
X179326761Y-130582380D01*
X179326761Y-130506190D01*
X179364857Y-130430000D01*
X179441047Y-130391904D01*
X179479142Y-130391904D01*
X179555333Y-130430000D01*
X179593428Y-130506190D01*
X179593428Y-130544285D01*
X179555333Y-130620476D01*
X179517238Y-130658571D01*
X179288666Y-130810952D01*
X179250571Y-130849047D01*
X179212476Y-130925238D01*
X179212476Y-131039523D01*
X179250571Y-131115714D01*
X179288666Y-131153809D01*
X179364857Y-131191904D01*
X179479142Y-131191904D01*
X179555333Y-131153809D01*
X179593428Y-131115714D01*
X179707714Y-130963333D01*
X179745809Y-130849047D01*
X179745809Y-130772857D01*
X180774380Y-131153809D02*
X180888666Y-131191904D01*
X181079142Y-131191904D01*
X181155333Y-131153809D01*
X181193428Y-131115714D01*
X181231523Y-131039523D01*
X181231523Y-130963333D01*
X181193428Y-130887142D01*
X181155333Y-130849047D01*
X181079142Y-130810952D01*
X180926761Y-130772857D01*
X180850571Y-130734761D01*
X180812476Y-130696666D01*
X180774380Y-130620476D01*
X180774380Y-130544285D01*
X180812476Y-130468095D01*
X180850571Y-130430000D01*
X180926761Y-130391904D01*
X181117238Y-130391904D01*
X181231523Y-130430000D01*
X181460095Y-130658571D02*
X181764857Y-130658571D01*
X181574380Y-130391904D02*
X181574380Y-131077619D01*
X181612476Y-131153809D01*
X181688666Y-131191904D01*
X181764857Y-131191904D01*
X182336285Y-131153809D02*
X182260095Y-131191904D01*
X182107714Y-131191904D01*
X182031523Y-131153809D01*
X181993428Y-131077619D01*
X181993428Y-130772857D01*
X182031523Y-130696666D01*
X182107714Y-130658571D01*
X182260095Y-130658571D01*
X182336285Y-130696666D01*
X182374380Y-130772857D01*
X182374380Y-130849047D01*
X181993428Y-130925238D01*
X182717238Y-130658571D02*
X182717238Y-131458571D01*
X182717238Y-130696666D02*
X182793428Y-130658571D01*
X182945809Y-130658571D01*
X183022000Y-130696666D01*
X183060095Y-130734761D01*
X183098190Y-130810952D01*
X183098190Y-131039523D01*
X183060095Y-131115714D01*
X183022000Y-131153809D01*
X182945809Y-131191904D01*
X182793428Y-131191904D01*
X182717238Y-131153809D01*
X183441047Y-130658571D02*
X183441047Y-131458571D01*
X183441047Y-130696666D02*
X183517238Y-130658571D01*
X183669619Y-130658571D01*
X183745809Y-130696666D01*
X183783904Y-130734761D01*
X183822000Y-130810952D01*
X183822000Y-131039523D01*
X183783904Y-131115714D01*
X183745809Y-131153809D01*
X183669619Y-131191904D01*
X183517238Y-131191904D01*
X183441047Y-131153809D01*
X184469619Y-131153809D02*
X184393428Y-131191904D01*
X184241047Y-131191904D01*
X184164857Y-131153809D01*
X184126761Y-131077619D01*
X184126761Y-130772857D01*
X184164857Y-130696666D01*
X184241047Y-130658571D01*
X184393428Y-130658571D01*
X184469619Y-130696666D01*
X184507714Y-130772857D01*
X184507714Y-130849047D01*
X184126761Y-130925238D01*
X184850571Y-131191904D02*
X184850571Y-130658571D01*
X184850571Y-130810952D02*
X184888666Y-130734761D01*
X184926761Y-130696666D01*
X185002952Y-130658571D01*
X185079142Y-130658571D01*
D13*
X116677368Y-122963230D02*
X117118602Y-122963230D01*
X116897985Y-123735390D02*
X116897985Y-122963230D01*
X117375989Y-123330925D02*
X117633376Y-123330925D01*
X117743684Y-123735390D02*
X117375989Y-123735390D01*
X117375989Y-122963230D01*
X117743684Y-122963230D01*
X118515844Y-123735390D02*
X118258458Y-123367695D01*
X118074610Y-123735390D02*
X118074610Y-122963230D01*
X118368766Y-122963230D01*
X118442305Y-123000000D01*
X118479075Y-123036769D01*
X118515844Y-123110308D01*
X118515844Y-123220617D01*
X118479075Y-123294156D01*
X118442305Y-123330925D01*
X118368766Y-123367695D01*
X118074610Y-123367695D01*
X118846770Y-123735390D02*
X118846770Y-122963230D01*
X119104157Y-123514773D01*
X119361543Y-122963230D01*
X119361543Y-123735390D01*
X119729239Y-123735390D02*
X119729239Y-122963230D01*
X120096934Y-123735390D02*
X120096934Y-122963230D01*
X120538168Y-123735390D01*
X120538168Y-122963230D01*
X120869094Y-123514773D02*
X121236789Y-123514773D01*
X120795555Y-123735390D02*
X121052942Y-122963230D01*
X121310328Y-123735390D01*
X121457406Y-122963230D02*
X121898641Y-122963230D01*
X121678023Y-123735390D02*
X121678023Y-122963230D01*
X122156027Y-123735390D02*
X122156027Y-122963230D01*
X122670801Y-122963230D02*
X122817879Y-122963230D01*
X122891418Y-123000000D01*
X122964957Y-123073539D01*
X123001726Y-123220617D01*
X123001726Y-123478003D01*
X122964957Y-123625081D01*
X122891418Y-123698620D01*
X122817879Y-123735390D01*
X122670801Y-123735390D01*
X122597262Y-123698620D01*
X122523722Y-123625081D01*
X122486953Y-123478003D01*
X122486953Y-123220617D01*
X122523722Y-123073539D01*
X122597262Y-123000000D01*
X122670801Y-122963230D01*
X123332652Y-123735390D02*
X123332652Y-122963230D01*
X123773886Y-123735390D01*
X123773886Y-122963230D01*
D16*
X145350000Y-95530000D02*
X145350000Y-91930000D01*
X145338478Y-95568478D02*
G75*
G02*
X140900000Y-93730000I-1838478J1838478D01*
G01*
X145338478Y-91891522D02*
G75*
G03*
X140900000Y-93730000I-1838478J-1838478D01*
G01*
X168940000Y-116060000D02*
X171540000Y-116060000D01*
X168940000Y-130760000D02*
X168940000Y-116060000D01*
X178140000Y-116060000D02*
X178140000Y-117960000D01*
X175440000Y-116060000D02*
X178140000Y-116060000D01*
X178140000Y-130760000D02*
X168940000Y-130760000D01*
X178140000Y-121960000D02*
X178140000Y-130760000D01*
X168740000Y-116910000D02*
X168740000Y-115860000D01*
X169790000Y-115860000D02*
X168740000Y-115860000D01*
X164570000Y-114730000D02*
X168170000Y-114730000D01*
X164531522Y-114718478D02*
G75*
G02*
X166370000Y-110280000I1838478J1838478D01*
G01*
X168208478Y-114718478D02*
G75*
G03*
X166370000Y-110280000I-1838478J1838478D01*
G01*
D17*
X156593000Y-112799600D02*
X156593000Y-130765100D01*
X143469000Y-130765100D02*
X143469000Y-112799600D01*
X143469000Y-112799600D02*
X146602000Y-112794600D01*
X147110000Y-112799600D02*
X147872000Y-112799600D01*
X148380000Y-112794600D02*
X149142000Y-112794600D01*
X149650000Y-112794600D02*
X150412000Y-112794600D01*
X150920000Y-112794600D02*
X151682000Y-112794600D01*
X152190000Y-112799600D02*
X152952000Y-112799700D01*
X153460000Y-112794600D02*
X156593000Y-112799600D01*
X147872000Y-116604600D02*
X148380000Y-116604600D01*
X149142000Y-114064600D02*
X149650000Y-114064600D01*
X150412000Y-116604600D02*
X150920000Y-116604600D01*
X147872000Y-112794600D02*
X147872000Y-112799600D01*
X147872000Y-112799600D02*
X147872000Y-116604600D01*
X149142000Y-112794600D02*
X149142000Y-114064600D01*
X148380000Y-112794600D02*
X148380000Y-116604600D01*
X150412000Y-112794600D02*
X150412000Y-116604600D01*
X149650000Y-112794600D02*
X149650000Y-114064600D01*
X151682000Y-112794600D02*
X151682000Y-114064600D01*
X150920000Y-112794600D02*
X150920000Y-116604600D01*
X151682000Y-114064600D02*
X152190000Y-114064600D01*
D18*
X156593000Y-130765100D02*
X143469000Y-130765100D01*
D17*
X152190000Y-112794600D02*
X152190000Y-112799600D01*
X152190000Y-112799600D02*
X152190000Y-114064600D01*
X146602000Y-114064600D02*
X147110000Y-114064600D01*
X146602000Y-112794600D02*
X146602000Y-114064600D01*
X147110000Y-112794600D02*
X147110000Y-112799600D01*
X147110000Y-112799600D02*
X147110000Y-114064600D01*
X152952000Y-116604600D02*
X153460000Y-116604600D01*
X152952000Y-112794500D02*
X152952000Y-116604600D01*
X153460000Y-112794600D02*
X153460000Y-116604600D01*
D11*
G36*
X156635000Y-130828600D02*
G01*
X157397000Y-130828600D01*
X157397000Y-129685600D01*
X156635000Y-129685600D01*
X156635000Y-130828600D01*
G37*
G36*
X142665000Y-130828600D02*
G01*
X143427000Y-130828600D01*
X143427000Y-129685600D01*
X142665000Y-129685600D01*
X142665000Y-130828600D01*
G37*
D16*
X169370000Y-106000000D02*
G75*
G03*
X169370000Y-106000000I-1370000J0D01*
G01*
X166630000Y-106000000D02*
X166560000Y-106000000D01*
X160270000Y-87770000D02*
X162810000Y-87770000D01*
X162810000Y-87770000D02*
X162810000Y-85100000D01*
X160270000Y-85100000D02*
X122040000Y-85100000D01*
X165480000Y-85100000D02*
X162810000Y-85100000D01*
X162810000Y-100470000D02*
X162810000Y-103140000D01*
X162810000Y-100470000D02*
X124710000Y-100470000D01*
X124710000Y-100470000D02*
X124710000Y-103140000D01*
X160270000Y-87770000D02*
X160270000Y-85100000D01*
X160270000Y-87770000D02*
X124710000Y-87770000D01*
X124710000Y-87770000D02*
X124710000Y-85100000D01*
X122040000Y-85100000D02*
X122040000Y-103140000D01*
X122040000Y-103140000D02*
X165480000Y-103140000D01*
X165480000Y-103140000D02*
X165480000Y-85100000D01*
D17*
X138742000Y-112796000D02*
X138742000Y-130761500D01*
X125618000Y-130761500D02*
X125618000Y-112796000D01*
X125618000Y-112796000D02*
X128751000Y-112791000D01*
X129259000Y-112796000D02*
X130021000Y-112796000D01*
X130529000Y-112791000D02*
X131291000Y-112791000D01*
X131799000Y-112791000D02*
X132561000Y-112791000D01*
X133069000Y-112791000D02*
X133831000Y-112791000D01*
X134339000Y-112796000D02*
X135101000Y-112796100D01*
X135609000Y-112791000D02*
X138742000Y-112796000D01*
X130021000Y-116601000D02*
X130529000Y-116601000D01*
X131291000Y-114061000D02*
X131799000Y-114061000D01*
X132561000Y-116601000D02*
X133069000Y-116601000D01*
X130021000Y-112791000D02*
X130021000Y-112796000D01*
X130021000Y-112796000D02*
X130021000Y-116601000D01*
X131291000Y-112791000D02*
X131291000Y-114061000D01*
X130529000Y-112791000D02*
X130529000Y-116601000D01*
X132561000Y-112791000D02*
X132561000Y-116601000D01*
X131799000Y-112791000D02*
X131799000Y-114061000D01*
X133831000Y-112791000D02*
X133831000Y-114061000D01*
X133069000Y-112791000D02*
X133069000Y-116601000D01*
X133831000Y-114061000D02*
X134339000Y-114061000D01*
D18*
X138742000Y-130761500D02*
X125618000Y-130761500D01*
D17*
X134339000Y-112791000D02*
X134339000Y-112796000D01*
X134339000Y-112796000D02*
X134339000Y-114061000D01*
X128751000Y-114061000D02*
X129259000Y-114061000D01*
X128751000Y-112791000D02*
X128751000Y-114061000D01*
X129259000Y-112791000D02*
X129259000Y-112796000D01*
X129259000Y-112796000D02*
X129259000Y-114061000D01*
X135101000Y-116601000D02*
X135609000Y-116601000D01*
X135101000Y-112790900D02*
X135101000Y-116601000D01*
X135609000Y-112791000D02*
X135609000Y-116601000D01*
D11*
G36*
X138784000Y-130825000D02*
G01*
X139546000Y-130825000D01*
X139546000Y-129682000D01*
X138784000Y-129682000D01*
X138784000Y-130825000D01*
G37*
G36*
X124814000Y-130825000D02*
G01*
X125576000Y-130825000D01*
X125576000Y-129682000D01*
X124814000Y-129682000D01*
X124814000Y-130825000D01*
G37*
D17*
X124310000Y-120365000D02*
X124310000Y-121635000D01*
X121135000Y-122270000D02*
X119865000Y-122270000D01*
X119230000Y-121635000D02*
X119865000Y-122270000D01*
X119865000Y-119730000D02*
X119230000Y-120365000D01*
X119230000Y-120365000D02*
X119230000Y-121635000D01*
X122405000Y-122270000D02*
X121770000Y-121635000D01*
X123675000Y-122270000D02*
X122405000Y-122270000D01*
X124310000Y-121635000D02*
X123675000Y-122270000D01*
X123675000Y-119730000D02*
X124310000Y-120365000D01*
X122405000Y-119730000D02*
X123675000Y-119730000D01*
X121770000Y-120365000D02*
X122405000Y-119730000D01*
X121770000Y-121635000D02*
X121135000Y-122270000D01*
X121135000Y-119730000D02*
X121770000Y-120365000D01*
X119865000Y-119730000D02*
X121135000Y-119730000D01*
D16*
X157500000Y-99213200D02*
X158750000Y-99213200D01*
X157500000Y-88933200D02*
X157500000Y-99213200D01*
X162000000Y-88933200D02*
X157500000Y-88933200D01*
X162000000Y-99213200D02*
X162000000Y-88933200D01*
X160750000Y-99213200D02*
X162000000Y-99213200D01*
X158750000Y-99213200D02*
G75*
G02*
X160750000Y-99213200I1000000J0D01*
G01*
X123770000Y-114500000D02*
G75*
G03*
X123770000Y-114500000I-2500000J0D01*
G01*
X118710000Y-112955000D02*
X118710000Y-116045000D01*
X124260000Y-114500462D02*
G75*
G03*
X118710000Y-112955170I-2990000J462D01*
G01*
X124260000Y-114499538D02*
G75*
G02*
X118710000Y-116044830I-2990000J-462D01*
G01*
X162830000Y-107670000D02*
X162830000Y-109000000D01*
X161500000Y-107670000D02*
X162830000Y-107670000D01*
X160230000Y-107670000D02*
X160230000Y-110330000D01*
X160230000Y-110330000D02*
X124610000Y-110330000D01*
X160230000Y-107670000D02*
X124610000Y-107670000D01*
X124610000Y-107670000D02*
X124610000Y-110330000D01*
X162830000Y-105170000D02*
X162830000Y-106500000D01*
X161500000Y-105170000D02*
X162830000Y-105170000D01*
X160230000Y-105170000D02*
X160230000Y-107830000D01*
X160230000Y-107830000D02*
X124610000Y-107830000D01*
X160230000Y-105170000D02*
X124610000Y-105170000D01*
X124610000Y-105170000D02*
X124610000Y-107830000D01*
X124711600Y-79670000D02*
X124711600Y-82330000D01*
X160331600Y-79670000D02*
X124711600Y-79670000D01*
X160331600Y-82330000D02*
X124711600Y-82330000D01*
X160331600Y-79670000D02*
X160331600Y-82330000D01*
X161601600Y-79670000D02*
X162931600Y-79670000D01*
X162931600Y-79670000D02*
X162931600Y-81000000D01*
X124711600Y-74658400D02*
X124711600Y-77318400D01*
X160331600Y-74658400D02*
X124711600Y-74658400D01*
X160331600Y-77318400D02*
X124711600Y-77318400D01*
X160331600Y-74658400D02*
X160331600Y-77318400D01*
X161601600Y-74658400D02*
X162931600Y-74658400D01*
X162931600Y-74658400D02*
X162931600Y-75988400D01*
X139966000Y-79807600D02*
X139966000Y-78477600D01*
X141296000Y-79807600D02*
X139966000Y-79807600D01*
X142566000Y-79807600D02*
X142566000Y-77147600D01*
X142566000Y-77147600D02*
X142626000Y-77147600D01*
X142566000Y-79807600D02*
X142626000Y-79807600D01*
X142626000Y-79807600D02*
X142626000Y-77147600D01*
X132346000Y-79807600D02*
X132346000Y-78477600D01*
X133676000Y-79807600D02*
X132346000Y-79807600D01*
X134946000Y-79807600D02*
X134946000Y-77147600D01*
X134946000Y-77147600D02*
X135006000Y-77147600D01*
X134946000Y-79807600D02*
X135006000Y-79807600D01*
X135006000Y-79807600D02*
X135006000Y-77147600D01*
X132466000Y-79830000D02*
X132466000Y-77170000D01*
X132406000Y-79830000D02*
X132466000Y-79830000D01*
X132406000Y-77170000D02*
X132466000Y-77170000D01*
X132406000Y-79830000D02*
X132406000Y-77170000D01*
X131136000Y-79830000D02*
X129806000Y-79830000D01*
X129806000Y-79830000D02*
X129806000Y-78500000D01*
X129926000Y-79833000D02*
X129926000Y-77173000D01*
X129866000Y-79833000D02*
X129926000Y-79833000D01*
X129866000Y-77173000D02*
X129926000Y-77173000D01*
X129866000Y-79833000D02*
X129866000Y-77173000D01*
X128596000Y-79833000D02*
X127266000Y-79833000D01*
X127266000Y-79833000D02*
X127266000Y-78503000D01*
X142480600Y-79807600D02*
X142480600Y-78477600D01*
X143810600Y-79807600D02*
X142480600Y-79807600D01*
X145080600Y-79807600D02*
X145080600Y-77147600D01*
X145080600Y-77147600D02*
X145140600Y-77147600D01*
X145080600Y-79807600D02*
X145140600Y-79807600D01*
X145140600Y-79807600D02*
X145140600Y-77147600D01*
X150246000Y-79830000D02*
X150246000Y-77170000D01*
X150186000Y-79830000D02*
X150246000Y-79830000D01*
X150186000Y-77170000D02*
X150246000Y-77170000D01*
X150186000Y-79830000D02*
X150186000Y-77170000D01*
X148916000Y-79830000D02*
X147586000Y-79830000D01*
X147586000Y-79830000D02*
X147586000Y-78500000D01*
X137370000Y-90920000D02*
X137040000Y-90920000D01*
X137370000Y-97460000D02*
X137370000Y-90920000D01*
X137040000Y-97460000D02*
X137370000Y-97460000D01*
X134630000Y-90920000D02*
X134960000Y-90920000D01*
X134630000Y-97460000D02*
X134630000Y-90920000D01*
X134960000Y-97460000D02*
X134630000Y-97460000D01*
X131040000Y-91108000D02*
X131370000Y-91108000D01*
X131370000Y-91108000D02*
X131370000Y-97648000D01*
X131370000Y-97648000D02*
X131040000Y-97648000D01*
X128960000Y-91108000D02*
X128630000Y-91108000D01*
X128630000Y-91108000D02*
X128630000Y-97648000D01*
X128630000Y-97648000D02*
X128960000Y-97648000D01*
X150159000Y-90777800D02*
X149829000Y-90777800D01*
X150159000Y-97317800D02*
X150159000Y-90777800D01*
X149829000Y-97317800D02*
X150159000Y-97317800D01*
X147419000Y-90777800D02*
X147749000Y-90777800D01*
X147419000Y-97317800D02*
X147419000Y-90777800D01*
X147749000Y-97317800D02*
X147419000Y-97317800D01*
X134040000Y-91040000D02*
X134370000Y-91040000D01*
X134370000Y-91040000D02*
X134370000Y-97580000D01*
X134370000Y-97580000D02*
X134040000Y-97580000D01*
X131960000Y-91040000D02*
X131630000Y-91040000D01*
X131630000Y-91040000D02*
X131630000Y-97580000D01*
X131630000Y-97580000D02*
X131960000Y-97580000D01*
X122960000Y-97730000D02*
X122630000Y-97730000D01*
X122630000Y-97730000D02*
X122630000Y-91190000D01*
X122630000Y-91190000D02*
X122960000Y-91190000D01*
X125040000Y-97730000D02*
X125370000Y-97730000D01*
X125370000Y-97730000D02*
X125370000Y-91190000D01*
X125370000Y-91190000D02*
X125040000Y-91190000D01*
X140040000Y-91006400D02*
X140370000Y-91006400D01*
X140370000Y-91006400D02*
X140370000Y-97546400D01*
X140370000Y-97546400D02*
X140040000Y-97546400D01*
X137960000Y-91006400D02*
X137630000Y-91006400D01*
X137630000Y-91006400D02*
X137630000Y-97546400D01*
X137630000Y-97546400D02*
X137960000Y-97546400D01*
X128370000Y-91150000D02*
X128040000Y-91150000D01*
X128370000Y-97690000D02*
X128370000Y-91150000D01*
X128040000Y-97690000D02*
X128370000Y-97690000D01*
X125630000Y-91150000D02*
X125960000Y-91150000D01*
X125630000Y-97690000D02*
X125630000Y-91150000D01*
X125960000Y-97690000D02*
X125630000Y-97690000D01*
X123540000Y-102540000D02*
X123870000Y-102540000D01*
X123870000Y-102540000D02*
X123870000Y-109080000D01*
X123870000Y-109080000D02*
X123540000Y-109080000D01*
X121460000Y-102540000D02*
X121130000Y-102540000D01*
X121130000Y-102540000D02*
X121130000Y-109080000D01*
X121130000Y-109080000D02*
X121460000Y-109080000D01*
X187900000Y-90600000D02*
X187900000Y-77770000D01*
X167320000Y-90600000D02*
X187900000Y-90600000D01*
X167320000Y-75100000D02*
X167320000Y-90600000D01*
X185230000Y-75100000D02*
X167320000Y-75100000D01*
X185230000Y-77770000D02*
X185230000Y-75100000D01*
X187900000Y-77770000D02*
X185230000Y-77770000D01*
X187900000Y-75100000D02*
X186500000Y-75100000D01*
X187900000Y-76500000D02*
X187900000Y-75100000D01*
X185230000Y-77770000D02*
X167320000Y-77770000D01*
X187900000Y-87930000D02*
X167320000Y-87930000D01*
X187109698Y-104715000D02*
X187109698Y-103915000D01*
X187509698Y-104315000D02*
X186709698Y-104315000D01*
X179019000Y-102533000D02*
X179019000Y-101467000D01*
X179059000Y-102768000D02*
X179059000Y-101232000D01*
X179099000Y-102948000D02*
X179099000Y-101052000D01*
X179139000Y-103098000D02*
X179139000Y-100902000D01*
X179179000Y-103229000D02*
X179179000Y-100771000D01*
X179219000Y-103346000D02*
X179219000Y-100654000D01*
X179259000Y-103453000D02*
X179259000Y-100547000D01*
X179299000Y-103552000D02*
X179299000Y-100448000D01*
X179339000Y-103645000D02*
X179339000Y-100355000D01*
X179379000Y-103731000D02*
X179379000Y-100269000D01*
X179419000Y-103813000D02*
X179419000Y-100187000D01*
X179459000Y-103890000D02*
X179459000Y-100110000D01*
X179499000Y-103964000D02*
X179499000Y-100036000D01*
X179539000Y-104034000D02*
X179539000Y-99966000D01*
X179579000Y-104102000D02*
X179579000Y-99898000D01*
X179619000Y-104166000D02*
X179619000Y-99834000D01*
X179659000Y-104228000D02*
X179659000Y-99772000D01*
X179699000Y-104287000D02*
X179699000Y-99713000D01*
X179739000Y-104345000D02*
X179739000Y-99655000D01*
X179779000Y-104400000D02*
X179779000Y-99600000D01*
X179819000Y-104454000D02*
X179819000Y-99546000D01*
X179859000Y-104505000D02*
X179859000Y-99495000D01*
X179899000Y-104556000D02*
X179899000Y-99444000D01*
X179939000Y-104604000D02*
X179939000Y-99396000D01*
X179979000Y-104651000D02*
X179979000Y-99349000D01*
X180019000Y-104697000D02*
X180019000Y-99303000D01*
X180059000Y-104741000D02*
X180059000Y-99259000D01*
X180099000Y-104784000D02*
X180099000Y-99216000D01*
X180139000Y-104826000D02*
X180139000Y-99174000D01*
X180179000Y-100960000D02*
X180179000Y-99133000D01*
X180179000Y-104867000D02*
X180179000Y-103040000D01*
X180219000Y-100960000D02*
X180219000Y-99093000D01*
X180219000Y-104907000D02*
X180219000Y-103040000D01*
X180259000Y-100960000D02*
X180259000Y-99055000D01*
X180259000Y-104945000D02*
X180259000Y-103040000D01*
X180299000Y-100960000D02*
X180299000Y-99017000D01*
X180299000Y-104983000D02*
X180299000Y-103040000D01*
X180339000Y-100960000D02*
X180339000Y-98981000D01*
X180339000Y-105019000D02*
X180339000Y-103040000D01*
X180379000Y-100960000D02*
X180379000Y-98945000D01*
X180379000Y-105055000D02*
X180379000Y-103040000D01*
X180419000Y-100960000D02*
X180419000Y-98910000D01*
X180419000Y-105090000D02*
X180419000Y-103040000D01*
X180459000Y-100960000D02*
X180459000Y-98876000D01*
X180459000Y-105124000D02*
X180459000Y-103040000D01*
X180499000Y-100960000D02*
X180499000Y-98844000D01*
X180499000Y-105156000D02*
X180499000Y-103040000D01*
X180539000Y-100960000D02*
X180539000Y-98811000D01*
X180539000Y-105189000D02*
X180539000Y-103040000D01*
X180579000Y-100960000D02*
X180579000Y-98780000D01*
X180579000Y-105220000D02*
X180579000Y-103040000D01*
X180619000Y-100960000D02*
X180619000Y-98750000D01*
X180619000Y-105250000D02*
X180619000Y-103040000D01*
X180659000Y-100960000D02*
X180659000Y-98720000D01*
X180659000Y-105280000D02*
X180659000Y-103040000D01*
X180699000Y-100960000D02*
X180699000Y-98691000D01*
X180699000Y-105309000D02*
X180699000Y-103040000D01*
X180739000Y-100960000D02*
X180739000Y-98662000D01*
X180739000Y-105338000D02*
X180739000Y-103040000D01*
X180779000Y-100960000D02*
X180779000Y-98635000D01*
X180779000Y-105365000D02*
X180779000Y-103040000D01*
X180819000Y-100960000D02*
X180819000Y-98608000D01*
X180819000Y-105392000D02*
X180819000Y-103040000D01*
X180859000Y-100960000D02*
X180859000Y-98582000D01*
X180859000Y-105418000D02*
X180859000Y-103040000D01*
X180899000Y-100960000D02*
X180899000Y-98556000D01*
X180899000Y-105444000D02*
X180899000Y-103040000D01*
X180939000Y-100960000D02*
X180939000Y-98531000D01*
X180939000Y-105469000D02*
X180939000Y-103040000D01*
X180979000Y-100960000D02*
X180979000Y-98507000D01*
X180979000Y-105493000D02*
X180979000Y-103040000D01*
X181019000Y-100960000D02*
X181019000Y-98483000D01*
X181019000Y-105517000D02*
X181019000Y-103040000D01*
X181059000Y-100960000D02*
X181059000Y-98460000D01*
X181059000Y-105540000D02*
X181059000Y-103040000D01*
X181099000Y-100960000D02*
X181099000Y-98438000D01*
X181099000Y-105562000D02*
X181099000Y-103040000D01*
X181139000Y-100960000D02*
X181139000Y-98416000D01*
X181139000Y-105584000D02*
X181139000Y-103040000D01*
X181179000Y-100960000D02*
X181179000Y-98394000D01*
X181179000Y-105606000D02*
X181179000Y-103040000D01*
X181219000Y-100960000D02*
X181219000Y-98373000D01*
X181219000Y-105627000D02*
X181219000Y-103040000D01*
X181259000Y-100960000D02*
X181259000Y-98353000D01*
X181259000Y-105647000D02*
X181259000Y-103040000D01*
X181299000Y-100960000D02*
X181299000Y-98334000D01*
X181299000Y-105666000D02*
X181299000Y-103040000D01*
X181339000Y-100960000D02*
X181339000Y-98314000D01*
X181339000Y-105686000D02*
X181339000Y-103040000D01*
X181379000Y-100960000D02*
X181379000Y-98296000D01*
X181379000Y-105704000D02*
X181379000Y-103040000D01*
X181419000Y-100960000D02*
X181419000Y-98278000D01*
X181419000Y-105722000D02*
X181419000Y-103040000D01*
X181459000Y-100960000D02*
X181459000Y-98260000D01*
X181459000Y-105740000D02*
X181459000Y-103040000D01*
X181499000Y-100960000D02*
X181499000Y-98243000D01*
X181499000Y-105757000D02*
X181499000Y-103040000D01*
X181539000Y-100960000D02*
X181539000Y-98226000D01*
X181539000Y-105774000D02*
X181539000Y-103040000D01*
X181579000Y-100960000D02*
X181579000Y-98210000D01*
X181579000Y-105790000D02*
X181579000Y-103040000D01*
X181619000Y-100960000D02*
X181619000Y-98195000D01*
X181619000Y-105805000D02*
X181619000Y-103040000D01*
X181659000Y-100960000D02*
X181659000Y-98179000D01*
X181659000Y-105821000D02*
X181659000Y-103040000D01*
X181699000Y-100960000D02*
X181699000Y-98165000D01*
X181699000Y-105835000D02*
X181699000Y-103040000D01*
X181739000Y-100960000D02*
X181739000Y-98150000D01*
X181739000Y-105850000D02*
X181739000Y-103040000D01*
X181779000Y-100960000D02*
X181779000Y-98137000D01*
X181779000Y-105863000D02*
X181779000Y-103040000D01*
X181819000Y-100960000D02*
X181819000Y-98123000D01*
X181819000Y-105877000D02*
X181819000Y-103040000D01*
X181859000Y-100960000D02*
X181859000Y-98111000D01*
X181859000Y-105889000D02*
X181859000Y-103040000D01*
X181899000Y-100960000D02*
X181899000Y-98098000D01*
X181899000Y-105902000D02*
X181899000Y-103040000D01*
X181939000Y-100960000D02*
X181939000Y-98086000D01*
X181939000Y-105914000D02*
X181939000Y-103040000D01*
X181979000Y-100960000D02*
X181979000Y-98075000D01*
X181979000Y-105925000D02*
X181979000Y-103040000D01*
X182019000Y-100960000D02*
X182019000Y-98064000D01*
X182019000Y-105936000D02*
X182019000Y-103040000D01*
X182059000Y-100960000D02*
X182059000Y-98053000D01*
X182059000Y-105947000D02*
X182059000Y-103040000D01*
X182099000Y-100960000D02*
X182099000Y-98043000D01*
X182099000Y-105957000D02*
X182099000Y-103040000D01*
X182139000Y-100960000D02*
X182139000Y-98033000D01*
X182139000Y-105967000D02*
X182139000Y-103040000D01*
X182179000Y-100960000D02*
X182179000Y-98024000D01*
X182179000Y-105976000D02*
X182179000Y-103040000D01*
X182219000Y-100960000D02*
X182219000Y-98015000D01*
X182219000Y-105985000D02*
X182219000Y-103040000D01*
X182259000Y-105994000D02*
X182259000Y-98006000D01*
X182299000Y-106002000D02*
X182299000Y-97998000D01*
X182339000Y-106010000D02*
X182339000Y-97990000D01*
X182379000Y-106017000D02*
X182379000Y-97983000D01*
X182420000Y-106024000D02*
X182420000Y-97976000D01*
X182460000Y-106030000D02*
X182460000Y-97970000D01*
X182500000Y-106037000D02*
X182500000Y-97963000D01*
X182540000Y-106042000D02*
X182540000Y-97958000D01*
X182580000Y-106048000D02*
X182580000Y-97952000D01*
X182620000Y-106052000D02*
X182620000Y-97948000D01*
X182660000Y-106057000D02*
X182660000Y-97943000D01*
X182700000Y-106061000D02*
X182700000Y-97939000D01*
X182740000Y-106065000D02*
X182740000Y-97935000D01*
X182780000Y-106068000D02*
X182780000Y-97932000D01*
X182820000Y-106071000D02*
X182820000Y-97929000D01*
X182860000Y-106074000D02*
X182860000Y-97926000D01*
X182900000Y-106076000D02*
X182900000Y-97924000D01*
X182940000Y-106077000D02*
X182940000Y-97923000D01*
X182980000Y-106079000D02*
X182980000Y-97921000D01*
X183020000Y-106080000D02*
X183020000Y-97920000D01*
X183060000Y-106080000D02*
X183060000Y-97920000D01*
X183100000Y-106080000D02*
X183100000Y-97920000D01*
X187220000Y-102000000D02*
G75*
G03*
X187220000Y-102000000I-4120000J0D01*
G01*
X175812288Y-103560000D02*
X175812288Y-103110000D01*
X176037288Y-103335000D02*
X175587288Y-103335000D01*
X171380260Y-103060000D02*
G75*
G03*
X175619741Y-103060000I2119740J1060000D01*
G01*
X171380260Y-100940000D02*
G75*
G02*
X175619741Y-100940000I2119740J-1060000D01*
G01*
X182830000Y-73000000D02*
X182830000Y-74330000D01*
X182830000Y-74330000D02*
X181500000Y-74330000D01*
X180230000Y-74330000D02*
X172550000Y-74330000D01*
X172550000Y-71670000D02*
X172550000Y-74330000D01*
X180230000Y-71670000D02*
X172550000Y-71670000D01*
X180230000Y-71670000D02*
X180230000Y-74330000D01*
X174409000Y-112410000D02*
X174409000Y-110900000D01*
X178110000Y-112410000D02*
X178110000Y-110900000D01*
X181380000Y-110900000D02*
X171140000Y-110900000D01*
X171140000Y-112410000D02*
X171140000Y-107769000D01*
X181380000Y-112410000D02*
X181380000Y-107769000D01*
X181380000Y-107769000D02*
X171140000Y-107769000D01*
X181380000Y-112410000D02*
X171140000Y-112410000D01*
X166180000Y-124000000D02*
G75*
G03*
X166180000Y-124000000I-1680000J0D01*
G01*
X159190000Y-128100000D02*
X166310000Y-128100000D01*
X159190000Y-127000000D02*
X166310000Y-127000000D01*
X159190000Y-120840000D02*
X166310000Y-120840000D01*
X159190000Y-128560000D02*
X166310000Y-128560000D01*
X159190000Y-120840000D02*
X159190000Y-128560000D01*
X166310000Y-120840000D02*
X166310000Y-128560000D01*
X165775000Y-122931000D02*
X165646000Y-123059000D01*
X163525000Y-125181000D02*
X163431000Y-125274000D01*
X165570000Y-122725000D02*
X165476000Y-122819000D01*
X163355000Y-124941000D02*
X163226000Y-125069000D01*
X158950000Y-128160000D02*
X158950000Y-128800000D01*
X158950000Y-128800000D02*
X159350000Y-128800000D01*
X161890264Y-125424721D02*
G75*
G02*
X161000000Y-125680000I-890264J1424721D01*
G01*
X162425505Y-123109807D02*
G75*
G02*
X162425000Y-124891000I-1425505J-890193D01*
G01*
X160110106Y-122574642D02*
G75*
G02*
X161866000Y-122560000I889894J-1425358D01*
G01*
X159574642Y-124889894D02*
G75*
G02*
X159560000Y-123134000I1425358J889894D01*
G01*
X161028674Y-125680099D02*
G75*
G02*
X160134000Y-125440000I-28674J1680099D01*
G01*
X120830000Y-84130000D02*
X118170000Y-84130000D01*
X120830000Y-86730000D02*
X120830000Y-84130000D01*
X118170000Y-86730000D02*
X118170000Y-84130000D01*
X120830000Y-86730000D02*
X118170000Y-86730000D01*
X120830000Y-88000000D02*
X120830000Y-89330000D01*
X120830000Y-89330000D02*
X119500000Y-89330000D01*
X182990000Y-96330000D02*
X182990000Y-91130000D01*
X172770000Y-96330000D02*
X182990000Y-96330000D01*
X170170000Y-91130000D02*
X182990000Y-91130000D01*
X172770000Y-96330000D02*
X172770000Y-93730000D01*
X172770000Y-93730000D02*
X170170000Y-93730000D01*
X170170000Y-93730000D02*
X170170000Y-91130000D01*
X171500000Y-96330000D02*
X170170000Y-96330000D01*
X170170000Y-96330000D02*
X170170000Y-95000000D01*
X151350000Y-97240000D02*
X151020000Y-97240000D01*
X151020000Y-97240000D02*
X151020000Y-90700000D01*
X151020000Y-90700000D02*
X151350000Y-90700000D01*
X153430000Y-97240000D02*
X153760000Y-97240000D01*
X153760000Y-97240000D02*
X153760000Y-90700000D01*
X153760000Y-90700000D02*
X153430000Y-90700000D01*
D19*
X172550476Y-127362380D02*
X172550476Y-128076666D01*
X172502857Y-128219523D01*
X172407619Y-128314761D01*
X172264761Y-128362380D01*
X172169523Y-128362380D01*
X173550476Y-128362380D02*
X172979047Y-128362380D01*
X173264761Y-128362380D02*
X173264761Y-127362380D01*
X173169523Y-127505238D01*
X173074285Y-127600476D01*
X172979047Y-127648095D01*
X174455238Y-127362380D02*
X173979047Y-127362380D01*
X173931428Y-127838571D01*
X173979047Y-127790952D01*
X174074285Y-127743333D01*
X174312380Y-127743333D01*
X174407619Y-127790952D01*
X174455238Y-127838571D01*
X174502857Y-127933809D01*
X174502857Y-128171904D01*
X174455238Y-128267142D01*
X174407619Y-128314761D01*
X174312380Y-128362380D01*
X174074285Y-128362380D01*
X173979047Y-128314761D01*
X173931428Y-128267142D01*
D20*
X141555771Y-127988838D02*
X141555771Y-128678266D01*
X141509809Y-128816152D01*
X141417885Y-128908076D01*
X141279999Y-128954038D01*
X141188076Y-128954038D01*
X141969428Y-128080761D02*
X142015390Y-128034800D01*
X142107314Y-127988838D01*
X142337123Y-127988838D01*
X142429047Y-128034800D01*
X142475009Y-128080761D01*
X142520971Y-128172685D01*
X142520971Y-128264609D01*
X142475009Y-128402495D01*
X141923466Y-128954038D01*
X142520971Y-128954038D01*
D19*
X166666666Y-98952380D02*
X166666666Y-98476190D01*
X166952380Y-99047619D02*
X165952380Y-98714285D01*
X166952380Y-98380952D01*
X166952380Y-98047619D02*
X166285714Y-98047619D01*
X166476190Y-98047619D02*
X166380952Y-98000000D01*
X166333333Y-97952380D01*
X166285714Y-97857142D01*
X166285714Y-97761904D01*
X166952380Y-97000000D02*
X165952380Y-97000000D01*
X166904761Y-97000000D02*
X166952380Y-97095238D01*
X166952380Y-97285714D01*
X166904761Y-97380952D01*
X166857142Y-97428571D01*
X166761904Y-97476190D01*
X166476190Y-97476190D01*
X166380952Y-97428571D01*
X166333333Y-97380952D01*
X166285714Y-97285714D01*
X166285714Y-97095238D01*
X166333333Y-97000000D01*
X166285714Y-96095238D02*
X166952380Y-96095238D01*
X166285714Y-96523809D02*
X166809523Y-96523809D01*
X166904761Y-96476190D01*
X166952380Y-96380952D01*
X166952380Y-96238095D01*
X166904761Y-96142857D01*
X166857142Y-96095238D01*
X166952380Y-95619047D02*
X166285714Y-95619047D01*
X165952380Y-95619047D02*
X166000000Y-95666666D01*
X166047619Y-95619047D01*
X166000000Y-95571428D01*
X165952380Y-95619047D01*
X166047619Y-95619047D01*
X166285714Y-95142857D02*
X166952380Y-95142857D01*
X166380952Y-95142857D02*
X166333333Y-95095238D01*
X166285714Y-95000000D01*
X166285714Y-94857142D01*
X166333333Y-94761904D01*
X166428571Y-94714285D01*
X166952380Y-94714285D01*
X166952380Y-94095238D02*
X166904761Y-94190476D01*
X166857142Y-94238095D01*
X166761904Y-94285714D01*
X166476190Y-94285714D01*
X166380952Y-94238095D01*
X166333333Y-94190476D01*
X166285714Y-94095238D01*
X166285714Y-93952380D01*
X166333333Y-93857142D01*
X166380952Y-93809523D01*
X166476190Y-93761904D01*
X166761904Y-93761904D01*
X166857142Y-93809523D01*
X166904761Y-93857142D01*
X166952380Y-93952380D01*
X166952380Y-94095238D01*
X166952380Y-93333333D02*
X165952380Y-93333333D01*
X166952380Y-92761904D01*
X165952380Y-92761904D01*
X166952380Y-91857142D02*
X166428571Y-91857142D01*
X166333333Y-91904761D01*
X166285714Y-92000000D01*
X166285714Y-92190476D01*
X166333333Y-92285714D01*
X166904761Y-91857142D02*
X166952380Y-91952380D01*
X166952380Y-92190476D01*
X166904761Y-92285714D01*
X166809523Y-92333333D01*
X166714285Y-92333333D01*
X166619047Y-92285714D01*
X166571428Y-92190476D01*
X166571428Y-91952380D01*
X166523809Y-91857142D01*
X166285714Y-91380952D02*
X166952380Y-91380952D01*
X166380952Y-91380952D02*
X166333333Y-91333333D01*
X166285714Y-91238095D01*
X166285714Y-91095238D01*
X166333333Y-91000000D01*
X166428571Y-90952380D01*
X166952380Y-90952380D01*
X166952380Y-90333333D02*
X166904761Y-90428571D01*
X166857142Y-90476190D01*
X166761904Y-90523809D01*
X166476190Y-90523809D01*
X166380952Y-90476190D01*
X166333333Y-90428571D01*
X166285714Y-90333333D01*
X166285714Y-90190476D01*
X166333333Y-90095238D01*
X166380952Y-90047619D01*
X166476190Y-90000000D01*
X166761904Y-90000000D01*
X166857142Y-90047619D01*
X166904761Y-90095238D01*
X166952380Y-90190476D01*
X166952380Y-90333333D01*
X166952380Y-89047619D02*
X166952380Y-89619047D01*
X166952380Y-89333333D02*
X165952380Y-89333333D01*
X166095238Y-89428571D01*
X166190476Y-89523809D01*
X166238095Y-89619047D01*
D20*
X123925771Y-127988838D02*
X123925771Y-128678266D01*
X123879809Y-128816152D01*
X123787885Y-128908076D01*
X123649999Y-128954038D01*
X123558076Y-128954038D01*
X124890971Y-128954038D02*
X124339428Y-128954038D01*
X124615199Y-128954038D02*
X124615199Y-127988838D01*
X124523276Y-128126723D01*
X124431352Y-128218647D01*
X124339428Y-128264609D01*
D11*
X116588809Y-120452380D02*
X116588809Y-121166666D01*
X116541190Y-121309523D01*
X116445952Y-121404761D01*
X116303095Y-121452380D01*
X116207857Y-121452380D01*
X117065000Y-121452380D02*
X117065000Y-120452380D01*
X117445952Y-120452380D01*
X117541190Y-120500000D01*
X117588809Y-120547619D01*
X117636428Y-120642857D01*
X117636428Y-120785714D01*
X117588809Y-120880952D01*
X117541190Y-120928571D01*
X117445952Y-120976190D01*
X117065000Y-120976190D01*
X118588809Y-121452380D02*
X118017380Y-121452380D01*
X118303095Y-121452380D02*
X118303095Y-120452380D01*
X118207857Y-120595238D01*
X118112619Y-120690476D01*
X118017380Y-120738095D01*
D19*
X163282380Y-109333333D02*
X163996666Y-109333333D01*
X164139523Y-109380952D01*
X164234761Y-109476190D01*
X164282380Y-109619047D01*
X164282380Y-109714285D01*
X163282380Y-108952380D02*
X163282380Y-108333333D01*
X163663333Y-108666666D01*
X163663333Y-108523809D01*
X163710952Y-108428571D01*
X163758571Y-108380952D01*
X163853809Y-108333333D01*
X164091904Y-108333333D01*
X164187142Y-108380952D01*
X164234761Y-108428571D01*
X164282380Y-108523809D01*
X164282380Y-108809523D01*
X164234761Y-108904761D01*
X164187142Y-108952380D01*
X163282380Y-106833333D02*
X163996666Y-106833333D01*
X164139523Y-106880952D01*
X164234761Y-106976190D01*
X164282380Y-107119047D01*
X164282380Y-107214285D01*
X163615714Y-105928571D02*
X164282380Y-105928571D01*
X163234761Y-106166666D02*
X163949047Y-106404761D01*
X163949047Y-105785714D01*
X163598266Y-80452380D02*
X163598266Y-81166666D01*
X163550647Y-81309523D01*
X163455409Y-81404761D01*
X163312552Y-81452380D01*
X163217314Y-81452380D01*
X164550647Y-80452380D02*
X164074457Y-80452380D01*
X164026838Y-80928571D01*
X164074457Y-80880952D01*
X164169695Y-80833333D01*
X164407790Y-80833333D01*
X164503028Y-80880952D01*
X164550647Y-80928571D01*
X164598266Y-81023809D01*
X164598266Y-81261904D01*
X164550647Y-81357142D01*
X164503028Y-81404761D01*
X164407790Y-81452380D01*
X164169695Y-81452380D01*
X164074457Y-81404761D01*
X164026838Y-81357142D01*
X163598266Y-75440780D02*
X163598266Y-76155066D01*
X163550647Y-76297923D01*
X163455409Y-76393161D01*
X163312552Y-76440780D01*
X163217314Y-76440780D01*
X164503028Y-75440780D02*
X164312552Y-75440780D01*
X164217314Y-75488400D01*
X164169695Y-75536019D01*
X164074457Y-75678876D01*
X164026838Y-75869352D01*
X164026838Y-76250304D01*
X164074457Y-76345542D01*
X164122076Y-76393161D01*
X164217314Y-76440780D01*
X164407790Y-76440780D01*
X164503028Y-76393161D01*
X164550647Y-76345542D01*
X164598266Y-76250304D01*
X164598266Y-76012209D01*
X164550647Y-75916971D01*
X164503028Y-75869352D01*
X164407790Y-75821733D01*
X164217314Y-75821733D01*
X164122076Y-75869352D01*
X164074457Y-75916971D01*
X164026838Y-76012209D01*
X189206666Y-84992857D02*
X189206666Y-84516666D01*
X189492380Y-85088095D02*
X188492380Y-84754761D01*
X189492380Y-84421428D01*
X188825714Y-83659523D02*
X189492380Y-83659523D01*
X188444761Y-83897619D02*
X189159047Y-84135714D01*
X189159047Y-83516666D01*
X189492380Y-83088095D02*
X189492380Y-82897619D01*
X189444761Y-82802380D01*
X189397142Y-82754761D01*
X189254285Y-82659523D01*
X189063809Y-82611904D01*
X188682857Y-82611904D01*
X188587619Y-82659523D01*
X188540000Y-82707142D01*
X188492380Y-82802380D01*
X188492380Y-82992857D01*
X188540000Y-83088095D01*
X188587619Y-83135714D01*
X188682857Y-83183333D01*
X188920952Y-83183333D01*
X189016190Y-83135714D01*
X189063809Y-83088095D01*
X189111428Y-82992857D01*
X189111428Y-82802380D01*
X189063809Y-82707142D01*
X189016190Y-82659523D01*
X188920952Y-82611904D01*
X188920952Y-82040476D02*
X188873333Y-82135714D01*
X188825714Y-82183333D01*
X188730476Y-82230952D01*
X188682857Y-82230952D01*
X188587619Y-82183333D01*
X188540000Y-82135714D01*
X188492380Y-82040476D01*
X188492380Y-81850000D01*
X188540000Y-81754761D01*
X188587619Y-81707142D01*
X188682857Y-81659523D01*
X188730476Y-81659523D01*
X188825714Y-81707142D01*
X188873333Y-81754761D01*
X188920952Y-81850000D01*
X188920952Y-82040476D01*
X188968571Y-82135714D01*
X189016190Y-82183333D01*
X189111428Y-82230952D01*
X189301904Y-82230952D01*
X189397142Y-82183333D01*
X189444761Y-82135714D01*
X189492380Y-82040476D01*
X189492380Y-81850000D01*
X189444761Y-81754761D01*
X189397142Y-81707142D01*
X189301904Y-81659523D01*
X189111428Y-81659523D01*
X189016190Y-81707142D01*
X188968571Y-81754761D01*
X188920952Y-81850000D01*
X188920952Y-81088095D02*
X188873333Y-81183333D01*
X188825714Y-81230952D01*
X188730476Y-81278571D01*
X188682857Y-81278571D01*
X188587619Y-81230952D01*
X188540000Y-81183333D01*
X188492380Y-81088095D01*
X188492380Y-80897619D01*
X188540000Y-80802380D01*
X188587619Y-80754761D01*
X188682857Y-80707142D01*
X188730476Y-80707142D01*
X188825714Y-80754761D01*
X188873333Y-80802380D01*
X188920952Y-80897619D01*
X188920952Y-81088095D01*
X188968571Y-81183333D01*
X189016190Y-81230952D01*
X189111428Y-81278571D01*
X189301904Y-81278571D01*
X189397142Y-81230952D01*
X189444761Y-81183333D01*
X189492380Y-81088095D01*
X189492380Y-80897619D01*
X189444761Y-80802380D01*
X189397142Y-80754761D01*
X189301904Y-80707142D01*
X189111428Y-80707142D01*
X189016190Y-80754761D01*
X188968571Y-80802380D01*
X188920952Y-80897619D01*
X183460476Y-72452380D02*
X183460476Y-73166666D01*
X183412857Y-73309523D01*
X183317619Y-73404761D01*
X183174761Y-73452380D01*
X183079523Y-73452380D01*
X184460476Y-73452380D02*
X183889047Y-73452380D01*
X184174761Y-73452380D02*
X184174761Y-72452380D01*
X184079523Y-72595238D01*
X183984285Y-72690476D01*
X183889047Y-72738095D01*
X184793809Y-72452380D02*
X185412857Y-72452380D01*
X185079523Y-72833333D01*
X185222380Y-72833333D01*
X185317619Y-72880952D01*
X185365238Y-72928571D01*
X185412857Y-73023809D01*
X185412857Y-73261904D01*
X185365238Y-73357142D01*
X185317619Y-73404761D01*
X185222380Y-73452380D01*
X184936666Y-73452380D01*
X184841428Y-73404761D01*
X184793809Y-73357142D01*
X161940476Y-119292380D02*
X161940476Y-120006666D01*
X161892857Y-120149523D01*
X161797619Y-120244761D01*
X161654761Y-120292380D01*
X161559523Y-120292380D01*
X162940476Y-120292380D02*
X162369047Y-120292380D01*
X162654761Y-120292380D02*
X162654761Y-119292380D01*
X162559523Y-119435238D01*
X162464285Y-119530476D01*
X162369047Y-119578095D01*
X163797619Y-119292380D02*
X163607142Y-119292380D01*
X163511904Y-119340000D01*
X163464285Y-119387619D01*
X163369047Y-119530476D01*
X163321428Y-119720952D01*
X163321428Y-120101904D01*
X163369047Y-120197142D01*
X163416666Y-120244761D01*
X163511904Y-120292380D01*
X163702380Y-120292380D01*
X163797619Y-120244761D01*
X163845238Y-120197142D01*
X163892857Y-120101904D01*
X163892857Y-119863809D01*
X163845238Y-119768571D01*
X163797619Y-119720952D01*
X163702380Y-119673333D01*
X163511904Y-119673333D01*
X163416666Y-119720952D01*
X163369047Y-119768571D01*
X163321428Y-119863809D01*
X118690476Y-82452380D02*
X118690476Y-83166666D01*
X118642857Y-83309523D01*
X118547619Y-83404761D01*
X118404761Y-83452380D01*
X118309523Y-83452380D01*
X119690476Y-83452380D02*
X119119047Y-83452380D01*
X119404761Y-83452380D02*
X119404761Y-82452380D01*
X119309523Y-82595238D01*
X119214285Y-82690476D01*
X119119047Y-82738095D01*
X120023809Y-82452380D02*
X120690476Y-82452380D01*
X120261904Y-83452380D01*
X183352380Y-94309523D02*
X184066666Y-94309523D01*
X184209523Y-94357142D01*
X184304761Y-94452380D01*
X184352380Y-94595238D01*
X184352380Y-94690476D01*
X184352380Y-93309523D02*
X184352380Y-93880952D01*
X184352380Y-93595238D02*
X183352380Y-93595238D01*
X183495238Y-93690476D01*
X183590476Y-93785714D01*
X183638095Y-93880952D01*
X183685714Y-92452380D02*
X184352380Y-92452380D01*
X183304761Y-92690476D02*
X184019047Y-92928571D01*
X184019047Y-92309523D01*
%LPC*%
D21*
X143500000Y-93730000D03*
X143500000Y-92460000D03*
D22*
X143500000Y-95000000D03*
D23*
X191000000Y-129000000D03*
G36*
G01*
X179115000Y-121710000D02*
X177365000Y-121710000D01*
G75*
G02*
X176490000Y-120835000I0J875000D01*
G01*
X176490000Y-119085000D01*
G75*
G02*
X177365000Y-118210000I875000J0D01*
G01*
X179115000Y-118210000D01*
G75*
G02*
X179990000Y-119085000I0J-875000D01*
G01*
X179990000Y-120835000D01*
G75*
G02*
X179115000Y-121710000I-875000J0D01*
G01*
G37*
G36*
G01*
X174540000Y-124460000D02*
X172540000Y-124460000D01*
G75*
G02*
X171790000Y-123710000I0J750000D01*
G01*
X171790000Y-122210000D01*
G75*
G02*
X172540000Y-121460000I750000J0D01*
G01*
X174540000Y-121460000D01*
G75*
G02*
X175290000Y-122210000I0J-750000D01*
G01*
X175290000Y-123710000D01*
G75*
G02*
X174540000Y-124460000I-750000J0D01*
G01*
G37*
D24*
X173540000Y-116960000D03*
D23*
X191000000Y-73000000D03*
X115000000Y-129000000D03*
X115000000Y-73000000D03*
D25*
X166370000Y-112880000D03*
X167640000Y-112880000D03*
D26*
X165100000Y-112880000D03*
D27*
X155111000Y-123843600D03*
X144951000Y-123843600D03*
D28*
X153206000Y-117493600D03*
X146856000Y-114953600D03*
X151936000Y-114953600D03*
X148126000Y-117493600D03*
X149396000Y-114953600D03*
X150666000Y-117493600D03*
D29*
X165460000Y-106000000D03*
D30*
X168000000Y-106000000D03*
D29*
X125980000Y-101740000D03*
X125980000Y-86500000D03*
X161540000Y-101740000D03*
X128520000Y-86500000D03*
X159000000Y-101740000D03*
X131060000Y-86500000D03*
X156460000Y-101740000D03*
X133600000Y-86500000D03*
X153920000Y-101740000D03*
X136140000Y-86500000D03*
X151380000Y-101740000D03*
X138680000Y-86500000D03*
X148840000Y-101740000D03*
X141220000Y-86500000D03*
X146300000Y-101740000D03*
X143760000Y-86500000D03*
X143760000Y-101740000D03*
X146300000Y-86500000D03*
X141220000Y-101740000D03*
X148840000Y-86500000D03*
X138680000Y-101740000D03*
X151380000Y-86500000D03*
X136140000Y-101740000D03*
X153920000Y-86500000D03*
X133600000Y-101740000D03*
X156460000Y-86500000D03*
X131060000Y-101740000D03*
X159000000Y-86500000D03*
X128520000Y-101740000D03*
D31*
X161540000Y-86500000D03*
D27*
X137260000Y-123840000D03*
X127100000Y-123840000D03*
D28*
X135355000Y-117490000D03*
X129005000Y-114950000D03*
X134085000Y-114950000D03*
X130275000Y-117490000D03*
X131545000Y-114950000D03*
X132815000Y-117490000D03*
D32*
X120322200Y-121000000D03*
X123217800Y-121000000D03*
D33*
X163560000Y-97883200D03*
D34*
X155940000Y-90263200D03*
X163560000Y-95343200D03*
X155940000Y-92803200D03*
X163560000Y-92803200D03*
X155940000Y-95343200D03*
X163560000Y-90263200D03*
X155940000Y-97883200D03*
D35*
X120000000Y-114500000D03*
D36*
X122540000Y-114500000D03*
D37*
X125940000Y-109000000D03*
X128480000Y-109000000D03*
X131020000Y-109000000D03*
X133560000Y-109000000D03*
X136100000Y-109000000D03*
X138640000Y-109000000D03*
X141180000Y-109000000D03*
X143720000Y-109000000D03*
X146260000Y-109000000D03*
X148800000Y-109000000D03*
X151340000Y-109000000D03*
X153880000Y-109000000D03*
X156420000Y-109000000D03*
X158960000Y-109000000D03*
D38*
X161500000Y-109000000D03*
D37*
X125940000Y-106500000D03*
X128480000Y-106500000D03*
X131020000Y-106500000D03*
X133560000Y-106500000D03*
X136100000Y-106500000D03*
X138640000Y-106500000D03*
X141180000Y-106500000D03*
X143720000Y-106500000D03*
X146260000Y-106500000D03*
X148800000Y-106500000D03*
X151340000Y-106500000D03*
X153880000Y-106500000D03*
X156420000Y-106500000D03*
X158960000Y-106500000D03*
D38*
X161500000Y-106500000D03*
X161601600Y-81000000D03*
D37*
X159061600Y-81000000D03*
X156521600Y-81000000D03*
X153981600Y-81000000D03*
X151441600Y-81000000D03*
X148901600Y-81000000D03*
X146361600Y-81000000D03*
X143821600Y-81000000D03*
X141281600Y-81000000D03*
X138741600Y-81000000D03*
X136201600Y-81000000D03*
X133661600Y-81000000D03*
X131121600Y-81000000D03*
X128581600Y-81000000D03*
X126041600Y-81000000D03*
D38*
X161601600Y-75988400D03*
D37*
X159061600Y-75988400D03*
X156521600Y-75988400D03*
X153981600Y-75988400D03*
X151441600Y-75988400D03*
X148901600Y-75988400D03*
X146361600Y-75988400D03*
X143821600Y-75988400D03*
X141281600Y-75988400D03*
X138741600Y-75988400D03*
X136201600Y-75988400D03*
X133661600Y-75988400D03*
X131121600Y-75988400D03*
X128581600Y-75988400D03*
X126041600Y-75988400D03*
D38*
X141296000Y-78477600D03*
X133676000Y-78477600D03*
X131136000Y-78500000D03*
X128596000Y-78503000D03*
X143810600Y-78477600D03*
X148916000Y-78500000D03*
D29*
X136000000Y-90380000D03*
D30*
X136000000Y-98000000D03*
X130000000Y-90568000D03*
D29*
X130000000Y-98188000D03*
X148789000Y-90237800D03*
D30*
X148789000Y-97857800D03*
X133000000Y-90500000D03*
D29*
X133000000Y-98120000D03*
D30*
X124000000Y-98270000D03*
D29*
X124000000Y-90650000D03*
D30*
X139000000Y-90466400D03*
D29*
X139000000Y-98086400D03*
X127000000Y-90610000D03*
D30*
X127000000Y-98230000D03*
X122500000Y-102000000D03*
D29*
X122500000Y-109620000D03*
D31*
X186500000Y-76500000D03*
D29*
X168720000Y-89200000D03*
X183960000Y-76500000D03*
X171260000Y-89200000D03*
X181420000Y-76500000D03*
X173800000Y-89200000D03*
X178880000Y-76500000D03*
X176340000Y-89200000D03*
X176340000Y-76500000D03*
X178880000Y-89200000D03*
X173800000Y-76500000D03*
X181420000Y-89200000D03*
X171260000Y-76500000D03*
X183960000Y-89200000D03*
X168720000Y-76500000D03*
X186500000Y-89200000D03*
D31*
X185000000Y-102000000D03*
D30*
X181200000Y-102000000D03*
D31*
X176000000Y-102000000D03*
D30*
X171000000Y-102000000D03*
D38*
X181500000Y-73000000D03*
D37*
X178960000Y-73000000D03*
X176420000Y-73000000D03*
X173880000Y-73000000D03*
D39*
X178800000Y-109140000D03*
D40*
X176260000Y-109140000D03*
X173720000Y-109140000D03*
D41*
X161000000Y-124000000D03*
D42*
X164500000Y-124000000D03*
D38*
X119500000Y-88000000D03*
D37*
X119500000Y-85460000D03*
D38*
X171500000Y-95000000D03*
D37*
X171500000Y-92460000D03*
X174040000Y-95000000D03*
X174040000Y-92460000D03*
X176580000Y-95000000D03*
X176580000Y-92460000D03*
X179120000Y-95000000D03*
X179120000Y-92460000D03*
X181660000Y-95000000D03*
X181660000Y-92460000D03*
D30*
X152390000Y-97780000D03*
D29*
X152390000Y-90160000D03*
M02*
