%FSLAX45Y45*%
G04 Gerber Fmt 4.5, Leading zero omitted, Abs format (unit mm)*
G04 Created by KiCad (PCBNEW (5.1.9)-1) date 2021-11-26 16:10:08*
%MOMM*%
%LPD*%
G01*
G04 APERTURE LIST*
%TA.AperFunction,Profile*%
%ADD10C,0.050000*%
%TD*%
%ADD11C,0.200000*%
%ADD12C,0.300000*%
G04 APERTURE END LIST*
D10*
X19400000Y-13200000D02*
X11200000Y-13200000D01*
X11200000Y-13200000D02*
X11200000Y-7000000D01*
X11200000Y-7000000D02*
X19400000Y-7000000D01*
X19400000Y-7000000D02*
X19400000Y-13200000D01*
D11*
X11340000Y-7140000D02*
X11660000Y-7460000D01*
X11660000Y-7140000D02*
X11340000Y-7460000D01*
X11340000Y-12740000D02*
X11660000Y-13060000D01*
X11660000Y-12740000D02*
X11340000Y-13060000D01*
X18940000Y-7140000D02*
X19260000Y-7460000D01*
X19260000Y-7140000D02*
X18940000Y-7460000D01*
X18940000Y-12740000D02*
X19260000Y-13060000D01*
X19260000Y-12740000D02*
X18940000Y-13060000D01*
X12872560Y-12384000D02*
G75*
G03*
X12872560Y-12384000I-162560J0D01*
G01*
X13888560Y-12384000D02*
G75*
G03*
X13888560Y-12384000I-162560J0D01*
G01*
X14657660Y-12384360D02*
G75*
G03*
X14657660Y-12384360I-162560J0D01*
G01*
X15673660Y-12384360D02*
G75*
G03*
X15673660Y-12384360I-162560J0D01*
G01*
D12*
X11483928Y-13668214D02*
X11483928Y-13368214D01*
X11555357Y-13368214D01*
X11598214Y-13382500D01*
X11626786Y-13411071D01*
X11641071Y-13439643D01*
X11655357Y-13496786D01*
X11655357Y-13539643D01*
X11641071Y-13596786D01*
X11626786Y-13625357D01*
X11598214Y-13653929D01*
X11555357Y-13668214D01*
X11483928Y-13668214D01*
X11783928Y-13668214D02*
X11783928Y-13468214D01*
X11783928Y-13525357D02*
X11798214Y-13496786D01*
X11812500Y-13482500D01*
X11841071Y-13468214D01*
X11869643Y-13468214D01*
X11969643Y-13668214D02*
X11969643Y-13468214D01*
X11969643Y-13368214D02*
X11955357Y-13382500D01*
X11969643Y-13396786D01*
X11983928Y-13382500D01*
X11969643Y-13368214D01*
X11969643Y-13396786D01*
X12155357Y-13668214D02*
X12126786Y-13653929D01*
X12112500Y-13625357D01*
X12112500Y-13368214D01*
X12312500Y-13668214D02*
X12283928Y-13653929D01*
X12269643Y-13625357D01*
X12269643Y-13368214D01*
X12655357Y-13668214D02*
X12655357Y-13368214D01*
X12755357Y-13582500D01*
X12855357Y-13368214D01*
X12855357Y-13668214D01*
X13126786Y-13668214D02*
X13126786Y-13511071D01*
X13112500Y-13482500D01*
X13083928Y-13468214D01*
X13026786Y-13468214D01*
X12998214Y-13482500D01*
X13126786Y-13653929D02*
X13098214Y-13668214D01*
X13026786Y-13668214D01*
X12998214Y-13653929D01*
X12983928Y-13625357D01*
X12983928Y-13596786D01*
X12998214Y-13568214D01*
X13026786Y-13553929D01*
X13098214Y-13553929D01*
X13126786Y-13539643D01*
X13269643Y-13468214D02*
X13269643Y-13768214D01*
X13269643Y-13482500D02*
X13298214Y-13468214D01*
X13355357Y-13468214D01*
X13383928Y-13482500D01*
X13398214Y-13496786D01*
X13412500Y-13525357D01*
X13412500Y-13611071D01*
X13398214Y-13639643D01*
X13383928Y-13653929D01*
X13355357Y-13668214D01*
X13298214Y-13668214D01*
X13269643Y-13653929D01*
X13541071Y-13639643D02*
X13555357Y-13653929D01*
X13541071Y-13668214D01*
X13526786Y-13653929D01*
X13541071Y-13639643D01*
X13541071Y-13668214D01*
X13541071Y-13482500D02*
X13555357Y-13496786D01*
X13541071Y-13511071D01*
X13526786Y-13496786D01*
X13541071Y-13482500D01*
X13541071Y-13511071D01*
X10877500Y-14002500D02*
X11197500Y-14322500D01*
X11197500Y-14002500D02*
X10877500Y-14322500D01*
X11455357Y-13998214D02*
X11641071Y-13998214D01*
X11541071Y-14112500D01*
X11583928Y-14112500D01*
X11612500Y-14126786D01*
X11626786Y-14141071D01*
X11641071Y-14169643D01*
X11641071Y-14241071D01*
X11626786Y-14269643D01*
X11612500Y-14283929D01*
X11583928Y-14298214D01*
X11498214Y-14298214D01*
X11469643Y-14283929D01*
X11455357Y-14269643D01*
X11769643Y-14269643D02*
X11783928Y-14283929D01*
X11769643Y-14298214D01*
X11755357Y-14283929D01*
X11769643Y-14269643D01*
X11769643Y-14298214D01*
X11898214Y-14026786D02*
X11912500Y-14012500D01*
X11941071Y-13998214D01*
X12012500Y-13998214D01*
X12041071Y-14012500D01*
X12055357Y-14026786D01*
X12069643Y-14055357D01*
X12069643Y-14083929D01*
X12055357Y-14126786D01*
X11883928Y-14298214D01*
X12069643Y-14298214D01*
X12255357Y-13998214D02*
X12283928Y-13998214D01*
X12312500Y-14012500D01*
X12326786Y-14026786D01*
X12341071Y-14055357D01*
X12355357Y-14112500D01*
X12355357Y-14183929D01*
X12341071Y-14241071D01*
X12326786Y-14269643D01*
X12312500Y-14283929D01*
X12283928Y-14298214D01*
X12255357Y-14298214D01*
X12226786Y-14283929D01*
X12212500Y-14269643D01*
X12198214Y-14241071D01*
X12183928Y-14183929D01*
X12183928Y-14112500D01*
X12198214Y-14055357D01*
X12212500Y-14026786D01*
X12226786Y-14012500D01*
X12255357Y-13998214D01*
X12483928Y-14298214D02*
X12483928Y-14098214D01*
X12483928Y-14126786D02*
X12498214Y-14112500D01*
X12526786Y-14098214D01*
X12569643Y-14098214D01*
X12598214Y-14112500D01*
X12612500Y-14141071D01*
X12612500Y-14298214D01*
X12612500Y-14141071D02*
X12626786Y-14112500D01*
X12655357Y-14098214D01*
X12698214Y-14098214D01*
X12726786Y-14112500D01*
X12741071Y-14141071D01*
X12741071Y-14298214D01*
X12883928Y-14298214D02*
X12883928Y-14098214D01*
X12883928Y-14126786D02*
X12898214Y-14112500D01*
X12926786Y-14098214D01*
X12969643Y-14098214D01*
X12998214Y-14112500D01*
X13012500Y-14141071D01*
X13012500Y-14298214D01*
X13012500Y-14141071D02*
X13026786Y-14112500D01*
X13055357Y-14098214D01*
X13098214Y-14098214D01*
X13126786Y-14112500D01*
X13141071Y-14141071D01*
X13141071Y-14298214D01*
X13726786Y-13983929D02*
X13469643Y-14369643D01*
X14112500Y-13998214D02*
X14141071Y-13998214D01*
X14169643Y-14012500D01*
X14183928Y-14026786D01*
X14198214Y-14055357D01*
X14212500Y-14112500D01*
X14212500Y-14183929D01*
X14198214Y-14241071D01*
X14183928Y-14269643D01*
X14169643Y-14283929D01*
X14141071Y-14298214D01*
X14112500Y-14298214D01*
X14083928Y-14283929D01*
X14069643Y-14269643D01*
X14055357Y-14241071D01*
X14041071Y-14183929D01*
X14041071Y-14112500D01*
X14055357Y-14055357D01*
X14069643Y-14026786D01*
X14083928Y-14012500D01*
X14112500Y-13998214D01*
X14341071Y-14269643D02*
X14355357Y-14283929D01*
X14341071Y-14298214D01*
X14326786Y-14283929D01*
X14341071Y-14269643D01*
X14341071Y-14298214D01*
X14641071Y-14298214D02*
X14469643Y-14298214D01*
X14555357Y-14298214D02*
X14555357Y-13998214D01*
X14526786Y-14041071D01*
X14498214Y-14069643D01*
X14469643Y-14083929D01*
X14755357Y-14026786D02*
X14769643Y-14012500D01*
X14798214Y-13998214D01*
X14869643Y-13998214D01*
X14898214Y-14012500D01*
X14912500Y-14026786D01*
X14926786Y-14055357D01*
X14926786Y-14083929D01*
X14912500Y-14126786D01*
X14741071Y-14298214D01*
X14926786Y-14298214D01*
X15183928Y-13998214D02*
X15126786Y-13998214D01*
X15098214Y-14012500D01*
X15083928Y-14026786D01*
X15055357Y-14069643D01*
X15041071Y-14126786D01*
X15041071Y-14241071D01*
X15055357Y-14269643D01*
X15069643Y-14283929D01*
X15098214Y-14298214D01*
X15155357Y-14298214D01*
X15183928Y-14283929D01*
X15198214Y-14269643D01*
X15212500Y-14241071D01*
X15212500Y-14169643D01*
X15198214Y-14141071D01*
X15183928Y-14126786D01*
X15155357Y-14112500D01*
X15098214Y-14112500D01*
X15069643Y-14126786D01*
X15055357Y-14141071D01*
X15041071Y-14169643D01*
X15326786Y-13998214D02*
X15326786Y-14055357D01*
X15441071Y-13998214D02*
X15441071Y-14055357D01*
X15883928Y-14412500D02*
X15869643Y-14398214D01*
X15841071Y-14355357D01*
X15826786Y-14326786D01*
X15812500Y-14283929D01*
X15798214Y-14212500D01*
X15798214Y-14155357D01*
X15812500Y-14083929D01*
X15826786Y-14041071D01*
X15841071Y-14012500D01*
X15869643Y-13969643D01*
X15883928Y-13955357D01*
X16126786Y-14098214D02*
X16126786Y-14298214D01*
X16055357Y-13983929D02*
X15983928Y-14198214D01*
X16169643Y-14198214D01*
X16512500Y-14298214D02*
X16512500Y-13998214D01*
X16641071Y-14298214D02*
X16641071Y-14141071D01*
X16626786Y-14112500D01*
X16598214Y-14098214D01*
X16555357Y-14098214D01*
X16526786Y-14112500D01*
X16512500Y-14126786D01*
X16826786Y-14298214D02*
X16798214Y-14283929D01*
X16783928Y-14269643D01*
X16769643Y-14241071D01*
X16769643Y-14155357D01*
X16783928Y-14126786D01*
X16798214Y-14112500D01*
X16826786Y-14098214D01*
X16869643Y-14098214D01*
X16898214Y-14112500D01*
X16912500Y-14126786D01*
X16926786Y-14155357D01*
X16926786Y-14241071D01*
X16912500Y-14269643D01*
X16898214Y-14283929D01*
X16869643Y-14298214D01*
X16826786Y-14298214D01*
X17098214Y-14298214D02*
X17069643Y-14283929D01*
X17055357Y-14255357D01*
X17055357Y-13998214D01*
X17326786Y-14283929D02*
X17298214Y-14298214D01*
X17241071Y-14298214D01*
X17212500Y-14283929D01*
X17198214Y-14255357D01*
X17198214Y-14141071D01*
X17212500Y-14112500D01*
X17241071Y-14098214D01*
X17298214Y-14098214D01*
X17326786Y-14112500D01*
X17341071Y-14141071D01*
X17341071Y-14169643D01*
X17198214Y-14198214D01*
X17455357Y-14283929D02*
X17483928Y-14298214D01*
X17541071Y-14298214D01*
X17569643Y-14283929D01*
X17583928Y-14255357D01*
X17583928Y-14241071D01*
X17569643Y-14212500D01*
X17541071Y-14198214D01*
X17498214Y-14198214D01*
X17469643Y-14183929D01*
X17455357Y-14155357D01*
X17455357Y-14141071D01*
X17469643Y-14112500D01*
X17498214Y-14098214D01*
X17541071Y-14098214D01*
X17569643Y-14112500D01*
X17683928Y-14412500D02*
X17698214Y-14398214D01*
X17726786Y-14355357D01*
X17741071Y-14326786D01*
X17755357Y-14283929D01*
X17769643Y-14212500D01*
X17769643Y-14155357D01*
X17755357Y-14083929D01*
X17741071Y-14041071D01*
X17726786Y-14012500D01*
X17698214Y-13969643D01*
X17683928Y-13955357D01*
X18226786Y-14412500D02*
X18212500Y-14398214D01*
X18183928Y-14355357D01*
X18169643Y-14326786D01*
X18155357Y-14283929D01*
X18141071Y-14212500D01*
X18141071Y-14155357D01*
X18155357Y-14083929D01*
X18169643Y-14041071D01*
X18183928Y-14012500D01*
X18212500Y-13969643D01*
X18226786Y-13955357D01*
X18341071Y-14098214D02*
X18341071Y-14298214D01*
X18341071Y-14126786D02*
X18355357Y-14112500D01*
X18383928Y-14098214D01*
X18426786Y-14098214D01*
X18455357Y-14112500D01*
X18469643Y-14141071D01*
X18469643Y-14298214D01*
X18655357Y-14298214D02*
X18626786Y-14283929D01*
X18612500Y-14269643D01*
X18598214Y-14241071D01*
X18598214Y-14155357D01*
X18612500Y-14126786D01*
X18626786Y-14112500D01*
X18655357Y-14098214D01*
X18698214Y-14098214D01*
X18726786Y-14112500D01*
X18741071Y-14126786D01*
X18755357Y-14155357D01*
X18755357Y-14241071D01*
X18741071Y-14269643D01*
X18726786Y-14283929D01*
X18698214Y-14298214D01*
X18655357Y-14298214D01*
X18841071Y-14098214D02*
X18955357Y-14098214D01*
X18883928Y-13998214D02*
X18883928Y-14255357D01*
X18898214Y-14283929D01*
X18926786Y-14298214D01*
X18955357Y-14298214D01*
X19283928Y-14098214D02*
X19283928Y-14398214D01*
X19283928Y-14112500D02*
X19312500Y-14098214D01*
X19369643Y-14098214D01*
X19398214Y-14112500D01*
X19412500Y-14126786D01*
X19426786Y-14155357D01*
X19426786Y-14241071D01*
X19412500Y-14269643D01*
X19398214Y-14283929D01*
X19369643Y-14298214D01*
X19312500Y-14298214D01*
X19283928Y-14283929D01*
X19598214Y-14298214D02*
X19569643Y-14283929D01*
X19555357Y-14255357D01*
X19555357Y-13998214D01*
X19841071Y-14298214D02*
X19841071Y-14141071D01*
X19826786Y-14112500D01*
X19798214Y-14098214D01*
X19741071Y-14098214D01*
X19712500Y-14112500D01*
X19841071Y-14283929D02*
X19812500Y-14298214D01*
X19741071Y-14298214D01*
X19712500Y-14283929D01*
X19698214Y-14255357D01*
X19698214Y-14226786D01*
X19712500Y-14198214D01*
X19741071Y-14183929D01*
X19812500Y-14183929D01*
X19841071Y-14169643D01*
X19941071Y-14098214D02*
X20055357Y-14098214D01*
X19983928Y-13998214D02*
X19983928Y-14255357D01*
X19998214Y-14283929D01*
X20026786Y-14298214D01*
X20055357Y-14298214D01*
X20269643Y-14283929D02*
X20241071Y-14298214D01*
X20183928Y-14298214D01*
X20155357Y-14283929D01*
X20141071Y-14255357D01*
X20141071Y-14141071D01*
X20155357Y-14112500D01*
X20183928Y-14098214D01*
X20241071Y-14098214D01*
X20269643Y-14112500D01*
X20283928Y-14141071D01*
X20283928Y-14169643D01*
X20141071Y-14198214D01*
X20541071Y-14298214D02*
X20541071Y-13998214D01*
X20541071Y-14283929D02*
X20512500Y-14298214D01*
X20455357Y-14298214D01*
X20426786Y-14283929D01*
X20412500Y-14269643D01*
X20398214Y-14241071D01*
X20398214Y-14155357D01*
X20412500Y-14126786D01*
X20426786Y-14112500D01*
X20455357Y-14098214D01*
X20512500Y-14098214D01*
X20541071Y-14112500D01*
X20655357Y-14412500D02*
X20669643Y-14398214D01*
X20698214Y-14355357D01*
X20712500Y-14326786D01*
X20726786Y-14283929D01*
X20741071Y-14212500D01*
X20741071Y-14155357D01*
X20726786Y-14083929D01*
X20712500Y-14041071D01*
X20698214Y-14012500D01*
X20669643Y-13969643D01*
X20655357Y-13955357D01*
X11197500Y-14612500D02*
G75*
G03*
X11197500Y-14612500I-162560J0D01*
G01*
X11455357Y-14448214D02*
X11641071Y-14448214D01*
X11541071Y-14562500D01*
X11583928Y-14562500D01*
X11612500Y-14576786D01*
X11626786Y-14591071D01*
X11641071Y-14619643D01*
X11641071Y-14691071D01*
X11626786Y-14719643D01*
X11612500Y-14733929D01*
X11583928Y-14748214D01*
X11498214Y-14748214D01*
X11469643Y-14733929D01*
X11455357Y-14719643D01*
X11769643Y-14719643D02*
X11783928Y-14733929D01*
X11769643Y-14748214D01*
X11755357Y-14733929D01*
X11769643Y-14719643D01*
X11769643Y-14748214D01*
X11898214Y-14476786D02*
X11912500Y-14462500D01*
X11941071Y-14448214D01*
X12012500Y-14448214D01*
X12041071Y-14462500D01*
X12055357Y-14476786D01*
X12069643Y-14505357D01*
X12069643Y-14533929D01*
X12055357Y-14576786D01*
X11883928Y-14748214D01*
X12069643Y-14748214D01*
X12341071Y-14448214D02*
X12198214Y-14448214D01*
X12183928Y-14591071D01*
X12198214Y-14576786D01*
X12226786Y-14562500D01*
X12298214Y-14562500D01*
X12326786Y-14576786D01*
X12341071Y-14591071D01*
X12355357Y-14619643D01*
X12355357Y-14691071D01*
X12341071Y-14719643D01*
X12326786Y-14733929D01*
X12298214Y-14748214D01*
X12226786Y-14748214D01*
X12198214Y-14733929D01*
X12183928Y-14719643D01*
X12483928Y-14748214D02*
X12483928Y-14548214D01*
X12483928Y-14576786D02*
X12498214Y-14562500D01*
X12526786Y-14548214D01*
X12569643Y-14548214D01*
X12598214Y-14562500D01*
X12612500Y-14591071D01*
X12612500Y-14748214D01*
X12612500Y-14591071D02*
X12626786Y-14562500D01*
X12655357Y-14548214D01*
X12698214Y-14548214D01*
X12726786Y-14562500D01*
X12741071Y-14591071D01*
X12741071Y-14748214D01*
X12883928Y-14748214D02*
X12883928Y-14548214D01*
X12883928Y-14576786D02*
X12898214Y-14562500D01*
X12926786Y-14548214D01*
X12969643Y-14548214D01*
X12998214Y-14562500D01*
X13012500Y-14591071D01*
X13012500Y-14748214D01*
X13012500Y-14591071D02*
X13026786Y-14562500D01*
X13055357Y-14548214D01*
X13098214Y-14548214D01*
X13126786Y-14562500D01*
X13141071Y-14591071D01*
X13141071Y-14748214D01*
X13726786Y-14433929D02*
X13469643Y-14819643D01*
X14112500Y-14448214D02*
X14141071Y-14448214D01*
X14169643Y-14462500D01*
X14183928Y-14476786D01*
X14198214Y-14505357D01*
X14212500Y-14562500D01*
X14212500Y-14633929D01*
X14198214Y-14691071D01*
X14183928Y-14719643D01*
X14169643Y-14733929D01*
X14141071Y-14748214D01*
X14112500Y-14748214D01*
X14083928Y-14733929D01*
X14069643Y-14719643D01*
X14055357Y-14691071D01*
X14041071Y-14633929D01*
X14041071Y-14562500D01*
X14055357Y-14505357D01*
X14069643Y-14476786D01*
X14083928Y-14462500D01*
X14112500Y-14448214D01*
X14341071Y-14719643D02*
X14355357Y-14733929D01*
X14341071Y-14748214D01*
X14326786Y-14733929D01*
X14341071Y-14719643D01*
X14341071Y-14748214D01*
X14641071Y-14748214D02*
X14469643Y-14748214D01*
X14555357Y-14748214D02*
X14555357Y-14448214D01*
X14526786Y-14491071D01*
X14498214Y-14519643D01*
X14469643Y-14533929D01*
X14755357Y-14476786D02*
X14769643Y-14462500D01*
X14798214Y-14448214D01*
X14869643Y-14448214D01*
X14898214Y-14462500D01*
X14912500Y-14476786D01*
X14926786Y-14505357D01*
X14926786Y-14533929D01*
X14912500Y-14576786D01*
X14741071Y-14748214D01*
X14926786Y-14748214D01*
X15098214Y-14576786D02*
X15069643Y-14562500D01*
X15055357Y-14548214D01*
X15041071Y-14519643D01*
X15041071Y-14505357D01*
X15055357Y-14476786D01*
X15069643Y-14462500D01*
X15098214Y-14448214D01*
X15155357Y-14448214D01*
X15183928Y-14462500D01*
X15198214Y-14476786D01*
X15212500Y-14505357D01*
X15212500Y-14519643D01*
X15198214Y-14548214D01*
X15183928Y-14562500D01*
X15155357Y-14576786D01*
X15098214Y-14576786D01*
X15069643Y-14591071D01*
X15055357Y-14605357D01*
X15041071Y-14633929D01*
X15041071Y-14691071D01*
X15055357Y-14719643D01*
X15069643Y-14733929D01*
X15098214Y-14748214D01*
X15155357Y-14748214D01*
X15183928Y-14733929D01*
X15198214Y-14719643D01*
X15212500Y-14691071D01*
X15212500Y-14633929D01*
X15198214Y-14605357D01*
X15183928Y-14591071D01*
X15155357Y-14576786D01*
X15326786Y-14448214D02*
X15326786Y-14505357D01*
X15441071Y-14448214D02*
X15441071Y-14505357D01*
X15883928Y-14862500D02*
X15869643Y-14848214D01*
X15841071Y-14805357D01*
X15826786Y-14776786D01*
X15812500Y-14733929D01*
X15798214Y-14662500D01*
X15798214Y-14605357D01*
X15812500Y-14533929D01*
X15826786Y-14491071D01*
X15841071Y-14462500D01*
X15869643Y-14419643D01*
X15883928Y-14405357D01*
X16126786Y-14548214D02*
X16126786Y-14748214D01*
X16055357Y-14433929D02*
X15983928Y-14648214D01*
X16169643Y-14648214D01*
X16512500Y-14748214D02*
X16512500Y-14448214D01*
X16641071Y-14748214D02*
X16641071Y-14591071D01*
X16626786Y-14562500D01*
X16598214Y-14548214D01*
X16555357Y-14548214D01*
X16526786Y-14562500D01*
X16512500Y-14576786D01*
X16826786Y-14748214D02*
X16798214Y-14733929D01*
X16783928Y-14719643D01*
X16769643Y-14691071D01*
X16769643Y-14605357D01*
X16783928Y-14576786D01*
X16798214Y-14562500D01*
X16826786Y-14548214D01*
X16869643Y-14548214D01*
X16898214Y-14562500D01*
X16912500Y-14576786D01*
X16926786Y-14605357D01*
X16926786Y-14691071D01*
X16912500Y-14719643D01*
X16898214Y-14733929D01*
X16869643Y-14748214D01*
X16826786Y-14748214D01*
X17098214Y-14748214D02*
X17069643Y-14733929D01*
X17055357Y-14705357D01*
X17055357Y-14448214D01*
X17326786Y-14733929D02*
X17298214Y-14748214D01*
X17241071Y-14748214D01*
X17212500Y-14733929D01*
X17198214Y-14705357D01*
X17198214Y-14591071D01*
X17212500Y-14562500D01*
X17241071Y-14548214D01*
X17298214Y-14548214D01*
X17326786Y-14562500D01*
X17341071Y-14591071D01*
X17341071Y-14619643D01*
X17198214Y-14648214D01*
X17455357Y-14733929D02*
X17483928Y-14748214D01*
X17541071Y-14748214D01*
X17569643Y-14733929D01*
X17583928Y-14705357D01*
X17583928Y-14691071D01*
X17569643Y-14662500D01*
X17541071Y-14648214D01*
X17498214Y-14648214D01*
X17469643Y-14633929D01*
X17455357Y-14605357D01*
X17455357Y-14591071D01*
X17469643Y-14562500D01*
X17498214Y-14548214D01*
X17541071Y-14548214D01*
X17569643Y-14562500D01*
X17683928Y-14862500D02*
X17698214Y-14848214D01*
X17726786Y-14805357D01*
X17741071Y-14776786D01*
X17755357Y-14733929D01*
X17769643Y-14662500D01*
X17769643Y-14605357D01*
X17755357Y-14533929D01*
X17741071Y-14491071D01*
X17726786Y-14462500D01*
X17698214Y-14419643D01*
X17683928Y-14405357D01*
X18226786Y-14862500D02*
X18212500Y-14848214D01*
X18183928Y-14805357D01*
X18169643Y-14776786D01*
X18155357Y-14733929D01*
X18141071Y-14662500D01*
X18141071Y-14605357D01*
X18155357Y-14533929D01*
X18169643Y-14491071D01*
X18183928Y-14462500D01*
X18212500Y-14419643D01*
X18226786Y-14405357D01*
X18341071Y-14548214D02*
X18341071Y-14748214D01*
X18341071Y-14576786D02*
X18355357Y-14562500D01*
X18383928Y-14548214D01*
X18426786Y-14548214D01*
X18455357Y-14562500D01*
X18469643Y-14591071D01*
X18469643Y-14748214D01*
X18655357Y-14748214D02*
X18626786Y-14733929D01*
X18612500Y-14719643D01*
X18598214Y-14691071D01*
X18598214Y-14605357D01*
X18612500Y-14576786D01*
X18626786Y-14562500D01*
X18655357Y-14548214D01*
X18698214Y-14548214D01*
X18726786Y-14562500D01*
X18741071Y-14576786D01*
X18755357Y-14605357D01*
X18755357Y-14691071D01*
X18741071Y-14719643D01*
X18726786Y-14733929D01*
X18698214Y-14748214D01*
X18655357Y-14748214D01*
X18841071Y-14548214D02*
X18955357Y-14548214D01*
X18883928Y-14448214D02*
X18883928Y-14705357D01*
X18898214Y-14733929D01*
X18926786Y-14748214D01*
X18955357Y-14748214D01*
X19283928Y-14548214D02*
X19283928Y-14848214D01*
X19283928Y-14562500D02*
X19312500Y-14548214D01*
X19369643Y-14548214D01*
X19398214Y-14562500D01*
X19412500Y-14576786D01*
X19426786Y-14605357D01*
X19426786Y-14691071D01*
X19412500Y-14719643D01*
X19398214Y-14733929D01*
X19369643Y-14748214D01*
X19312500Y-14748214D01*
X19283928Y-14733929D01*
X19598214Y-14748214D02*
X19569643Y-14733929D01*
X19555357Y-14705357D01*
X19555357Y-14448214D01*
X19841071Y-14748214D02*
X19841071Y-14591071D01*
X19826786Y-14562500D01*
X19798214Y-14548214D01*
X19741071Y-14548214D01*
X19712500Y-14562500D01*
X19841071Y-14733929D02*
X19812500Y-14748214D01*
X19741071Y-14748214D01*
X19712500Y-14733929D01*
X19698214Y-14705357D01*
X19698214Y-14676786D01*
X19712500Y-14648214D01*
X19741071Y-14633929D01*
X19812500Y-14633929D01*
X19841071Y-14619643D01*
X19941071Y-14548214D02*
X20055357Y-14548214D01*
X19983928Y-14448214D02*
X19983928Y-14705357D01*
X19998214Y-14733929D01*
X20026786Y-14748214D01*
X20055357Y-14748214D01*
X20269643Y-14733929D02*
X20241071Y-14748214D01*
X20183928Y-14748214D01*
X20155357Y-14733929D01*
X20141071Y-14705357D01*
X20141071Y-14591071D01*
X20155357Y-14562500D01*
X20183928Y-14548214D01*
X20241071Y-14548214D01*
X20269643Y-14562500D01*
X20283928Y-14591071D01*
X20283928Y-14619643D01*
X20141071Y-14648214D01*
X20541071Y-14748214D02*
X20541071Y-14448214D01*
X20541071Y-14733929D02*
X20512500Y-14748214D01*
X20455357Y-14748214D01*
X20426786Y-14733929D01*
X20412500Y-14719643D01*
X20398214Y-14691071D01*
X20398214Y-14605357D01*
X20412500Y-14576786D01*
X20426786Y-14562500D01*
X20455357Y-14548214D01*
X20512500Y-14548214D01*
X20541071Y-14562500D01*
X20655357Y-14862500D02*
X20669643Y-14848214D01*
X20698214Y-14805357D01*
X20712500Y-14776786D01*
X20726786Y-14733929D01*
X20741071Y-14662500D01*
X20741071Y-14605357D01*
X20726786Y-14533929D01*
X20712500Y-14491071D01*
X20698214Y-14462500D01*
X20669643Y-14419643D01*
X20655357Y-14405357D01*
M02*
