%TF.GenerationSoftware,KiCad,Pcbnew,(5.1.9)-1*%
%TF.CreationDate,2021-12-11T18:31:36-05:00*%
%TF.ProjectId,LN-Stepper_v1_2,4c4e2d53-7465-4707-9065-725f76315f32,rev?*%
%TF.SameCoordinates,Original*%
%TF.FileFunction,Copper,L1,Top*%
%TF.FilePolarity,Positive*%
%FSLAX46Y46*%
G04 Gerber Fmt 4.6, Leading zero omitted, Abs format (unit mm)*
G04 Created by KiCad (PCBNEW (5.1.9)-1) date 2021-12-11 18:31:36*
%MOMM*%
%LPD*%
G01*
G04 APERTURE LIST*
%TA.AperFunction,ComponentPad*%
%ADD10R,1.700000X1.700000*%
%TD*%
%TA.AperFunction,ComponentPad*%
%ADD11O,1.700000X1.700000*%
%TD*%
%TA.AperFunction,ComponentPad*%
%ADD12O,1.500000X1.050000*%
%TD*%
%TA.AperFunction,ComponentPad*%
%ADD13R,1.500000X1.050000*%
%TD*%
%TA.AperFunction,ComponentPad*%
%ADD14R,3.500000X3.500000*%
%TD*%
%TA.AperFunction,ComponentPad*%
%ADD15O,1.050000X1.500000*%
%TD*%
%TA.AperFunction,ComponentPad*%
%ADD16R,1.050000X1.500000*%
%TD*%
%TA.AperFunction,ComponentPad*%
%ADD17C,1.498600*%
%TD*%
%TA.AperFunction,ComponentPad*%
%ADD18O,1.600000X1.600000*%
%TD*%
%TA.AperFunction,ComponentPad*%
%ADD19C,1.600000*%
%TD*%
%TA.AperFunction,ComponentPad*%
%ADD20R,1.600000X1.600000*%
%TD*%
%TA.AperFunction,ComponentPad*%
%ADD21C,1.879600*%
%TD*%
%TA.AperFunction,ComponentPad*%
%ADD22R,2.400000X1.600000*%
%TD*%
%TA.AperFunction,ComponentPad*%
%ADD23O,2.400000X1.600000*%
%TD*%
%TA.AperFunction,ComponentPad*%
%ADD24R,1.800000X1.800000*%
%TD*%
%TA.AperFunction,ComponentPad*%
%ADD25C,1.800000*%
%TD*%
%TA.AperFunction,ComponentPad*%
%ADD26R,1.905000X2.000000*%
%TD*%
%TA.AperFunction,ComponentPad*%
%ADD27O,1.905000X2.000000*%
%TD*%
%TA.AperFunction,ComponentPad*%
%ADD28R,2.400000X2.400000*%
%TD*%
%TA.AperFunction,ComponentPad*%
%ADD29C,2.400000*%
%TD*%
%TA.AperFunction,Conductor*%
%ADD30C,0.350000*%
%TD*%
%TA.AperFunction,Conductor*%
%ADD31C,0.700000*%
%TD*%
%TA.AperFunction,Conductor*%
%ADD32C,1.000000*%
%TD*%
%TA.AperFunction,Conductor*%
%ADD33C,0.500000*%
%TD*%
G04 APERTURE END LIST*
D10*
X120150000Y-91650000D03*
D11*
X120150000Y-89110000D03*
D12*
X143500000Y-93730000D03*
X143500000Y-92460000D03*
D13*
X143500000Y-95000000D03*
%TA.AperFunction,ComponentPad*%
G36*
G01*
X179115000Y-121710000D02*
X177365000Y-121710000D01*
G75*
G02*
X176490000Y-120835000I0J875000D01*
G01*
X176490000Y-119085000D01*
G75*
G02*
X177365000Y-118210000I875000J0D01*
G01*
X179115000Y-118210000D01*
G75*
G02*
X179990000Y-119085000I0J-875000D01*
G01*
X179990000Y-120835000D01*
G75*
G02*
X179115000Y-121710000I-875000J0D01*
G01*
G37*
%TD.AperFunction*%
%TA.AperFunction,ComponentPad*%
G36*
G01*
X174540000Y-124460000D02*
X172540000Y-124460000D01*
G75*
G02*
X171790000Y-123710000I0J750000D01*
G01*
X171790000Y-122210000D01*
G75*
G02*
X172540000Y-121460000I750000J0D01*
G01*
X174540000Y-121460000D01*
G75*
G02*
X175290000Y-122210000I0J-750000D01*
G01*
X175290000Y-123710000D01*
G75*
G02*
X174540000Y-124460000I-750000J0D01*
G01*
G37*
%TD.AperFunction*%
D14*
X173540000Y-116960000D03*
D15*
X166370000Y-112880000D03*
X167640000Y-112880000D03*
D16*
X165100000Y-112880000D03*
D17*
X153206000Y-117493600D03*
X146856000Y-114953600D03*
X151936000Y-114953600D03*
X148126000Y-117493600D03*
X149396000Y-114953600D03*
X150666000Y-117493600D03*
D18*
X165460000Y-106000000D03*
D19*
X168000000Y-106000000D03*
D18*
X125980000Y-101740000D03*
X125980000Y-86500000D03*
X161540000Y-101740000D03*
X128520000Y-86500000D03*
X159000000Y-101740000D03*
X131060000Y-86500000D03*
X156460000Y-101740000D03*
X133600000Y-86500000D03*
X153920000Y-101740000D03*
X136140000Y-86500000D03*
X151380000Y-101740000D03*
X138680000Y-86500000D03*
X148840000Y-101740000D03*
X141220000Y-86500000D03*
X146300000Y-101740000D03*
X143760000Y-86500000D03*
X143760000Y-101740000D03*
X146300000Y-86500000D03*
X141220000Y-101740000D03*
X148840000Y-86500000D03*
X138680000Y-101740000D03*
X151380000Y-86500000D03*
X136140000Y-101740000D03*
X153920000Y-86500000D03*
X133600000Y-101740000D03*
X156460000Y-86500000D03*
X131060000Y-101740000D03*
X159000000Y-86500000D03*
X128520000Y-101740000D03*
D20*
X161540000Y-86500000D03*
D17*
X135355000Y-117490000D03*
X129005000Y-114950000D03*
X134085000Y-114950000D03*
X130275000Y-117490000D03*
X131545000Y-114950000D03*
X132815000Y-117490000D03*
D21*
X159102200Y-113000000D03*
X161997800Y-113000000D03*
D22*
X163560000Y-97883200D03*
D23*
X155940000Y-90263200D03*
X163560000Y-95343200D03*
X155940000Y-92803200D03*
X163560000Y-92803200D03*
X155940000Y-95343200D03*
X163560000Y-90263200D03*
X155940000Y-97883200D03*
D24*
X120000000Y-114500000D03*
D25*
X122540000Y-114500000D03*
D11*
X125940000Y-109000000D03*
X128480000Y-109000000D03*
X131020000Y-109000000D03*
X133560000Y-109000000D03*
X136100000Y-109000000D03*
X138640000Y-109000000D03*
X141180000Y-109000000D03*
X143720000Y-109000000D03*
X146260000Y-109000000D03*
X148800000Y-109000000D03*
X151340000Y-109000000D03*
X153880000Y-109000000D03*
X156420000Y-109000000D03*
X158960000Y-109000000D03*
D10*
X161500000Y-109000000D03*
D11*
X125940000Y-106500000D03*
X128480000Y-106500000D03*
X131020000Y-106500000D03*
X133560000Y-106500000D03*
X136100000Y-106500000D03*
X138640000Y-106500000D03*
X141180000Y-106500000D03*
X143720000Y-106500000D03*
X146260000Y-106500000D03*
X148800000Y-106500000D03*
X151340000Y-106500000D03*
X153880000Y-106500000D03*
X156420000Y-106500000D03*
X158960000Y-106500000D03*
D10*
X161500000Y-106500000D03*
X161601600Y-81000000D03*
D11*
X159061600Y-81000000D03*
X156521600Y-81000000D03*
X153981600Y-81000000D03*
X151441600Y-81000000D03*
X148901600Y-81000000D03*
X146361600Y-81000000D03*
X143821600Y-81000000D03*
X141281600Y-81000000D03*
X138741600Y-81000000D03*
X136201600Y-81000000D03*
X133661600Y-81000000D03*
X131121600Y-81000000D03*
X128581600Y-81000000D03*
X126041600Y-81000000D03*
D10*
X161601600Y-75988400D03*
D11*
X159061600Y-75988400D03*
X156521600Y-75988400D03*
X153981600Y-75988400D03*
X151441600Y-75988400D03*
X148901600Y-75988400D03*
X146361600Y-75988400D03*
X143821600Y-75988400D03*
X141281600Y-75988400D03*
X138741600Y-75988400D03*
X136201600Y-75988400D03*
X133661600Y-75988400D03*
X131121600Y-75988400D03*
X128581600Y-75988400D03*
X126041600Y-75988400D03*
D10*
X141296000Y-78477600D03*
X133676000Y-78477600D03*
X131136000Y-78500000D03*
X128596000Y-78503000D03*
X143810600Y-78477600D03*
X148916000Y-78500000D03*
D18*
X136000000Y-90380000D03*
D19*
X136000000Y-98000000D03*
X130000000Y-90568000D03*
D18*
X130000000Y-98188000D03*
X148789000Y-90237800D03*
D19*
X148789000Y-97857800D03*
X133000000Y-90500000D03*
D18*
X133000000Y-98120000D03*
D19*
X124000000Y-98270000D03*
D18*
X124000000Y-90650000D03*
D19*
X139000000Y-90466400D03*
D18*
X139000000Y-98086400D03*
X127000000Y-90610000D03*
D19*
X127000000Y-98230000D03*
X122500000Y-102000000D03*
D18*
X122500000Y-109620000D03*
D20*
X186500000Y-76500000D03*
D18*
X168720000Y-89200000D03*
X183960000Y-76500000D03*
X171260000Y-89200000D03*
X181420000Y-76500000D03*
X173800000Y-89200000D03*
X178880000Y-76500000D03*
X176340000Y-89200000D03*
X176340000Y-76500000D03*
X178880000Y-89200000D03*
X173800000Y-76500000D03*
X181420000Y-89200000D03*
X171260000Y-76500000D03*
X183960000Y-89200000D03*
X168720000Y-76500000D03*
X186500000Y-89200000D03*
D20*
X185000000Y-102000000D03*
D19*
X181200000Y-102000000D03*
D20*
X176000000Y-102000000D03*
D19*
X171000000Y-102000000D03*
D10*
X181500000Y-73000000D03*
D11*
X178960000Y-73000000D03*
X176420000Y-73000000D03*
X173880000Y-73000000D03*
D26*
X178800000Y-109140000D03*
D27*
X176260000Y-109140000D03*
X173720000Y-109140000D03*
D28*
X161000000Y-124000000D03*
D29*
X164500000Y-124000000D03*
D10*
X171500000Y-95000000D03*
D11*
X171500000Y-92460000D03*
X174040000Y-95000000D03*
X174040000Y-92460000D03*
X176580000Y-95000000D03*
X176580000Y-92460000D03*
X179120000Y-95000000D03*
X179120000Y-92460000D03*
X181660000Y-95000000D03*
X181660000Y-92460000D03*
D19*
X152390000Y-97780000D03*
D18*
X152390000Y-90160000D03*
D10*
X117310000Y-78290000D03*
D11*
X117310000Y-80830000D03*
X117310000Y-83370000D03*
X117310000Y-85910000D03*
X123170000Y-121410000D03*
X120630000Y-121410000D03*
X118090000Y-121410000D03*
D10*
X115550000Y-121410000D03*
X179980000Y-124360000D03*
D11*
X182520000Y-124360000D03*
X185060000Y-124360000D03*
X187600000Y-124360000D03*
D30*
X159000000Y-94823200D02*
X163560000Y-90263200D01*
D31*
X159000000Y-101740000D02*
X159000000Y-94823200D01*
X159000000Y-94823200D02*
X159000000Y-90200000D01*
X159000000Y-90200000D02*
X156900000Y-88100000D01*
X155520000Y-88100000D02*
X153920000Y-86500000D01*
X156900000Y-88100000D02*
X155520000Y-88100000D01*
D30*
X176260000Y-102260000D02*
X176000000Y-102000000D01*
D31*
X176260000Y-109140000D02*
X176260000Y-102260000D01*
X176000000Y-102000000D02*
X181200000Y-102000000D01*
X176260000Y-109140000D02*
X176260000Y-109360000D01*
D32*
X164500000Y-121120000D02*
X164500000Y-124000000D01*
X176260000Y-109360000D02*
X164500000Y-121120000D01*
D31*
X186500000Y-76500000D02*
X186500000Y-76520000D01*
X186500000Y-76520000D02*
X191260000Y-81280000D01*
X191260000Y-81280000D02*
X191260000Y-92930000D01*
X182190000Y-102000000D02*
X181200000Y-102000000D01*
X191260000Y-92930000D02*
X182190000Y-102000000D01*
D30*
X143500000Y-93730000D02*
X142070000Y-93730000D01*
X139000000Y-96800000D02*
X139000000Y-98086400D01*
X142070000Y-93730000D02*
X139000000Y-96800000D01*
X126960000Y-90650000D02*
X127000000Y-90610000D01*
X124000000Y-90650000D02*
X126960000Y-90650000D01*
X127000000Y-90610000D02*
X129110000Y-88500000D01*
X134140000Y-88500000D02*
X136140000Y-86500000D01*
X129110000Y-88500000D02*
X134140000Y-88500000D01*
X139000000Y-90466400D02*
X139000000Y-86820000D01*
X137416410Y-92049990D02*
X130120010Y-92049990D01*
X139000000Y-90466400D02*
X137416410Y-92049990D01*
X130120010Y-92049990D02*
X129560000Y-92610000D01*
X120150000Y-89274998D02*
X120150000Y-89110000D01*
X123485002Y-92610000D02*
X120150000Y-89274998D01*
X129560000Y-92610000D02*
X123485002Y-92610000D01*
X126270000Y-98230000D02*
X127000000Y-98230000D01*
X122500000Y-102000000D02*
X126270000Y-98230000D01*
X127000000Y-98230000D02*
X128370000Y-99600000D01*
X147046800Y-99600000D02*
X148789000Y-97857800D01*
X128370000Y-99600000D02*
X147046800Y-99600000D01*
D31*
X149000000Y-78500000D02*
X128500000Y-78500000D01*
X161000000Y-121860000D02*
X173720000Y-109140000D01*
X161000000Y-124000000D02*
X161000000Y-121860000D01*
X173720000Y-104720000D02*
X171000000Y-102000000D01*
X173720000Y-109140000D02*
X173720000Y-104720000D01*
X183960000Y-77560000D02*
X183960000Y-76500000D01*
X183020000Y-78500000D02*
X183960000Y-77560000D01*
X148916000Y-78500000D02*
X183020000Y-78500000D01*
X171500000Y-101500000D02*
X171000000Y-102000000D01*
X176599999Y-96400001D02*
X171000000Y-102000000D01*
X183899999Y-96400001D02*
X176599999Y-96400001D01*
X188600000Y-91700000D02*
X183899999Y-96400001D01*
X188600000Y-82200000D02*
X188600000Y-91700000D01*
X183960000Y-77560000D02*
X188600000Y-82200000D01*
D30*
X171500000Y-95000000D02*
X174040000Y-95000000D01*
X174040000Y-95000000D02*
X176580000Y-95000000D01*
X176580000Y-96380002D02*
X176599999Y-96400001D01*
X176580000Y-95000000D02*
X176580000Y-96380002D01*
X155940000Y-97883200D02*
X155363200Y-97883200D01*
X155363200Y-97883200D02*
X153640000Y-96160000D01*
X150486800Y-96160000D02*
X148789000Y-97857800D01*
X153640000Y-96160000D02*
X150486800Y-96160000D01*
X153920000Y-101740000D02*
X153920000Y-98330000D01*
X154366800Y-97883200D02*
X155940000Y-97883200D01*
X153920000Y-98330000D02*
X154366800Y-97883200D01*
X150666000Y-116223600D02*
X149396000Y-114953600D01*
X150666000Y-117493600D02*
X150666000Y-116223600D01*
X132815000Y-116220000D02*
X131545000Y-114950000D01*
X132815000Y-117490000D02*
X132815000Y-116220000D01*
X152654999Y-111694601D02*
X152654999Y-98044999D01*
X152654999Y-98044999D02*
X152390000Y-97780000D01*
X149396000Y-114953600D02*
X152654999Y-111694601D01*
X153960398Y-113000000D02*
X152654999Y-111694601D01*
X159102200Y-113000000D02*
X153960398Y-113000000D01*
X129735335Y-118614301D02*
X129005000Y-117883966D01*
X129005000Y-117883966D02*
X129005000Y-114950000D01*
X133354665Y-118614301D02*
X129735335Y-118614301D01*
X133939301Y-118029665D02*
X133354665Y-118614301D01*
X133939301Y-117241733D02*
X133939301Y-118029665D01*
X136227434Y-114953600D02*
X133939301Y-117241733D01*
X146856000Y-114953600D02*
X136227434Y-114953600D01*
X135355000Y-117490000D02*
X136670000Y-118805000D01*
X136670000Y-118805000D02*
X152055000Y-118805000D01*
X153206000Y-117654000D02*
X153206000Y-117493600D01*
X152055000Y-118805000D02*
X153206000Y-117654000D01*
X165100000Y-106360000D02*
X165460000Y-106000000D01*
X165100000Y-112880000D02*
X165100000Y-106360000D01*
X164980000Y-113000000D02*
X165100000Y-112880000D01*
X161997800Y-113000000D02*
X164980000Y-113000000D01*
X130000000Y-98188000D02*
X135588000Y-92600000D01*
X135588000Y-92600000D02*
X139800000Y-92600000D01*
X151292799Y-89062799D02*
X152390000Y-90160000D01*
X143337201Y-89062799D02*
X151292799Y-89062799D01*
X139800000Y-92600000D02*
X143337201Y-89062799D01*
X124000000Y-98270000D02*
X125670000Y-96600000D01*
X128412000Y-96600000D02*
X130000000Y-98188000D01*
X125670000Y-96600000D02*
X128412000Y-96600000D01*
X166370000Y-107630000D02*
X168000000Y-106000000D01*
X166370000Y-112880000D02*
X166370000Y-107630000D01*
X133000000Y-98120000D02*
X137520000Y-93600000D01*
X137520000Y-93600000D02*
X140100000Y-93600000D01*
X143462200Y-90237800D02*
X148789000Y-90237800D01*
X140100000Y-93600000D02*
X143462200Y-90237800D01*
X171500000Y-89440000D02*
X171260000Y-89200000D01*
X171500000Y-92460000D02*
X171500000Y-89440000D01*
X181500000Y-76420000D02*
X181420000Y-76500000D01*
X181500000Y-73000000D02*
X181500000Y-76420000D01*
X174040000Y-89440000D02*
X173800000Y-89200000D01*
X174040000Y-92460000D02*
X174040000Y-89440000D01*
X178960000Y-76420000D02*
X178880000Y-76500000D01*
X178960000Y-73000000D02*
X178960000Y-76420000D01*
X176580000Y-89440000D02*
X176340000Y-89200000D01*
X176580000Y-92460000D02*
X176580000Y-89440000D01*
X176420000Y-76420000D02*
X176340000Y-76500000D01*
X176420000Y-73000000D02*
X176420000Y-76420000D01*
X179120000Y-89440000D02*
X178880000Y-89200000D01*
X179120000Y-92460000D02*
X179120000Y-89440000D01*
X173880000Y-76420000D02*
X173800000Y-76500000D01*
X173880000Y-73000000D02*
X173880000Y-76420000D01*
X181660000Y-89440000D02*
X181420000Y-89200000D01*
X181660000Y-92460000D02*
X181660000Y-89440000D01*
X146300000Y-86500000D02*
X148300000Y-84500000D01*
X179260000Y-84500000D02*
X183960000Y-89200000D01*
X148300000Y-84500000D02*
X179260000Y-84500000D01*
D31*
X173540000Y-116960000D02*
X173640000Y-116960000D01*
D32*
X178800000Y-111800000D02*
X178800000Y-109140000D01*
X173640000Y-116960000D02*
X178800000Y-111800000D01*
D31*
X178800000Y-108200000D02*
X185000000Y-102000000D01*
X178800000Y-109140000D02*
X178800000Y-108200000D01*
D30*
X161500000Y-106500000D02*
X161500000Y-101780000D01*
X141220000Y-86834000D02*
X141220000Y-86500000D01*
X161000000Y-124000000D02*
X161100000Y-124000000D01*
X161100000Y-124000000D02*
X163390000Y-126290000D01*
X178050000Y-126290000D02*
X179980000Y-124360000D01*
X163390000Y-126290000D02*
X178050000Y-126290000D01*
D33*
X117523000Y-78503000D02*
X117310000Y-78290000D01*
X128596000Y-78503000D02*
X117523000Y-78503000D01*
D30*
X115550000Y-121410000D02*
X115550000Y-122560000D01*
X115550000Y-122560000D02*
X119670000Y-126680000D01*
X158320000Y-126680000D02*
X161000000Y-124000000D01*
X119670000Y-126680000D02*
X158320000Y-126680000D01*
X146300000Y-101740000D02*
X143580000Y-104460000D01*
X117310000Y-100227830D02*
X117310000Y-85910000D01*
X121542170Y-104460000D02*
X117310000Y-100227830D01*
X123170000Y-121410000D02*
X123170000Y-118250000D01*
X123170000Y-118250000D02*
X124490000Y-116930000D01*
X124490000Y-104460000D02*
X121542170Y-104460000D01*
X124490000Y-116930000D02*
X124490000Y-104460000D01*
X143580000Y-104460000D02*
X124490000Y-104460000D01*
X143760000Y-101740000D02*
X141880000Y-103620000D01*
X141880000Y-103620000D02*
X121480000Y-103620000D01*
X121480000Y-103620000D02*
X118710000Y-100850000D01*
X118710000Y-84770000D02*
X117310000Y-83370000D01*
X118710000Y-100850000D02*
X118710000Y-84770000D01*
X120630000Y-121410000D02*
X120630000Y-119920000D01*
X120630000Y-119920000D02*
X115610000Y-114900000D01*
X115610000Y-85070000D02*
X117310000Y-83370000D01*
X115610000Y-114900000D02*
X115610000Y-85070000D01*
M02*
