M48
; DRILL file {KiCad (5.1.9)-1} date 11/26/21 16:10:06
; FORMAT={-:-/ absolute / metric / decimal}
; #@! TF.CreationDate,2021-11-26T16:10:06-05:00
; #@! TF.GenerationSoftware,Kicad,Pcbnew,(5.1.9)-1
; #@! TF.FileFunction,Plated,1,2,PTH
FMAT,2
METRIC
T1C0.750
T2C0.800
T3C0.889
T4C0.900
T5C1.000
T6C1.016
T7C1.100
T8C1.200
%
G90
G05
T1
X143.5Y-92.46
X143.5Y-93.73
X143.5Y-95.0
X165.1Y-112.88
X166.37Y-112.88
X167.64Y-112.88
T2
X122.5Y-102.0
X122.5Y-109.62
X124.0Y-90.65
X124.0Y-98.27
X127.0Y-90.61
X127.0Y-98.23
X130.0Y-90.568
X130.0Y-98.188
X133.0Y-90.5
X133.0Y-98.12
X136.0Y-90.38
X136.0Y-98.0
X139.0Y-90.466
X139.0Y-98.086
X148.789Y-90.238
X148.789Y-97.858
X152.39Y-90.16
X152.39Y-97.78
X155.94Y-90.263
X155.94Y-92.803
X155.94Y-95.343
X155.94Y-97.883
X163.56Y-90.263
X163.56Y-92.803
X163.56Y-95.343
X163.56Y-97.883
X165.46Y-106.0
X168.0Y-106.0
X168.72Y-76.5
X168.72Y-89.2
X171.0Y-102.0
X171.26Y-76.5
X171.26Y-89.2
X173.8Y-76.5
X173.8Y-89.2
X176.0Y-102.0
X176.34Y-76.5
X176.34Y-89.2
X178.88Y-76.5
X178.88Y-89.2
X181.2Y-102.0
X181.42Y-76.5
X181.42Y-89.2
X183.96Y-76.5
X183.96Y-89.2
X185.0Y-102.0
X186.5Y-76.5
X186.5Y-89.2
T3
X129.005Y-114.95
X130.275Y-117.49
X131.545Y-114.95
X132.815Y-117.49
X134.085Y-114.95
X135.355Y-117.49
X146.856Y-114.954
X148.126Y-117.494
X149.396Y-114.954
X150.666Y-117.494
X151.936Y-114.954
X153.206Y-117.494
T4
X120.0Y-114.5
X122.54Y-114.5
T5
X119.5Y-85.46
X119.5Y-88.0
X125.94Y-106.5
X125.94Y-109.0
X125.98Y-86.5
X125.98Y-101.74
X126.042Y-75.988
X126.042Y-81.0
X128.48Y-106.5
X128.48Y-109.0
X128.52Y-86.5
X128.52Y-101.74
X128.582Y-75.988
X128.582Y-81.0
X128.596Y-78.503
X131.02Y-106.5
X131.02Y-109.0
X131.06Y-86.5
X131.06Y-101.74
X131.122Y-75.988
X131.122Y-81.0
X131.136Y-78.5
X133.56Y-106.5
X133.56Y-109.0
X133.6Y-86.5
X133.6Y-101.74
X133.662Y-75.988
X133.662Y-81.0
X133.676Y-78.478
X136.1Y-106.5
X136.1Y-109.0
X136.14Y-86.5
X136.14Y-101.74
X136.202Y-75.988
X136.202Y-81.0
X138.64Y-106.5
X138.64Y-109.0
X138.68Y-86.5
X138.68Y-101.74
X138.742Y-75.988
X138.742Y-81.0
X141.18Y-106.5
X141.18Y-109.0
X141.22Y-86.5
X141.22Y-101.74
X141.282Y-75.988
X141.282Y-81.0
X141.296Y-78.478
X143.72Y-106.5
X143.72Y-109.0
X143.76Y-86.5
X143.76Y-101.74
X143.811Y-78.478
X143.822Y-75.988
X143.822Y-81.0
X146.26Y-106.5
X146.26Y-109.0
X146.3Y-86.5
X146.3Y-101.74
X146.362Y-75.988
X146.362Y-81.0
X148.8Y-106.5
X148.8Y-109.0
X148.84Y-86.5
X148.84Y-101.74
X148.902Y-75.988
X148.902Y-81.0
X148.916Y-78.5
X151.34Y-106.5
X151.34Y-109.0
X151.38Y-86.5
X151.38Y-101.74
X151.442Y-75.988
X151.442Y-81.0
X153.88Y-106.5
X153.88Y-109.0
X153.92Y-86.5
X153.92Y-101.74
X153.982Y-75.988
X153.982Y-81.0
X156.42Y-106.5
X156.42Y-109.0
X156.46Y-86.5
X156.46Y-101.74
X156.522Y-75.988
X156.522Y-81.0
X158.96Y-106.5
X158.96Y-109.0
X159.0Y-86.5
X159.0Y-101.74
X159.062Y-75.988
X159.062Y-81.0
X161.5Y-106.5
X161.5Y-109.0
X161.54Y-86.5
X161.54Y-101.74
X161.602Y-75.988
X161.602Y-81.0
X171.5Y-92.46
X171.5Y-95.0
X173.88Y-73.0
X174.04Y-92.46
X174.04Y-95.0
X176.42Y-73.0
X176.58Y-92.46
X176.58Y-95.0
X178.96Y-73.0
X179.12Y-92.46
X179.12Y-95.0
X181.5Y-73.0
X181.66Y-92.46
X181.66Y-95.0
T6
X120.322Y-121.0
X123.218Y-121.0
T7
X173.72Y-109.14
X176.26Y-109.14
X178.8Y-109.14
T8
X161.0Y-124.0
X164.5Y-124.0
T5
X172.54Y-116.96G85X174.54Y-116.96
G05
X172.54Y-122.96G85X174.54Y-122.96
G05
X178.24Y-120.96G85X178.24Y-118.96
G05
T0
M30
