%TF.GenerationSoftware,KiCad,Pcbnew,(5.1.9)-1*%
%TF.CreationDate,2021-11-26T16:09:59-05:00*%
%TF.ProjectId,LN-Stepper_v1b,4c4e2d53-7465-4707-9065-725f7631622e,rev?*%
%TF.SameCoordinates,Original*%
%TF.FileFunction,Copper,L2,Bot*%
%TF.FilePolarity,Positive*%
%FSLAX46Y46*%
G04 Gerber Fmt 4.6, Leading zero omitted, Abs format (unit mm)*
G04 Created by KiCad (PCBNEW (5.1.9)-1) date 2021-11-26 16:09:59*
%MOMM*%
%LPD*%
G01*
G04 APERTURE LIST*
%TA.AperFunction,ComponentPad*%
%ADD10O,1.500000X1.050000*%
%TD*%
%TA.AperFunction,ComponentPad*%
%ADD11R,1.500000X1.050000*%
%TD*%
%TA.AperFunction,ComponentPad*%
%ADD12R,3.500000X3.500000*%
%TD*%
%TA.AperFunction,ComponentPad*%
%ADD13O,1.050000X1.500000*%
%TD*%
%TA.AperFunction,ComponentPad*%
%ADD14R,1.050000X1.500000*%
%TD*%
%TA.AperFunction,ComponentPad*%
%ADD15C,1.498600*%
%TD*%
%TA.AperFunction,ComponentPad*%
%ADD16O,1.600000X1.600000*%
%TD*%
%TA.AperFunction,ComponentPad*%
%ADD17C,1.600000*%
%TD*%
%TA.AperFunction,ComponentPad*%
%ADD18R,1.600000X1.600000*%
%TD*%
%TA.AperFunction,ComponentPad*%
%ADD19C,1.879600*%
%TD*%
%TA.AperFunction,ComponentPad*%
%ADD20R,2.400000X1.600000*%
%TD*%
%TA.AperFunction,ComponentPad*%
%ADD21O,2.400000X1.600000*%
%TD*%
%TA.AperFunction,ComponentPad*%
%ADD22R,1.800000X1.800000*%
%TD*%
%TA.AperFunction,ComponentPad*%
%ADD23C,1.800000*%
%TD*%
%TA.AperFunction,ComponentPad*%
%ADD24O,1.700000X1.700000*%
%TD*%
%TA.AperFunction,ComponentPad*%
%ADD25R,1.700000X1.700000*%
%TD*%
%TA.AperFunction,ComponentPad*%
%ADD26R,1.905000X2.000000*%
%TD*%
%TA.AperFunction,ComponentPad*%
%ADD27O,1.905000X2.000000*%
%TD*%
%TA.AperFunction,ComponentPad*%
%ADD28R,2.400000X2.400000*%
%TD*%
%TA.AperFunction,ComponentPad*%
%ADD29C,2.400000*%
%TD*%
%TA.AperFunction,Conductor*%
%ADD30C,0.350000*%
%TD*%
%TA.AperFunction,Conductor*%
%ADD31C,0.700000*%
%TD*%
%TA.AperFunction,Conductor*%
%ADD32C,0.500000*%
%TD*%
G04 APERTURE END LIST*
D10*
X143500000Y-93730000D03*
X143500000Y-92460000D03*
D11*
X143500000Y-95000000D03*
%TA.AperFunction,ComponentPad*%
G36*
G01*
X179115000Y-121710000D02*
X177365000Y-121710000D01*
G75*
G02*
X176490000Y-120835000I0J875000D01*
G01*
X176490000Y-119085000D01*
G75*
G02*
X177365000Y-118210000I875000J0D01*
G01*
X179115000Y-118210000D01*
G75*
G02*
X179990000Y-119085000I0J-875000D01*
G01*
X179990000Y-120835000D01*
G75*
G02*
X179115000Y-121710000I-875000J0D01*
G01*
G37*
%TD.AperFunction*%
%TA.AperFunction,ComponentPad*%
G36*
G01*
X174540000Y-124460000D02*
X172540000Y-124460000D01*
G75*
G02*
X171790000Y-123710000I0J750000D01*
G01*
X171790000Y-122210000D01*
G75*
G02*
X172540000Y-121460000I750000J0D01*
G01*
X174540000Y-121460000D01*
G75*
G02*
X175290000Y-122210000I0J-750000D01*
G01*
X175290000Y-123710000D01*
G75*
G02*
X174540000Y-124460000I-750000J0D01*
G01*
G37*
%TD.AperFunction*%
D12*
X173540000Y-116960000D03*
D13*
X166370000Y-112880000D03*
X167640000Y-112880000D03*
D14*
X165100000Y-112880000D03*
D15*
X153206000Y-117493600D03*
X146856000Y-114953600D03*
X151936000Y-114953600D03*
X148126000Y-117493600D03*
X149396000Y-114953600D03*
X150666000Y-117493600D03*
D16*
X165460000Y-106000000D03*
D17*
X168000000Y-106000000D03*
D16*
X125980000Y-101740000D03*
X125980000Y-86500000D03*
X161540000Y-101740000D03*
X128520000Y-86500000D03*
X159000000Y-101740000D03*
X131060000Y-86500000D03*
X156460000Y-101740000D03*
X133600000Y-86500000D03*
X153920000Y-101740000D03*
X136140000Y-86500000D03*
X151380000Y-101740000D03*
X138680000Y-86500000D03*
X148840000Y-101740000D03*
X141220000Y-86500000D03*
X146300000Y-101740000D03*
X143760000Y-86500000D03*
X143760000Y-101740000D03*
X146300000Y-86500000D03*
X141220000Y-101740000D03*
X148840000Y-86500000D03*
X138680000Y-101740000D03*
X151380000Y-86500000D03*
X136140000Y-101740000D03*
X153920000Y-86500000D03*
X133600000Y-101740000D03*
X156460000Y-86500000D03*
X131060000Y-101740000D03*
X159000000Y-86500000D03*
X128520000Y-101740000D03*
D18*
X161540000Y-86500000D03*
D15*
X135355000Y-117490000D03*
X129005000Y-114950000D03*
X134085000Y-114950000D03*
X130275000Y-117490000D03*
X131545000Y-114950000D03*
X132815000Y-117490000D03*
D19*
X120322200Y-121000000D03*
X123217800Y-121000000D03*
D20*
X163560000Y-97883200D03*
D21*
X155940000Y-90263200D03*
X163560000Y-95343200D03*
X155940000Y-92803200D03*
X163560000Y-92803200D03*
X155940000Y-95343200D03*
X163560000Y-90263200D03*
X155940000Y-97883200D03*
D22*
X120000000Y-114500000D03*
D23*
X122540000Y-114500000D03*
D24*
X125940000Y-109000000D03*
X128480000Y-109000000D03*
X131020000Y-109000000D03*
X133560000Y-109000000D03*
X136100000Y-109000000D03*
X138640000Y-109000000D03*
X141180000Y-109000000D03*
X143720000Y-109000000D03*
X146260000Y-109000000D03*
X148800000Y-109000000D03*
X151340000Y-109000000D03*
X153880000Y-109000000D03*
X156420000Y-109000000D03*
X158960000Y-109000000D03*
D25*
X161500000Y-109000000D03*
D24*
X125940000Y-106500000D03*
X128480000Y-106500000D03*
X131020000Y-106500000D03*
X133560000Y-106500000D03*
X136100000Y-106500000D03*
X138640000Y-106500000D03*
X141180000Y-106500000D03*
X143720000Y-106500000D03*
X146260000Y-106500000D03*
X148800000Y-106500000D03*
X151340000Y-106500000D03*
X153880000Y-106500000D03*
X156420000Y-106500000D03*
X158960000Y-106500000D03*
D25*
X161500000Y-106500000D03*
X161601600Y-81000000D03*
D24*
X159061600Y-81000000D03*
X156521600Y-81000000D03*
X153981600Y-81000000D03*
X151441600Y-81000000D03*
X148901600Y-81000000D03*
X146361600Y-81000000D03*
X143821600Y-81000000D03*
X141281600Y-81000000D03*
X138741600Y-81000000D03*
X136201600Y-81000000D03*
X133661600Y-81000000D03*
X131121600Y-81000000D03*
X128581600Y-81000000D03*
X126041600Y-81000000D03*
D25*
X161601600Y-75988400D03*
D24*
X159061600Y-75988400D03*
X156521600Y-75988400D03*
X153981600Y-75988400D03*
X151441600Y-75988400D03*
X148901600Y-75988400D03*
X146361600Y-75988400D03*
X143821600Y-75988400D03*
X141281600Y-75988400D03*
X138741600Y-75988400D03*
X136201600Y-75988400D03*
X133661600Y-75988400D03*
X131121600Y-75988400D03*
X128581600Y-75988400D03*
X126041600Y-75988400D03*
D25*
X141296000Y-78477600D03*
X133676000Y-78477600D03*
X131136000Y-78500000D03*
X128596000Y-78503000D03*
X143810600Y-78477600D03*
X148916000Y-78500000D03*
D16*
X136000000Y-90380000D03*
D17*
X136000000Y-98000000D03*
X130000000Y-90568000D03*
D16*
X130000000Y-98188000D03*
X148789000Y-90237800D03*
D17*
X148789000Y-97857800D03*
X133000000Y-90500000D03*
D16*
X133000000Y-98120000D03*
D17*
X124000000Y-98270000D03*
D16*
X124000000Y-90650000D03*
D17*
X139000000Y-90466400D03*
D16*
X139000000Y-98086400D03*
X127000000Y-90610000D03*
D17*
X127000000Y-98230000D03*
X122500000Y-102000000D03*
D16*
X122500000Y-109620000D03*
D18*
X186500000Y-76500000D03*
D16*
X168720000Y-89200000D03*
X183960000Y-76500000D03*
X171260000Y-89200000D03*
X181420000Y-76500000D03*
X173800000Y-89200000D03*
X178880000Y-76500000D03*
X176340000Y-89200000D03*
X176340000Y-76500000D03*
X178880000Y-89200000D03*
X173800000Y-76500000D03*
X181420000Y-89200000D03*
X171260000Y-76500000D03*
X183960000Y-89200000D03*
X168720000Y-76500000D03*
X186500000Y-89200000D03*
D18*
X185000000Y-102000000D03*
D17*
X181200000Y-102000000D03*
D18*
X176000000Y-102000000D03*
D17*
X171000000Y-102000000D03*
D25*
X181500000Y-73000000D03*
D24*
X178960000Y-73000000D03*
X176420000Y-73000000D03*
X173880000Y-73000000D03*
D26*
X178800000Y-109140000D03*
D27*
X176260000Y-109140000D03*
X173720000Y-109140000D03*
D28*
X161000000Y-124000000D03*
D29*
X164500000Y-124000000D03*
D25*
X119500000Y-88000000D03*
D24*
X119500000Y-85460000D03*
D25*
X171500000Y-95000000D03*
D24*
X171500000Y-92460000D03*
X174040000Y-95000000D03*
X174040000Y-92460000D03*
X176580000Y-95000000D03*
X176580000Y-92460000D03*
X179120000Y-95000000D03*
X179120000Y-92460000D03*
X181660000Y-95000000D03*
X181660000Y-92460000D03*
D17*
X152390000Y-97780000D03*
D16*
X152390000Y-90160000D03*
D30*
X130275000Y-117490000D02*
X131415000Y-116350000D01*
X132685000Y-116350000D02*
X134085000Y-114950000D01*
X131415000Y-116350000D02*
X132685000Y-116350000D01*
X148126000Y-117493600D02*
X149339600Y-116280000D01*
X150609600Y-116280000D02*
X151936000Y-114953600D01*
X149339600Y-116280000D02*
X150609600Y-116280000D01*
X134085000Y-114950000D02*
X135957000Y-113078000D01*
X150060400Y-113078000D02*
X151936000Y-114953600D01*
X140156800Y-113027200D02*
X140106000Y-113078000D01*
X140106000Y-113078000D02*
X150060400Y-113078000D01*
X135957000Y-113078000D02*
X140106000Y-113078000D01*
X158960000Y-101780000D02*
X159000000Y-101740000D01*
X158960000Y-106500000D02*
X158960000Y-101780000D01*
X161387400Y-75988400D02*
X125827400Y-75988400D01*
D31*
X153920000Y-86500000D02*
X153920000Y-81040000D01*
X151936000Y-114953600D02*
X157953600Y-114953600D01*
X164500000Y-121500000D02*
X164500000Y-124000000D01*
X172500000Y-124000000D02*
X173540000Y-122960000D01*
X164500000Y-124000000D02*
X172500000Y-124000000D01*
D30*
X163560000Y-90263200D02*
X163560000Y-92803200D01*
X163560000Y-95343200D02*
X163560000Y-92803200D01*
X161601600Y-75988400D02*
X162790000Y-74800000D01*
X169560000Y-74800000D02*
X171260000Y-76500000D01*
X162790000Y-74800000D02*
X169560000Y-74800000D01*
X186500000Y-76500000D02*
X186500000Y-76000000D01*
X186500000Y-76000000D02*
X185400000Y-74900000D01*
X172860000Y-74900000D02*
X171260000Y-76500000D01*
X185400000Y-74900000D02*
X172860000Y-74900000D01*
X157953600Y-114921402D02*
X157953600Y-114953600D01*
D32*
X130000000Y-90568000D02*
X127832000Y-88400000D01*
X127832000Y-88400000D02*
X124900000Y-88400000D01*
X124900000Y-88400000D02*
X124000000Y-87500000D01*
X124000000Y-78030000D02*
X126041600Y-75988400D01*
X124000000Y-87500000D02*
X124000000Y-78030000D01*
D30*
X132932000Y-90568000D02*
X133000000Y-90500000D01*
X130000000Y-90568000D02*
X132932000Y-90568000D01*
X135880000Y-90500000D02*
X136000000Y-90380000D01*
X133000000Y-90500000D02*
X135880000Y-90500000D01*
D31*
X163400000Y-109790002D02*
X158250000Y-114940002D01*
X163400000Y-104800000D02*
X163400000Y-109790002D01*
X160760000Y-103500000D02*
X162100000Y-103500000D01*
X159000000Y-101740000D02*
X160760000Y-103500000D01*
X158250000Y-115250000D02*
X164500000Y-121500000D01*
X158250000Y-114940002D02*
X158250000Y-115250000D01*
X157953600Y-114953600D02*
X158250000Y-115250000D01*
X153981600Y-81000000D02*
X153981600Y-75988400D01*
D30*
X139000000Y-95000000D02*
X136000000Y-98000000D01*
X143500000Y-95000000D02*
X139000000Y-95000000D01*
X137840000Y-88200000D02*
X136140000Y-86500000D01*
X143900000Y-88200000D02*
X137840000Y-88200000D01*
X151043200Y-95343200D02*
X143900000Y-88200000D01*
X155940000Y-95343200D02*
X151043200Y-95343200D01*
X139000000Y-86820000D02*
X138680000Y-86500000D01*
X148814400Y-97883200D02*
X148789000Y-97857800D01*
X132815000Y-117490000D02*
X135261000Y-119936000D01*
X148223600Y-119936000D02*
X150666000Y-117493600D01*
X135261000Y-119936000D02*
X148223600Y-119936000D01*
X131545000Y-114950000D02*
X129595000Y-113000000D01*
X128322200Y-113000000D02*
X120322200Y-121000000D01*
X129595000Y-113000000D02*
X128322200Y-113000000D01*
X147070000Y-92460000D02*
X152390000Y-97780000D01*
X143510000Y-92460000D02*
X147070000Y-92460000D01*
X152493200Y-90263200D02*
X152390000Y-90160000D01*
X155940000Y-90263200D02*
X152493200Y-90263200D01*
X151354400Y-92803200D02*
X148789000Y-90237800D01*
X155940000Y-92803200D02*
X151354400Y-92803200D01*
X122540000Y-109660000D02*
X122500000Y-109620000D01*
X122540000Y-114500000D02*
X122540000Y-109660000D01*
X161500000Y-109000000D02*
X125940000Y-109000000D01*
X138680000Y-81040000D02*
X138640000Y-81000000D01*
X125940000Y-101780000D02*
X125980000Y-101740000D01*
X125940000Y-106500000D02*
X125940000Y-101780000D01*
X168720000Y-96780000D02*
X168720000Y-89200000D01*
X166100000Y-99400000D02*
X168720000Y-96780000D01*
X154900000Y-99400000D02*
X166100000Y-99400000D01*
X154000000Y-100300000D02*
X154900000Y-99400000D01*
X127420000Y-100300000D02*
X154000000Y-100300000D01*
X125980000Y-101740000D02*
X127420000Y-100300000D01*
D31*
X153880000Y-101780000D02*
X153920000Y-101740000D01*
D30*
X153880000Y-106500000D02*
X153880000Y-101780000D01*
X153920000Y-101740000D02*
X155660000Y-100000000D01*
X169000000Y-100000000D02*
X171000000Y-102000000D01*
X155660000Y-100000000D02*
X169000000Y-100000000D01*
X146300000Y-81040000D02*
X146260000Y-81000000D01*
X146300000Y-86500000D02*
X146300000Y-81040000D01*
X171720000Y-116960000D02*
X167640000Y-112880000D01*
X173540000Y-116960000D02*
X171720000Y-116960000D01*
X185000000Y-102000000D02*
X185000000Y-97300000D01*
X185000000Y-97300000D02*
X189500000Y-92800000D01*
X189500000Y-92800000D02*
X189500000Y-86000000D01*
X189500000Y-86000000D02*
X183000000Y-79500000D01*
X171720000Y-79500000D02*
X168720000Y-76500000D01*
X183000000Y-79500000D02*
X171720000Y-79500000D01*
X143760000Y-81040000D02*
X143720000Y-81000000D01*
X143760000Y-86500000D02*
X143760000Y-81040000D01*
X184975001Y-87675001D02*
X186500000Y-89200000D01*
X144935001Y-87675001D02*
X184975001Y-87675001D01*
X143760000Y-86500000D02*
X144935001Y-87675001D01*
D32*
X176000000Y-102000000D02*
X174280000Y-102000000D01*
X174280000Y-102000000D02*
X172355000Y-103925000D01*
D31*
X162525000Y-103925000D02*
X163400000Y-104800000D01*
X162100000Y-103500000D02*
X162525000Y-103925000D01*
D32*
X163400000Y-104290000D02*
X163765000Y-103925000D01*
X163400000Y-104800000D02*
X163400000Y-104290000D01*
X163765000Y-103925000D02*
X162525000Y-103925000D01*
X164730000Y-103500000D02*
X165155000Y-103925000D01*
X162100000Y-103500000D02*
X164730000Y-103500000D01*
X165155000Y-103925000D02*
X163765000Y-103925000D01*
X172355000Y-103925000D02*
X165155000Y-103925000D01*
D31*
X173540000Y-122960000D02*
X180120000Y-122960000D01*
X180120000Y-122960000D02*
X181560000Y-121520000D01*
X181560000Y-121520000D02*
X181560000Y-116730000D01*
X176260000Y-111430000D02*
X176260000Y-109140000D01*
X181560000Y-116730000D02*
X176260000Y-111430000D01*
D30*
X125940000Y-86460000D02*
X125980000Y-86500000D01*
X125940000Y-81000000D02*
X125940000Y-86460000D01*
X161500000Y-101780000D02*
X161540000Y-101740000D01*
X128480000Y-86460000D02*
X128520000Y-86500000D01*
X128480000Y-81000000D02*
X128480000Y-86460000D01*
X131020000Y-86460000D02*
X131060000Y-86500000D01*
X131020000Y-81000000D02*
X131020000Y-86460000D01*
X156420000Y-101780000D02*
X156460000Y-101740000D01*
X156420000Y-106500000D02*
X156420000Y-101780000D01*
X133600000Y-81040000D02*
X133560000Y-81000000D01*
X133600000Y-86500000D02*
X133600000Y-81040000D01*
X151340000Y-101780000D02*
X151380000Y-101740000D01*
X151340000Y-106500000D02*
X151340000Y-101780000D01*
X148800000Y-101780000D02*
X148840000Y-101740000D01*
X148800000Y-106500000D02*
X148800000Y-101780000D01*
X141220000Y-81061600D02*
X141281600Y-81000000D01*
X141220000Y-86500000D02*
X141220000Y-81061600D01*
X146260000Y-101780000D02*
X146300000Y-101740000D01*
X146260000Y-106500000D02*
X146260000Y-101780000D01*
X143720000Y-101780000D02*
X143760000Y-101740000D01*
X143720000Y-106500000D02*
X143720000Y-101780000D01*
X141180000Y-101780000D02*
X141220000Y-101740000D01*
X141180000Y-106500000D02*
X141180000Y-101780000D01*
X148840000Y-81040000D02*
X148800000Y-81000000D01*
X148840000Y-86500000D02*
X148840000Y-81040000D01*
X138640000Y-101780000D02*
X138680000Y-101740000D01*
X138640000Y-106500000D02*
X138640000Y-101780000D01*
X151380000Y-81040000D02*
X151340000Y-81000000D01*
X151380000Y-86500000D02*
X151380000Y-81040000D01*
X136100000Y-101780000D02*
X136140000Y-101740000D01*
X136100000Y-106500000D02*
X136100000Y-101780000D01*
X133560000Y-101780000D02*
X133600000Y-101740000D01*
X133560000Y-106500000D02*
X133560000Y-101780000D01*
X156460000Y-81040000D02*
X156420000Y-81000000D01*
X156460000Y-86500000D02*
X156460000Y-81040000D01*
X131020000Y-101780000D02*
X131060000Y-101740000D01*
X131020000Y-106500000D02*
X131020000Y-101780000D01*
X159000000Y-81040000D02*
X158960000Y-81000000D01*
X159000000Y-86500000D02*
X159000000Y-81040000D01*
X128480000Y-101780000D02*
X128520000Y-101740000D01*
X128480000Y-106500000D02*
X128480000Y-101780000D01*
X161540000Y-81040000D02*
X161500000Y-81000000D01*
X161540000Y-86500000D02*
X161540000Y-81040000D01*
M02*
