%TF.GenerationSoftware,KiCad,Pcbnew,(5.1.9)-1*%
%TF.CreationDate,2021-12-11T18:31:37-05:00*%
%TF.ProjectId,LN-Stepper_v1_2,4c4e2d53-7465-4707-9065-725f76315f32,rev?*%
%TF.SameCoordinates,Original*%
%TF.FileFunction,Legend,Bot*%
%TF.FilePolarity,Positive*%
%FSLAX46Y46*%
G04 Gerber Fmt 4.6, Leading zero omitted, Abs format (unit mm)*
G04 Created by KiCad (PCBNEW (5.1.9)-1) date 2021-12-11 18:31:37*
%MOMM*%
%LPD*%
G01*
G04 APERTURE LIST*
%ADD10C,0.150000*%
%ADD11C,0.080000*%
%ADD12R,1.700000X1.700000*%
%ADD13O,1.700000X1.700000*%
%ADD14O,1.500000X1.050000*%
%ADD15R,1.500000X1.050000*%
%ADD16C,3.200000*%
%ADD17R,3.500000X3.500000*%
%ADD18O,1.050000X1.500000*%
%ADD19R,1.050000X1.500000*%
%ADD20C,3.251200*%
%ADD21C,1.701800*%
%ADD22O,1.600000X1.600000*%
%ADD23C,1.600000*%
%ADD24R,1.600000X1.600000*%
%ADD25C,2.082800*%
%ADD26R,2.400000X1.600000*%
%ADD27O,2.400000X1.600000*%
%ADD28R,1.800000X1.800000*%
%ADD29C,1.800000*%
%ADD30R,1.905000X2.000000*%
%ADD31O,1.905000X2.000000*%
%ADD32R,2.400000X2.400000*%
%ADD33C,2.400000*%
G04 APERTURE END LIST*
D10*
X179284285Y-128802380D02*
X179284285Y-127802380D01*
X178855714Y-128802380D02*
X178855714Y-128278571D01*
X178903333Y-128183333D01*
X178998571Y-128135714D01*
X179141428Y-128135714D01*
X179236666Y-128183333D01*
X179284285Y-128230952D01*
X178522380Y-128135714D02*
X178141428Y-128135714D01*
X178379523Y-127802380D02*
X178379523Y-128659523D01*
X178331904Y-128754761D01*
X178236666Y-128802380D01*
X178141428Y-128802380D01*
X177950952Y-128135714D02*
X177570000Y-128135714D01*
X177808095Y-127802380D02*
X177808095Y-128659523D01*
X177760476Y-128754761D01*
X177665238Y-128802380D01*
X177570000Y-128802380D01*
X177236666Y-128135714D02*
X177236666Y-129135714D01*
X177236666Y-128183333D02*
X177141428Y-128135714D01*
X176950952Y-128135714D01*
X176855714Y-128183333D01*
X176808095Y-128230952D01*
X176760476Y-128326190D01*
X176760476Y-128611904D01*
X176808095Y-128707142D01*
X176855714Y-128754761D01*
X176950952Y-128802380D01*
X177141428Y-128802380D01*
X177236666Y-128754761D01*
X176379523Y-128754761D02*
X176284285Y-128802380D01*
X176093809Y-128802380D01*
X175998571Y-128754761D01*
X175950952Y-128659523D01*
X175950952Y-128611904D01*
X175998571Y-128516666D01*
X176093809Y-128469047D01*
X176236666Y-128469047D01*
X176331904Y-128421428D01*
X176379523Y-128326190D01*
X176379523Y-128278571D01*
X176331904Y-128183333D01*
X176236666Y-128135714D01*
X176093809Y-128135714D01*
X175998571Y-128183333D01*
X175522380Y-128707142D02*
X175474761Y-128754761D01*
X175522380Y-128802380D01*
X175570000Y-128754761D01*
X175522380Y-128707142D01*
X175522380Y-128802380D01*
X175522380Y-128183333D02*
X175474761Y-128230952D01*
X175522380Y-128278571D01*
X175570000Y-128230952D01*
X175522380Y-128183333D01*
X175522380Y-128278571D01*
X174331904Y-127754761D02*
X175189047Y-129040476D01*
X173284285Y-127754761D02*
X174141428Y-129040476D01*
X172522380Y-128135714D02*
X172522380Y-128945238D01*
X172570000Y-129040476D01*
X172617619Y-129088095D01*
X172712857Y-129135714D01*
X172855714Y-129135714D01*
X172950952Y-129088095D01*
X172522380Y-128754761D02*
X172617619Y-128802380D01*
X172808095Y-128802380D01*
X172903333Y-128754761D01*
X172950952Y-128707142D01*
X172998571Y-128611904D01*
X172998571Y-128326190D01*
X172950952Y-128230952D01*
X172903333Y-128183333D01*
X172808095Y-128135714D01*
X172617619Y-128135714D01*
X172522380Y-128183333D01*
X172046190Y-128802380D02*
X172046190Y-128135714D01*
X172046190Y-127802380D02*
X172093809Y-127850000D01*
X172046190Y-127897619D01*
X171998571Y-127850000D01*
X172046190Y-127802380D01*
X172046190Y-127897619D01*
X171712857Y-128135714D02*
X171331904Y-128135714D01*
X171570000Y-127802380D02*
X171570000Y-128659523D01*
X171522380Y-128754761D01*
X171427142Y-128802380D01*
X171331904Y-128802380D01*
X170998571Y-128802380D02*
X170998571Y-127802380D01*
X170570000Y-128802380D02*
X170570000Y-128278571D01*
X170617619Y-128183333D01*
X170712857Y-128135714D01*
X170855714Y-128135714D01*
X170950952Y-128183333D01*
X170998571Y-128230952D01*
X169665238Y-128135714D02*
X169665238Y-128802380D01*
X170093809Y-128135714D02*
X170093809Y-128659523D01*
X170046190Y-128754761D01*
X169950952Y-128802380D01*
X169808095Y-128802380D01*
X169712857Y-128754761D01*
X169665238Y-128707142D01*
X169189047Y-128802380D02*
X169189047Y-127802380D01*
X169189047Y-128183333D02*
X169093809Y-128135714D01*
X168903333Y-128135714D01*
X168808095Y-128183333D01*
X168760476Y-128230952D01*
X168712857Y-128326190D01*
X168712857Y-128611904D01*
X168760476Y-128707142D01*
X168808095Y-128754761D01*
X168903333Y-128802380D01*
X169093809Y-128802380D01*
X169189047Y-128754761D01*
X168284285Y-128707142D02*
X168236666Y-128754761D01*
X168284285Y-128802380D01*
X168331904Y-128754761D01*
X168284285Y-128707142D01*
X168284285Y-128802380D01*
X167379523Y-128754761D02*
X167474761Y-128802380D01*
X167665238Y-128802380D01*
X167760476Y-128754761D01*
X167808095Y-128707142D01*
X167855714Y-128611904D01*
X167855714Y-128326190D01*
X167808095Y-128230952D01*
X167760476Y-128183333D01*
X167665238Y-128135714D01*
X167474761Y-128135714D01*
X167379523Y-128183333D01*
X166808095Y-128802380D02*
X166903333Y-128754761D01*
X166950952Y-128707142D01*
X166998571Y-128611904D01*
X166998571Y-128326190D01*
X166950952Y-128230952D01*
X166903333Y-128183333D01*
X166808095Y-128135714D01*
X166665238Y-128135714D01*
X166570000Y-128183333D01*
X166522380Y-128230952D01*
X166474761Y-128326190D01*
X166474761Y-128611904D01*
X166522380Y-128707142D01*
X166570000Y-128754761D01*
X166665238Y-128802380D01*
X166808095Y-128802380D01*
X166046190Y-128802380D02*
X166046190Y-128135714D01*
X166046190Y-128230952D02*
X165998571Y-128183333D01*
X165903333Y-128135714D01*
X165760476Y-128135714D01*
X165665238Y-128183333D01*
X165617619Y-128278571D01*
X165617619Y-128802380D01*
X165617619Y-128278571D02*
X165570000Y-128183333D01*
X165474761Y-128135714D01*
X165331904Y-128135714D01*
X165236666Y-128183333D01*
X165189047Y-128278571D01*
X165189047Y-128802380D01*
X163998571Y-127754761D02*
X164855714Y-129040476D01*
X163665238Y-128802380D02*
X163665238Y-127802380D01*
X163665238Y-128183333D02*
X163570000Y-128135714D01*
X163379523Y-128135714D01*
X163284285Y-128183333D01*
X163236666Y-128230952D01*
X163189047Y-128326190D01*
X163189047Y-128611904D01*
X163236666Y-128707142D01*
X163284285Y-128754761D01*
X163379523Y-128802380D01*
X163570000Y-128802380D01*
X163665238Y-128754761D01*
X162617619Y-128802380D02*
X162712857Y-128754761D01*
X162760476Y-128707142D01*
X162808095Y-128611904D01*
X162808095Y-128326190D01*
X162760476Y-128230952D01*
X162712857Y-128183333D01*
X162617619Y-128135714D01*
X162474761Y-128135714D01*
X162379523Y-128183333D01*
X162331904Y-128230952D01*
X162284285Y-128326190D01*
X162284285Y-128611904D01*
X162331904Y-128707142D01*
X162379523Y-128754761D01*
X162474761Y-128802380D01*
X162617619Y-128802380D01*
X161427142Y-128754761D02*
X161522380Y-128802380D01*
X161712857Y-128802380D01*
X161808095Y-128754761D01*
X161855714Y-128707142D01*
X161903333Y-128611904D01*
X161903333Y-128326190D01*
X161855714Y-128230952D01*
X161808095Y-128183333D01*
X161712857Y-128135714D01*
X161522380Y-128135714D01*
X161427142Y-128183333D01*
X160570000Y-128802380D02*
X160570000Y-128278571D01*
X160617619Y-128183333D01*
X160712857Y-128135714D01*
X160903333Y-128135714D01*
X160998571Y-128183333D01*
X160570000Y-128754761D02*
X160665238Y-128802380D01*
X160903333Y-128802380D01*
X160998571Y-128754761D01*
X161046190Y-128659523D01*
X161046190Y-128564285D01*
X160998571Y-128469047D01*
X160903333Y-128421428D01*
X160665238Y-128421428D01*
X160570000Y-128373809D01*
X160093809Y-128802380D02*
X160093809Y-127802380D01*
X160093809Y-128183333D02*
X159998571Y-128135714D01*
X159808095Y-128135714D01*
X159712857Y-128183333D01*
X159665238Y-128230952D01*
X159617619Y-128326190D01*
X159617619Y-128611904D01*
X159665238Y-128707142D01*
X159712857Y-128754761D01*
X159808095Y-128802380D01*
X159998571Y-128802380D01*
X160093809Y-128754761D01*
X159046190Y-128802380D02*
X159141428Y-128754761D01*
X159189047Y-128707142D01*
X159236666Y-128611904D01*
X159236666Y-128326190D01*
X159189047Y-128230952D01*
X159141428Y-128183333D01*
X159046190Y-128135714D01*
X158903333Y-128135714D01*
X158808095Y-128183333D01*
X158760476Y-128230952D01*
X158712857Y-128326190D01*
X158712857Y-128611904D01*
X158760476Y-128707142D01*
X158808095Y-128754761D01*
X158903333Y-128802380D01*
X159046190Y-128802380D01*
X158284285Y-128802380D02*
X158284285Y-127802380D01*
X158284285Y-128183333D02*
X158189047Y-128135714D01*
X157998571Y-128135714D01*
X157903333Y-128183333D01*
X157855714Y-128230952D01*
X157808095Y-128326190D01*
X157808095Y-128611904D01*
X157855714Y-128707142D01*
X157903333Y-128754761D01*
X157998571Y-128802380D01*
X158189047Y-128802380D01*
X158284285Y-128754761D01*
X151107142Y-128842380D02*
X151107142Y-127842380D01*
X150678571Y-128842380D02*
X150678571Y-128318571D01*
X150726190Y-128223333D01*
X150821428Y-128175714D01*
X150964285Y-128175714D01*
X151059523Y-128223333D01*
X151107142Y-128270952D01*
X150345238Y-128175714D02*
X149964285Y-128175714D01*
X150202380Y-127842380D02*
X150202380Y-128699523D01*
X150154761Y-128794761D01*
X150059523Y-128842380D01*
X149964285Y-128842380D01*
X149773809Y-128175714D02*
X149392857Y-128175714D01*
X149630952Y-127842380D02*
X149630952Y-128699523D01*
X149583333Y-128794761D01*
X149488095Y-128842380D01*
X149392857Y-128842380D01*
X149059523Y-128175714D02*
X149059523Y-129175714D01*
X149059523Y-128223333D02*
X148964285Y-128175714D01*
X148773809Y-128175714D01*
X148678571Y-128223333D01*
X148630952Y-128270952D01*
X148583333Y-128366190D01*
X148583333Y-128651904D01*
X148630952Y-128747142D01*
X148678571Y-128794761D01*
X148773809Y-128842380D01*
X148964285Y-128842380D01*
X149059523Y-128794761D01*
X148202380Y-128794761D02*
X148107142Y-128842380D01*
X147916666Y-128842380D01*
X147821428Y-128794761D01*
X147773809Y-128699523D01*
X147773809Y-128651904D01*
X147821428Y-128556666D01*
X147916666Y-128509047D01*
X148059523Y-128509047D01*
X148154761Y-128461428D01*
X148202380Y-128366190D01*
X148202380Y-128318571D01*
X148154761Y-128223333D01*
X148059523Y-128175714D01*
X147916666Y-128175714D01*
X147821428Y-128223333D01*
X147345238Y-128747142D02*
X147297619Y-128794761D01*
X147345238Y-128842380D01*
X147392857Y-128794761D01*
X147345238Y-128747142D01*
X147345238Y-128842380D01*
X147345238Y-128223333D02*
X147297619Y-128270952D01*
X147345238Y-128318571D01*
X147392857Y-128270952D01*
X147345238Y-128223333D01*
X147345238Y-128318571D01*
X146154761Y-127794761D02*
X147011904Y-129080476D01*
X145107142Y-127794761D02*
X145964285Y-129080476D01*
X144345238Y-128175714D02*
X144345238Y-128985238D01*
X144392857Y-129080476D01*
X144440476Y-129128095D01*
X144535714Y-129175714D01*
X144678571Y-129175714D01*
X144773809Y-129128095D01*
X144345238Y-128794761D02*
X144440476Y-128842380D01*
X144630952Y-128842380D01*
X144726190Y-128794761D01*
X144773809Y-128747142D01*
X144821428Y-128651904D01*
X144821428Y-128366190D01*
X144773809Y-128270952D01*
X144726190Y-128223333D01*
X144630952Y-128175714D01*
X144440476Y-128175714D01*
X144345238Y-128223333D01*
X143869047Y-128842380D02*
X143869047Y-128175714D01*
X143869047Y-127842380D02*
X143916666Y-127890000D01*
X143869047Y-127937619D01*
X143821428Y-127890000D01*
X143869047Y-127842380D01*
X143869047Y-127937619D01*
X143535714Y-128175714D02*
X143154761Y-128175714D01*
X143392857Y-127842380D02*
X143392857Y-128699523D01*
X143345238Y-128794761D01*
X143250000Y-128842380D01*
X143154761Y-128842380D01*
X142821428Y-128842380D02*
X142821428Y-127842380D01*
X142392857Y-128842380D02*
X142392857Y-128318571D01*
X142440476Y-128223333D01*
X142535714Y-128175714D01*
X142678571Y-128175714D01*
X142773809Y-128223333D01*
X142821428Y-128270952D01*
X141488095Y-128175714D02*
X141488095Y-128842380D01*
X141916666Y-128175714D02*
X141916666Y-128699523D01*
X141869047Y-128794761D01*
X141773809Y-128842380D01*
X141630952Y-128842380D01*
X141535714Y-128794761D01*
X141488095Y-128747142D01*
X141011904Y-128842380D02*
X141011904Y-127842380D01*
X141011904Y-128223333D02*
X140916666Y-128175714D01*
X140726190Y-128175714D01*
X140630952Y-128223333D01*
X140583333Y-128270952D01*
X140535714Y-128366190D01*
X140535714Y-128651904D01*
X140583333Y-128747142D01*
X140630952Y-128794761D01*
X140726190Y-128842380D01*
X140916666Y-128842380D01*
X141011904Y-128794761D01*
X140107142Y-128747142D02*
X140059523Y-128794761D01*
X140107142Y-128842380D01*
X140154761Y-128794761D01*
X140107142Y-128747142D01*
X140107142Y-128842380D01*
X139202380Y-128794761D02*
X139297619Y-128842380D01*
X139488095Y-128842380D01*
X139583333Y-128794761D01*
X139630952Y-128747142D01*
X139678571Y-128651904D01*
X139678571Y-128366190D01*
X139630952Y-128270952D01*
X139583333Y-128223333D01*
X139488095Y-128175714D01*
X139297619Y-128175714D01*
X139202380Y-128223333D01*
X138630952Y-128842380D02*
X138726190Y-128794761D01*
X138773809Y-128747142D01*
X138821428Y-128651904D01*
X138821428Y-128366190D01*
X138773809Y-128270952D01*
X138726190Y-128223333D01*
X138630952Y-128175714D01*
X138488095Y-128175714D01*
X138392857Y-128223333D01*
X138345238Y-128270952D01*
X138297619Y-128366190D01*
X138297619Y-128651904D01*
X138345238Y-128747142D01*
X138392857Y-128794761D01*
X138488095Y-128842380D01*
X138630952Y-128842380D01*
X137869047Y-128842380D02*
X137869047Y-128175714D01*
X137869047Y-128270952D02*
X137821428Y-128223333D01*
X137726190Y-128175714D01*
X137583333Y-128175714D01*
X137488095Y-128223333D01*
X137440476Y-128318571D01*
X137440476Y-128842380D01*
X137440476Y-128318571D02*
X137392857Y-128223333D01*
X137297619Y-128175714D01*
X137154761Y-128175714D01*
X137059523Y-128223333D01*
X137011904Y-128318571D01*
X137011904Y-128842380D01*
X135821428Y-127794761D02*
X136678571Y-129080476D01*
X135488095Y-128175714D02*
X135488095Y-129175714D01*
X135488095Y-128223333D02*
X135392857Y-128175714D01*
X135202380Y-128175714D01*
X135107142Y-128223333D01*
X135059523Y-128270952D01*
X135011904Y-128366190D01*
X135011904Y-128651904D01*
X135059523Y-128747142D01*
X135107142Y-128794761D01*
X135202380Y-128842380D01*
X135392857Y-128842380D01*
X135488095Y-128794761D01*
X134440476Y-128842380D02*
X134535714Y-128794761D01*
X134583333Y-128699523D01*
X134583333Y-127842380D01*
X133916666Y-128842380D02*
X134011904Y-128794761D01*
X134059523Y-128747142D01*
X134107142Y-128651904D01*
X134107142Y-128366190D01*
X134059523Y-128270952D01*
X134011904Y-128223333D01*
X133916666Y-128175714D01*
X133773809Y-128175714D01*
X133678571Y-128223333D01*
X133630952Y-128270952D01*
X133583333Y-128366190D01*
X133583333Y-128651904D01*
X133630952Y-128747142D01*
X133678571Y-128794761D01*
X133773809Y-128842380D01*
X133916666Y-128842380D01*
X132726190Y-128794761D02*
X132821428Y-128842380D01*
X133011904Y-128842380D01*
X133107142Y-128794761D01*
X133154761Y-128747142D01*
X133202380Y-128651904D01*
X133202380Y-128366190D01*
X133154761Y-128270952D01*
X133107142Y-128223333D01*
X133011904Y-128175714D01*
X132821428Y-128175714D01*
X132726190Y-128223333D01*
X132297619Y-128842380D02*
X132297619Y-127842380D01*
X131869047Y-128842380D02*
X131869047Y-128318571D01*
X131916666Y-128223333D01*
X132011904Y-128175714D01*
X132154761Y-128175714D01*
X132250000Y-128223333D01*
X132297619Y-128270952D01*
X131011904Y-128794761D02*
X131107142Y-128842380D01*
X131297619Y-128842380D01*
X131392857Y-128794761D01*
X131440476Y-128699523D01*
X131440476Y-128318571D01*
X131392857Y-128223333D01*
X131297619Y-128175714D01*
X131107142Y-128175714D01*
X131011904Y-128223333D01*
X130964285Y-128318571D01*
X130964285Y-128413809D01*
X131440476Y-128509047D01*
X130535714Y-128842380D02*
X130535714Y-128175714D01*
X130535714Y-128366190D02*
X130488095Y-128270952D01*
X130440476Y-128223333D01*
X130345238Y-128175714D01*
X130250000Y-128175714D01*
X189957619Y-123364761D02*
X190957619Y-123364761D01*
X190624285Y-122888571D02*
X189957619Y-122888571D01*
X190529047Y-122888571D02*
X190576666Y-122840952D01*
X190624285Y-122745714D01*
X190624285Y-122602857D01*
X190576666Y-122507619D01*
X190481428Y-122460000D01*
X189957619Y-122460000D01*
X190005238Y-121555238D02*
X189957619Y-121650476D01*
X189957619Y-121840952D01*
X190005238Y-121936190D01*
X190052857Y-121983809D01*
X190148095Y-122031428D01*
X190433809Y-122031428D01*
X190529047Y-121983809D01*
X190576666Y-121936190D01*
X190624285Y-121840952D01*
X190624285Y-121650476D01*
X190576666Y-121555238D01*
X189957619Y-120983809D02*
X190005238Y-121079047D01*
X190100476Y-121126666D01*
X190957619Y-121126666D01*
X190624285Y-120174285D02*
X189957619Y-120174285D01*
X190624285Y-120602857D02*
X190100476Y-120602857D01*
X190005238Y-120555238D01*
X189957619Y-120460000D01*
X189957619Y-120317142D01*
X190005238Y-120221904D01*
X190052857Y-120174285D01*
X189957619Y-119269523D02*
X190957619Y-119269523D01*
X190005238Y-119269523D02*
X189957619Y-119364761D01*
X189957619Y-119555238D01*
X190005238Y-119650476D01*
X190052857Y-119698095D01*
X190148095Y-119745714D01*
X190433809Y-119745714D01*
X190529047Y-119698095D01*
X190576666Y-119650476D01*
X190624285Y-119555238D01*
X190624285Y-119364761D01*
X190576666Y-119269523D01*
X190005238Y-118412380D02*
X189957619Y-118507619D01*
X189957619Y-118698095D01*
X190005238Y-118793333D01*
X190100476Y-118840952D01*
X190481428Y-118840952D01*
X190576666Y-118793333D01*
X190624285Y-118698095D01*
X190624285Y-118507619D01*
X190576666Y-118412380D01*
X190481428Y-118364761D01*
X190386190Y-118364761D01*
X190290952Y-118840952D01*
X190624285Y-117317142D02*
X190624285Y-116936190D01*
X190957619Y-117174285D02*
X190100476Y-117174285D01*
X190005238Y-117126666D01*
X189957619Y-117031428D01*
X189957619Y-116936190D01*
X189957619Y-116602857D02*
X190957619Y-116602857D01*
X189957619Y-116174285D02*
X190481428Y-116174285D01*
X190576666Y-116221904D01*
X190624285Y-116317142D01*
X190624285Y-116460000D01*
X190576666Y-116555238D01*
X190529047Y-116602857D01*
X190005238Y-115317142D02*
X189957619Y-115412380D01*
X189957619Y-115602857D01*
X190005238Y-115698095D01*
X190100476Y-115745714D01*
X190481428Y-115745714D01*
X190576666Y-115698095D01*
X190624285Y-115602857D01*
X190624285Y-115412380D01*
X190576666Y-115317142D01*
X190481428Y-115269523D01*
X190386190Y-115269523D01*
X190290952Y-115745714D01*
X189957619Y-113602857D02*
X189957619Y-114079047D01*
X190957619Y-114079047D01*
X189957619Y-113126666D02*
X190005238Y-113221904D01*
X190052857Y-113269523D01*
X190148095Y-113317142D01*
X190433809Y-113317142D01*
X190529047Y-113269523D01*
X190576666Y-113221904D01*
X190624285Y-113126666D01*
X190624285Y-112983809D01*
X190576666Y-112888571D01*
X190529047Y-112840952D01*
X190433809Y-112793333D01*
X190148095Y-112793333D01*
X190052857Y-112840952D01*
X190005238Y-112888571D01*
X189957619Y-112983809D01*
X189957619Y-113126666D01*
X190005238Y-111936190D02*
X189957619Y-112031428D01*
X189957619Y-112221904D01*
X190005238Y-112317142D01*
X190052857Y-112364761D01*
X190148095Y-112412380D01*
X190433809Y-112412380D01*
X190529047Y-112364761D01*
X190576666Y-112317142D01*
X190624285Y-112221904D01*
X190624285Y-112031428D01*
X190576666Y-111936190D01*
X189957619Y-111364761D02*
X190005238Y-111460000D01*
X190052857Y-111507619D01*
X190148095Y-111555238D01*
X190433809Y-111555238D01*
X190529047Y-111507619D01*
X190576666Y-111460000D01*
X190624285Y-111364761D01*
X190624285Y-111221904D01*
X190576666Y-111126666D01*
X190529047Y-111079047D01*
X190433809Y-111031428D01*
X190148095Y-111031428D01*
X190052857Y-111079047D01*
X190005238Y-111126666D01*
X189957619Y-111221904D01*
X189957619Y-111364761D01*
X189957619Y-110602857D02*
X190957619Y-110602857D01*
X189957619Y-110031428D01*
X190957619Y-110031428D01*
X190005238Y-109174285D02*
X189957619Y-109269523D01*
X189957619Y-109460000D01*
X190005238Y-109555238D01*
X190100476Y-109602857D01*
X190481428Y-109602857D01*
X190576666Y-109555238D01*
X190624285Y-109460000D01*
X190624285Y-109269523D01*
X190576666Y-109174285D01*
X190481428Y-109126666D01*
X190386190Y-109126666D01*
X190290952Y-109602857D01*
X190624285Y-108840952D02*
X190624285Y-108460000D01*
X190957619Y-108698095D02*
X190100476Y-108698095D01*
X190005238Y-108650476D01*
X189957619Y-108555238D01*
X189957619Y-108460000D01*
X189957619Y-107221904D02*
X190005238Y-107317142D01*
X190100476Y-107364761D01*
X190957619Y-107364761D01*
X189957619Y-106840952D02*
X190624285Y-106840952D01*
X190957619Y-106840952D02*
X190910000Y-106888571D01*
X190862380Y-106840952D01*
X190910000Y-106793333D01*
X190957619Y-106840952D01*
X190862380Y-106840952D01*
X189957619Y-106364761D02*
X190957619Y-106364761D01*
X190576666Y-106364761D02*
X190624285Y-106269523D01*
X190624285Y-106079047D01*
X190576666Y-105983809D01*
X190529047Y-105936190D01*
X190433809Y-105888571D01*
X190148095Y-105888571D01*
X190052857Y-105936190D01*
X190005238Y-105983809D01*
X189957619Y-106079047D01*
X189957619Y-106269523D01*
X190005238Y-106364761D01*
X189957619Y-105031428D02*
X190481428Y-105031428D01*
X190576666Y-105079047D01*
X190624285Y-105174285D01*
X190624285Y-105364761D01*
X190576666Y-105460000D01*
X190005238Y-105031428D02*
X189957619Y-105126666D01*
X189957619Y-105364761D01*
X190005238Y-105460000D01*
X190100476Y-105507619D01*
X190195714Y-105507619D01*
X190290952Y-105460000D01*
X190338571Y-105364761D01*
X190338571Y-105126666D01*
X190386190Y-105031428D01*
X189957619Y-104555238D02*
X190624285Y-104555238D01*
X190433809Y-104555238D02*
X190529047Y-104507619D01*
X190576666Y-104460000D01*
X190624285Y-104364761D01*
X190624285Y-104269523D01*
X190624285Y-104031428D02*
X189957619Y-103793333D01*
X190624285Y-103555238D02*
X189957619Y-103793333D01*
X189719523Y-103888571D01*
X189671904Y-103936190D01*
X189624285Y-104031428D01*
X190624285Y-102555238D02*
X190624285Y-102174285D01*
X190957619Y-102412380D02*
X190100476Y-102412380D01*
X190005238Y-102364761D01*
X189957619Y-102269523D01*
X189957619Y-102174285D01*
X189957619Y-101698095D02*
X190005238Y-101793333D01*
X190052857Y-101840952D01*
X190148095Y-101888571D01*
X190433809Y-101888571D01*
X190529047Y-101840952D01*
X190576666Y-101793333D01*
X190624285Y-101698095D01*
X190624285Y-101555238D01*
X190576666Y-101460000D01*
X190529047Y-101412380D01*
X190433809Y-101364761D01*
X190148095Y-101364761D01*
X190052857Y-101412380D01*
X190005238Y-101460000D01*
X189957619Y-101555238D01*
X189957619Y-101698095D01*
X189957619Y-99745714D02*
X190957619Y-99745714D01*
X190005238Y-99745714D02*
X189957619Y-99840952D01*
X189957619Y-100031428D01*
X190005238Y-100126666D01*
X190052857Y-100174285D01*
X190148095Y-100221904D01*
X190433809Y-100221904D01*
X190529047Y-100174285D01*
X190576666Y-100126666D01*
X190624285Y-100031428D01*
X190624285Y-99840952D01*
X190576666Y-99745714D01*
X189957619Y-99269523D02*
X190624285Y-99269523D01*
X190433809Y-99269523D02*
X190529047Y-99221904D01*
X190576666Y-99174285D01*
X190624285Y-99079047D01*
X190624285Y-98983809D01*
X189957619Y-98650476D02*
X190624285Y-98650476D01*
X190957619Y-98650476D02*
X190910000Y-98698095D01*
X190862380Y-98650476D01*
X190910000Y-98602857D01*
X190957619Y-98650476D01*
X190862380Y-98650476D01*
X190624285Y-98269523D02*
X189957619Y-98031428D01*
X190624285Y-97793333D01*
X190005238Y-97031428D02*
X189957619Y-97126666D01*
X189957619Y-97317142D01*
X190005238Y-97412380D01*
X190100476Y-97460000D01*
X190481428Y-97460000D01*
X190576666Y-97412380D01*
X190624285Y-97317142D01*
X190624285Y-97126666D01*
X190576666Y-97031428D01*
X190481428Y-96983809D01*
X190386190Y-96983809D01*
X190290952Y-97460000D01*
X190624285Y-95936190D02*
X190624285Y-95555238D01*
X190957619Y-95793333D02*
X190100476Y-95793333D01*
X190005238Y-95745714D01*
X189957619Y-95650476D01*
X189957619Y-95555238D01*
X189957619Y-95221904D02*
X190957619Y-95221904D01*
X189957619Y-94793333D02*
X190481428Y-94793333D01*
X190576666Y-94840952D01*
X190624285Y-94936190D01*
X190624285Y-95079047D01*
X190576666Y-95174285D01*
X190529047Y-95221904D01*
X190005238Y-93936190D02*
X189957619Y-94031428D01*
X189957619Y-94221904D01*
X190005238Y-94317142D01*
X190100476Y-94364761D01*
X190481428Y-94364761D01*
X190576666Y-94317142D01*
X190624285Y-94221904D01*
X190624285Y-94031428D01*
X190576666Y-93936190D01*
X190481428Y-93888571D01*
X190386190Y-93888571D01*
X190290952Y-94364761D01*
X189957619Y-92698095D02*
X190624285Y-92698095D01*
X190957619Y-92698095D02*
X190910000Y-92745714D01*
X190862380Y-92698095D01*
X190910000Y-92650476D01*
X190957619Y-92698095D01*
X190862380Y-92698095D01*
X190624285Y-92221904D02*
X189957619Y-92221904D01*
X190529047Y-92221904D02*
X190576666Y-92174285D01*
X190624285Y-92079047D01*
X190624285Y-91936190D01*
X190576666Y-91840952D01*
X190481428Y-91793333D01*
X189957619Y-91793333D01*
X190624285Y-91460000D02*
X190624285Y-91079047D01*
X190957619Y-91317142D02*
X190100476Y-91317142D01*
X190005238Y-91269523D01*
X189957619Y-91174285D01*
X189957619Y-91079047D01*
X190005238Y-90364761D02*
X189957619Y-90460000D01*
X189957619Y-90650476D01*
X190005238Y-90745714D01*
X190100476Y-90793333D01*
X190481428Y-90793333D01*
X190576666Y-90745714D01*
X190624285Y-90650476D01*
X190624285Y-90460000D01*
X190576666Y-90364761D01*
X190481428Y-90317142D01*
X190386190Y-90317142D01*
X190290952Y-90793333D01*
X189957619Y-89888571D02*
X190624285Y-89888571D01*
X190433809Y-89888571D02*
X190529047Y-89840952D01*
X190576666Y-89793333D01*
X190624285Y-89698095D01*
X190624285Y-89602857D01*
X190624285Y-89412380D02*
X190624285Y-89031428D01*
X189957619Y-89269523D02*
X190814761Y-89269523D01*
X190910000Y-89221904D01*
X190957619Y-89126666D01*
X190957619Y-89031428D01*
X189957619Y-88269523D02*
X190481428Y-88269523D01*
X190576666Y-88317142D01*
X190624285Y-88412380D01*
X190624285Y-88602857D01*
X190576666Y-88698095D01*
X190005238Y-88269523D02*
X189957619Y-88364761D01*
X189957619Y-88602857D01*
X190005238Y-88698095D01*
X190100476Y-88745714D01*
X190195714Y-88745714D01*
X190290952Y-88698095D01*
X190338571Y-88602857D01*
X190338571Y-88364761D01*
X190386190Y-88269523D01*
X190005238Y-87364761D02*
X189957619Y-87460000D01*
X189957619Y-87650476D01*
X190005238Y-87745714D01*
X190052857Y-87793333D01*
X190148095Y-87840952D01*
X190433809Y-87840952D01*
X190529047Y-87793333D01*
X190576666Y-87745714D01*
X190624285Y-87650476D01*
X190624285Y-87460000D01*
X190576666Y-87364761D01*
X190005238Y-86555238D02*
X189957619Y-86650476D01*
X189957619Y-86840952D01*
X190005238Y-86936190D01*
X190100476Y-86983809D01*
X190481428Y-86983809D01*
X190576666Y-86936190D01*
X190624285Y-86840952D01*
X190624285Y-86650476D01*
X190576666Y-86555238D01*
X190481428Y-86507619D01*
X190386190Y-86507619D01*
X190290952Y-86983809D01*
X188355238Y-118055238D02*
X188307619Y-118150476D01*
X188307619Y-118340952D01*
X188355238Y-118436190D01*
X188450476Y-118483809D01*
X188831428Y-118483809D01*
X188926666Y-118436190D01*
X188974285Y-118340952D01*
X188974285Y-118150476D01*
X188926666Y-118055238D01*
X188831428Y-118007619D01*
X188736190Y-118007619D01*
X188640952Y-118483809D01*
X188307619Y-117674285D02*
X188974285Y-117150476D01*
X188974285Y-117674285D02*
X188307619Y-117150476D01*
X188307619Y-116340952D02*
X188831428Y-116340952D01*
X188926666Y-116388571D01*
X188974285Y-116483809D01*
X188974285Y-116674285D01*
X188926666Y-116769523D01*
X188355238Y-116340952D02*
X188307619Y-116436190D01*
X188307619Y-116674285D01*
X188355238Y-116769523D01*
X188450476Y-116817142D01*
X188545714Y-116817142D01*
X188640952Y-116769523D01*
X188688571Y-116674285D01*
X188688571Y-116436190D01*
X188736190Y-116340952D01*
X188307619Y-115864761D02*
X188974285Y-115864761D01*
X188879047Y-115864761D02*
X188926666Y-115817142D01*
X188974285Y-115721904D01*
X188974285Y-115579047D01*
X188926666Y-115483809D01*
X188831428Y-115436190D01*
X188307619Y-115436190D01*
X188831428Y-115436190D02*
X188926666Y-115388571D01*
X188974285Y-115293333D01*
X188974285Y-115150476D01*
X188926666Y-115055238D01*
X188831428Y-115007619D01*
X188307619Y-115007619D01*
X188974285Y-114531428D02*
X187974285Y-114531428D01*
X188926666Y-114531428D02*
X188974285Y-114436190D01*
X188974285Y-114245714D01*
X188926666Y-114150476D01*
X188879047Y-114102857D01*
X188783809Y-114055238D01*
X188498095Y-114055238D01*
X188402857Y-114102857D01*
X188355238Y-114150476D01*
X188307619Y-114245714D01*
X188307619Y-114436190D01*
X188355238Y-114531428D01*
X188307619Y-113483809D02*
X188355238Y-113579047D01*
X188450476Y-113626666D01*
X189307619Y-113626666D01*
X188355238Y-112721904D02*
X188307619Y-112817142D01*
X188307619Y-113007619D01*
X188355238Y-113102857D01*
X188450476Y-113150476D01*
X188831428Y-113150476D01*
X188926666Y-113102857D01*
X188974285Y-113007619D01*
X188974285Y-112817142D01*
X188926666Y-112721904D01*
X188831428Y-112674285D01*
X188736190Y-112674285D01*
X188640952Y-113150476D01*
X188974285Y-111483809D02*
X187974285Y-111483809D01*
X188926666Y-111483809D02*
X188974285Y-111388571D01*
X188974285Y-111198095D01*
X188926666Y-111102857D01*
X188879047Y-111055238D01*
X188783809Y-111007619D01*
X188498095Y-111007619D01*
X188402857Y-111055238D01*
X188355238Y-111102857D01*
X188307619Y-111198095D01*
X188307619Y-111388571D01*
X188355238Y-111483809D01*
X188307619Y-110579047D02*
X188974285Y-110579047D01*
X188783809Y-110579047D02*
X188879047Y-110531428D01*
X188926666Y-110483809D01*
X188974285Y-110388571D01*
X188974285Y-110293333D01*
X188307619Y-109817142D02*
X188355238Y-109912380D01*
X188402857Y-109960000D01*
X188498095Y-110007619D01*
X188783809Y-110007619D01*
X188879047Y-109960000D01*
X188926666Y-109912380D01*
X188974285Y-109817142D01*
X188974285Y-109674285D01*
X188926666Y-109579047D01*
X188879047Y-109531428D01*
X188783809Y-109483809D01*
X188498095Y-109483809D01*
X188402857Y-109531428D01*
X188355238Y-109579047D01*
X188307619Y-109674285D01*
X188307619Y-109817142D01*
X188974285Y-108626666D02*
X188164761Y-108626666D01*
X188069523Y-108674285D01*
X188021904Y-108721904D01*
X187974285Y-108817142D01*
X187974285Y-108960000D01*
X188021904Y-109055238D01*
X188355238Y-108626666D02*
X188307619Y-108721904D01*
X188307619Y-108912380D01*
X188355238Y-109007619D01*
X188402857Y-109055238D01*
X188498095Y-109102857D01*
X188783809Y-109102857D01*
X188879047Y-109055238D01*
X188926666Y-109007619D01*
X188974285Y-108912380D01*
X188974285Y-108721904D01*
X188926666Y-108626666D01*
X188307619Y-108150476D02*
X188974285Y-108150476D01*
X188783809Y-108150476D02*
X188879047Y-108102857D01*
X188926666Y-108055238D01*
X188974285Y-107960000D01*
X188974285Y-107864761D01*
X188307619Y-107102857D02*
X188831428Y-107102857D01*
X188926666Y-107150476D01*
X188974285Y-107245714D01*
X188974285Y-107436190D01*
X188926666Y-107531428D01*
X188355238Y-107102857D02*
X188307619Y-107198095D01*
X188307619Y-107436190D01*
X188355238Y-107531428D01*
X188450476Y-107579047D01*
X188545714Y-107579047D01*
X188640952Y-107531428D01*
X188688571Y-107436190D01*
X188688571Y-107198095D01*
X188736190Y-107102857D01*
X188307619Y-106626666D02*
X188974285Y-106626666D01*
X188879047Y-106626666D02*
X188926666Y-106579047D01*
X188974285Y-106483809D01*
X188974285Y-106340952D01*
X188926666Y-106245714D01*
X188831428Y-106198095D01*
X188307619Y-106198095D01*
X188831428Y-106198095D02*
X188926666Y-106150476D01*
X188974285Y-106055238D01*
X188974285Y-105912380D01*
X188926666Y-105817142D01*
X188831428Y-105769523D01*
X188307619Y-105769523D01*
X188355238Y-105340952D02*
X188307619Y-105245714D01*
X188307619Y-105055238D01*
X188355238Y-104960000D01*
X188450476Y-104912380D01*
X188498095Y-104912380D01*
X188593333Y-104960000D01*
X188640952Y-105055238D01*
X188640952Y-105198095D01*
X188688571Y-105293333D01*
X188783809Y-105340952D01*
X188831428Y-105340952D01*
X188926666Y-105293333D01*
X188974285Y-105198095D01*
X188974285Y-105055238D01*
X188926666Y-104960000D01*
X188307619Y-103721904D02*
X188974285Y-103721904D01*
X188879047Y-103721904D02*
X188926666Y-103674285D01*
X188974285Y-103579047D01*
X188974285Y-103436190D01*
X188926666Y-103340952D01*
X188831428Y-103293333D01*
X188307619Y-103293333D01*
X188831428Y-103293333D02*
X188926666Y-103245714D01*
X188974285Y-103150476D01*
X188974285Y-103007619D01*
X188926666Y-102912380D01*
X188831428Y-102864761D01*
X188307619Y-102864761D01*
X188307619Y-101960000D02*
X188831428Y-101960000D01*
X188926666Y-102007619D01*
X188974285Y-102102857D01*
X188974285Y-102293333D01*
X188926666Y-102388571D01*
X188355238Y-101960000D02*
X188307619Y-102055238D01*
X188307619Y-102293333D01*
X188355238Y-102388571D01*
X188450476Y-102436190D01*
X188545714Y-102436190D01*
X188640952Y-102388571D01*
X188688571Y-102293333D01*
X188688571Y-102055238D01*
X188736190Y-101960000D01*
X188974285Y-101579047D02*
X188307619Y-101340952D01*
X188974285Y-101102857D02*
X188307619Y-101340952D01*
X188069523Y-101436190D01*
X188021904Y-101483809D01*
X187974285Y-101579047D01*
X188307619Y-99960000D02*
X189307619Y-99960000D01*
X188926666Y-99960000D02*
X188974285Y-99864761D01*
X188974285Y-99674285D01*
X188926666Y-99579047D01*
X188879047Y-99531428D01*
X188783809Y-99483809D01*
X188498095Y-99483809D01*
X188402857Y-99531428D01*
X188355238Y-99579047D01*
X188307619Y-99674285D01*
X188307619Y-99864761D01*
X188355238Y-99960000D01*
X188355238Y-98674285D02*
X188307619Y-98769523D01*
X188307619Y-98960000D01*
X188355238Y-99055238D01*
X188450476Y-99102857D01*
X188831428Y-99102857D01*
X188926666Y-99055238D01*
X188974285Y-98960000D01*
X188974285Y-98769523D01*
X188926666Y-98674285D01*
X188831428Y-98626666D01*
X188736190Y-98626666D01*
X188640952Y-99102857D01*
X188974285Y-97579047D02*
X188974285Y-97198095D01*
X188307619Y-97436190D02*
X189164761Y-97436190D01*
X189260000Y-97388571D01*
X189307619Y-97293333D01*
X189307619Y-97198095D01*
X188307619Y-96721904D02*
X188355238Y-96817142D01*
X188402857Y-96864761D01*
X188498095Y-96912380D01*
X188783809Y-96912380D01*
X188879047Y-96864761D01*
X188926666Y-96817142D01*
X188974285Y-96721904D01*
X188974285Y-96579047D01*
X188926666Y-96483809D01*
X188879047Y-96436190D01*
X188783809Y-96388571D01*
X188498095Y-96388571D01*
X188402857Y-96436190D01*
X188355238Y-96483809D01*
X188307619Y-96579047D01*
X188307619Y-96721904D01*
X188974285Y-95531428D02*
X188307619Y-95531428D01*
X188974285Y-95960000D02*
X188450476Y-95960000D01*
X188355238Y-95912380D01*
X188307619Y-95817142D01*
X188307619Y-95674285D01*
X188355238Y-95579047D01*
X188402857Y-95531428D01*
X188974285Y-95055238D02*
X188307619Y-95055238D01*
X188879047Y-95055238D02*
X188926666Y-95007619D01*
X188974285Y-94912380D01*
X188974285Y-94769523D01*
X188926666Y-94674285D01*
X188831428Y-94626666D01*
X188307619Y-94626666D01*
X188307619Y-93721904D02*
X189307619Y-93721904D01*
X188355238Y-93721904D02*
X188307619Y-93817142D01*
X188307619Y-94007619D01*
X188355238Y-94102857D01*
X188402857Y-94150476D01*
X188498095Y-94198095D01*
X188783809Y-94198095D01*
X188879047Y-94150476D01*
X188926666Y-94102857D01*
X188974285Y-94007619D01*
X188974285Y-93817142D01*
X188926666Y-93721904D01*
X188307619Y-92055238D02*
X188831428Y-92055238D01*
X188926666Y-92102857D01*
X188974285Y-92198095D01*
X188974285Y-92388571D01*
X188926666Y-92483809D01*
X188355238Y-92055238D02*
X188307619Y-92150476D01*
X188307619Y-92388571D01*
X188355238Y-92483809D01*
X188450476Y-92531428D01*
X188545714Y-92531428D01*
X188640952Y-92483809D01*
X188688571Y-92388571D01*
X188688571Y-92150476D01*
X188736190Y-92055238D01*
X188974285Y-91721904D02*
X188974285Y-91340952D01*
X189307619Y-91579047D02*
X188450476Y-91579047D01*
X188355238Y-91531428D01*
X188307619Y-91436190D01*
X188307619Y-91340952D01*
X186657619Y-119340952D02*
X187657619Y-119340952D01*
X186657619Y-118912380D02*
X187181428Y-118912380D01*
X187276666Y-118960000D01*
X187324285Y-119055238D01*
X187324285Y-119198095D01*
X187276666Y-119293333D01*
X187229047Y-119340952D01*
X187324285Y-118579047D02*
X187324285Y-118198095D01*
X187657619Y-118436190D02*
X186800476Y-118436190D01*
X186705238Y-118388571D01*
X186657619Y-118293333D01*
X186657619Y-118198095D01*
X187324285Y-118007619D02*
X187324285Y-117626666D01*
X187657619Y-117864761D02*
X186800476Y-117864761D01*
X186705238Y-117817142D01*
X186657619Y-117721904D01*
X186657619Y-117626666D01*
X187324285Y-117293333D02*
X186324285Y-117293333D01*
X187276666Y-117293333D02*
X187324285Y-117198095D01*
X187324285Y-117007619D01*
X187276666Y-116912380D01*
X187229047Y-116864761D01*
X187133809Y-116817142D01*
X186848095Y-116817142D01*
X186752857Y-116864761D01*
X186705238Y-116912380D01*
X186657619Y-117007619D01*
X186657619Y-117198095D01*
X186705238Y-117293333D01*
X186705238Y-116436190D02*
X186657619Y-116340952D01*
X186657619Y-116150476D01*
X186705238Y-116055238D01*
X186800476Y-116007619D01*
X186848095Y-116007619D01*
X186943333Y-116055238D01*
X186990952Y-116150476D01*
X186990952Y-116293333D01*
X187038571Y-116388571D01*
X187133809Y-116436190D01*
X187181428Y-116436190D01*
X187276666Y-116388571D01*
X187324285Y-116293333D01*
X187324285Y-116150476D01*
X187276666Y-116055238D01*
X186752857Y-115579047D02*
X186705238Y-115531428D01*
X186657619Y-115579047D01*
X186705238Y-115626666D01*
X186752857Y-115579047D01*
X186657619Y-115579047D01*
X187276666Y-115579047D02*
X187229047Y-115531428D01*
X187181428Y-115579047D01*
X187229047Y-115626666D01*
X187276666Y-115579047D01*
X187181428Y-115579047D01*
X187705238Y-114388571D02*
X186419523Y-115245714D01*
X187705238Y-113340952D02*
X186419523Y-114198095D01*
X186657619Y-113007619D02*
X187324285Y-113007619D01*
X187229047Y-113007619D02*
X187276666Y-112960000D01*
X187324285Y-112864761D01*
X187324285Y-112721904D01*
X187276666Y-112626666D01*
X187181428Y-112579047D01*
X186657619Y-112579047D01*
X187181428Y-112579047D02*
X187276666Y-112531428D01*
X187324285Y-112436190D01*
X187324285Y-112293333D01*
X187276666Y-112198095D01*
X187181428Y-112150476D01*
X186657619Y-112150476D01*
X186657619Y-111674285D02*
X187324285Y-111674285D01*
X187133809Y-111674285D02*
X187229047Y-111626666D01*
X187276666Y-111579047D01*
X187324285Y-111483809D01*
X187324285Y-111388571D01*
X186657619Y-111055238D02*
X187324285Y-111055238D01*
X187133809Y-111055238D02*
X187229047Y-111007619D01*
X187276666Y-110960000D01*
X187324285Y-110864761D01*
X187324285Y-110769523D01*
X187324285Y-110531428D02*
X186657619Y-110340952D01*
X187133809Y-110150476D01*
X186657619Y-109960000D01*
X187324285Y-109769523D01*
X186657619Y-108960000D02*
X187181428Y-108960000D01*
X187276666Y-109007619D01*
X187324285Y-109102857D01*
X187324285Y-109293333D01*
X187276666Y-109388571D01*
X186705238Y-108960000D02*
X186657619Y-109055238D01*
X186657619Y-109293333D01*
X186705238Y-109388571D01*
X186800476Y-109436190D01*
X186895714Y-109436190D01*
X186990952Y-109388571D01*
X187038571Y-109293333D01*
X187038571Y-109055238D01*
X187086190Y-108960000D01*
X186752857Y-108483809D02*
X186705238Y-108436190D01*
X186657619Y-108483809D01*
X186705238Y-108531428D01*
X186752857Y-108483809D01*
X186657619Y-108483809D01*
X186657619Y-107864761D02*
X186705238Y-107960000D01*
X186752857Y-108007619D01*
X186848095Y-108055238D01*
X187133809Y-108055238D01*
X187229047Y-108007619D01*
X187276666Y-107960000D01*
X187324285Y-107864761D01*
X187324285Y-107721904D01*
X187276666Y-107626666D01*
X187229047Y-107579047D01*
X187133809Y-107531428D01*
X186848095Y-107531428D01*
X186752857Y-107579047D01*
X186705238Y-107626666D01*
X186657619Y-107721904D01*
X186657619Y-107864761D01*
X186657619Y-107102857D02*
X187324285Y-107102857D01*
X187133809Y-107102857D02*
X187229047Y-107055238D01*
X187276666Y-107007619D01*
X187324285Y-106912380D01*
X187324285Y-106817142D01*
X187324285Y-106055238D02*
X186514761Y-106055238D01*
X186419523Y-106102857D01*
X186371904Y-106150476D01*
X186324285Y-106245714D01*
X186324285Y-106388571D01*
X186371904Y-106483809D01*
X186705238Y-106055238D02*
X186657619Y-106150476D01*
X186657619Y-106340952D01*
X186705238Y-106436190D01*
X186752857Y-106483809D01*
X186848095Y-106531428D01*
X187133809Y-106531428D01*
X187229047Y-106483809D01*
X187276666Y-106436190D01*
X187324285Y-106340952D01*
X187324285Y-106150476D01*
X187276666Y-106055238D01*
X187705238Y-104864761D02*
X186419523Y-105721904D01*
X186657619Y-104388571D02*
X186705238Y-104483809D01*
X186800476Y-104531428D01*
X187657619Y-104531428D01*
X186657619Y-103864761D02*
X186705238Y-103960000D01*
X186752857Y-104007619D01*
X186848095Y-104055238D01*
X187133809Y-104055238D01*
X187229047Y-104007619D01*
X187276666Y-103960000D01*
X187324285Y-103864761D01*
X187324285Y-103721904D01*
X187276666Y-103626666D01*
X187229047Y-103579047D01*
X187133809Y-103531428D01*
X186848095Y-103531428D01*
X186752857Y-103579047D01*
X186705238Y-103626666D01*
X186657619Y-103721904D01*
X186657619Y-103864761D01*
X186705238Y-102674285D02*
X186657619Y-102769523D01*
X186657619Y-102960000D01*
X186705238Y-103055238D01*
X186752857Y-103102857D01*
X186848095Y-103150476D01*
X187133809Y-103150476D01*
X187229047Y-103102857D01*
X187276666Y-103055238D01*
X187324285Y-102960000D01*
X187324285Y-102769523D01*
X187276666Y-102674285D01*
X186657619Y-102102857D02*
X186705238Y-102198095D01*
X186752857Y-102245714D01*
X186848095Y-102293333D01*
X187133809Y-102293333D01*
X187229047Y-102245714D01*
X187276666Y-102198095D01*
X187324285Y-102102857D01*
X187324285Y-101960000D01*
X187276666Y-101864761D01*
X187229047Y-101817142D01*
X187133809Y-101769523D01*
X186848095Y-101769523D01*
X186752857Y-101817142D01*
X186705238Y-101864761D01*
X186657619Y-101960000D01*
X186657619Y-102102857D01*
X187324285Y-101340952D02*
X186657619Y-101340952D01*
X187229047Y-101340952D02*
X187276666Y-101293333D01*
X187324285Y-101198095D01*
X187324285Y-101055238D01*
X187276666Y-100960000D01*
X187181428Y-100912380D01*
X186657619Y-100912380D01*
X186705238Y-100055238D02*
X186657619Y-100150476D01*
X186657619Y-100340952D01*
X186705238Y-100436190D01*
X186800476Y-100483809D01*
X187181428Y-100483809D01*
X187276666Y-100436190D01*
X187324285Y-100340952D01*
X187324285Y-100150476D01*
X187276666Y-100055238D01*
X187181428Y-100007619D01*
X187086190Y-100007619D01*
X186990952Y-100483809D01*
X187324285Y-99721904D02*
X187324285Y-99340952D01*
X187657619Y-99579047D02*
X186800476Y-99579047D01*
X186705238Y-99531428D01*
X186657619Y-99436190D01*
X186657619Y-99340952D01*
X187038571Y-99007619D02*
X187038571Y-98245714D01*
X186657619Y-97769523D02*
X187324285Y-97769523D01*
X187657619Y-97769523D02*
X187610000Y-97817142D01*
X187562380Y-97769523D01*
X187610000Y-97721904D01*
X187657619Y-97769523D01*
X187562380Y-97769523D01*
X187324285Y-97293333D02*
X186657619Y-97293333D01*
X187229047Y-97293333D02*
X187276666Y-97245714D01*
X187324285Y-97150476D01*
X187324285Y-97007619D01*
X187276666Y-96912380D01*
X187181428Y-96864761D01*
X186657619Y-96864761D01*
X187324285Y-96531428D02*
X187324285Y-96150476D01*
X187657619Y-96388571D02*
X186800476Y-96388571D01*
X186705238Y-96340952D01*
X186657619Y-96245714D01*
X186657619Y-96150476D01*
X186705238Y-95436190D02*
X186657619Y-95531428D01*
X186657619Y-95721904D01*
X186705238Y-95817142D01*
X186800476Y-95864761D01*
X187181428Y-95864761D01*
X187276666Y-95817142D01*
X187324285Y-95721904D01*
X187324285Y-95531428D01*
X187276666Y-95436190D01*
X187181428Y-95388571D01*
X187086190Y-95388571D01*
X186990952Y-95864761D01*
X186657619Y-94960000D02*
X187324285Y-94960000D01*
X187133809Y-94960000D02*
X187229047Y-94912380D01*
X187276666Y-94864761D01*
X187324285Y-94769523D01*
X187324285Y-94674285D01*
X187324285Y-94483809D02*
X187324285Y-94102857D01*
X186657619Y-94340952D02*
X187514761Y-94340952D01*
X187610000Y-94293333D01*
X187657619Y-94198095D01*
X187657619Y-94102857D01*
X186657619Y-93340952D02*
X187181428Y-93340952D01*
X187276666Y-93388571D01*
X187324285Y-93483809D01*
X187324285Y-93674285D01*
X187276666Y-93769523D01*
X186705238Y-93340952D02*
X186657619Y-93436190D01*
X186657619Y-93674285D01*
X186705238Y-93769523D01*
X186800476Y-93817142D01*
X186895714Y-93817142D01*
X186990952Y-93769523D01*
X187038571Y-93674285D01*
X187038571Y-93436190D01*
X187086190Y-93340952D01*
X186705238Y-92436190D02*
X186657619Y-92531428D01*
X186657619Y-92721904D01*
X186705238Y-92817142D01*
X186752857Y-92864761D01*
X186848095Y-92912380D01*
X187133809Y-92912380D01*
X187229047Y-92864761D01*
X187276666Y-92817142D01*
X187324285Y-92721904D01*
X187324285Y-92531428D01*
X187276666Y-92436190D01*
X186705238Y-91626666D02*
X186657619Y-91721904D01*
X186657619Y-91912380D01*
X186705238Y-92007619D01*
X186800476Y-92055238D01*
X187181428Y-92055238D01*
X187276666Y-92007619D01*
X187324285Y-91912380D01*
X187324285Y-91721904D01*
X187276666Y-91626666D01*
X187181428Y-91579047D01*
X187086190Y-91579047D01*
X186990952Y-92055238D01*
X187705238Y-90436190D02*
X186419523Y-91293333D01*
D11*
X191931904Y-85810380D02*
X191931904Y-85962761D01*
X191970000Y-86038952D01*
X192046190Y-86115142D01*
X192198571Y-86153238D01*
X192465238Y-86153238D01*
X192617619Y-86115142D01*
X192693809Y-86038952D01*
X192731904Y-85962761D01*
X192731904Y-85810380D01*
X192693809Y-85734190D01*
X192617619Y-85658000D01*
X192465238Y-85619904D01*
X192198571Y-85619904D01*
X192046190Y-85658000D01*
X191970000Y-85734190D01*
X191931904Y-85810380D01*
X192198571Y-86496095D02*
X192998571Y-86496095D01*
X192236666Y-86496095D02*
X192198571Y-86572285D01*
X192198571Y-86724666D01*
X192236666Y-86800857D01*
X192274761Y-86838952D01*
X192350952Y-86877047D01*
X192579523Y-86877047D01*
X192655714Y-86838952D01*
X192693809Y-86800857D01*
X192731904Y-86724666D01*
X192731904Y-86572285D01*
X192693809Y-86496095D01*
X192693809Y-87524666D02*
X192731904Y-87448476D01*
X192731904Y-87296095D01*
X192693809Y-87219904D01*
X192617619Y-87181809D01*
X192312857Y-87181809D01*
X192236666Y-87219904D01*
X192198571Y-87296095D01*
X192198571Y-87448476D01*
X192236666Y-87524666D01*
X192312857Y-87562761D01*
X192389047Y-87562761D01*
X192465238Y-87181809D01*
X192198571Y-87905619D02*
X192731904Y-87905619D01*
X192274761Y-87905619D02*
X192236666Y-87943714D01*
X192198571Y-88019904D01*
X192198571Y-88134190D01*
X192236666Y-88210380D01*
X192312857Y-88248476D01*
X192731904Y-88248476D01*
X192693809Y-89200857D02*
X192731904Y-89315142D01*
X192731904Y-89505619D01*
X192693809Y-89581809D01*
X192655714Y-89619904D01*
X192579523Y-89658000D01*
X192503333Y-89658000D01*
X192427142Y-89619904D01*
X192389047Y-89581809D01*
X192350952Y-89505619D01*
X192312857Y-89353238D01*
X192274761Y-89277047D01*
X192236666Y-89238952D01*
X192160476Y-89200857D01*
X192084285Y-89200857D01*
X192008095Y-89238952D01*
X191970000Y-89277047D01*
X191931904Y-89353238D01*
X191931904Y-89543714D01*
X191970000Y-89658000D01*
X192731904Y-90115142D02*
X192693809Y-90038952D01*
X192655714Y-90000857D01*
X192579523Y-89962761D01*
X192350952Y-89962761D01*
X192274761Y-90000857D01*
X192236666Y-90038952D01*
X192198571Y-90115142D01*
X192198571Y-90229428D01*
X192236666Y-90305619D01*
X192274761Y-90343714D01*
X192350952Y-90381809D01*
X192579523Y-90381809D01*
X192655714Y-90343714D01*
X192693809Y-90305619D01*
X192731904Y-90229428D01*
X192731904Y-90115142D01*
X192198571Y-91067523D02*
X192731904Y-91067523D01*
X192198571Y-90724666D02*
X192617619Y-90724666D01*
X192693809Y-90762761D01*
X192731904Y-90838952D01*
X192731904Y-90953238D01*
X192693809Y-91029428D01*
X192655714Y-91067523D01*
X192731904Y-91448476D02*
X192198571Y-91448476D01*
X192350952Y-91448476D02*
X192274761Y-91486571D01*
X192236666Y-91524666D01*
X192198571Y-91600857D01*
X192198571Y-91677047D01*
X192693809Y-92286571D02*
X192731904Y-92210380D01*
X192731904Y-92058000D01*
X192693809Y-91981809D01*
X192655714Y-91943714D01*
X192579523Y-91905619D01*
X192350952Y-91905619D01*
X192274761Y-91943714D01*
X192236666Y-91981809D01*
X192198571Y-92058000D01*
X192198571Y-92210380D01*
X192236666Y-92286571D01*
X192693809Y-92934190D02*
X192731904Y-92858000D01*
X192731904Y-92705619D01*
X192693809Y-92629428D01*
X192617619Y-92591333D01*
X192312857Y-92591333D01*
X192236666Y-92629428D01*
X192198571Y-92705619D01*
X192198571Y-92858000D01*
X192236666Y-92934190D01*
X192312857Y-92972285D01*
X192389047Y-92972285D01*
X192465238Y-92591333D01*
X192731904Y-93924666D02*
X191931904Y-93924666D01*
X192312857Y-93924666D02*
X192312857Y-94381809D01*
X192731904Y-94381809D02*
X191931904Y-94381809D01*
X192731904Y-95105619D02*
X192312857Y-95105619D01*
X192236666Y-95067523D01*
X192198571Y-94991333D01*
X192198571Y-94838952D01*
X192236666Y-94762761D01*
X192693809Y-95105619D02*
X192731904Y-95029428D01*
X192731904Y-94838952D01*
X192693809Y-94762761D01*
X192617619Y-94724666D01*
X192541428Y-94724666D01*
X192465238Y-94762761D01*
X192427142Y-94838952D01*
X192427142Y-95029428D01*
X192389047Y-95105619D01*
X192731904Y-95486571D02*
X192198571Y-95486571D01*
X192350952Y-95486571D02*
X192274761Y-95524666D01*
X192236666Y-95562761D01*
X192198571Y-95638952D01*
X192198571Y-95715142D01*
X192731904Y-96324666D02*
X191931904Y-96324666D01*
X192693809Y-96324666D02*
X192731904Y-96248476D01*
X192731904Y-96096095D01*
X192693809Y-96019904D01*
X192655714Y-95981809D01*
X192579523Y-95943714D01*
X192350952Y-95943714D01*
X192274761Y-95981809D01*
X192236666Y-96019904D01*
X192198571Y-96096095D01*
X192198571Y-96248476D01*
X192236666Y-96324666D01*
X192198571Y-96629428D02*
X192731904Y-96781809D01*
X192350952Y-96934190D01*
X192731904Y-97086571D01*
X192198571Y-97238952D01*
X192731904Y-97886571D02*
X192312857Y-97886571D01*
X192236666Y-97848476D01*
X192198571Y-97772285D01*
X192198571Y-97619904D01*
X192236666Y-97543714D01*
X192693809Y-97886571D02*
X192731904Y-97810380D01*
X192731904Y-97619904D01*
X192693809Y-97543714D01*
X192617619Y-97505619D01*
X192541428Y-97505619D01*
X192465238Y-97543714D01*
X192427142Y-97619904D01*
X192427142Y-97810380D01*
X192389047Y-97886571D01*
X192731904Y-98267523D02*
X192198571Y-98267523D01*
X192350952Y-98267523D02*
X192274761Y-98305619D01*
X192236666Y-98343714D01*
X192198571Y-98419904D01*
X192198571Y-98496095D01*
X192693809Y-99067523D02*
X192731904Y-98991333D01*
X192731904Y-98838952D01*
X192693809Y-98762761D01*
X192617619Y-98724666D01*
X192312857Y-98724666D01*
X192236666Y-98762761D01*
X192198571Y-98838952D01*
X192198571Y-98991333D01*
X192236666Y-99067523D01*
X192312857Y-99105619D01*
X192389047Y-99105619D01*
X192465238Y-98724666D01*
%LPC*%
D12*
X120150000Y-91650000D03*
D13*
X120150000Y-89110000D03*
D14*
X143500000Y-93730000D03*
X143500000Y-92460000D03*
D15*
X143500000Y-95000000D03*
D16*
X191000000Y-129000000D03*
G36*
G01*
X179115000Y-121710000D02*
X177365000Y-121710000D01*
G75*
G02*
X176490000Y-120835000I0J875000D01*
G01*
X176490000Y-119085000D01*
G75*
G02*
X177365000Y-118210000I875000J0D01*
G01*
X179115000Y-118210000D01*
G75*
G02*
X179990000Y-119085000I0J-875000D01*
G01*
X179990000Y-120835000D01*
G75*
G02*
X179115000Y-121710000I-875000J0D01*
G01*
G37*
G36*
G01*
X174540000Y-124460000D02*
X172540000Y-124460000D01*
G75*
G02*
X171790000Y-123710000I0J750000D01*
G01*
X171790000Y-122210000D01*
G75*
G02*
X172540000Y-121460000I750000J0D01*
G01*
X174540000Y-121460000D01*
G75*
G02*
X175290000Y-122210000I0J-750000D01*
G01*
X175290000Y-123710000D01*
G75*
G02*
X174540000Y-124460000I-750000J0D01*
G01*
G37*
D17*
X173540000Y-116960000D03*
D16*
X191000000Y-73000000D03*
X115000000Y-129000000D03*
X115000000Y-73000000D03*
D18*
X166370000Y-112880000D03*
X167640000Y-112880000D03*
D19*
X165100000Y-112880000D03*
D20*
X155111000Y-123843600D03*
X144951000Y-123843600D03*
D21*
X153206000Y-117493600D03*
X146856000Y-114953600D03*
X151936000Y-114953600D03*
X148126000Y-117493600D03*
X149396000Y-114953600D03*
X150666000Y-117493600D03*
D22*
X165460000Y-106000000D03*
D23*
X168000000Y-106000000D03*
D22*
X125980000Y-101740000D03*
X125980000Y-86500000D03*
X161540000Y-101740000D03*
X128520000Y-86500000D03*
X159000000Y-101740000D03*
X131060000Y-86500000D03*
X156460000Y-101740000D03*
X133600000Y-86500000D03*
X153920000Y-101740000D03*
X136140000Y-86500000D03*
X151380000Y-101740000D03*
X138680000Y-86500000D03*
X148840000Y-101740000D03*
X141220000Y-86500000D03*
X146300000Y-101740000D03*
X143760000Y-86500000D03*
X143760000Y-101740000D03*
X146300000Y-86500000D03*
X141220000Y-101740000D03*
X148840000Y-86500000D03*
X138680000Y-101740000D03*
X151380000Y-86500000D03*
X136140000Y-101740000D03*
X153920000Y-86500000D03*
X133600000Y-101740000D03*
X156460000Y-86500000D03*
X131060000Y-101740000D03*
X159000000Y-86500000D03*
X128520000Y-101740000D03*
D24*
X161540000Y-86500000D03*
D20*
X137260000Y-123840000D03*
X127100000Y-123840000D03*
D21*
X135355000Y-117490000D03*
X129005000Y-114950000D03*
X134085000Y-114950000D03*
X130275000Y-117490000D03*
X131545000Y-114950000D03*
X132815000Y-117490000D03*
D25*
X159102200Y-113000000D03*
X161997800Y-113000000D03*
D26*
X163560000Y-97883200D03*
D27*
X155940000Y-90263200D03*
X163560000Y-95343200D03*
X155940000Y-92803200D03*
X163560000Y-92803200D03*
X155940000Y-95343200D03*
X163560000Y-90263200D03*
X155940000Y-97883200D03*
D28*
X120000000Y-114500000D03*
D29*
X122540000Y-114500000D03*
D13*
X125940000Y-109000000D03*
X128480000Y-109000000D03*
X131020000Y-109000000D03*
X133560000Y-109000000D03*
X136100000Y-109000000D03*
X138640000Y-109000000D03*
X141180000Y-109000000D03*
X143720000Y-109000000D03*
X146260000Y-109000000D03*
X148800000Y-109000000D03*
X151340000Y-109000000D03*
X153880000Y-109000000D03*
X156420000Y-109000000D03*
X158960000Y-109000000D03*
D12*
X161500000Y-109000000D03*
D13*
X125940000Y-106500000D03*
X128480000Y-106500000D03*
X131020000Y-106500000D03*
X133560000Y-106500000D03*
X136100000Y-106500000D03*
X138640000Y-106500000D03*
X141180000Y-106500000D03*
X143720000Y-106500000D03*
X146260000Y-106500000D03*
X148800000Y-106500000D03*
X151340000Y-106500000D03*
X153880000Y-106500000D03*
X156420000Y-106500000D03*
X158960000Y-106500000D03*
D12*
X161500000Y-106500000D03*
X161601600Y-81000000D03*
D13*
X159061600Y-81000000D03*
X156521600Y-81000000D03*
X153981600Y-81000000D03*
X151441600Y-81000000D03*
X148901600Y-81000000D03*
X146361600Y-81000000D03*
X143821600Y-81000000D03*
X141281600Y-81000000D03*
X138741600Y-81000000D03*
X136201600Y-81000000D03*
X133661600Y-81000000D03*
X131121600Y-81000000D03*
X128581600Y-81000000D03*
X126041600Y-81000000D03*
D12*
X161601600Y-75988400D03*
D13*
X159061600Y-75988400D03*
X156521600Y-75988400D03*
X153981600Y-75988400D03*
X151441600Y-75988400D03*
X148901600Y-75988400D03*
X146361600Y-75988400D03*
X143821600Y-75988400D03*
X141281600Y-75988400D03*
X138741600Y-75988400D03*
X136201600Y-75988400D03*
X133661600Y-75988400D03*
X131121600Y-75988400D03*
X128581600Y-75988400D03*
X126041600Y-75988400D03*
D12*
X141296000Y-78477600D03*
X133676000Y-78477600D03*
X131136000Y-78500000D03*
X128596000Y-78503000D03*
X143810600Y-78477600D03*
X148916000Y-78500000D03*
D22*
X136000000Y-90380000D03*
D23*
X136000000Y-98000000D03*
X130000000Y-90568000D03*
D22*
X130000000Y-98188000D03*
X148789000Y-90237800D03*
D23*
X148789000Y-97857800D03*
X133000000Y-90500000D03*
D22*
X133000000Y-98120000D03*
D23*
X124000000Y-98270000D03*
D22*
X124000000Y-90650000D03*
D23*
X139000000Y-90466400D03*
D22*
X139000000Y-98086400D03*
X127000000Y-90610000D03*
D23*
X127000000Y-98230000D03*
X122500000Y-102000000D03*
D22*
X122500000Y-109620000D03*
D24*
X186500000Y-76500000D03*
D22*
X168720000Y-89200000D03*
X183960000Y-76500000D03*
X171260000Y-89200000D03*
X181420000Y-76500000D03*
X173800000Y-89200000D03*
X178880000Y-76500000D03*
X176340000Y-89200000D03*
X176340000Y-76500000D03*
X178880000Y-89200000D03*
X173800000Y-76500000D03*
X181420000Y-89200000D03*
X171260000Y-76500000D03*
X183960000Y-89200000D03*
X168720000Y-76500000D03*
X186500000Y-89200000D03*
D24*
X185000000Y-102000000D03*
D23*
X181200000Y-102000000D03*
D24*
X176000000Y-102000000D03*
D23*
X171000000Y-102000000D03*
D12*
X181500000Y-73000000D03*
D13*
X178960000Y-73000000D03*
X176420000Y-73000000D03*
X173880000Y-73000000D03*
D30*
X178800000Y-109140000D03*
D31*
X176260000Y-109140000D03*
X173720000Y-109140000D03*
D32*
X161000000Y-124000000D03*
D33*
X164500000Y-124000000D03*
D12*
X171500000Y-95000000D03*
D13*
X171500000Y-92460000D03*
X174040000Y-95000000D03*
X174040000Y-92460000D03*
X176580000Y-95000000D03*
X176580000Y-92460000D03*
X179120000Y-95000000D03*
X179120000Y-92460000D03*
X181660000Y-95000000D03*
X181660000Y-92460000D03*
D23*
X152390000Y-97780000D03*
D22*
X152390000Y-90160000D03*
D12*
X117310000Y-78290000D03*
D13*
X117310000Y-80830000D03*
X117310000Y-83370000D03*
X117310000Y-85910000D03*
X123170000Y-121410000D03*
X120630000Y-121410000D03*
X118090000Y-121410000D03*
D12*
X115550000Y-121410000D03*
X179980000Y-124360000D03*
D13*
X182520000Y-124360000D03*
X185060000Y-124360000D03*
X187600000Y-124360000D03*
M02*
